%TF.GenerationSoftware,KiCad,Pcbnew,(6.0.4)*%
%TF.CreationDate,2022-07-25T21:25:33-05:00*%
%TF.ProjectId,SchiitBox,53636869-6974-4426-9f78-2e6b69636164,rev?*%
%TF.SameCoordinates,Original*%
%TF.FileFunction,Profile,NP*%
%FSLAX46Y46*%
G04 Gerber Fmt 4.6, Leading zero omitted, Abs format (unit mm)*
G04 Created by KiCad (PCBNEW (6.0.4)) date 2022-07-25 21:25:33*
%MOMM*%
%LPD*%
G01*
G04 APERTURE LIST*
%TA.AperFunction,Profile*%
%ADD10C,0.050000*%
%TD*%
G04 APERTURE END LIST*
D10*
X44100000Y-84600000D02*
G75*
G03*
X42100000Y-86600000I0J-2000000D01*
G01*
X122200000Y-84600600D02*
G75*
G03*
X121600000Y-85200624I0J-600000D01*
G01*
X119600000Y-91200000D02*
G75*
G03*
X121600000Y-89200000I0J2000000D01*
G01*
X98850000Y-85900000D02*
G75*
G03*
X98850000Y-84600000I0J650000D01*
G01*
X140000000Y-20500000D02*
X22000000Y-20500000D01*
X20000000Y-22500000D02*
X20000000Y-97800000D01*
X44000000Y-85900000D02*
G75*
G03*
X43400000Y-86500000I0J-600000D01*
G01*
X109100000Y-84600000D02*
X103150000Y-84600000D01*
X40100000Y-99800000D02*
G75*
G03*
X42100000Y-97800000I0J2000000D01*
G01*
X109800000Y-86500000D02*
G75*
G03*
X109200000Y-85900000I-600000J0D01*
G01*
X43400000Y-95700000D02*
X43400000Y-105300000D01*
X98850000Y-84600000D02*
X44100000Y-84600000D01*
X44000000Y-105900000D02*
X109200001Y-105899999D01*
X140000000Y-84600000D02*
G75*
G03*
X142000000Y-82600000I0J2000000D01*
G01*
X40100000Y-99800000D02*
X22000000Y-99800000D01*
X103150000Y-85900000D02*
X109200000Y-85900000D01*
X111100000Y-86600000D02*
G75*
G03*
X109100000Y-84600000I-2000000J0D01*
G01*
X53300000Y-85900000D02*
X44000000Y-85900000D01*
X109800001Y-105299999D02*
X109800000Y-86500000D01*
X142000000Y-82600000D02*
X142000000Y-22500000D01*
X111100000Y-89200000D02*
X111100000Y-86600000D01*
X98850000Y-85900000D02*
X53300000Y-85900000D01*
X140000000Y-84600000D02*
X122200000Y-84600624D01*
X42100000Y-95700000D02*
X42100000Y-97800000D01*
X121600000Y-85200624D02*
X121600000Y-89200000D01*
X142000000Y-22500000D02*
G75*
G03*
X140000000Y-20500000I-2000000J0D01*
G01*
X119600000Y-91200000D02*
X113100000Y-91200000D01*
X22000000Y-20500000D02*
G75*
G03*
X20000000Y-22500000I0J-2000000D01*
G01*
X109200001Y-105900001D02*
G75*
G03*
X109800001Y-105299999I-1J600001D01*
G01*
X43400000Y-95700000D02*
G75*
G03*
X42100000Y-95700000I-650000J0D01*
G01*
X103150000Y-84600000D02*
G75*
G03*
X103150000Y-85900000I0J-650000D01*
G01*
X42100000Y-86600000D02*
X42100000Y-91400000D01*
X43400000Y-105300000D02*
G75*
G03*
X44000000Y-105900000I600000J0D01*
G01*
X20000000Y-97800000D02*
G75*
G03*
X22000000Y-99800000I2000000J0D01*
G01*
X42100000Y-91400000D02*
G75*
G03*
X43400000Y-91400000I650000J0D01*
G01*
X111100000Y-89200000D02*
G75*
G03*
X113100000Y-91200000I2000000J0D01*
G01*
X43400000Y-86500000D02*
X43400000Y-91400000D01*
M02*
