%TF.GenerationSoftware,KiCad,Pcbnew,(6.0.4)*%
%TF.CreationDate,2022-07-25T21:25:33-05:00*%
%TF.ProjectId,SchiitBox,53636869-6974-4426-9f78-2e6b69636164,rev?*%
%TF.SameCoordinates,Original*%
%TF.FileFunction,Copper,L1,Top*%
%TF.FilePolarity,Positive*%
%FSLAX46Y46*%
G04 Gerber Fmt 4.6, Leading zero omitted, Abs format (unit mm)*
G04 Created by KiCad (PCBNEW (6.0.4)) date 2022-07-25 21:25:33*
%MOMM*%
%LPD*%
G01*
G04 APERTURE LIST*
G04 Aperture macros list*
%AMRoundRect*
0 Rectangle with rounded corners*
0 $1 Rounding radius*
0 $2 $3 $4 $5 $6 $7 $8 $9 X,Y pos of 4 corners*
0 Add a 4 corners polygon primitive as box body*
4,1,4,$2,$3,$4,$5,$6,$7,$8,$9,$2,$3,0*
0 Add four circle primitives for the rounded corners*
1,1,$1+$1,$2,$3*
1,1,$1+$1,$4,$5*
1,1,$1+$1,$6,$7*
1,1,$1+$1,$8,$9*
0 Add four rect primitives between the rounded corners*
20,1,$1+$1,$2,$3,$4,$5,0*
20,1,$1+$1,$4,$5,$6,$7,0*
20,1,$1+$1,$6,$7,$8,$9,0*
20,1,$1+$1,$8,$9,$2,$3,0*%
%AMOutline5P*
0 Free polygon, 5 corners , with rotation*
0 The origin of the aperture is its center*
0 number of corners: always 5*
0 $1 to $10 corner X, Y*
0 $11 Rotation angle, in degrees counterclockwise*
0 create outline with 5 corners*
4,1,5,$1,$2,$3,$4,$5,$6,$7,$8,$9,$10,$1,$2,$11*%
%AMOutline6P*
0 Free polygon, 6 corners , with rotation*
0 The origin of the aperture is its center*
0 number of corners: always 6*
0 $1 to $12 corner X, Y*
0 $13 Rotation angle, in degrees counterclockwise*
0 create outline with 6 corners*
4,1,6,$1,$2,$3,$4,$5,$6,$7,$8,$9,$10,$11,$12,$1,$2,$13*%
%AMOutline7P*
0 Free polygon, 7 corners , with rotation*
0 The origin of the aperture is its center*
0 number of corners: always 7*
0 $1 to $14 corner X, Y*
0 $15 Rotation angle, in degrees counterclockwise*
0 create outline with 7 corners*
4,1,7,$1,$2,$3,$4,$5,$6,$7,$8,$9,$10,$11,$12,$13,$14,$1,$2,$15*%
%AMOutline8P*
0 Free polygon, 8 corners , with rotation*
0 The origin of the aperture is its center*
0 number of corners: always 8*
0 $1 to $16 corner X, Y*
0 $17 Rotation angle, in degrees counterclockwise*
0 create outline with 8 corners*
4,1,8,$1,$2,$3,$4,$5,$6,$7,$8,$9,$10,$11,$12,$13,$14,$15,$16,$1,$2,$17*%
G04 Aperture macros list end*
%TA.AperFunction,ComponentPad*%
%ADD10C,1.752600*%
%TD*%
%TA.AperFunction,WasherPad*%
%ADD11C,4.000000*%
%TD*%
%TA.AperFunction,SMDPad,CuDef*%
%ADD12RoundRect,0.237500X-0.250000X-0.237500X0.250000X-0.237500X0.250000X0.237500X-0.250000X0.237500X0*%
%TD*%
%TA.AperFunction,ComponentPad*%
%ADD13C,1.500000*%
%TD*%
%TA.AperFunction,WasherPad*%
%ADD14C,4.500000*%
%TD*%
%TA.AperFunction,ComponentPad*%
%ADD15O,1.600000X2.000000*%
%TD*%
%TA.AperFunction,WasherPad*%
%ADD16C,2.000000*%
%TD*%
%TA.AperFunction,ComponentPad*%
%ADD17O,1.000000X2.750000*%
%TD*%
%TA.AperFunction,ComponentPad*%
%ADD18O,2.750000X1.000000*%
%TD*%
%TA.AperFunction,SMDPad,CuDef*%
%ADD19RoundRect,0.250000X0.650000X-0.412500X0.650000X0.412500X-0.650000X0.412500X-0.650000X-0.412500X0*%
%TD*%
%TA.AperFunction,ComponentPad*%
%ADD20Outline5P,-0.900000X0.540000X-0.540000X0.900000X0.900000X0.900000X0.900000X-0.900000X-0.900000X-0.900000X0.000000*%
%TD*%
%TA.AperFunction,ComponentPad*%
%ADD21Outline5P,-0.900000X0.900000X0.900000X0.900000X0.900000X-0.900000X-0.540000X-0.900000X-0.900000X-0.540000X0.000000*%
%TD*%
%TA.AperFunction,ViaPad*%
%ADD22C,0.800000*%
%TD*%
%TA.AperFunction,Conductor*%
%ADD23C,3.000000*%
%TD*%
%TA.AperFunction,Conductor*%
%ADD24C,1.000000*%
%TD*%
%TA.AperFunction,Conductor*%
%ADD25C,4.500000*%
%TD*%
%TA.AperFunction,Conductor*%
%ADD26C,0.500000*%
%TD*%
G04 APERTURE END LIST*
D10*
%TO.P,,clk*%
%TO.N,GPIO_14*%
X133860000Y-82000000D03*
%TD*%
D11*
%TO.P,,*%
%TO.N,*%
X118000000Y-86500000D03*
%TD*%
D12*
%TO.P,REF\u002A\u002A,*%
%TO.N,GPIO_2*%
X123387500Y-63500000D03*
X125212500Y-63500000D03*
%TD*%
D13*
%TO.P,,5*%
%TO.N,-*%
X132950000Y-33550000D03*
%TD*%
D11*
%TO.P,,*%
%TO.N,*%
X89200000Y-102400000D03*
%TD*%
D13*
%TO.P,,3*%
%TO.N,g*%
X114300000Y-29400000D03*
%TD*%
D10*
%TO.P,,dt*%
%TO.N,GPIO_13*%
X131320000Y-82000000D03*
%TD*%
D14*
%TO.P,,*%
%TO.N,*%
X33000000Y-91000000D03*
%TD*%
D15*
%TO.P,J1,R1*%
%TO.N,g*%
X47800000Y-26250000D03*
%TO.P,J1,R2*%
%TO.N,w*%
X47800000Y-23250000D03*
%TO.P,J1,S*%
%TO.N,r*%
X43200000Y-31350000D03*
%TO.P,J1,T*%
%TO.N,b*%
X47800000Y-30250000D03*
%TD*%
D10*
%TO.P,,*%
%TO.N,3V3*%
X101040000Y-82000000D03*
%TD*%
D12*
%TO.P,REF\u002A\u002A,*%
%TO.N,GPIO_12*%
X125225000Y-58600000D03*
X123400000Y-58600000D03*
%TD*%
%TO.P,REF\u002A\u002A,*%
%TO.N,GPIO_13*%
X123387500Y-56200000D03*
X125212500Y-56200000D03*
%TD*%
D10*
%TO.P,,clk*%
%TO.N,GPIO_3*%
X108660000Y-82000000D03*
%TD*%
D13*
%TO.P,,1*%
%TO.N,r*%
X109050000Y-29300000D03*
%TD*%
D12*
%TO.P,REF\u002A\u002A,*%
%TO.N,GPIO_14*%
X123400000Y-53700000D03*
X125225000Y-53700000D03*
%TD*%
D16*
%TO.P,REF\u002A\u002A,*%
%TO.N,*%
X35750000Y-23825000D03*
X28750000Y-23825000D03*
D17*
%TO.P,REF\u002A\u002A,1*%
%TO.N,+*%
X32500000Y-31500000D03*
D18*
%TO.P,REF\u002A\u002A,2*%
%TO.N,-*%
X32500000Y-26300000D03*
%TD*%
D19*
%TO.P,REF\u002A\u002A,*%
%TO.N,gnd*%
X117300000Y-48775000D03*
%TO.N,GPIO_14*%
X117300000Y-51900000D03*
%TD*%
D10*
%TO.P,,*%
%TO.N,3V3*%
X126240000Y-82000000D03*
%TD*%
D13*
%TO.P,,1*%
%TO.N,+*%
X125450000Y-33500000D03*
%TD*%
D19*
%TO.P,REF\u002A\u002A,*%
%TO.N,gnd*%
X110400000Y-48637500D03*
%TO.N,GPIO_12*%
X110400000Y-51762500D03*
%TD*%
%TO.P,REF\u002A\u002A,*%
%TO.N,GPIO_2*%
X103400000Y-51725000D03*
%TO.N,gnd*%
X103400000Y-48600000D03*
%TD*%
%TO.P,REF\u002A\u002A,*%
%TO.N,GPIO_0*%
X100000000Y-51625000D03*
%TO.N,gnd*%
X100000000Y-48500000D03*
%TD*%
D12*
%TO.P,REF\u002A\u002A,*%
%TO.N,GPIO_0*%
X123387500Y-65900000D03*
X125212500Y-65900000D03*
%TD*%
D13*
%TO.P,,2*%
%TO.N,w*%
X111600000Y-31700000D03*
%TD*%
D11*
%TO.P,,*%
%TO.N,*%
X57900000Y-102400000D03*
%TD*%
D19*
%TO.P,REF\u002A\u002A,*%
%TO.N,GPIO_3*%
X106900000Y-51762500D03*
%TO.N,gnd*%
X106900000Y-48637500D03*
%TD*%
D10*
%TO.P,,sw*%
%TO.N,GPIO_0*%
X103580000Y-82000000D03*
%TD*%
D20*
%TO.P,,*%
%TO.N,gnd*%
X98500000Y-82000000D03*
%TD*%
D13*
%TO.P,,5*%
%TO.N,b*%
X116950000Y-31700000D03*
%TD*%
D10*
%TO.P,,sw*%
%TO.N,GPIO_12*%
X128780000Y-82000000D03*
%TD*%
D12*
%TO.P,REF\u002A\u002A,*%
%TO.N,GPIO_3*%
X125200000Y-61100000D03*
X123375000Y-61100000D03*
%TD*%
D20*
%TO.P,,*%
%TO.N,gnd*%
X123700000Y-82000000D03*
%TD*%
D10*
%TO.P,,dt*%
%TO.N,GPIO_2*%
X106120000Y-82000000D03*
%TD*%
D19*
%TO.P,REF\u002A\u002A,*%
%TO.N,GPIO_13*%
X113800000Y-51862500D03*
%TO.N,gnd*%
X113800000Y-48737500D03*
%TD*%
D10*
%TO.P,REF\u002A\u002A,*%
%TO.N,GPIO_14*%
X105240000Y-71300000D03*
%TO.N,GPIO_2*%
X92540000Y-71300000D03*
%TO.N,GPIO_13*%
X102700000Y-71300000D03*
%TO.N,GPIO_0*%
X90000000Y-71300000D03*
%TO.N,GPIO_3*%
X95080000Y-71300000D03*
%TO.N,GPIO_12*%
X100160000Y-71300000D03*
%TO.N,3V3*%
X77300000Y-71300000D03*
%TO.P,REF\u002A\u002A,2*%
%TO.N,N/C*%
X79840000Y-71300000D03*
%TO.P,REF\u002A\u002A,3*%
X82380000Y-71300000D03*
X102700000Y-73800000D03*
%TO.P,REF\u002A\u002A,3v3*%
X97620000Y-71300000D03*
%TO.P,REF\u002A\u002A,4*%
X105240000Y-73800000D03*
X84920000Y-71300000D03*
X84920000Y-73800000D03*
%TO.P,REF\u002A\u002A,5*%
X107780000Y-73800000D03*
X87460000Y-73800000D03*
%TO.P,REF\u002A\u002A,6*%
X110320000Y-73800000D03*
X90000000Y-73800000D03*
X110320000Y-71300000D03*
%TO.P,REF\u002A\u002A,7*%
X112860000Y-71300000D03*
%TO.P,REF\u002A\u002A,8*%
X115400000Y-73800000D03*
X115400000Y-71300000D03*
X95080000Y-73800000D03*
%TO.P,REF\u002A\u002A,9*%
X117940000Y-71300000D03*
X97620000Y-73800000D03*
%TO.P,REF\u002A\u002A,10*%
X120480000Y-71300000D03*
X120480000Y-73800000D03*
%TO.P,REF\u002A\u002A,11*%
X123020000Y-73800000D03*
X123020000Y-71300000D03*
%TO.P,REF\u002A\u002A,12*%
X125560000Y-73800000D03*
D21*
%TO.P,REF\u002A\u002A,gnd*%
%TO.N,gnd*%
X87460000Y-71300000D03*
X125560000Y-71300000D03*
X117940000Y-73800000D03*
X100160000Y-73800000D03*
X107780000Y-71300000D03*
X92540000Y-73800000D03*
X112860000Y-73800000D03*
X82380000Y-73800000D03*
D10*
%TO.P,REF\u002A\u002A,vcc*%
%TO.N,N/C*%
X77300000Y-73800000D03*
X79840000Y-73800000D03*
%TD*%
D22*
%TO.N,GPIO_0*%
X100000000Y-54400000D03*
%TO.N,GPIO_2*%
X103400000Y-54400000D03*
%TO.N,GPIO_3*%
X106900000Y-54500000D03*
%TO.N,GPIO_12*%
X110400000Y-54500000D03*
%TO.N,GPIO_13*%
X113800000Y-54600000D03*
%TO.N,GPIO_14*%
X117300000Y-54600000D03*
%TD*%
D23*
%TO.N,r*%
X57750000Y-29300000D02*
X109050000Y-29300000D01*
X43200000Y-31350000D02*
X43200000Y-31500000D01*
X43200000Y-31500000D02*
X46700000Y-35000000D01*
X46700000Y-35000000D02*
X52050000Y-35000000D01*
X52050000Y-35000000D02*
X57750000Y-29300000D01*
D24*
%TO.N,w*%
X109000000Y-23250000D02*
X111600000Y-25850000D01*
X47800000Y-23250000D02*
X109000000Y-23250000D01*
X111600000Y-25850000D02*
X111600000Y-27608039D01*
X111600000Y-27608039D02*
X112049520Y-28057559D01*
X112049520Y-28057559D02*
X112049520Y-30542441D01*
X111600000Y-30991961D02*
X111600000Y-31700000D01*
X112049520Y-30542441D02*
X111600000Y-30991961D01*
D25*
%TO.N,+*%
X32500000Y-31500000D02*
X41800000Y-40800000D01*
X60600000Y-36000000D02*
X122950000Y-36000000D01*
X41800000Y-40800000D02*
X55800000Y-40800000D01*
X55800000Y-40800000D02*
X60600000Y-36000000D01*
X122950000Y-36000000D02*
X125450000Y-33500000D01*
D26*
%TO.N,GPIO_0*%
X100000000Y-54400000D02*
X100000000Y-51625000D01*
X131700000Y-73800000D02*
X131700000Y-66100000D01*
X131500000Y-65900000D02*
X125212500Y-65900000D01*
X131700000Y-66100000D02*
X131500000Y-65900000D01*
X128000000Y-77500000D02*
X131700000Y-73800000D01*
X123387500Y-65900000D02*
X111500000Y-65900000D01*
X103580000Y-82000000D02*
X108080000Y-77500000D01*
X108080000Y-77500000D02*
X128000000Y-77500000D01*
X111500000Y-65900000D02*
X100000000Y-54400000D01*
%TO.N,GPIO_2*%
X132900000Y-64100000D02*
X132300000Y-63500000D01*
X109420000Y-78700000D02*
X128500000Y-78700000D01*
X112500000Y-63500000D02*
X103400000Y-54400000D01*
X132300000Y-63500000D02*
X125212500Y-63500000D01*
X123387500Y-63500000D02*
X112500000Y-63500000D01*
X106120000Y-82000000D02*
X109420000Y-78700000D01*
X132900000Y-74300000D02*
X132900000Y-64100000D01*
X103400000Y-54400000D02*
X103400000Y-51725000D01*
X128500000Y-78700000D02*
X132900000Y-74300000D01*
%TO.N,GPIO_3*%
X134000000Y-74900000D02*
X134000000Y-62800000D01*
X129100000Y-79800000D02*
X134000000Y-74900000D01*
X113500000Y-61100000D02*
X106900000Y-54500000D01*
X108660000Y-82000000D02*
X110860000Y-79800000D01*
X110860000Y-79800000D02*
X129100000Y-79800000D01*
X106900000Y-54500000D02*
X106900000Y-51762500D01*
X132300000Y-61100000D02*
X125200000Y-61100000D01*
X134000000Y-62800000D02*
X132300000Y-61100000D01*
X123375000Y-61100000D02*
X113500000Y-61100000D01*
%TO.N,GPIO_12*%
X114500000Y-58600000D02*
X110400000Y-54500000D01*
X131700000Y-58600000D02*
X125225000Y-58600000D01*
X135100000Y-62000000D02*
X131700000Y-58600000D01*
X123400000Y-58600000D02*
X114500000Y-58600000D01*
X128780000Y-82000000D02*
X135100000Y-75680000D01*
X135100000Y-75680000D02*
X135100000Y-62000000D01*
X110400000Y-54500000D02*
X110400000Y-51762500D01*
%TO.N,GPIO_13*%
X113800000Y-54600000D02*
X113800000Y-51862500D01*
X131320000Y-81780000D02*
X136200000Y-76900000D01*
X136200000Y-76900000D02*
X136200000Y-61400000D01*
X136200000Y-61400000D02*
X131000000Y-56200000D01*
X131000000Y-56200000D02*
X125212500Y-56200000D01*
X123387500Y-56200000D02*
X115400000Y-56200000D01*
X131320000Y-82000000D02*
X131320000Y-81780000D01*
X115400000Y-56200000D02*
X113800000Y-54600000D01*
%TO.N,GPIO_14*%
X130600000Y-53700000D02*
X125225000Y-53700000D01*
X118200000Y-53700000D02*
X118200000Y-52800000D01*
X123400000Y-53700000D02*
X118200000Y-53700000D01*
X133860000Y-81540000D02*
X137200000Y-78200000D01*
X137200000Y-78200000D02*
X137200000Y-60300000D01*
X133860000Y-82000000D02*
X133860000Y-81540000D01*
X118200000Y-52800000D02*
X117300000Y-51900000D01*
X118200000Y-53700000D02*
X117300000Y-54600000D01*
X137200000Y-60300000D02*
X130600000Y-53700000D01*
%TD*%
%TA.AperFunction,Conductor*%
%TO.N,gnd*%
G36*
X141433621Y-45720002D02*
G01*
X141480114Y-45773658D01*
X141491500Y-45826000D01*
X141491500Y-82550633D01*
X141490000Y-82570018D01*
X141487690Y-82584851D01*
X141487690Y-82584855D01*
X141486309Y-82593724D01*
X141488304Y-82608976D01*
X141489047Y-82634302D01*
X141480434Y-82754735D01*
X141476962Y-82803279D01*
X141474404Y-82821064D01*
X141433001Y-83011392D01*
X141427937Y-83028641D01*
X141359864Y-83211150D01*
X141352396Y-83227502D01*
X141259048Y-83398458D01*
X141249328Y-83413582D01*
X141132598Y-83569514D01*
X141120825Y-83583100D01*
X140983100Y-83720825D01*
X140969514Y-83732598D01*
X140813582Y-83849328D01*
X140798457Y-83859048D01*
X140627491Y-83952402D01*
X140611155Y-83959862D01*
X140578461Y-83972057D01*
X140534433Y-83980000D01*
X69866000Y-83980000D01*
X69797879Y-83959998D01*
X69751386Y-83906342D01*
X69740000Y-83854000D01*
X69740000Y-82944669D01*
X97092001Y-82944669D01*
X97092371Y-82951490D01*
X97097895Y-83002352D01*
X97101521Y-83017604D01*
X97146676Y-83138054D01*
X97155214Y-83153649D01*
X97231715Y-83255724D01*
X97244276Y-83268285D01*
X97346351Y-83344786D01*
X97361946Y-83353324D01*
X97482394Y-83398478D01*
X97497649Y-83402105D01*
X97548514Y-83407631D01*
X97555328Y-83408000D01*
X98227885Y-83408000D01*
X98243124Y-83403525D01*
X98244329Y-83402135D01*
X98246000Y-83394452D01*
X98246000Y-82272115D01*
X98241525Y-82256876D01*
X98240135Y-82255671D01*
X98232452Y-82254000D01*
X97110116Y-82254000D01*
X97094877Y-82258475D01*
X97093672Y-82259865D01*
X97092001Y-82267548D01*
X97092001Y-82944669D01*
X69740000Y-82944669D01*
X69740000Y-81727885D01*
X97092000Y-81727885D01*
X97096475Y-81743124D01*
X97097865Y-81744329D01*
X97105548Y-81746000D01*
X98227885Y-81746000D01*
X98243124Y-81741525D01*
X98244329Y-81740135D01*
X98246000Y-81732452D01*
X98246000Y-80610116D01*
X98241525Y-80594877D01*
X98240135Y-80593672D01*
X98232452Y-80592001D01*
X97922327Y-80592001D01*
X97914408Y-80592501D01*
X97840736Y-80601839D01*
X97824575Y-80606135D01*
X97705757Y-80655473D01*
X97691324Y-80663873D01*
X97633343Y-80708929D01*
X97627456Y-80714124D01*
X97214164Y-81127416D01*
X97208899Y-81133390D01*
X97163418Y-81192076D01*
X97155024Y-81206548D01*
X97105894Y-81325450D01*
X97101629Y-81341593D01*
X97092490Y-81414448D01*
X97092000Y-81422293D01*
X97092000Y-81727885D01*
X69740000Y-81727885D01*
X69740000Y-73766050D01*
X75910869Y-73766050D01*
X75911166Y-73771202D01*
X75911166Y-73771206D01*
X75915983Y-73854740D01*
X75923977Y-73993387D01*
X75974039Y-74215531D01*
X75975983Y-74220317D01*
X75975984Y-74220322D01*
X76057767Y-74421728D01*
X76059711Y-74426515D01*
X76133571Y-74547044D01*
X76175990Y-74616264D01*
X76178692Y-74620674D01*
X76327786Y-74792793D01*
X76502989Y-74938249D01*
X76507441Y-74940851D01*
X76507446Y-74940854D01*
X76601540Y-74995838D01*
X76699597Y-75053138D01*
X76912329Y-75134372D01*
X76917395Y-75135403D01*
X76917396Y-75135403D01*
X76923191Y-75136582D01*
X77135472Y-75179771D01*
X77263288Y-75184458D01*
X77357870Y-75187927D01*
X77357875Y-75187927D01*
X77363034Y-75188116D01*
X77368154Y-75187460D01*
X77368156Y-75187460D01*
X77440344Y-75178212D01*
X77588903Y-75159181D01*
X77593852Y-75157696D01*
X77593858Y-75157695D01*
X77720204Y-75119789D01*
X77807013Y-75093745D01*
X78011507Y-74993564D01*
X78015711Y-74990566D01*
X78015715Y-74990563D01*
X78093683Y-74934949D01*
X78196893Y-74861330D01*
X78358193Y-74700592D01*
X78468528Y-74547044D01*
X78524523Y-74503396D01*
X78595226Y-74496950D01*
X78658191Y-74529753D01*
X78678283Y-74554735D01*
X78715989Y-74616264D01*
X78715992Y-74616269D01*
X78718692Y-74620674D01*
X78867786Y-74792793D01*
X79042989Y-74938249D01*
X79047441Y-74940851D01*
X79047446Y-74940854D01*
X79141540Y-74995838D01*
X79239597Y-75053138D01*
X79452329Y-75134372D01*
X79457395Y-75135403D01*
X79457396Y-75135403D01*
X79463191Y-75136582D01*
X79675472Y-75179771D01*
X79803288Y-75184458D01*
X79897870Y-75187927D01*
X79897875Y-75187927D01*
X79903034Y-75188116D01*
X79908154Y-75187460D01*
X79908156Y-75187460D01*
X79980344Y-75178212D01*
X80128903Y-75159181D01*
X80133852Y-75157696D01*
X80133858Y-75157695D01*
X80260204Y-75119789D01*
X80347013Y-75093745D01*
X80551507Y-74993564D01*
X80555711Y-74990566D01*
X80555715Y-74990563D01*
X80633683Y-74934949D01*
X80736893Y-74861330D01*
X80898193Y-74700592D01*
X80901209Y-74696395D01*
X80901216Y-74696387D01*
X80905301Y-74690702D01*
X80961297Y-74647056D01*
X81032000Y-74640612D01*
X81096716Y-74675136D01*
X81507416Y-75085836D01*
X81513390Y-75091101D01*
X81572076Y-75136582D01*
X81586548Y-75144976D01*
X81705450Y-75194106D01*
X81721593Y-75198371D01*
X81794448Y-75207510D01*
X81802293Y-75208000D01*
X82107885Y-75208000D01*
X82123124Y-75203525D01*
X82124329Y-75202135D01*
X82126000Y-75194452D01*
X82126000Y-73672000D01*
X82146002Y-73603879D01*
X82199658Y-73557386D01*
X82252000Y-73546000D01*
X82508000Y-73546000D01*
X82576121Y-73566002D01*
X82622614Y-73619658D01*
X82634000Y-73672000D01*
X82634000Y-75189884D01*
X82638475Y-75205123D01*
X82639865Y-75206328D01*
X82647548Y-75207999D01*
X83324669Y-75207999D01*
X83331490Y-75207629D01*
X83382352Y-75202105D01*
X83397604Y-75198479D01*
X83518054Y-75153324D01*
X83533649Y-75144786D01*
X83635724Y-75068285D01*
X83648285Y-75055724D01*
X83724786Y-74953649D01*
X83733324Y-74938054D01*
X83763580Y-74857347D01*
X83806222Y-74800583D01*
X83872783Y-74775883D01*
X83942132Y-74791091D01*
X83962042Y-74804629D01*
X84122989Y-74938249D01*
X84127441Y-74940851D01*
X84127446Y-74940854D01*
X84221540Y-74995838D01*
X84319597Y-75053138D01*
X84532329Y-75134372D01*
X84537395Y-75135403D01*
X84537396Y-75135403D01*
X84543191Y-75136582D01*
X84755472Y-75179771D01*
X84883288Y-75184458D01*
X84977870Y-75187927D01*
X84977875Y-75187927D01*
X84983034Y-75188116D01*
X84988154Y-75187460D01*
X84988156Y-75187460D01*
X85060344Y-75178212D01*
X85208903Y-75159181D01*
X85213852Y-75157696D01*
X85213858Y-75157695D01*
X85340204Y-75119789D01*
X85427013Y-75093745D01*
X85631507Y-74993564D01*
X85635711Y-74990566D01*
X85635715Y-74990563D01*
X85713683Y-74934949D01*
X85816893Y-74861330D01*
X85978193Y-74700592D01*
X86088528Y-74547044D01*
X86144523Y-74503396D01*
X86215226Y-74496950D01*
X86278191Y-74529753D01*
X86298283Y-74554735D01*
X86335989Y-74616264D01*
X86335992Y-74616269D01*
X86338692Y-74620674D01*
X86487786Y-74792793D01*
X86662989Y-74938249D01*
X86667441Y-74940851D01*
X86667446Y-74940854D01*
X86761540Y-74995838D01*
X86859597Y-75053138D01*
X87072329Y-75134372D01*
X87077395Y-75135403D01*
X87077396Y-75135403D01*
X87083191Y-75136582D01*
X87295472Y-75179771D01*
X87423288Y-75184458D01*
X87517870Y-75187927D01*
X87517875Y-75187927D01*
X87523034Y-75188116D01*
X87528154Y-75187460D01*
X87528156Y-75187460D01*
X87600344Y-75178212D01*
X87748903Y-75159181D01*
X87753852Y-75157696D01*
X87753858Y-75157695D01*
X87880204Y-75119789D01*
X87967013Y-75093745D01*
X88171507Y-74993564D01*
X88175711Y-74990566D01*
X88175715Y-74990563D01*
X88253683Y-74934949D01*
X88356893Y-74861330D01*
X88518193Y-74700592D01*
X88628528Y-74547044D01*
X88684523Y-74503396D01*
X88755226Y-74496950D01*
X88818191Y-74529753D01*
X88838283Y-74554735D01*
X88875989Y-74616264D01*
X88875992Y-74616269D01*
X88878692Y-74620674D01*
X89027786Y-74792793D01*
X89202989Y-74938249D01*
X89207441Y-74940851D01*
X89207446Y-74940854D01*
X89301540Y-74995838D01*
X89399597Y-75053138D01*
X89612329Y-75134372D01*
X89617395Y-75135403D01*
X89617396Y-75135403D01*
X89623191Y-75136582D01*
X89835472Y-75179771D01*
X89963288Y-75184458D01*
X90057870Y-75187927D01*
X90057875Y-75187927D01*
X90063034Y-75188116D01*
X90068154Y-75187460D01*
X90068156Y-75187460D01*
X90140344Y-75178212D01*
X90288903Y-75159181D01*
X90293852Y-75157696D01*
X90293858Y-75157695D01*
X90420204Y-75119789D01*
X90507013Y-75093745D01*
X90711507Y-74993564D01*
X90715711Y-74990566D01*
X90715715Y-74990563D01*
X90793683Y-74934949D01*
X90896893Y-74861330D01*
X91058193Y-74700592D01*
X91061209Y-74696395D01*
X91061216Y-74696387D01*
X91065301Y-74690702D01*
X91121297Y-74647056D01*
X91192000Y-74640612D01*
X91256716Y-74675136D01*
X91667416Y-75085836D01*
X91673390Y-75091101D01*
X91732076Y-75136582D01*
X91746548Y-75144976D01*
X91865450Y-75194106D01*
X91881593Y-75198371D01*
X91954448Y-75207510D01*
X91962293Y-75208000D01*
X92267885Y-75208000D01*
X92283124Y-75203525D01*
X92284329Y-75202135D01*
X92286000Y-75194452D01*
X92286000Y-73672000D01*
X92306002Y-73603879D01*
X92359658Y-73557386D01*
X92412000Y-73546000D01*
X92668000Y-73546000D01*
X92736121Y-73566002D01*
X92782614Y-73619658D01*
X92794000Y-73672000D01*
X92794000Y-75189884D01*
X92798475Y-75205123D01*
X92799865Y-75206328D01*
X92807548Y-75207999D01*
X93484669Y-75207999D01*
X93491490Y-75207629D01*
X93542352Y-75202105D01*
X93557604Y-75198479D01*
X93678054Y-75153324D01*
X93693649Y-75144786D01*
X93795724Y-75068285D01*
X93808285Y-75055724D01*
X93884786Y-74953649D01*
X93893324Y-74938054D01*
X93923580Y-74857347D01*
X93966222Y-74800583D01*
X94032783Y-74775883D01*
X94102132Y-74791091D01*
X94122042Y-74804629D01*
X94282989Y-74938249D01*
X94287441Y-74940851D01*
X94287446Y-74940854D01*
X94381540Y-74995838D01*
X94479597Y-75053138D01*
X94692329Y-75134372D01*
X94697395Y-75135403D01*
X94697396Y-75135403D01*
X94703191Y-75136582D01*
X94915472Y-75179771D01*
X95043288Y-75184458D01*
X95137870Y-75187927D01*
X95137875Y-75187927D01*
X95143034Y-75188116D01*
X95148154Y-75187460D01*
X95148156Y-75187460D01*
X95220344Y-75178212D01*
X95368903Y-75159181D01*
X95373852Y-75157696D01*
X95373858Y-75157695D01*
X95500204Y-75119789D01*
X95587013Y-75093745D01*
X95791507Y-74993564D01*
X95795711Y-74990566D01*
X95795715Y-74990563D01*
X95873683Y-74934949D01*
X95976893Y-74861330D01*
X96138193Y-74700592D01*
X96248528Y-74547044D01*
X96304523Y-74503396D01*
X96375226Y-74496950D01*
X96438191Y-74529753D01*
X96458283Y-74554735D01*
X96495989Y-74616264D01*
X96495992Y-74616269D01*
X96498692Y-74620674D01*
X96647786Y-74792793D01*
X96822989Y-74938249D01*
X96827441Y-74940851D01*
X96827446Y-74940854D01*
X96921540Y-74995838D01*
X97019597Y-75053138D01*
X97232329Y-75134372D01*
X97237395Y-75135403D01*
X97237396Y-75135403D01*
X97243191Y-75136582D01*
X97455472Y-75179771D01*
X97583288Y-75184458D01*
X97677870Y-75187927D01*
X97677875Y-75187927D01*
X97683034Y-75188116D01*
X97688154Y-75187460D01*
X97688156Y-75187460D01*
X97760344Y-75178212D01*
X97908903Y-75159181D01*
X97913852Y-75157696D01*
X97913858Y-75157695D01*
X98040204Y-75119789D01*
X98127013Y-75093745D01*
X98331507Y-74993564D01*
X98335711Y-74990566D01*
X98335715Y-74990563D01*
X98413683Y-74934949D01*
X98516893Y-74861330D01*
X98678193Y-74700592D01*
X98681209Y-74696395D01*
X98681216Y-74696387D01*
X98685301Y-74690702D01*
X98741297Y-74647056D01*
X98812000Y-74640612D01*
X98876716Y-74675136D01*
X99287416Y-75085836D01*
X99293390Y-75091101D01*
X99352076Y-75136582D01*
X99366548Y-75144976D01*
X99485450Y-75194106D01*
X99501593Y-75198371D01*
X99574448Y-75207510D01*
X99582293Y-75208000D01*
X99887885Y-75208000D01*
X99903124Y-75203525D01*
X99904329Y-75202135D01*
X99906000Y-75194452D01*
X99906000Y-73672000D01*
X99926002Y-73603879D01*
X99979658Y-73557386D01*
X100032000Y-73546000D01*
X100288000Y-73546000D01*
X100356121Y-73566002D01*
X100402614Y-73619658D01*
X100414000Y-73672000D01*
X100414000Y-75189884D01*
X100418475Y-75205123D01*
X100419865Y-75206328D01*
X100427548Y-75207999D01*
X101104669Y-75207999D01*
X101111490Y-75207629D01*
X101162352Y-75202105D01*
X101177604Y-75198479D01*
X101298054Y-75153324D01*
X101313649Y-75144786D01*
X101415724Y-75068285D01*
X101428285Y-75055724D01*
X101504786Y-74953649D01*
X101513324Y-74938054D01*
X101543580Y-74857347D01*
X101586222Y-74800583D01*
X101652783Y-74775883D01*
X101722132Y-74791091D01*
X101742042Y-74804629D01*
X101902989Y-74938249D01*
X101907441Y-74940851D01*
X101907446Y-74940854D01*
X102001540Y-74995838D01*
X102099597Y-75053138D01*
X102312329Y-75134372D01*
X102317395Y-75135403D01*
X102317396Y-75135403D01*
X102323191Y-75136582D01*
X102535472Y-75179771D01*
X102663288Y-75184458D01*
X102757870Y-75187927D01*
X102757875Y-75187927D01*
X102763034Y-75188116D01*
X102768154Y-75187460D01*
X102768156Y-75187460D01*
X102840344Y-75178212D01*
X102988903Y-75159181D01*
X102993852Y-75157696D01*
X102993858Y-75157695D01*
X103120204Y-75119789D01*
X103207013Y-75093745D01*
X103411507Y-74993564D01*
X103415711Y-74990566D01*
X103415715Y-74990563D01*
X103493683Y-74934949D01*
X103596893Y-74861330D01*
X103758193Y-74700592D01*
X103868528Y-74547044D01*
X103924523Y-74503396D01*
X103995226Y-74496950D01*
X104058191Y-74529753D01*
X104078283Y-74554735D01*
X104115989Y-74616264D01*
X104115992Y-74616269D01*
X104118692Y-74620674D01*
X104267786Y-74792793D01*
X104442989Y-74938249D01*
X104447441Y-74940851D01*
X104447446Y-74940854D01*
X104541540Y-74995838D01*
X104639597Y-75053138D01*
X104852329Y-75134372D01*
X104857395Y-75135403D01*
X104857396Y-75135403D01*
X104863191Y-75136582D01*
X105075472Y-75179771D01*
X105203288Y-75184458D01*
X105297870Y-75187927D01*
X105297875Y-75187927D01*
X105303034Y-75188116D01*
X105308154Y-75187460D01*
X105308156Y-75187460D01*
X105380344Y-75178212D01*
X105528903Y-75159181D01*
X105533852Y-75157696D01*
X105533858Y-75157695D01*
X105660204Y-75119789D01*
X105747013Y-75093745D01*
X105951507Y-74993564D01*
X105955711Y-74990566D01*
X105955715Y-74990563D01*
X106033683Y-74934949D01*
X106136893Y-74861330D01*
X106298193Y-74700592D01*
X106408528Y-74547044D01*
X106464523Y-74503396D01*
X106535226Y-74496950D01*
X106598191Y-74529753D01*
X106618283Y-74554735D01*
X106655989Y-74616264D01*
X106655992Y-74616269D01*
X106658692Y-74620674D01*
X106807786Y-74792793D01*
X106982989Y-74938249D01*
X106987441Y-74940851D01*
X106987446Y-74940854D01*
X107081540Y-74995838D01*
X107179597Y-75053138D01*
X107392329Y-75134372D01*
X107397395Y-75135403D01*
X107397396Y-75135403D01*
X107403191Y-75136582D01*
X107615472Y-75179771D01*
X107743288Y-75184458D01*
X107837870Y-75187927D01*
X107837875Y-75187927D01*
X107843034Y-75188116D01*
X107848154Y-75187460D01*
X107848156Y-75187460D01*
X107920344Y-75178212D01*
X108068903Y-75159181D01*
X108073852Y-75157696D01*
X108073858Y-75157695D01*
X108200204Y-75119789D01*
X108287013Y-75093745D01*
X108491507Y-74993564D01*
X108495711Y-74990566D01*
X108495715Y-74990563D01*
X108573683Y-74934949D01*
X108676893Y-74861330D01*
X108838193Y-74700592D01*
X108948528Y-74547044D01*
X109004523Y-74503396D01*
X109075226Y-74496950D01*
X109138191Y-74529753D01*
X109158283Y-74554735D01*
X109195989Y-74616264D01*
X109195992Y-74616269D01*
X109198692Y-74620674D01*
X109347786Y-74792793D01*
X109522989Y-74938249D01*
X109527441Y-74940851D01*
X109527446Y-74940854D01*
X109621540Y-74995838D01*
X109719597Y-75053138D01*
X109932329Y-75134372D01*
X109937395Y-75135403D01*
X109937396Y-75135403D01*
X109943191Y-75136582D01*
X110155472Y-75179771D01*
X110283288Y-75184458D01*
X110377870Y-75187927D01*
X110377875Y-75187927D01*
X110383034Y-75188116D01*
X110388154Y-75187460D01*
X110388156Y-75187460D01*
X110460344Y-75178212D01*
X110608903Y-75159181D01*
X110613852Y-75157696D01*
X110613858Y-75157695D01*
X110740204Y-75119789D01*
X110827013Y-75093745D01*
X111031507Y-74993564D01*
X111035711Y-74990566D01*
X111035715Y-74990563D01*
X111113683Y-74934949D01*
X111216893Y-74861330D01*
X111378193Y-74700592D01*
X111381209Y-74696395D01*
X111381216Y-74696387D01*
X111385301Y-74690702D01*
X111441297Y-74647056D01*
X111512000Y-74640612D01*
X111576716Y-74675136D01*
X111987416Y-75085836D01*
X111993390Y-75091101D01*
X112052076Y-75136582D01*
X112066548Y-75144976D01*
X112185450Y-75194106D01*
X112201593Y-75198371D01*
X112274448Y-75207510D01*
X112282293Y-75208000D01*
X112587885Y-75208000D01*
X112603124Y-75203525D01*
X112604329Y-75202135D01*
X112606000Y-75194452D01*
X112606000Y-73672000D01*
X112626002Y-73603879D01*
X112679658Y-73557386D01*
X112732000Y-73546000D01*
X112988000Y-73546000D01*
X113056121Y-73566002D01*
X113102614Y-73619658D01*
X113114000Y-73672000D01*
X113114000Y-75189884D01*
X113118475Y-75205123D01*
X113119865Y-75206328D01*
X113127548Y-75207999D01*
X113804669Y-75207999D01*
X113811490Y-75207629D01*
X113862352Y-75202105D01*
X113877604Y-75198479D01*
X113998054Y-75153324D01*
X114013649Y-75144786D01*
X114115724Y-75068285D01*
X114128285Y-75055724D01*
X114204786Y-74953649D01*
X114213324Y-74938054D01*
X114243580Y-74857347D01*
X114286222Y-74800583D01*
X114352783Y-74775883D01*
X114422132Y-74791091D01*
X114442042Y-74804629D01*
X114602989Y-74938249D01*
X114607441Y-74940851D01*
X114607446Y-74940854D01*
X114701540Y-74995838D01*
X114799597Y-75053138D01*
X115012329Y-75134372D01*
X115017395Y-75135403D01*
X115017396Y-75135403D01*
X115023191Y-75136582D01*
X115235472Y-75179771D01*
X115363288Y-75184458D01*
X115457870Y-75187927D01*
X115457875Y-75187927D01*
X115463034Y-75188116D01*
X115468154Y-75187460D01*
X115468156Y-75187460D01*
X115540344Y-75178212D01*
X115688903Y-75159181D01*
X115693852Y-75157696D01*
X115693858Y-75157695D01*
X115820204Y-75119789D01*
X115907013Y-75093745D01*
X116111507Y-74993564D01*
X116115711Y-74990566D01*
X116115715Y-74990563D01*
X116193683Y-74934949D01*
X116296893Y-74861330D01*
X116458193Y-74700592D01*
X116461209Y-74696395D01*
X116461216Y-74696387D01*
X116465301Y-74690702D01*
X116521297Y-74647056D01*
X116592000Y-74640612D01*
X116656716Y-74675136D01*
X117067416Y-75085836D01*
X117073390Y-75091101D01*
X117132076Y-75136582D01*
X117146548Y-75144976D01*
X117265450Y-75194106D01*
X117281593Y-75198371D01*
X117354448Y-75207510D01*
X117362293Y-75208000D01*
X117667885Y-75208000D01*
X117683124Y-75203525D01*
X117684329Y-75202135D01*
X117686000Y-75194452D01*
X117686000Y-73672000D01*
X117706002Y-73603879D01*
X117759658Y-73557386D01*
X117812000Y-73546000D01*
X118068000Y-73546000D01*
X118136121Y-73566002D01*
X118182614Y-73619658D01*
X118194000Y-73672000D01*
X118194000Y-75189884D01*
X118198475Y-75205123D01*
X118199865Y-75206328D01*
X118207548Y-75207999D01*
X118884669Y-75207999D01*
X118891490Y-75207629D01*
X118942352Y-75202105D01*
X118957604Y-75198479D01*
X119078054Y-75153324D01*
X119093649Y-75144786D01*
X119195724Y-75068285D01*
X119208285Y-75055724D01*
X119284786Y-74953649D01*
X119293324Y-74938054D01*
X119323580Y-74857347D01*
X119366222Y-74800583D01*
X119432783Y-74775883D01*
X119502132Y-74791091D01*
X119522042Y-74804629D01*
X119682989Y-74938249D01*
X119687441Y-74940851D01*
X119687446Y-74940854D01*
X119781540Y-74995838D01*
X119879597Y-75053138D01*
X120092329Y-75134372D01*
X120097395Y-75135403D01*
X120097396Y-75135403D01*
X120103191Y-75136582D01*
X120315472Y-75179771D01*
X120443288Y-75184458D01*
X120537870Y-75187927D01*
X120537875Y-75187927D01*
X120543034Y-75188116D01*
X120548154Y-75187460D01*
X120548156Y-75187460D01*
X120620344Y-75178212D01*
X120768903Y-75159181D01*
X120773852Y-75157696D01*
X120773858Y-75157695D01*
X120900204Y-75119789D01*
X120987013Y-75093745D01*
X121191507Y-74993564D01*
X121195711Y-74990566D01*
X121195715Y-74990563D01*
X121273683Y-74934949D01*
X121376893Y-74861330D01*
X121538193Y-74700592D01*
X121648528Y-74547044D01*
X121704523Y-74503396D01*
X121775226Y-74496950D01*
X121838191Y-74529753D01*
X121858283Y-74554735D01*
X121895989Y-74616264D01*
X121895992Y-74616269D01*
X121898692Y-74620674D01*
X122047786Y-74792793D01*
X122222989Y-74938249D01*
X122227441Y-74940851D01*
X122227446Y-74940854D01*
X122321540Y-74995838D01*
X122419597Y-75053138D01*
X122632329Y-75134372D01*
X122637395Y-75135403D01*
X122637396Y-75135403D01*
X122643191Y-75136582D01*
X122855472Y-75179771D01*
X122983288Y-75184458D01*
X123077870Y-75187927D01*
X123077875Y-75187927D01*
X123083034Y-75188116D01*
X123088154Y-75187460D01*
X123088156Y-75187460D01*
X123160344Y-75178212D01*
X123308903Y-75159181D01*
X123313852Y-75157696D01*
X123313858Y-75157695D01*
X123440204Y-75119789D01*
X123527013Y-75093745D01*
X123731507Y-74993564D01*
X123735711Y-74990566D01*
X123735715Y-74990563D01*
X123813683Y-74934949D01*
X123916893Y-74861330D01*
X124078193Y-74700592D01*
X124188528Y-74547044D01*
X124244523Y-74503396D01*
X124315226Y-74496950D01*
X124378191Y-74529753D01*
X124398283Y-74554735D01*
X124435989Y-74616264D01*
X124435992Y-74616269D01*
X124438692Y-74620674D01*
X124587786Y-74792793D01*
X124762989Y-74938249D01*
X124767441Y-74940851D01*
X124767446Y-74940854D01*
X124861540Y-74995838D01*
X124959597Y-75053138D01*
X125172329Y-75134372D01*
X125177395Y-75135403D01*
X125177396Y-75135403D01*
X125183191Y-75136582D01*
X125395472Y-75179771D01*
X125523288Y-75184458D01*
X125617870Y-75187927D01*
X125617875Y-75187927D01*
X125623034Y-75188116D01*
X125628154Y-75187460D01*
X125628156Y-75187460D01*
X125700344Y-75178212D01*
X125848903Y-75159181D01*
X125853852Y-75157696D01*
X125853858Y-75157695D01*
X125980204Y-75119789D01*
X126067013Y-75093745D01*
X126271507Y-74993564D01*
X126275711Y-74990566D01*
X126275715Y-74990563D01*
X126353683Y-74934949D01*
X126456893Y-74861330D01*
X126618193Y-74700592D01*
X126751073Y-74515669D01*
X126851967Y-74311526D01*
X126918164Y-74093646D01*
X126930700Y-73998430D01*
X126947450Y-73871201D01*
X126947451Y-73871194D01*
X126947887Y-73867879D01*
X126949546Y-73800000D01*
X126933422Y-73603879D01*
X126931311Y-73578202D01*
X126931310Y-73578196D01*
X126930887Y-73573051D01*
X126875413Y-73352197D01*
X126873354Y-73347461D01*
X126786672Y-73148106D01*
X126786670Y-73148103D01*
X126784612Y-73143369D01*
X126660923Y-72952175D01*
X126592732Y-72877234D01*
X126561681Y-72813388D01*
X126570076Y-72742889D01*
X126615252Y-72688121D01*
X126641696Y-72674452D01*
X126698054Y-72653324D01*
X126713649Y-72644786D01*
X126815724Y-72568285D01*
X126828285Y-72555724D01*
X126904786Y-72453649D01*
X126913324Y-72438054D01*
X126958478Y-72317606D01*
X126962105Y-72302351D01*
X126967631Y-72251486D01*
X126968000Y-72244672D01*
X126968000Y-71572115D01*
X126963525Y-71556876D01*
X126962135Y-71555671D01*
X126954452Y-71554000D01*
X125432000Y-71554000D01*
X125363879Y-71533998D01*
X125317386Y-71480342D01*
X125306000Y-71428000D01*
X125306000Y-71027885D01*
X125814000Y-71027885D01*
X125818475Y-71043124D01*
X125819865Y-71044329D01*
X125827548Y-71046000D01*
X126949884Y-71046000D01*
X126965123Y-71041525D01*
X126966328Y-71040135D01*
X126967999Y-71032452D01*
X126967999Y-70355331D01*
X126967629Y-70348510D01*
X126962105Y-70297648D01*
X126958479Y-70282396D01*
X126913324Y-70161946D01*
X126904786Y-70146351D01*
X126828285Y-70044276D01*
X126815724Y-70031715D01*
X126713649Y-69955214D01*
X126698054Y-69946676D01*
X126577606Y-69901522D01*
X126562351Y-69897895D01*
X126511486Y-69892369D01*
X126504672Y-69892000D01*
X125832115Y-69892000D01*
X125816876Y-69896475D01*
X125815671Y-69897865D01*
X125814000Y-69905548D01*
X125814000Y-71027885D01*
X125306000Y-71027885D01*
X125306000Y-69910116D01*
X125301525Y-69894877D01*
X125300135Y-69893672D01*
X125292452Y-69892001D01*
X124615331Y-69892001D01*
X124608510Y-69892371D01*
X124557648Y-69897895D01*
X124542396Y-69901521D01*
X124421946Y-69946676D01*
X124406351Y-69955214D01*
X124304276Y-70031715D01*
X124291715Y-70044276D01*
X124215214Y-70146351D01*
X124206675Y-70161948D01*
X124176902Y-70241368D01*
X124134261Y-70298133D01*
X124067699Y-70322833D01*
X123998351Y-70307626D01*
X123972992Y-70289293D01*
X123971143Y-70287569D01*
X123967668Y-70283750D01*
X123788963Y-70142618D01*
X123589607Y-70032567D01*
X123473598Y-69991486D01*
X123379829Y-69958280D01*
X123379825Y-69958279D01*
X123374954Y-69956554D01*
X123369861Y-69955647D01*
X123369858Y-69955646D01*
X123155857Y-69917527D01*
X123155851Y-69917526D01*
X123150768Y-69916621D01*
X123063698Y-69915557D01*
X122928239Y-69913902D01*
X122928237Y-69913902D01*
X122923070Y-69913839D01*
X122697976Y-69948283D01*
X122481529Y-70019029D01*
X122279544Y-70124176D01*
X122275411Y-70127279D01*
X122275408Y-70127281D01*
X122229236Y-70161948D01*
X122097444Y-70260900D01*
X121940120Y-70425530D01*
X121924550Y-70448355D01*
X121853784Y-70552094D01*
X121798873Y-70597096D01*
X121728348Y-70605267D01*
X121664601Y-70574013D01*
X121643904Y-70549529D01*
X121583731Y-70456515D01*
X121583729Y-70456512D01*
X121580923Y-70452175D01*
X121427668Y-70283750D01*
X121248963Y-70142618D01*
X121049607Y-70032567D01*
X120933598Y-69991486D01*
X120839829Y-69958280D01*
X120839825Y-69958279D01*
X120834954Y-69956554D01*
X120829861Y-69955647D01*
X120829858Y-69955646D01*
X120615857Y-69917527D01*
X120615851Y-69917526D01*
X120610768Y-69916621D01*
X120523698Y-69915557D01*
X120388239Y-69913902D01*
X120388237Y-69913902D01*
X120383070Y-69913839D01*
X120157976Y-69948283D01*
X119941529Y-70019029D01*
X119739544Y-70124176D01*
X119735411Y-70127279D01*
X119735408Y-70127281D01*
X119689236Y-70161948D01*
X119557444Y-70260900D01*
X119400120Y-70425530D01*
X119384550Y-70448355D01*
X119313784Y-70552094D01*
X119258873Y-70597096D01*
X119188348Y-70605267D01*
X119124601Y-70574013D01*
X119103904Y-70549529D01*
X119043731Y-70456515D01*
X119043729Y-70456512D01*
X119040923Y-70452175D01*
X118887668Y-70283750D01*
X118708963Y-70142618D01*
X118509607Y-70032567D01*
X118393598Y-69991486D01*
X118299829Y-69958280D01*
X118299825Y-69958279D01*
X118294954Y-69956554D01*
X118289861Y-69955647D01*
X118289858Y-69955646D01*
X118075857Y-69917527D01*
X118075851Y-69917526D01*
X118070768Y-69916621D01*
X117983698Y-69915557D01*
X117848239Y-69913902D01*
X117848237Y-69913902D01*
X117843070Y-69913839D01*
X117617976Y-69948283D01*
X117401529Y-70019029D01*
X117199544Y-70124176D01*
X117195411Y-70127279D01*
X117195408Y-70127281D01*
X117149236Y-70161948D01*
X117017444Y-70260900D01*
X116860120Y-70425530D01*
X116844550Y-70448355D01*
X116773784Y-70552094D01*
X116718873Y-70597096D01*
X116648348Y-70605267D01*
X116584601Y-70574013D01*
X116563904Y-70549529D01*
X116503731Y-70456515D01*
X116503729Y-70456512D01*
X116500923Y-70452175D01*
X116347668Y-70283750D01*
X116168963Y-70142618D01*
X115969607Y-70032567D01*
X115853598Y-69991486D01*
X115759829Y-69958280D01*
X115759825Y-69958279D01*
X115754954Y-69956554D01*
X115749861Y-69955647D01*
X115749858Y-69955646D01*
X115535857Y-69917527D01*
X115535851Y-69917526D01*
X115530768Y-69916621D01*
X115443698Y-69915557D01*
X115308239Y-69913902D01*
X115308237Y-69913902D01*
X115303070Y-69913839D01*
X115077976Y-69948283D01*
X114861529Y-70019029D01*
X114659544Y-70124176D01*
X114655411Y-70127279D01*
X114655408Y-70127281D01*
X114609236Y-70161948D01*
X114477444Y-70260900D01*
X114320120Y-70425530D01*
X114304550Y-70448355D01*
X114233784Y-70552094D01*
X114178873Y-70597096D01*
X114108348Y-70605267D01*
X114044601Y-70574013D01*
X114023904Y-70549529D01*
X113963731Y-70456515D01*
X113963729Y-70456512D01*
X113960923Y-70452175D01*
X113807668Y-70283750D01*
X113628963Y-70142618D01*
X113429607Y-70032567D01*
X113313598Y-69991486D01*
X113219829Y-69958280D01*
X113219825Y-69958279D01*
X113214954Y-69956554D01*
X113209861Y-69955647D01*
X113209858Y-69955646D01*
X112995857Y-69917527D01*
X112995851Y-69917526D01*
X112990768Y-69916621D01*
X112903698Y-69915557D01*
X112768239Y-69913902D01*
X112768237Y-69913902D01*
X112763070Y-69913839D01*
X112537976Y-69948283D01*
X112321529Y-70019029D01*
X112119544Y-70124176D01*
X112115411Y-70127279D01*
X112115408Y-70127281D01*
X112069236Y-70161948D01*
X111937444Y-70260900D01*
X111780120Y-70425530D01*
X111764550Y-70448355D01*
X111693784Y-70552094D01*
X111638873Y-70597096D01*
X111568348Y-70605267D01*
X111504601Y-70574013D01*
X111483904Y-70549529D01*
X111423731Y-70456515D01*
X111423729Y-70456512D01*
X111420923Y-70452175D01*
X111267668Y-70283750D01*
X111088963Y-70142618D01*
X110889607Y-70032567D01*
X110773598Y-69991486D01*
X110679829Y-69958280D01*
X110679825Y-69958279D01*
X110674954Y-69956554D01*
X110669861Y-69955647D01*
X110669858Y-69955646D01*
X110455857Y-69917527D01*
X110455851Y-69917526D01*
X110450768Y-69916621D01*
X110363698Y-69915557D01*
X110228239Y-69913902D01*
X110228237Y-69913902D01*
X110223070Y-69913839D01*
X109997976Y-69948283D01*
X109781529Y-70019029D01*
X109579544Y-70124176D01*
X109575411Y-70127279D01*
X109575408Y-70127281D01*
X109529236Y-70161948D01*
X109397444Y-70260900D01*
X109373023Y-70286455D01*
X109311502Y-70321885D01*
X109240589Y-70318429D01*
X109182802Y-70277184D01*
X109163948Y-70243634D01*
X109133324Y-70161946D01*
X109124786Y-70146351D01*
X109048285Y-70044276D01*
X109035724Y-70031715D01*
X108933649Y-69955214D01*
X108918054Y-69946676D01*
X108797606Y-69901522D01*
X108782351Y-69897895D01*
X108731486Y-69892369D01*
X108724672Y-69892000D01*
X108052115Y-69892000D01*
X108036876Y-69896475D01*
X108035671Y-69897865D01*
X108034000Y-69905548D01*
X108034000Y-71428000D01*
X108013998Y-71496121D01*
X107960342Y-71542614D01*
X107908000Y-71554000D01*
X107652000Y-71554000D01*
X107583879Y-71533998D01*
X107537386Y-71480342D01*
X107526000Y-71428000D01*
X107526000Y-69910116D01*
X107521525Y-69894877D01*
X107520135Y-69893672D01*
X107512452Y-69892001D01*
X106835331Y-69892001D01*
X106828510Y-69892371D01*
X106777648Y-69897895D01*
X106762396Y-69901521D01*
X106641946Y-69946676D01*
X106626351Y-69955214D01*
X106524276Y-70031715D01*
X106511715Y-70044276D01*
X106435214Y-70146351D01*
X106426675Y-70161948D01*
X106396902Y-70241368D01*
X106354261Y-70298133D01*
X106287699Y-70322833D01*
X106218351Y-70307626D01*
X106192992Y-70289293D01*
X106191143Y-70287569D01*
X106187668Y-70283750D01*
X106008963Y-70142618D01*
X105809607Y-70032567D01*
X105693598Y-69991486D01*
X105599829Y-69958280D01*
X105599825Y-69958279D01*
X105594954Y-69956554D01*
X105589861Y-69955647D01*
X105589858Y-69955646D01*
X105375857Y-69917527D01*
X105375851Y-69917526D01*
X105370768Y-69916621D01*
X105283698Y-69915557D01*
X105148239Y-69913902D01*
X105148237Y-69913902D01*
X105143070Y-69913839D01*
X104917976Y-69948283D01*
X104701529Y-70019029D01*
X104499544Y-70124176D01*
X104495411Y-70127279D01*
X104495408Y-70127281D01*
X104449236Y-70161948D01*
X104317444Y-70260900D01*
X104160120Y-70425530D01*
X104144550Y-70448355D01*
X104073784Y-70552094D01*
X104018873Y-70597096D01*
X103948348Y-70605267D01*
X103884601Y-70574013D01*
X103863904Y-70549529D01*
X103803731Y-70456515D01*
X103803729Y-70456512D01*
X103800923Y-70452175D01*
X103647668Y-70283750D01*
X103468963Y-70142618D01*
X103269607Y-70032567D01*
X103153598Y-69991486D01*
X103059829Y-69958280D01*
X103059825Y-69958279D01*
X103054954Y-69956554D01*
X103049861Y-69955647D01*
X103049858Y-69955646D01*
X102835857Y-69917527D01*
X102835851Y-69917526D01*
X102830768Y-69916621D01*
X102743698Y-69915557D01*
X102608239Y-69913902D01*
X102608237Y-69913902D01*
X102603070Y-69913839D01*
X102377976Y-69948283D01*
X102161529Y-70019029D01*
X101959544Y-70124176D01*
X101955411Y-70127279D01*
X101955408Y-70127281D01*
X101909236Y-70161948D01*
X101777444Y-70260900D01*
X101620120Y-70425530D01*
X101604550Y-70448355D01*
X101533784Y-70552094D01*
X101478873Y-70597096D01*
X101408348Y-70605267D01*
X101344601Y-70574013D01*
X101323904Y-70549529D01*
X101263731Y-70456515D01*
X101263729Y-70456512D01*
X101260923Y-70452175D01*
X101107668Y-70283750D01*
X100928963Y-70142618D01*
X100729607Y-70032567D01*
X100613598Y-69991486D01*
X100519829Y-69958280D01*
X100519825Y-69958279D01*
X100514954Y-69956554D01*
X100509861Y-69955647D01*
X100509858Y-69955646D01*
X100295857Y-69917527D01*
X100295851Y-69917526D01*
X100290768Y-69916621D01*
X100203698Y-69915557D01*
X100068239Y-69913902D01*
X100068237Y-69913902D01*
X100063070Y-69913839D01*
X99837976Y-69948283D01*
X99621529Y-70019029D01*
X99419544Y-70124176D01*
X99415411Y-70127279D01*
X99415408Y-70127281D01*
X99369236Y-70161948D01*
X99237444Y-70260900D01*
X99080120Y-70425530D01*
X99064550Y-70448355D01*
X98993784Y-70552094D01*
X98938873Y-70597096D01*
X98868348Y-70605267D01*
X98804601Y-70574013D01*
X98783904Y-70549529D01*
X98723731Y-70456515D01*
X98723729Y-70456512D01*
X98720923Y-70452175D01*
X98567668Y-70283750D01*
X98388963Y-70142618D01*
X98189607Y-70032567D01*
X98073598Y-69991486D01*
X97979829Y-69958280D01*
X97979825Y-69958279D01*
X97974954Y-69956554D01*
X97969861Y-69955647D01*
X97969858Y-69955646D01*
X97755857Y-69917527D01*
X97755851Y-69917526D01*
X97750768Y-69916621D01*
X97663698Y-69915557D01*
X97528239Y-69913902D01*
X97528237Y-69913902D01*
X97523070Y-69913839D01*
X97297976Y-69948283D01*
X97081529Y-70019029D01*
X96879544Y-70124176D01*
X96875411Y-70127279D01*
X96875408Y-70127281D01*
X96829236Y-70161948D01*
X96697444Y-70260900D01*
X96540120Y-70425530D01*
X96524550Y-70448355D01*
X96453784Y-70552094D01*
X96398873Y-70597096D01*
X96328348Y-70605267D01*
X96264601Y-70574013D01*
X96243904Y-70549529D01*
X96183731Y-70456515D01*
X96183729Y-70456512D01*
X96180923Y-70452175D01*
X96027668Y-70283750D01*
X95848963Y-70142618D01*
X95649607Y-70032567D01*
X95533598Y-69991486D01*
X95439829Y-69958280D01*
X95439825Y-69958279D01*
X95434954Y-69956554D01*
X95429861Y-69955647D01*
X95429858Y-69955646D01*
X95215857Y-69917527D01*
X95215851Y-69917526D01*
X95210768Y-69916621D01*
X95123698Y-69915557D01*
X94988239Y-69913902D01*
X94988237Y-69913902D01*
X94983070Y-69913839D01*
X94757976Y-69948283D01*
X94541529Y-70019029D01*
X94339544Y-70124176D01*
X94335411Y-70127279D01*
X94335408Y-70127281D01*
X94289236Y-70161948D01*
X94157444Y-70260900D01*
X94000120Y-70425530D01*
X93984550Y-70448355D01*
X93913784Y-70552094D01*
X93858873Y-70597096D01*
X93788348Y-70605267D01*
X93724601Y-70574013D01*
X93703904Y-70549529D01*
X93643731Y-70456515D01*
X93643729Y-70456512D01*
X93640923Y-70452175D01*
X93487668Y-70283750D01*
X93308963Y-70142618D01*
X93109607Y-70032567D01*
X92993598Y-69991486D01*
X92899829Y-69958280D01*
X92899825Y-69958279D01*
X92894954Y-69956554D01*
X92889861Y-69955647D01*
X92889858Y-69955646D01*
X92675857Y-69917527D01*
X92675851Y-69917526D01*
X92670768Y-69916621D01*
X92583698Y-69915557D01*
X92448239Y-69913902D01*
X92448237Y-69913902D01*
X92443070Y-69913839D01*
X92217976Y-69948283D01*
X92001529Y-70019029D01*
X91799544Y-70124176D01*
X91795411Y-70127279D01*
X91795408Y-70127281D01*
X91749236Y-70161948D01*
X91617444Y-70260900D01*
X91460120Y-70425530D01*
X91444550Y-70448355D01*
X91373784Y-70552094D01*
X91318873Y-70597096D01*
X91248348Y-70605267D01*
X91184601Y-70574013D01*
X91163904Y-70549529D01*
X91103731Y-70456515D01*
X91103729Y-70456512D01*
X91100923Y-70452175D01*
X90947668Y-70283750D01*
X90768963Y-70142618D01*
X90569607Y-70032567D01*
X90453598Y-69991486D01*
X90359829Y-69958280D01*
X90359825Y-69958279D01*
X90354954Y-69956554D01*
X90349861Y-69955647D01*
X90349858Y-69955646D01*
X90135857Y-69917527D01*
X90135851Y-69917526D01*
X90130768Y-69916621D01*
X90043698Y-69915557D01*
X89908239Y-69913902D01*
X89908237Y-69913902D01*
X89903070Y-69913839D01*
X89677976Y-69948283D01*
X89461529Y-70019029D01*
X89259544Y-70124176D01*
X89255411Y-70127279D01*
X89255408Y-70127281D01*
X89209236Y-70161948D01*
X89077444Y-70260900D01*
X89053023Y-70286455D01*
X88991502Y-70321885D01*
X88920589Y-70318429D01*
X88862802Y-70277184D01*
X88843948Y-70243634D01*
X88813324Y-70161946D01*
X88804786Y-70146351D01*
X88728285Y-70044276D01*
X88715724Y-70031715D01*
X88613649Y-69955214D01*
X88598054Y-69946676D01*
X88477606Y-69901522D01*
X88462351Y-69897895D01*
X88411486Y-69892369D01*
X88404672Y-69892000D01*
X87732115Y-69892000D01*
X87716876Y-69896475D01*
X87715671Y-69897865D01*
X87714000Y-69905548D01*
X87714000Y-71428000D01*
X87693998Y-71496121D01*
X87640342Y-71542614D01*
X87588000Y-71554000D01*
X87332000Y-71554000D01*
X87263879Y-71533998D01*
X87217386Y-71480342D01*
X87206000Y-71428000D01*
X87206000Y-69910116D01*
X87201525Y-69894877D01*
X87200135Y-69893672D01*
X87192452Y-69892001D01*
X86515331Y-69892001D01*
X86508510Y-69892371D01*
X86457648Y-69897895D01*
X86442396Y-69901521D01*
X86321946Y-69946676D01*
X86306351Y-69955214D01*
X86204276Y-70031715D01*
X86191715Y-70044276D01*
X86115214Y-70146351D01*
X86106675Y-70161948D01*
X86076902Y-70241368D01*
X86034261Y-70298133D01*
X85967699Y-70322833D01*
X85898351Y-70307626D01*
X85872992Y-70289293D01*
X85871143Y-70287569D01*
X85867668Y-70283750D01*
X85688963Y-70142618D01*
X85489607Y-70032567D01*
X85373598Y-69991486D01*
X85279829Y-69958280D01*
X85279825Y-69958279D01*
X85274954Y-69956554D01*
X85269861Y-69955647D01*
X85269858Y-69955646D01*
X85055857Y-69917527D01*
X85055851Y-69917526D01*
X85050768Y-69916621D01*
X84963698Y-69915557D01*
X84828239Y-69913902D01*
X84828237Y-69913902D01*
X84823070Y-69913839D01*
X84597976Y-69948283D01*
X84381529Y-70019029D01*
X84179544Y-70124176D01*
X84175411Y-70127279D01*
X84175408Y-70127281D01*
X84129236Y-70161948D01*
X83997444Y-70260900D01*
X83840120Y-70425530D01*
X83824550Y-70448355D01*
X83753784Y-70552094D01*
X83698873Y-70597096D01*
X83628348Y-70605267D01*
X83564601Y-70574013D01*
X83543904Y-70549529D01*
X83483731Y-70456515D01*
X83483729Y-70456512D01*
X83480923Y-70452175D01*
X83327668Y-70283750D01*
X83148963Y-70142618D01*
X82949607Y-70032567D01*
X82833598Y-69991486D01*
X82739829Y-69958280D01*
X82739825Y-69958279D01*
X82734954Y-69956554D01*
X82729861Y-69955647D01*
X82729858Y-69955646D01*
X82515857Y-69917527D01*
X82515851Y-69917526D01*
X82510768Y-69916621D01*
X82423698Y-69915557D01*
X82288239Y-69913902D01*
X82288237Y-69913902D01*
X82283070Y-69913839D01*
X82057976Y-69948283D01*
X81841529Y-70019029D01*
X81639544Y-70124176D01*
X81635411Y-70127279D01*
X81635408Y-70127281D01*
X81589236Y-70161948D01*
X81457444Y-70260900D01*
X81300120Y-70425530D01*
X81284550Y-70448355D01*
X81213784Y-70552094D01*
X81158873Y-70597096D01*
X81088348Y-70605267D01*
X81024601Y-70574013D01*
X81003904Y-70549529D01*
X80943731Y-70456515D01*
X80943729Y-70456512D01*
X80940923Y-70452175D01*
X80787668Y-70283750D01*
X80608963Y-70142618D01*
X80409607Y-70032567D01*
X80293598Y-69991486D01*
X80199829Y-69958280D01*
X80199825Y-69958279D01*
X80194954Y-69956554D01*
X80189861Y-69955647D01*
X80189858Y-69955646D01*
X79975857Y-69917527D01*
X79975851Y-69917526D01*
X79970768Y-69916621D01*
X79883698Y-69915557D01*
X79748239Y-69913902D01*
X79748237Y-69913902D01*
X79743070Y-69913839D01*
X79517976Y-69948283D01*
X79301529Y-70019029D01*
X79099544Y-70124176D01*
X79095411Y-70127279D01*
X79095408Y-70127281D01*
X79049236Y-70161948D01*
X78917444Y-70260900D01*
X78760120Y-70425530D01*
X78744550Y-70448355D01*
X78673784Y-70552094D01*
X78618873Y-70597096D01*
X78548348Y-70605267D01*
X78484601Y-70574013D01*
X78463904Y-70549529D01*
X78403731Y-70456515D01*
X78403729Y-70456512D01*
X78400923Y-70452175D01*
X78247668Y-70283750D01*
X78068963Y-70142618D01*
X77869607Y-70032567D01*
X77753598Y-69991486D01*
X77659829Y-69958280D01*
X77659825Y-69958279D01*
X77654954Y-69956554D01*
X77649861Y-69955647D01*
X77649858Y-69955646D01*
X77435857Y-69917527D01*
X77435851Y-69917526D01*
X77430768Y-69916621D01*
X77343698Y-69915557D01*
X77208239Y-69913902D01*
X77208237Y-69913902D01*
X77203070Y-69913839D01*
X76977976Y-69948283D01*
X76761529Y-70019029D01*
X76559544Y-70124176D01*
X76555411Y-70127279D01*
X76555408Y-70127281D01*
X76509236Y-70161948D01*
X76377444Y-70260900D01*
X76220120Y-70425530D01*
X76217209Y-70429798D01*
X76217205Y-70429803D01*
X76145928Y-70534292D01*
X76091797Y-70613645D01*
X75995921Y-70820192D01*
X75935067Y-71039625D01*
X75910869Y-71266050D01*
X75911166Y-71271202D01*
X75911166Y-71271206D01*
X75915983Y-71354740D01*
X75923977Y-71493387D01*
X75925112Y-71498424D01*
X75925113Y-71498430D01*
X75941719Y-71572115D01*
X75974039Y-71715531D01*
X75975983Y-71720317D01*
X75975984Y-71720322D01*
X76057767Y-71921728D01*
X76059711Y-71926515D01*
X76133571Y-72047044D01*
X76175990Y-72116264D01*
X76178692Y-72120674D01*
X76327786Y-72292793D01*
X76502989Y-72438249D01*
X76507447Y-72440854D01*
X76510303Y-72442523D01*
X76511224Y-72443499D01*
X76511691Y-72443826D01*
X76511623Y-72443922D01*
X76559028Y-72494160D01*
X76572101Y-72563943D01*
X76545372Y-72629716D01*
X76522395Y-72652068D01*
X76377444Y-72760900D01*
X76220120Y-72925530D01*
X76217209Y-72929798D01*
X76217205Y-72929803D01*
X76145928Y-73034292D01*
X76091797Y-73113645D01*
X75995921Y-73320192D01*
X75935067Y-73539625D01*
X75910869Y-73766050D01*
X69740000Y-73766050D01*
X69740000Y-52087900D01*
X98591500Y-52087900D01*
X98591837Y-52091146D01*
X98591837Y-52091150D01*
X98601537Y-52184634D01*
X98602474Y-52193666D01*
X98604655Y-52200202D01*
X98604655Y-52200204D01*
X98616537Y-52235819D01*
X98658450Y-52361446D01*
X98751522Y-52511848D01*
X98876697Y-52636805D01*
X98882927Y-52640645D01*
X98882928Y-52640646D01*
X99020275Y-52725308D01*
X99027262Y-52729615D01*
X99116971Y-52759370D01*
X99155167Y-52772039D01*
X99213527Y-52812469D01*
X99240764Y-52878034D01*
X99241500Y-52891632D01*
X99241500Y-53863001D01*
X99224619Y-53926000D01*
X99165473Y-54028444D01*
X99106458Y-54210072D01*
X99105768Y-54216633D01*
X99105768Y-54216635D01*
X99092020Y-54347444D01*
X99086496Y-54400000D01*
X99087186Y-54406565D01*
X99099837Y-54526929D01*
X99106458Y-54589928D01*
X99165473Y-54771556D01*
X99168776Y-54777278D01*
X99168777Y-54777279D01*
X99172291Y-54783365D01*
X99260960Y-54936944D01*
X99388747Y-55078866D01*
X99487843Y-55150864D01*
X99526385Y-55178866D01*
X99543248Y-55191118D01*
X99549276Y-55193802D01*
X99549278Y-55193803D01*
X99711681Y-55266109D01*
X99717712Y-55268794D01*
X99724167Y-55270166D01*
X99724176Y-55270169D01*
X99780772Y-55282199D01*
X99843669Y-55316350D01*
X110916230Y-66388911D01*
X110928616Y-66403323D01*
X110937149Y-66414918D01*
X110937154Y-66414923D01*
X110941492Y-66420818D01*
X110947070Y-66425557D01*
X110947073Y-66425560D01*
X110981768Y-66455035D01*
X110989284Y-66461965D01*
X110994979Y-66467660D01*
X110997861Y-66469940D01*
X111017251Y-66485281D01*
X111020655Y-66488072D01*
X111070703Y-66530591D01*
X111076285Y-66535333D01*
X111082801Y-66538661D01*
X111087850Y-66542028D01*
X111092979Y-66545195D01*
X111098716Y-66549734D01*
X111164875Y-66580655D01*
X111168769Y-66582558D01*
X111233808Y-66615769D01*
X111240916Y-66617508D01*
X111246559Y-66619607D01*
X111252322Y-66621524D01*
X111258950Y-66624622D01*
X111266112Y-66626112D01*
X111266113Y-66626112D01*
X111330412Y-66639486D01*
X111334696Y-66640456D01*
X111405610Y-66657808D01*
X111411212Y-66658156D01*
X111411215Y-66658156D01*
X111416764Y-66658500D01*
X111416762Y-66658536D01*
X111420755Y-66658775D01*
X111424947Y-66659149D01*
X111432115Y-66660640D01*
X111509520Y-66658546D01*
X111512928Y-66658500D01*
X122551323Y-66658500D01*
X122619444Y-66678502D01*
X122640334Y-66695321D01*
X122671997Y-66726929D01*
X122820080Y-66818209D01*
X122985191Y-66872974D01*
X122992027Y-66873674D01*
X122992030Y-66873675D01*
X123043526Y-66878951D01*
X123087928Y-66883500D01*
X123687072Y-66883500D01*
X123690318Y-66883163D01*
X123690322Y-66883163D01*
X123784235Y-66873419D01*
X123784239Y-66873418D01*
X123791093Y-66872707D01*
X123797629Y-66870526D01*
X123797631Y-66870526D01*
X123930395Y-66826232D01*
X123956107Y-66817654D01*
X124104031Y-66726116D01*
X124169393Y-66660640D01*
X124210747Y-66619214D01*
X124273030Y-66585135D01*
X124343850Y-66590138D01*
X124388937Y-66619059D01*
X124491812Y-66721754D01*
X124491817Y-66721758D01*
X124496997Y-66726929D01*
X124645080Y-66818209D01*
X124810191Y-66872974D01*
X124817027Y-66873674D01*
X124817030Y-66873675D01*
X124868526Y-66878951D01*
X124912928Y-66883500D01*
X125512072Y-66883500D01*
X125515318Y-66883163D01*
X125515322Y-66883163D01*
X125609235Y-66873419D01*
X125609239Y-66873418D01*
X125616093Y-66872707D01*
X125622629Y-66870526D01*
X125622631Y-66870526D01*
X125755395Y-66826232D01*
X125781107Y-66817654D01*
X125929031Y-66726116D01*
X125959612Y-66695482D01*
X126021895Y-66661403D01*
X126048785Y-66658500D01*
X130815500Y-66658500D01*
X130883621Y-66678502D01*
X130930114Y-66732158D01*
X130941500Y-66784500D01*
X130941500Y-73433629D01*
X130921498Y-73501750D01*
X130904595Y-73522724D01*
X127722724Y-76704595D01*
X127660412Y-76738621D01*
X127633629Y-76741500D01*
X108147070Y-76741500D01*
X108128120Y-76740067D01*
X108113885Y-76737901D01*
X108113881Y-76737901D01*
X108106651Y-76736801D01*
X108099359Y-76737394D01*
X108099356Y-76737394D01*
X108053982Y-76741085D01*
X108043767Y-76741500D01*
X108035707Y-76741500D01*
X108022417Y-76743049D01*
X108007493Y-76744789D01*
X108003118Y-76745222D01*
X107937661Y-76750546D01*
X107937658Y-76750547D01*
X107930363Y-76751140D01*
X107923399Y-76753396D01*
X107917440Y-76754587D01*
X107911585Y-76755971D01*
X107904319Y-76756818D01*
X107835673Y-76781735D01*
X107831545Y-76783152D01*
X107769064Y-76803393D01*
X107769062Y-76803394D01*
X107762101Y-76805649D01*
X107755846Y-76809445D01*
X107750372Y-76811951D01*
X107744942Y-76814670D01*
X107738063Y-76817167D01*
X107731943Y-76821180D01*
X107731942Y-76821180D01*
X107677024Y-76857186D01*
X107673320Y-76859523D01*
X107610893Y-76897405D01*
X107602516Y-76904803D01*
X107602492Y-76904776D01*
X107599500Y-76907429D01*
X107596267Y-76910132D01*
X107590148Y-76914144D01*
X107585116Y-76919456D01*
X107536872Y-76970383D01*
X107534494Y-76972825D01*
X103909973Y-80597346D01*
X103847661Y-80631372D01*
X103798786Y-80632299D01*
X103710768Y-80616621D01*
X103623698Y-80615557D01*
X103488239Y-80613902D01*
X103488237Y-80613902D01*
X103483070Y-80613839D01*
X103257976Y-80648283D01*
X103041529Y-80719029D01*
X102839544Y-80824176D01*
X102835411Y-80827279D01*
X102835408Y-80827281D01*
X102680440Y-80943634D01*
X102657444Y-80960900D01*
X102500120Y-81125530D01*
X102484550Y-81148355D01*
X102413784Y-81252094D01*
X102358873Y-81297096D01*
X102288348Y-81305267D01*
X102224601Y-81274013D01*
X102203904Y-81249529D01*
X102143731Y-81156515D01*
X102143729Y-81156512D01*
X102140923Y-81152175D01*
X101987668Y-80983750D01*
X101808963Y-80842618D01*
X101609607Y-80732567D01*
X101493598Y-80691486D01*
X101399829Y-80658280D01*
X101399825Y-80658279D01*
X101394954Y-80656554D01*
X101389861Y-80655647D01*
X101389858Y-80655646D01*
X101175857Y-80617527D01*
X101175851Y-80617526D01*
X101170768Y-80616621D01*
X101083698Y-80615557D01*
X100948239Y-80613902D01*
X100948237Y-80613902D01*
X100943070Y-80613839D01*
X100717976Y-80648283D01*
X100501529Y-80719029D01*
X100299544Y-80824176D01*
X100295411Y-80827279D01*
X100295408Y-80827281D01*
X100140440Y-80943634D01*
X100117444Y-80960900D01*
X100093023Y-80986455D01*
X100031502Y-81021885D01*
X99960589Y-81018429D01*
X99902802Y-80977184D01*
X99883948Y-80943634D01*
X99853324Y-80861946D01*
X99844786Y-80846351D01*
X99768285Y-80744276D01*
X99755724Y-80731715D01*
X99653649Y-80655214D01*
X99638054Y-80646676D01*
X99517606Y-80601522D01*
X99502351Y-80597895D01*
X99451486Y-80592369D01*
X99444672Y-80592000D01*
X98772115Y-80592000D01*
X98756876Y-80596475D01*
X98755671Y-80597865D01*
X98754000Y-80605548D01*
X98754000Y-83389884D01*
X98758475Y-83405123D01*
X98759865Y-83406328D01*
X98767548Y-83407999D01*
X99444669Y-83407999D01*
X99451490Y-83407629D01*
X99502352Y-83402105D01*
X99517604Y-83398479D01*
X99638054Y-83353324D01*
X99653649Y-83344786D01*
X99755724Y-83268285D01*
X99768285Y-83255724D01*
X99844786Y-83153649D01*
X99853324Y-83138054D01*
X99883580Y-83057347D01*
X99926222Y-83000583D01*
X99992783Y-82975883D01*
X100062132Y-82991091D01*
X100082042Y-83004629D01*
X100242989Y-83138249D01*
X100247441Y-83140851D01*
X100247446Y-83140854D01*
X100382188Y-83219591D01*
X100439597Y-83253138D01*
X100652329Y-83334372D01*
X100657395Y-83335403D01*
X100657396Y-83335403D01*
X100703515Y-83344786D01*
X100875472Y-83379771D01*
X101003288Y-83384458D01*
X101097870Y-83387927D01*
X101097875Y-83387927D01*
X101103034Y-83388116D01*
X101108154Y-83387460D01*
X101108156Y-83387460D01*
X101180344Y-83378212D01*
X101328903Y-83359181D01*
X101333852Y-83357696D01*
X101333858Y-83357695D01*
X101460204Y-83319789D01*
X101547013Y-83293745D01*
X101751507Y-83193564D01*
X101755711Y-83190566D01*
X101755715Y-83190563D01*
X101833683Y-83134949D01*
X101936893Y-83061330D01*
X102098193Y-82900592D01*
X102208528Y-82747044D01*
X102264523Y-82703396D01*
X102335226Y-82696950D01*
X102398191Y-82729753D01*
X102418283Y-82754735D01*
X102455989Y-82816264D01*
X102455992Y-82816269D01*
X102458692Y-82820674D01*
X102607786Y-82992793D01*
X102782989Y-83138249D01*
X102787441Y-83140851D01*
X102787446Y-83140854D01*
X102922188Y-83219591D01*
X102979597Y-83253138D01*
X103192329Y-83334372D01*
X103197395Y-83335403D01*
X103197396Y-83335403D01*
X103243515Y-83344786D01*
X103415472Y-83379771D01*
X103543288Y-83384458D01*
X103637870Y-83387927D01*
X103637875Y-83387927D01*
X103643034Y-83388116D01*
X103648154Y-83387460D01*
X103648156Y-83387460D01*
X103720344Y-83378212D01*
X103868903Y-83359181D01*
X103873852Y-83357696D01*
X103873858Y-83357695D01*
X104000204Y-83319789D01*
X104087013Y-83293745D01*
X104291507Y-83193564D01*
X104295711Y-83190566D01*
X104295715Y-83190563D01*
X104373683Y-83134949D01*
X104476893Y-83061330D01*
X104638193Y-82900592D01*
X104748528Y-82747044D01*
X104804523Y-82703396D01*
X104875226Y-82696950D01*
X104938191Y-82729753D01*
X104958283Y-82754735D01*
X104995989Y-82816264D01*
X104995992Y-82816269D01*
X104998692Y-82820674D01*
X105147786Y-82992793D01*
X105322989Y-83138249D01*
X105327441Y-83140851D01*
X105327446Y-83140854D01*
X105462188Y-83219591D01*
X105519597Y-83253138D01*
X105732329Y-83334372D01*
X105737395Y-83335403D01*
X105737396Y-83335403D01*
X105783515Y-83344786D01*
X105955472Y-83379771D01*
X106083288Y-83384458D01*
X106177870Y-83387927D01*
X106177875Y-83387927D01*
X106183034Y-83388116D01*
X106188154Y-83387460D01*
X106188156Y-83387460D01*
X106260344Y-83378212D01*
X106408903Y-83359181D01*
X106413852Y-83357696D01*
X106413858Y-83357695D01*
X106540204Y-83319789D01*
X106627013Y-83293745D01*
X106831507Y-83193564D01*
X106835711Y-83190566D01*
X106835715Y-83190563D01*
X106913683Y-83134949D01*
X107016893Y-83061330D01*
X107178193Y-82900592D01*
X107288528Y-82747044D01*
X107344523Y-82703396D01*
X107415226Y-82696950D01*
X107478191Y-82729753D01*
X107498283Y-82754735D01*
X107535989Y-82816264D01*
X107535992Y-82816269D01*
X107538692Y-82820674D01*
X107687786Y-82992793D01*
X107862989Y-83138249D01*
X107867441Y-83140851D01*
X107867446Y-83140854D01*
X108002188Y-83219591D01*
X108059597Y-83253138D01*
X108272329Y-83334372D01*
X108277395Y-83335403D01*
X108277396Y-83335403D01*
X108323515Y-83344786D01*
X108495472Y-83379771D01*
X108623288Y-83384458D01*
X108717870Y-83387927D01*
X108717875Y-83387927D01*
X108723034Y-83388116D01*
X108728154Y-83387460D01*
X108728156Y-83387460D01*
X108800344Y-83378212D01*
X108948903Y-83359181D01*
X108953852Y-83357696D01*
X108953858Y-83357695D01*
X109080204Y-83319789D01*
X109167013Y-83293745D01*
X109371507Y-83193564D01*
X109375711Y-83190566D01*
X109375715Y-83190563D01*
X109453683Y-83134949D01*
X109556893Y-83061330D01*
X109673962Y-82944669D01*
X122292001Y-82944669D01*
X122292371Y-82951490D01*
X122297895Y-83002352D01*
X122301521Y-83017604D01*
X122346676Y-83138054D01*
X122355214Y-83153649D01*
X122431715Y-83255724D01*
X122444276Y-83268285D01*
X122546351Y-83344786D01*
X122561946Y-83353324D01*
X122682394Y-83398478D01*
X122697649Y-83402105D01*
X122748514Y-83407631D01*
X122755328Y-83408000D01*
X123427885Y-83408000D01*
X123443124Y-83403525D01*
X123444329Y-83402135D01*
X123446000Y-83394452D01*
X123446000Y-82272115D01*
X123441525Y-82256876D01*
X123440135Y-82255671D01*
X123432452Y-82254000D01*
X122310116Y-82254000D01*
X122294877Y-82258475D01*
X122293672Y-82259865D01*
X122292001Y-82267548D01*
X122292001Y-82944669D01*
X109673962Y-82944669D01*
X109718193Y-82900592D01*
X109851073Y-82715669D01*
X109897563Y-82621605D01*
X109949673Y-82516168D01*
X109949674Y-82516166D01*
X109951967Y-82511526D01*
X110018164Y-82293646D01*
X110021600Y-82267548D01*
X110047450Y-82071201D01*
X110047451Y-82071194D01*
X110047887Y-82067879D01*
X110049546Y-82000000D01*
X110030887Y-81773051D01*
X110031356Y-81773012D01*
X110039586Y-81705684D01*
X110066187Y-81666494D01*
X111137275Y-80595405D01*
X111199587Y-80561380D01*
X111226370Y-80558500D01*
X122678890Y-80558500D01*
X122747011Y-80578502D01*
X122793504Y-80632158D01*
X122803608Y-80702432D01*
X122774114Y-80767012D01*
X122767985Y-80773595D01*
X122414164Y-81127416D01*
X122408899Y-81133390D01*
X122363418Y-81192076D01*
X122355024Y-81206548D01*
X122305894Y-81325450D01*
X122301629Y-81341593D01*
X122292490Y-81414448D01*
X122292000Y-81422293D01*
X122292000Y-81727885D01*
X122296475Y-81743124D01*
X122297865Y-81744329D01*
X122305548Y-81746000D01*
X123828000Y-81746000D01*
X123896121Y-81766002D01*
X123942614Y-81819658D01*
X123954000Y-81872000D01*
X123954000Y-83389884D01*
X123958475Y-83405123D01*
X123959865Y-83406328D01*
X123967548Y-83407999D01*
X124644669Y-83407999D01*
X124651490Y-83407629D01*
X124702352Y-83402105D01*
X124717604Y-83398479D01*
X124838054Y-83353324D01*
X124853649Y-83344786D01*
X124955724Y-83268285D01*
X124968285Y-83255724D01*
X125044786Y-83153649D01*
X125053324Y-83138054D01*
X125083580Y-83057347D01*
X125126222Y-83000583D01*
X125192783Y-82975883D01*
X125262132Y-82991091D01*
X125282042Y-83004629D01*
X125442989Y-83138249D01*
X125447441Y-83140851D01*
X125447446Y-83140854D01*
X125582188Y-83219591D01*
X125639597Y-83253138D01*
X125852329Y-83334372D01*
X125857395Y-83335403D01*
X125857396Y-83335403D01*
X125903515Y-83344786D01*
X126075472Y-83379771D01*
X126203288Y-83384458D01*
X126297870Y-83387927D01*
X126297875Y-83387927D01*
X126303034Y-83388116D01*
X126308154Y-83387460D01*
X126308156Y-83387460D01*
X126380344Y-83378212D01*
X126528903Y-83359181D01*
X126533852Y-83357696D01*
X126533858Y-83357695D01*
X126660204Y-83319789D01*
X126747013Y-83293745D01*
X126951507Y-83193564D01*
X126955711Y-83190566D01*
X126955715Y-83190563D01*
X127033683Y-83134949D01*
X127136893Y-83061330D01*
X127298193Y-82900592D01*
X127408528Y-82747044D01*
X127464523Y-82703396D01*
X127535226Y-82696950D01*
X127598191Y-82729753D01*
X127618283Y-82754735D01*
X127655989Y-82816264D01*
X127655992Y-82816269D01*
X127658692Y-82820674D01*
X127807786Y-82992793D01*
X127982989Y-83138249D01*
X127987441Y-83140851D01*
X127987446Y-83140854D01*
X128122188Y-83219591D01*
X128179597Y-83253138D01*
X128392329Y-83334372D01*
X128397395Y-83335403D01*
X128397396Y-83335403D01*
X128443515Y-83344786D01*
X128615472Y-83379771D01*
X128743288Y-83384458D01*
X128837870Y-83387927D01*
X128837875Y-83387927D01*
X128843034Y-83388116D01*
X128848154Y-83387460D01*
X128848156Y-83387460D01*
X128920344Y-83378212D01*
X129068903Y-83359181D01*
X129073852Y-83357696D01*
X129073858Y-83357695D01*
X129200204Y-83319789D01*
X129287013Y-83293745D01*
X129491507Y-83193564D01*
X129495711Y-83190566D01*
X129495715Y-83190563D01*
X129573683Y-83134949D01*
X129676893Y-83061330D01*
X129838193Y-82900592D01*
X129948528Y-82747044D01*
X130004523Y-82703396D01*
X130075226Y-82696950D01*
X130138191Y-82729753D01*
X130158283Y-82754735D01*
X130195989Y-82816264D01*
X130195992Y-82816269D01*
X130198692Y-82820674D01*
X130347786Y-82992793D01*
X130522989Y-83138249D01*
X130527441Y-83140851D01*
X130527446Y-83140854D01*
X130662188Y-83219591D01*
X130719597Y-83253138D01*
X130932329Y-83334372D01*
X130937395Y-83335403D01*
X130937396Y-83335403D01*
X130983515Y-83344786D01*
X131155472Y-83379771D01*
X131283288Y-83384458D01*
X131377870Y-83387927D01*
X131377875Y-83387927D01*
X131383034Y-83388116D01*
X131388154Y-83387460D01*
X131388156Y-83387460D01*
X131460344Y-83378212D01*
X131608903Y-83359181D01*
X131613852Y-83357696D01*
X131613858Y-83357695D01*
X131740204Y-83319789D01*
X131827013Y-83293745D01*
X132031507Y-83193564D01*
X132035711Y-83190566D01*
X132035715Y-83190563D01*
X132113683Y-83134949D01*
X132216893Y-83061330D01*
X132378193Y-82900592D01*
X132488528Y-82747044D01*
X132544523Y-82703396D01*
X132615226Y-82696950D01*
X132678191Y-82729753D01*
X132698283Y-82754735D01*
X132735989Y-82816264D01*
X132735992Y-82816269D01*
X132738692Y-82820674D01*
X132887786Y-82992793D01*
X133062989Y-83138249D01*
X133067441Y-83140851D01*
X133067446Y-83140854D01*
X133202188Y-83219591D01*
X133259597Y-83253138D01*
X133472329Y-83334372D01*
X133477395Y-83335403D01*
X133477396Y-83335403D01*
X133523515Y-83344786D01*
X133695472Y-83379771D01*
X133823288Y-83384458D01*
X133917870Y-83387927D01*
X133917875Y-83387927D01*
X133923034Y-83388116D01*
X133928154Y-83387460D01*
X133928156Y-83387460D01*
X134000344Y-83378212D01*
X134148903Y-83359181D01*
X134153852Y-83357696D01*
X134153858Y-83357695D01*
X134280204Y-83319789D01*
X134367013Y-83293745D01*
X134571507Y-83193564D01*
X134575711Y-83190566D01*
X134575715Y-83190563D01*
X134653683Y-83134949D01*
X134756893Y-83061330D01*
X134918193Y-82900592D01*
X135051073Y-82715669D01*
X135097563Y-82621605D01*
X135149673Y-82516168D01*
X135149674Y-82516166D01*
X135151967Y-82511526D01*
X135218164Y-82293646D01*
X135221600Y-82267548D01*
X135247450Y-82071201D01*
X135247451Y-82071194D01*
X135247887Y-82067879D01*
X135249546Y-82000000D01*
X135234719Y-81819658D01*
X135231311Y-81778202D01*
X135231310Y-81778196D01*
X135230887Y-81773051D01*
X135175413Y-81552197D01*
X135173355Y-81547464D01*
X135173352Y-81547455D01*
X135132367Y-81453198D01*
X135123546Y-81382751D01*
X135158821Y-81313860D01*
X137688911Y-78783770D01*
X137703323Y-78771384D01*
X137714918Y-78762851D01*
X137714923Y-78762846D01*
X137720818Y-78758508D01*
X137725557Y-78752930D01*
X137725560Y-78752927D01*
X137755035Y-78718232D01*
X137761965Y-78710716D01*
X137767660Y-78705021D01*
X137785281Y-78682749D01*
X137788072Y-78679345D01*
X137830591Y-78629297D01*
X137830592Y-78629295D01*
X137835333Y-78623715D01*
X137838661Y-78617199D01*
X137842028Y-78612150D01*
X137845195Y-78607021D01*
X137849734Y-78601284D01*
X137880655Y-78535125D01*
X137882561Y-78531225D01*
X137915769Y-78466192D01*
X137917508Y-78459084D01*
X137919607Y-78453441D01*
X137921524Y-78447678D01*
X137924622Y-78441050D01*
X137939487Y-78369583D01*
X137940457Y-78365299D01*
X137956473Y-78299845D01*
X137957808Y-78294390D01*
X137958500Y-78283236D01*
X137958536Y-78283238D01*
X137958775Y-78279245D01*
X137959149Y-78275053D01*
X137960640Y-78267885D01*
X137958546Y-78190479D01*
X137958500Y-78187072D01*
X137958500Y-60367070D01*
X137959933Y-60348120D01*
X137962099Y-60333885D01*
X137962099Y-60333881D01*
X137963199Y-60326651D01*
X137961412Y-60304673D01*
X137958915Y-60273982D01*
X137958500Y-60263767D01*
X137958500Y-60255707D01*
X137955209Y-60227480D01*
X137954778Y-60223121D01*
X137949454Y-60157662D01*
X137949453Y-60157659D01*
X137948860Y-60150364D01*
X137946604Y-60143400D01*
X137945417Y-60137461D01*
X137944030Y-60131590D01*
X137943182Y-60124319D01*
X137940686Y-60117443D01*
X137940684Y-60117434D01*
X137918275Y-60055702D01*
X137916865Y-60051598D01*
X137894352Y-59982101D01*
X137890556Y-59975846D01*
X137888057Y-59970387D01*
X137885329Y-59964939D01*
X137882833Y-59958063D01*
X137842805Y-59897010D01*
X137840481Y-59893327D01*
X137805500Y-59835680D01*
X137805499Y-59835679D01*
X137802595Y-59830893D01*
X137795198Y-59822517D01*
X137795225Y-59822493D01*
X137792570Y-59819499D01*
X137789868Y-59816268D01*
X137785856Y-59810148D01*
X137729617Y-59756872D01*
X137727175Y-59754494D01*
X131183770Y-53211089D01*
X131171384Y-53196677D01*
X131162851Y-53185082D01*
X131162846Y-53185077D01*
X131158508Y-53179182D01*
X131152930Y-53174443D01*
X131152927Y-53174440D01*
X131118232Y-53144965D01*
X131110716Y-53138035D01*
X131105021Y-53132340D01*
X131083675Y-53115452D01*
X131082749Y-53114719D01*
X131079345Y-53111928D01*
X131029297Y-53069409D01*
X131029295Y-53069408D01*
X131023715Y-53064667D01*
X131017199Y-53061339D01*
X131012150Y-53057972D01*
X131007021Y-53054805D01*
X131001284Y-53050266D01*
X130935125Y-53019345D01*
X130931225Y-53017439D01*
X130866192Y-52984231D01*
X130859084Y-52982492D01*
X130853441Y-52980393D01*
X130847678Y-52978476D01*
X130841050Y-52975378D01*
X130769583Y-52960513D01*
X130765299Y-52959543D01*
X130694390Y-52942192D01*
X130688788Y-52941844D01*
X130688785Y-52941844D01*
X130683236Y-52941500D01*
X130683238Y-52941464D01*
X130679245Y-52941225D01*
X130675053Y-52940851D01*
X130667885Y-52939360D01*
X130601675Y-52941151D01*
X130590479Y-52941454D01*
X130587072Y-52941500D01*
X126061177Y-52941500D01*
X125993056Y-52921498D01*
X125972166Y-52904679D01*
X125940503Y-52873071D01*
X125792420Y-52781791D01*
X125627309Y-52727026D01*
X125620473Y-52726326D01*
X125620470Y-52726325D01*
X125568974Y-52721049D01*
X125524572Y-52716500D01*
X124925428Y-52716500D01*
X124922182Y-52716837D01*
X124922178Y-52716837D01*
X124828265Y-52726581D01*
X124828261Y-52726582D01*
X124821407Y-52727293D01*
X124814871Y-52729474D01*
X124814869Y-52729474D01*
X124695994Y-52769134D01*
X124656393Y-52782346D01*
X124508469Y-52873884D01*
X124503296Y-52879066D01*
X124401753Y-52980786D01*
X124339470Y-53014865D01*
X124268650Y-53009862D01*
X124223563Y-52980941D01*
X124120688Y-52878246D01*
X124120683Y-52878242D01*
X124115503Y-52873071D01*
X124109116Y-52869134D01*
X123973650Y-52785631D01*
X123973648Y-52785630D01*
X123967420Y-52781791D01*
X123802309Y-52727026D01*
X123795473Y-52726326D01*
X123795470Y-52726325D01*
X123743974Y-52721049D01*
X123699572Y-52716500D01*
X123100428Y-52716500D01*
X123097182Y-52716837D01*
X123097178Y-52716837D01*
X123003265Y-52726581D01*
X123003261Y-52726582D01*
X122996407Y-52727293D01*
X122989871Y-52729474D01*
X122989869Y-52729474D01*
X122870994Y-52769134D01*
X122831393Y-52782346D01*
X122683469Y-52873884D01*
X122678296Y-52879066D01*
X122652888Y-52904518D01*
X122590605Y-52938597D01*
X122563715Y-52941500D01*
X119088708Y-52941500D01*
X119020587Y-52921498D01*
X118974094Y-52867842D01*
X118963123Y-52825715D01*
X118958915Y-52773982D01*
X118958500Y-52763767D01*
X118958500Y-52755707D01*
X118955694Y-52731634D01*
X118955211Y-52727493D01*
X118954778Y-52723118D01*
X118949454Y-52657661D01*
X118949453Y-52657658D01*
X118948860Y-52650363D01*
X118946604Y-52643399D01*
X118945413Y-52637440D01*
X118944029Y-52631585D01*
X118943182Y-52624319D01*
X118918265Y-52555673D01*
X118916848Y-52551545D01*
X118896607Y-52489064D01*
X118896606Y-52489062D01*
X118894351Y-52482101D01*
X118890555Y-52475846D01*
X118888049Y-52470372D01*
X118885330Y-52464942D01*
X118882833Y-52458063D01*
X118842809Y-52397016D01*
X118840472Y-52393312D01*
X118805509Y-52335693D01*
X118805505Y-52335688D01*
X118802595Y-52330892D01*
X118797745Y-52325400D01*
X118795197Y-52322516D01*
X118795223Y-52322493D01*
X118792574Y-52319503D01*
X118789866Y-52316265D01*
X118785856Y-52310148D01*
X118747846Y-52274141D01*
X118712149Y-52212773D01*
X118708500Y-52182669D01*
X118708500Y-51437100D01*
X118704609Y-51399600D01*
X118698238Y-51338192D01*
X118698237Y-51338188D01*
X118697526Y-51331334D01*
X118688029Y-51302866D01*
X118643868Y-51170502D01*
X118641550Y-51163554D01*
X118548478Y-51013152D01*
X118423303Y-50888195D01*
X118415738Y-50883532D01*
X118278968Y-50799225D01*
X118278966Y-50799224D01*
X118272738Y-50795385D01*
X118161382Y-50758450D01*
X118111389Y-50741868D01*
X118111387Y-50741868D01*
X118104861Y-50739703D01*
X118098025Y-50739003D01*
X118098022Y-50739002D01*
X118054969Y-50734591D01*
X118000400Y-50729000D01*
X116599600Y-50729000D01*
X116596354Y-50729337D01*
X116596350Y-50729337D01*
X116500692Y-50739262D01*
X116500688Y-50739263D01*
X116493834Y-50739974D01*
X116487298Y-50742155D01*
X116487296Y-50742155D01*
X116426897Y-50762306D01*
X116326054Y-50795950D01*
X116175652Y-50889022D01*
X116050695Y-51014197D01*
X116046855Y-51020427D01*
X116046854Y-51020428D01*
X115962276Y-51157639D01*
X115957885Y-51164762D01*
X115945968Y-51200692D01*
X115917243Y-51287296D01*
X115902203Y-51332639D01*
X115891500Y-51437100D01*
X115891500Y-52362900D01*
X115891837Y-52366146D01*
X115891837Y-52366150D01*
X115901725Y-52461446D01*
X115902474Y-52468666D01*
X115904655Y-52475202D01*
X115904655Y-52475204D01*
X115930125Y-52551545D01*
X115958450Y-52636446D01*
X116051522Y-52786848D01*
X116176697Y-52911805D01*
X116182927Y-52915645D01*
X116182928Y-52915646D01*
X116313236Y-52995969D01*
X116327262Y-53004615D01*
X116396174Y-53027472D01*
X116488611Y-53058132D01*
X116488613Y-53058132D01*
X116495139Y-53060297D01*
X116501975Y-53060997D01*
X116501978Y-53060998D01*
X116537790Y-53064667D01*
X116599600Y-53071000D01*
X117315500Y-53071000D01*
X117383621Y-53091002D01*
X117430114Y-53144658D01*
X117441500Y-53197000D01*
X117441500Y-53333629D01*
X117421498Y-53401750D01*
X117404595Y-53422724D01*
X117143669Y-53683650D01*
X117080772Y-53717801D01*
X117024176Y-53729831D01*
X117024167Y-53729834D01*
X117017712Y-53731206D01*
X117011682Y-53733891D01*
X117011681Y-53733891D01*
X116849278Y-53806197D01*
X116849276Y-53806198D01*
X116843248Y-53808882D01*
X116688747Y-53921134D01*
X116560960Y-54063056D01*
X116502686Y-54163990D01*
X116469120Y-54222128D01*
X116465473Y-54228444D01*
X116406458Y-54410072D01*
X116386496Y-54600000D01*
X116387186Y-54606565D01*
X116405129Y-54777279D01*
X116406458Y-54789928D01*
X116465473Y-54971556D01*
X116560960Y-55136944D01*
X116565378Y-55141851D01*
X116565379Y-55141852D01*
X116645819Y-55231190D01*
X116676537Y-55295197D01*
X116667772Y-55365651D01*
X116622309Y-55420182D01*
X116552183Y-55441500D01*
X115766371Y-55441500D01*
X115698250Y-55421498D01*
X115677276Y-55404595D01*
X114720125Y-54447444D01*
X114689387Y-54397285D01*
X114640701Y-54247444D01*
X114634527Y-54228444D01*
X114630881Y-54222128D01*
X114580420Y-54134729D01*
X114575381Y-54126000D01*
X114558500Y-54063001D01*
X114558500Y-53129219D01*
X114578502Y-53061098D01*
X114632158Y-53014605D01*
X114644618Y-53009697D01*
X114773946Y-52966550D01*
X114924348Y-52873478D01*
X115049305Y-52748303D01*
X115054527Y-52739832D01*
X115138275Y-52603968D01*
X115138276Y-52603966D01*
X115142115Y-52597738D01*
X115180470Y-52482101D01*
X115195632Y-52436389D01*
X115195632Y-52436387D01*
X115197797Y-52429861D01*
X115208500Y-52325400D01*
X115208500Y-51399600D01*
X115202262Y-51339478D01*
X115198238Y-51300692D01*
X115198237Y-51300688D01*
X115197526Y-51293834D01*
X115188029Y-51265366D01*
X115143868Y-51133002D01*
X115141550Y-51126054D01*
X115048478Y-50975652D01*
X114923303Y-50850695D01*
X114917072Y-50846854D01*
X114778968Y-50761725D01*
X114778966Y-50761724D01*
X114772738Y-50757885D01*
X114656118Y-50719204D01*
X114611389Y-50704368D01*
X114611387Y-50704368D01*
X114604861Y-50702203D01*
X114598025Y-50701503D01*
X114598022Y-50701502D01*
X114554969Y-50697091D01*
X114500400Y-50691500D01*
X113099600Y-50691500D01*
X113096354Y-50691837D01*
X113096350Y-50691837D01*
X113000692Y-50701762D01*
X113000688Y-50701763D01*
X112993834Y-50702474D01*
X112987298Y-50704655D01*
X112987296Y-50704655D01*
X112883762Y-50739197D01*
X112826054Y-50758450D01*
X112675652Y-50851522D01*
X112550695Y-50976697D01*
X112546855Y-50982927D01*
X112546854Y-50982928D01*
X112527580Y-51014197D01*
X112457885Y-51127262D01*
X112402203Y-51295139D01*
X112391500Y-51399600D01*
X112391500Y-52325400D01*
X112391837Y-52328646D01*
X112391837Y-52328650D01*
X112398742Y-52395195D01*
X112402474Y-52431166D01*
X112404655Y-52437702D01*
X112404655Y-52437704D01*
X112442636Y-52551545D01*
X112458450Y-52598946D01*
X112551522Y-52749348D01*
X112556704Y-52754521D01*
X112574253Y-52772039D01*
X112676697Y-52874305D01*
X112682927Y-52878145D01*
X112682928Y-52878146D01*
X112820090Y-52962694D01*
X112827262Y-52967115D01*
X112888902Y-52987560D01*
X112955167Y-53009539D01*
X113013527Y-53049969D01*
X113040764Y-53115534D01*
X113041500Y-53129132D01*
X113041500Y-54063001D01*
X113024619Y-54126000D01*
X113019580Y-54134729D01*
X112969120Y-54222128D01*
X112965473Y-54228444D01*
X112906458Y-54410072D01*
X112886496Y-54600000D01*
X112887186Y-54606565D01*
X112905129Y-54777279D01*
X112906458Y-54789928D01*
X112965473Y-54971556D01*
X113060960Y-55136944D01*
X113065378Y-55141851D01*
X113065379Y-55141852D01*
X113179678Y-55268794D01*
X113188747Y-55278866D01*
X113209306Y-55293803D01*
X113325522Y-55378239D01*
X113343248Y-55391118D01*
X113349276Y-55393802D01*
X113349278Y-55393803D01*
X113498115Y-55460069D01*
X113517712Y-55468794D01*
X113524167Y-55470166D01*
X113524176Y-55470169D01*
X113580772Y-55482199D01*
X113643669Y-55516350D01*
X114816230Y-56688911D01*
X114828616Y-56703323D01*
X114837149Y-56714918D01*
X114837154Y-56714923D01*
X114841492Y-56720818D01*
X114847070Y-56725557D01*
X114847073Y-56725560D01*
X114881768Y-56755035D01*
X114889284Y-56761965D01*
X114894980Y-56767661D01*
X114897841Y-56769924D01*
X114897846Y-56769929D01*
X114917266Y-56785293D01*
X114920667Y-56788082D01*
X114976285Y-56835333D01*
X114982798Y-56838659D01*
X114987837Y-56842020D01*
X114992979Y-56845196D01*
X114998716Y-56849734D01*
X115064875Y-56880655D01*
X115068769Y-56882558D01*
X115133808Y-56915769D01*
X115140917Y-56917508D01*
X115146551Y-56919604D01*
X115152321Y-56921523D01*
X115158950Y-56924622D01*
X115166113Y-56926112D01*
X115166116Y-56926113D01*
X115216830Y-56936661D01*
X115230435Y-56939491D01*
X115234701Y-56940457D01*
X115305610Y-56957808D01*
X115311212Y-56958156D01*
X115311215Y-56958156D01*
X115316764Y-56958500D01*
X115316762Y-56958535D01*
X115320734Y-56958775D01*
X115324955Y-56959152D01*
X115332115Y-56960641D01*
X115409542Y-56958546D01*
X115412950Y-56958500D01*
X122551323Y-56958500D01*
X122619444Y-56978502D01*
X122640334Y-56995321D01*
X122671997Y-57026929D01*
X122820080Y-57118209D01*
X122985191Y-57172974D01*
X122992027Y-57173674D01*
X122992030Y-57173675D01*
X123043526Y-57178951D01*
X123087928Y-57183500D01*
X123687072Y-57183500D01*
X123690318Y-57183163D01*
X123690322Y-57183163D01*
X123784235Y-57173419D01*
X123784239Y-57173418D01*
X123791093Y-57172707D01*
X123797629Y-57170526D01*
X123797631Y-57170526D01*
X123930395Y-57126232D01*
X123956107Y-57117654D01*
X124104031Y-57026116D01*
X124134612Y-56995482D01*
X124210747Y-56919214D01*
X124273030Y-56885135D01*
X124343850Y-56890138D01*
X124388937Y-56919059D01*
X124491812Y-57021754D01*
X124491817Y-57021758D01*
X124496997Y-57026929D01*
X124645080Y-57118209D01*
X124810191Y-57172974D01*
X124817027Y-57173674D01*
X124817030Y-57173675D01*
X124868526Y-57178951D01*
X124912928Y-57183500D01*
X125512072Y-57183500D01*
X125515318Y-57183163D01*
X125515322Y-57183163D01*
X125609235Y-57173419D01*
X125609239Y-57173418D01*
X125616093Y-57172707D01*
X125622629Y-57170526D01*
X125622631Y-57170526D01*
X125755395Y-57126232D01*
X125781107Y-57117654D01*
X125929031Y-57026116D01*
X125959612Y-56995482D01*
X126021895Y-56961403D01*
X126048785Y-56958500D01*
X130633629Y-56958500D01*
X130701750Y-56978502D01*
X130722724Y-56995405D01*
X131353724Y-57626405D01*
X131387750Y-57688717D01*
X131382685Y-57759532D01*
X131340138Y-57816368D01*
X131273618Y-57841179D01*
X131264629Y-57841500D01*
X126061177Y-57841500D01*
X125993056Y-57821498D01*
X125972166Y-57804679D01*
X125940503Y-57773071D01*
X125792420Y-57681791D01*
X125627309Y-57627026D01*
X125620473Y-57626326D01*
X125620470Y-57626325D01*
X125568974Y-57621049D01*
X125524572Y-57616500D01*
X124925428Y-57616500D01*
X124922182Y-57616837D01*
X124922178Y-57616837D01*
X124828265Y-57626581D01*
X124828261Y-57626582D01*
X124821407Y-57627293D01*
X124814871Y-57629474D01*
X124814869Y-57629474D01*
X124682105Y-57673768D01*
X124656393Y-57682346D01*
X124508469Y-57773884D01*
X124503296Y-57779066D01*
X124401753Y-57880786D01*
X124339470Y-57914865D01*
X124268650Y-57909862D01*
X124223563Y-57880941D01*
X124120688Y-57778246D01*
X124120683Y-57778242D01*
X124115503Y-57773071D01*
X123967420Y-57681791D01*
X123802309Y-57627026D01*
X123795473Y-57626326D01*
X123795470Y-57626325D01*
X123743974Y-57621049D01*
X123699572Y-57616500D01*
X123100428Y-57616500D01*
X123097182Y-57616837D01*
X123097178Y-57616837D01*
X123003265Y-57626581D01*
X123003261Y-57626582D01*
X122996407Y-57627293D01*
X122989871Y-57629474D01*
X122989869Y-57629474D01*
X122857105Y-57673768D01*
X122831393Y-57682346D01*
X122683469Y-57773884D01*
X122678296Y-57779066D01*
X122652888Y-57804518D01*
X122590605Y-57838597D01*
X122563715Y-57841500D01*
X114866371Y-57841500D01*
X114798250Y-57821498D01*
X114777276Y-57804595D01*
X111320125Y-54347444D01*
X111289387Y-54297285D01*
X111285249Y-54284548D01*
X111234527Y-54128444D01*
X111175381Y-54026000D01*
X111158500Y-53963001D01*
X111158500Y-53029219D01*
X111178502Y-52961098D01*
X111232158Y-52914605D01*
X111244618Y-52909697D01*
X111373946Y-52866550D01*
X111524348Y-52773478D01*
X111649305Y-52648303D01*
X111656001Y-52637440D01*
X111738275Y-52503968D01*
X111738276Y-52503966D01*
X111742115Y-52497738D01*
X111768564Y-52417995D01*
X111795632Y-52336389D01*
X111795632Y-52336387D01*
X111797797Y-52329861D01*
X111798859Y-52319503D01*
X111808172Y-52228598D01*
X111808500Y-52225400D01*
X111808500Y-51299600D01*
X111807360Y-51288611D01*
X111798238Y-51200692D01*
X111798237Y-51200688D01*
X111797526Y-51193834D01*
X111790145Y-51171709D01*
X111743868Y-51033002D01*
X111741550Y-51026054D01*
X111648478Y-50875652D01*
X111628658Y-50855866D01*
X111528483Y-50755866D01*
X111523303Y-50750695D01*
X111517072Y-50746854D01*
X111378968Y-50661725D01*
X111378966Y-50661724D01*
X111372738Y-50657885D01*
X111261382Y-50620950D01*
X111211389Y-50604368D01*
X111211387Y-50604368D01*
X111204861Y-50602203D01*
X111198025Y-50601503D01*
X111198022Y-50601502D01*
X111154969Y-50597091D01*
X111100400Y-50591500D01*
X109699600Y-50591500D01*
X109696354Y-50591837D01*
X109696350Y-50591837D01*
X109600692Y-50601762D01*
X109600688Y-50601763D01*
X109593834Y-50602474D01*
X109587298Y-50604655D01*
X109587296Y-50604655D01*
X109526897Y-50624806D01*
X109426054Y-50658450D01*
X109275652Y-50751522D01*
X109150695Y-50876697D01*
X109146855Y-50882927D01*
X109146854Y-50882928D01*
X109062098Y-51020428D01*
X109057885Y-51027262D01*
X109045968Y-51063192D01*
X109012279Y-51164762D01*
X109002203Y-51195139D01*
X108991500Y-51299600D01*
X108991500Y-52225400D01*
X108991837Y-52228646D01*
X108991837Y-52228650D01*
X109001537Y-52322134D01*
X109002474Y-52331166D01*
X109004655Y-52337702D01*
X109004655Y-52337704D01*
X109023836Y-52395195D01*
X109058450Y-52498946D01*
X109151522Y-52649348D01*
X109156704Y-52654521D01*
X109218451Y-52716161D01*
X109276697Y-52774305D01*
X109282927Y-52778145D01*
X109282928Y-52778146D01*
X109420090Y-52862694D01*
X109427262Y-52867115D01*
X109496174Y-52889972D01*
X109555167Y-52909539D01*
X109613527Y-52949969D01*
X109640764Y-53015534D01*
X109641500Y-53029132D01*
X109641500Y-53963001D01*
X109624619Y-54026000D01*
X109565473Y-54128444D01*
X109506458Y-54310072D01*
X109505768Y-54316633D01*
X109505768Y-54316635D01*
X109487186Y-54493435D01*
X109486496Y-54500000D01*
X109487186Y-54506565D01*
X109504449Y-54670809D01*
X109506458Y-54689928D01*
X109565473Y-54871556D01*
X109660960Y-55036944D01*
X109788747Y-55178866D01*
X109854179Y-55226405D01*
X109936482Y-55286202D01*
X109943248Y-55291118D01*
X109949276Y-55293802D01*
X109949278Y-55293803D01*
X110111681Y-55366109D01*
X110117712Y-55368794D01*
X110124167Y-55370166D01*
X110124176Y-55370169D01*
X110180772Y-55382199D01*
X110243669Y-55416350D01*
X113916230Y-59088911D01*
X113928616Y-59103323D01*
X113937149Y-59114918D01*
X113937154Y-59114923D01*
X113941492Y-59120818D01*
X113947070Y-59125557D01*
X113947073Y-59125560D01*
X113981768Y-59155035D01*
X113989284Y-59161965D01*
X113994980Y-59167661D01*
X113997841Y-59169924D01*
X113997846Y-59169929D01*
X114017256Y-59185285D01*
X114020658Y-59188074D01*
X114076285Y-59235333D01*
X114082802Y-59238661D01*
X114087850Y-59242027D01*
X114092972Y-59245190D01*
X114098716Y-59249735D01*
X114164895Y-59280664D01*
X114168779Y-59282563D01*
X114233808Y-59315769D01*
X114240923Y-59317510D01*
X114246578Y-59319613D01*
X114252317Y-59321522D01*
X114258950Y-59324622D01*
X114330435Y-59339491D01*
X114334701Y-59340457D01*
X114405610Y-59357808D01*
X114411212Y-59358156D01*
X114411215Y-59358156D01*
X114416764Y-59358500D01*
X114416762Y-59358535D01*
X114420734Y-59358775D01*
X114424955Y-59359152D01*
X114432115Y-59360641D01*
X114509542Y-59358546D01*
X114512950Y-59358500D01*
X122563823Y-59358500D01*
X122631944Y-59378502D01*
X122652834Y-59395321D01*
X122684497Y-59426929D01*
X122832580Y-59518209D01*
X122997691Y-59572974D01*
X123004527Y-59573674D01*
X123004530Y-59573675D01*
X123056026Y-59578951D01*
X123100428Y-59583500D01*
X123699572Y-59583500D01*
X123702818Y-59583163D01*
X123702822Y-59583163D01*
X123796735Y-59573419D01*
X123796739Y-59573418D01*
X123803593Y-59572707D01*
X123810129Y-59570526D01*
X123810131Y-59570526D01*
X123942895Y-59526232D01*
X123968607Y-59517654D01*
X124116531Y-59426116D01*
X124147112Y-59395482D01*
X124223247Y-59319214D01*
X124285530Y-59285135D01*
X124356350Y-59290138D01*
X124401437Y-59319059D01*
X124504312Y-59421754D01*
X124504317Y-59421758D01*
X124509497Y-59426929D01*
X124657580Y-59518209D01*
X124822691Y-59572974D01*
X124829527Y-59573674D01*
X124829530Y-59573675D01*
X124881026Y-59578951D01*
X124925428Y-59583500D01*
X125524572Y-59583500D01*
X125527818Y-59583163D01*
X125527822Y-59583163D01*
X125621735Y-59573419D01*
X125621739Y-59573418D01*
X125628593Y-59572707D01*
X125635129Y-59570526D01*
X125635131Y-59570526D01*
X125767895Y-59526232D01*
X125793607Y-59517654D01*
X125941531Y-59426116D01*
X125972112Y-59395482D01*
X126034395Y-59361403D01*
X126061285Y-59358500D01*
X131333629Y-59358500D01*
X131401750Y-59378502D01*
X131422724Y-59395405D01*
X132153724Y-60126405D01*
X132187750Y-60188717D01*
X132182685Y-60259532D01*
X132140138Y-60316368D01*
X132073618Y-60341179D01*
X132064629Y-60341500D01*
X126036177Y-60341500D01*
X125968056Y-60321498D01*
X125947166Y-60304679D01*
X125915503Y-60273071D01*
X125767420Y-60181791D01*
X125602309Y-60127026D01*
X125595473Y-60126326D01*
X125595470Y-60126325D01*
X125543974Y-60121049D01*
X125499572Y-60116500D01*
X124900428Y-60116500D01*
X124897182Y-60116837D01*
X124897178Y-60116837D01*
X124803265Y-60126581D01*
X124803261Y-60126582D01*
X124796407Y-60127293D01*
X124789871Y-60129474D01*
X124789869Y-60129474D01*
X124705380Y-60157662D01*
X124631393Y-60182346D01*
X124483469Y-60273884D01*
X124478296Y-60279066D01*
X124376753Y-60380786D01*
X124314470Y-60414865D01*
X124243650Y-60409862D01*
X124198563Y-60380941D01*
X124095688Y-60278246D01*
X124095683Y-60278242D01*
X124090503Y-60273071D01*
X124068278Y-60259371D01*
X123948650Y-60185631D01*
X123948648Y-60185630D01*
X123942420Y-60181791D01*
X123777309Y-60127026D01*
X123770473Y-60126326D01*
X123770470Y-60126325D01*
X123718974Y-60121049D01*
X123674572Y-60116500D01*
X123075428Y-60116500D01*
X123072182Y-60116837D01*
X123072178Y-60116837D01*
X122978265Y-60126581D01*
X122978261Y-60126582D01*
X122971407Y-60127293D01*
X122964871Y-60129474D01*
X122964869Y-60129474D01*
X122880380Y-60157662D01*
X122806393Y-60182346D01*
X122658469Y-60273884D01*
X122653296Y-60279066D01*
X122627888Y-60304518D01*
X122565605Y-60338597D01*
X122538715Y-60341500D01*
X113866371Y-60341500D01*
X113798250Y-60321498D01*
X113777276Y-60304595D01*
X107820125Y-54347444D01*
X107789387Y-54297285D01*
X107785249Y-54284548D01*
X107734527Y-54128444D01*
X107675381Y-54026000D01*
X107658500Y-53963001D01*
X107658500Y-53029219D01*
X107678502Y-52961098D01*
X107732158Y-52914605D01*
X107744618Y-52909697D01*
X107873946Y-52866550D01*
X108024348Y-52773478D01*
X108149305Y-52648303D01*
X108156001Y-52637440D01*
X108238275Y-52503968D01*
X108238276Y-52503966D01*
X108242115Y-52497738D01*
X108268564Y-52417995D01*
X108295632Y-52336389D01*
X108295632Y-52336387D01*
X108297797Y-52329861D01*
X108298859Y-52319503D01*
X108308172Y-52228598D01*
X108308500Y-52225400D01*
X108308500Y-51299600D01*
X108307360Y-51288611D01*
X108298238Y-51200692D01*
X108298237Y-51200688D01*
X108297526Y-51193834D01*
X108290145Y-51171709D01*
X108243868Y-51033002D01*
X108241550Y-51026054D01*
X108148478Y-50875652D01*
X108128658Y-50855866D01*
X108028483Y-50755866D01*
X108023303Y-50750695D01*
X108017072Y-50746854D01*
X107878968Y-50661725D01*
X107878966Y-50661724D01*
X107872738Y-50657885D01*
X107761382Y-50620950D01*
X107711389Y-50604368D01*
X107711387Y-50604368D01*
X107704861Y-50602203D01*
X107698025Y-50601503D01*
X107698022Y-50601502D01*
X107654969Y-50597091D01*
X107600400Y-50591500D01*
X106199600Y-50591500D01*
X106196354Y-50591837D01*
X106196350Y-50591837D01*
X106100692Y-50601762D01*
X106100688Y-50601763D01*
X106093834Y-50602474D01*
X106087298Y-50604655D01*
X106087296Y-50604655D01*
X106026897Y-50624806D01*
X105926054Y-50658450D01*
X105775652Y-50751522D01*
X105650695Y-50876697D01*
X105646855Y-50882927D01*
X105646854Y-50882928D01*
X105562098Y-51020428D01*
X105557885Y-51027262D01*
X105545968Y-51063192D01*
X105512279Y-51164762D01*
X105502203Y-51195139D01*
X105491500Y-51299600D01*
X105491500Y-52225400D01*
X105491837Y-52228646D01*
X105491837Y-52228650D01*
X105501537Y-52322134D01*
X105502474Y-52331166D01*
X105504655Y-52337702D01*
X105504655Y-52337704D01*
X105523836Y-52395195D01*
X105558450Y-52498946D01*
X105651522Y-52649348D01*
X105656704Y-52654521D01*
X105718451Y-52716161D01*
X105776697Y-52774305D01*
X105782927Y-52778145D01*
X105782928Y-52778146D01*
X105920090Y-52862694D01*
X105927262Y-52867115D01*
X105996174Y-52889972D01*
X106055167Y-52909539D01*
X106113527Y-52949969D01*
X106140764Y-53015534D01*
X106141500Y-53029132D01*
X106141500Y-53963001D01*
X106124619Y-54026000D01*
X106065473Y-54128444D01*
X106006458Y-54310072D01*
X106005768Y-54316633D01*
X106005768Y-54316635D01*
X105987186Y-54493435D01*
X105986496Y-54500000D01*
X105987186Y-54506565D01*
X106004449Y-54670809D01*
X106006458Y-54689928D01*
X106065473Y-54871556D01*
X106160960Y-55036944D01*
X106288747Y-55178866D01*
X106354179Y-55226405D01*
X106436482Y-55286202D01*
X106443248Y-55291118D01*
X106449276Y-55293802D01*
X106449278Y-55293803D01*
X106611681Y-55366109D01*
X106617712Y-55368794D01*
X106624167Y-55370166D01*
X106624176Y-55370169D01*
X106680772Y-55382199D01*
X106743669Y-55416350D01*
X112916230Y-61588911D01*
X112928616Y-61603323D01*
X112937149Y-61614918D01*
X112937154Y-61614923D01*
X112941492Y-61620818D01*
X112947070Y-61625557D01*
X112947073Y-61625560D01*
X112981768Y-61655035D01*
X112989284Y-61661965D01*
X112994980Y-61667661D01*
X112997841Y-61669924D01*
X112997846Y-61669929D01*
X113017266Y-61685293D01*
X113020667Y-61688082D01*
X113076285Y-61735333D01*
X113082805Y-61738662D01*
X113087852Y-61742028D01*
X113092976Y-61745193D01*
X113098717Y-61749735D01*
X113105348Y-61752834D01*
X113105351Y-61752836D01*
X113164830Y-61780634D01*
X113168776Y-61782562D01*
X113233808Y-61815769D01*
X113240914Y-61817508D01*
X113246564Y-61819609D01*
X113252321Y-61821524D01*
X113258950Y-61824622D01*
X113330435Y-61839491D01*
X113334701Y-61840457D01*
X113405610Y-61857808D01*
X113411212Y-61858156D01*
X113411215Y-61858156D01*
X113416764Y-61858500D01*
X113416762Y-61858535D01*
X113420734Y-61858775D01*
X113424955Y-61859152D01*
X113432115Y-61860641D01*
X113509542Y-61858546D01*
X113512950Y-61858500D01*
X122538823Y-61858500D01*
X122606944Y-61878502D01*
X122627834Y-61895321D01*
X122659497Y-61926929D01*
X122807580Y-62018209D01*
X122972691Y-62072974D01*
X122979527Y-62073674D01*
X122979530Y-62073675D01*
X123031026Y-62078951D01*
X123075428Y-62083500D01*
X123674572Y-62083500D01*
X123677818Y-62083163D01*
X123677822Y-62083163D01*
X123771735Y-62073419D01*
X123771739Y-62073418D01*
X123778593Y-62072707D01*
X123785129Y-62070526D01*
X123785131Y-62070526D01*
X123917895Y-62026232D01*
X123943607Y-62017654D01*
X124091531Y-61926116D01*
X124122112Y-61895482D01*
X124198247Y-61819214D01*
X124260530Y-61785135D01*
X124331350Y-61790138D01*
X124376437Y-61819059D01*
X124479312Y-61921754D01*
X124479317Y-61921758D01*
X124484497Y-61926929D01*
X124632580Y-62018209D01*
X124797691Y-62072974D01*
X124804527Y-62073674D01*
X124804530Y-62073675D01*
X124856026Y-62078951D01*
X124900428Y-62083500D01*
X125499572Y-62083500D01*
X125502818Y-62083163D01*
X125502822Y-62083163D01*
X125596735Y-62073419D01*
X125596739Y-62073418D01*
X125603593Y-62072707D01*
X125610129Y-62070526D01*
X125610131Y-62070526D01*
X125742895Y-62026232D01*
X125768607Y-62017654D01*
X125916531Y-61926116D01*
X125947112Y-61895482D01*
X126009395Y-61861403D01*
X126036285Y-61858500D01*
X131933629Y-61858500D01*
X132001750Y-61878502D01*
X132022724Y-61895405D01*
X132708847Y-62581528D01*
X132742873Y-62643840D01*
X132737808Y-62714655D01*
X132695261Y-62771491D01*
X132628741Y-62796302D01*
X132575832Y-62788720D01*
X132572708Y-62787558D01*
X132566192Y-62784231D01*
X132559083Y-62782492D01*
X132553456Y-62780399D01*
X132547683Y-62778478D01*
X132541050Y-62775378D01*
X132522363Y-62771491D01*
X132469588Y-62760514D01*
X132465299Y-62759543D01*
X132394390Y-62742192D01*
X132388788Y-62741844D01*
X132388785Y-62741844D01*
X132383236Y-62741500D01*
X132383238Y-62741464D01*
X132379245Y-62741225D01*
X132375053Y-62740851D01*
X132367885Y-62739360D01*
X132301675Y-62741151D01*
X132290479Y-62741454D01*
X132287072Y-62741500D01*
X126048677Y-62741500D01*
X125980556Y-62721498D01*
X125959666Y-62704679D01*
X125928003Y-62673071D01*
X125779920Y-62581791D01*
X125614809Y-62527026D01*
X125607973Y-62526326D01*
X125607970Y-62526325D01*
X125556474Y-62521049D01*
X125512072Y-62516500D01*
X124912928Y-62516500D01*
X124909682Y-62516837D01*
X124909678Y-62516837D01*
X124815765Y-62526581D01*
X124815761Y-62526582D01*
X124808907Y-62527293D01*
X124802371Y-62529474D01*
X124802369Y-62529474D01*
X124669605Y-62573768D01*
X124643893Y-62582346D01*
X124495969Y-62673884D01*
X124490796Y-62679066D01*
X124389253Y-62780786D01*
X124326970Y-62814865D01*
X124256150Y-62809862D01*
X124211063Y-62780941D01*
X124108188Y-62678246D01*
X124108183Y-62678242D01*
X124103003Y-62673071D01*
X123954920Y-62581791D01*
X123789809Y-62527026D01*
X123782973Y-62526326D01*
X123782970Y-62526325D01*
X123731474Y-62521049D01*
X123687072Y-62516500D01*
X123087928Y-62516500D01*
X123084682Y-62516837D01*
X123084678Y-62516837D01*
X122990765Y-62526581D01*
X122990761Y-62526582D01*
X122983907Y-62527293D01*
X122977371Y-62529474D01*
X122977369Y-62529474D01*
X122844605Y-62573768D01*
X122818893Y-62582346D01*
X122670969Y-62673884D01*
X122665796Y-62679066D01*
X122640388Y-62704518D01*
X122578105Y-62738597D01*
X122551215Y-62741500D01*
X112866371Y-62741500D01*
X112798250Y-62721498D01*
X112777276Y-62704595D01*
X104320125Y-54247444D01*
X104289387Y-54197285D01*
X104236569Y-54034729D01*
X104234527Y-54028444D01*
X104175381Y-53926000D01*
X104158500Y-53863001D01*
X104158500Y-52991719D01*
X104178502Y-52923598D01*
X104232158Y-52877105D01*
X104244618Y-52872197D01*
X104373946Y-52829050D01*
X104524348Y-52735978D01*
X104649305Y-52610803D01*
X104656614Y-52598946D01*
X104738275Y-52466468D01*
X104738276Y-52466466D01*
X104742115Y-52460238D01*
X104777588Y-52353291D01*
X104795632Y-52298889D01*
X104795632Y-52298887D01*
X104797797Y-52292361D01*
X104808500Y-52187900D01*
X104808500Y-51262100D01*
X104802262Y-51201978D01*
X104798238Y-51163192D01*
X104798237Y-51163188D01*
X104797526Y-51156334D01*
X104790145Y-51134209D01*
X104743868Y-50995502D01*
X104741550Y-50988554D01*
X104648478Y-50838152D01*
X104523303Y-50713195D01*
X104508983Y-50704368D01*
X104378968Y-50624225D01*
X104378966Y-50624224D01*
X104372738Y-50620385D01*
X104212254Y-50567155D01*
X104211389Y-50566868D01*
X104211387Y-50566868D01*
X104204861Y-50564703D01*
X104198025Y-50564003D01*
X104198022Y-50564002D01*
X104154969Y-50559591D01*
X104100400Y-50554000D01*
X102699600Y-50554000D01*
X102696354Y-50554337D01*
X102696350Y-50554337D01*
X102600692Y-50564262D01*
X102600688Y-50564263D01*
X102593834Y-50564974D01*
X102587298Y-50567155D01*
X102587296Y-50567155D01*
X102483567Y-50601762D01*
X102426054Y-50620950D01*
X102275652Y-50714022D01*
X102270479Y-50719204D01*
X102250521Y-50739197D01*
X102150695Y-50839197D01*
X102146855Y-50845427D01*
X102146854Y-50845428D01*
X102062098Y-50982928D01*
X102057885Y-50989762D01*
X102033103Y-51064478D01*
X102012279Y-51127262D01*
X102002203Y-51157639D01*
X101991500Y-51262100D01*
X101991500Y-52187900D01*
X101991837Y-52191146D01*
X101991837Y-52191150D01*
X101995723Y-52228598D01*
X102002474Y-52293666D01*
X102004655Y-52300202D01*
X102004655Y-52300204D01*
X102022769Y-52354498D01*
X102058450Y-52461446D01*
X102151522Y-52611848D01*
X102156704Y-52617021D01*
X102175694Y-52635978D01*
X102276697Y-52736805D01*
X102282927Y-52740645D01*
X102282928Y-52740646D01*
X102420090Y-52825194D01*
X102427262Y-52829615D01*
X102511451Y-52857539D01*
X102555167Y-52872039D01*
X102613527Y-52912469D01*
X102640764Y-52978034D01*
X102641500Y-52991632D01*
X102641500Y-53863001D01*
X102624619Y-53926000D01*
X102565473Y-54028444D01*
X102506458Y-54210072D01*
X102505768Y-54216633D01*
X102505768Y-54216635D01*
X102492020Y-54347444D01*
X102486496Y-54400000D01*
X102487186Y-54406565D01*
X102499837Y-54526929D01*
X102506458Y-54589928D01*
X102565473Y-54771556D01*
X102568776Y-54777278D01*
X102568777Y-54777279D01*
X102572291Y-54783365D01*
X102660960Y-54936944D01*
X102788747Y-55078866D01*
X102887843Y-55150864D01*
X102926385Y-55178866D01*
X102943248Y-55191118D01*
X102949276Y-55193802D01*
X102949278Y-55193803D01*
X103111681Y-55266109D01*
X103117712Y-55268794D01*
X103124167Y-55270166D01*
X103124176Y-55270169D01*
X103180772Y-55282199D01*
X103243669Y-55316350D01*
X111916230Y-63988911D01*
X111928616Y-64003323D01*
X111937149Y-64014918D01*
X111937154Y-64014923D01*
X111941492Y-64020818D01*
X111947070Y-64025557D01*
X111947073Y-64025560D01*
X111981768Y-64055035D01*
X111989284Y-64061965D01*
X111994979Y-64067660D01*
X111997861Y-64069940D01*
X112017251Y-64085281D01*
X112020655Y-64088072D01*
X112070703Y-64130591D01*
X112076285Y-64135333D01*
X112082801Y-64138661D01*
X112087850Y-64142028D01*
X112092979Y-64145195D01*
X112098716Y-64149734D01*
X112164875Y-64180655D01*
X112168769Y-64182558D01*
X112233808Y-64215769D01*
X112240916Y-64217508D01*
X112246559Y-64219607D01*
X112252322Y-64221524D01*
X112258950Y-64224622D01*
X112266112Y-64226112D01*
X112266113Y-64226112D01*
X112330412Y-64239486D01*
X112334696Y-64240456D01*
X112405610Y-64257808D01*
X112411212Y-64258156D01*
X112411215Y-64258156D01*
X112416764Y-64258500D01*
X112416762Y-64258536D01*
X112420755Y-64258775D01*
X112424947Y-64259149D01*
X112432115Y-64260640D01*
X112509520Y-64258546D01*
X112512928Y-64258500D01*
X122551323Y-64258500D01*
X122619444Y-64278502D01*
X122640334Y-64295321D01*
X122671997Y-64326929D01*
X122820080Y-64418209D01*
X122985191Y-64472974D01*
X122992027Y-64473674D01*
X122992030Y-64473675D01*
X123043526Y-64478951D01*
X123087928Y-64483500D01*
X123687072Y-64483500D01*
X123690318Y-64483163D01*
X123690322Y-64483163D01*
X123784235Y-64473419D01*
X123784239Y-64473418D01*
X123791093Y-64472707D01*
X123797629Y-64470526D01*
X123797631Y-64470526D01*
X123930395Y-64426232D01*
X123956107Y-64417654D01*
X124104031Y-64326116D01*
X124134612Y-64295482D01*
X124210747Y-64219214D01*
X124273030Y-64185135D01*
X124343850Y-64190138D01*
X124388937Y-64219059D01*
X124491812Y-64321754D01*
X124491817Y-64321758D01*
X124496997Y-64326929D01*
X124503227Y-64330769D01*
X124503228Y-64330770D01*
X124578675Y-64377276D01*
X124645080Y-64418209D01*
X124810191Y-64472974D01*
X124817027Y-64473674D01*
X124817030Y-64473675D01*
X124868526Y-64478951D01*
X124912928Y-64483500D01*
X125512072Y-64483500D01*
X125515318Y-64483163D01*
X125515322Y-64483163D01*
X125609235Y-64473419D01*
X125609239Y-64473418D01*
X125616093Y-64472707D01*
X125622629Y-64470526D01*
X125622631Y-64470526D01*
X125755395Y-64426232D01*
X125781107Y-64417654D01*
X125929031Y-64326116D01*
X125959612Y-64295482D01*
X126021895Y-64261403D01*
X126048785Y-64258500D01*
X131933629Y-64258500D01*
X132001750Y-64278502D01*
X132022724Y-64295405D01*
X132104595Y-64377276D01*
X132138621Y-64439588D01*
X132141500Y-64466371D01*
X132141500Y-65177312D01*
X132121498Y-65245433D01*
X132067842Y-65291926D01*
X131997568Y-65302030D01*
X131933920Y-65273336D01*
X131929297Y-65269409D01*
X131929295Y-65269408D01*
X131923715Y-65264667D01*
X131917199Y-65261339D01*
X131912150Y-65257972D01*
X131907021Y-65254805D01*
X131901284Y-65250266D01*
X131835125Y-65219345D01*
X131831225Y-65217439D01*
X131826184Y-65214865D01*
X131766192Y-65184231D01*
X131759084Y-65182492D01*
X131753441Y-65180393D01*
X131747678Y-65178476D01*
X131741050Y-65175378D01*
X131669583Y-65160513D01*
X131665299Y-65159543D01*
X131594390Y-65142192D01*
X131588788Y-65141844D01*
X131588785Y-65141844D01*
X131583236Y-65141500D01*
X131583238Y-65141464D01*
X131579245Y-65141225D01*
X131575053Y-65140851D01*
X131567885Y-65139360D01*
X131501675Y-65141151D01*
X131490479Y-65141454D01*
X131487072Y-65141500D01*
X126048677Y-65141500D01*
X125980556Y-65121498D01*
X125959666Y-65104679D01*
X125928003Y-65073071D01*
X125779920Y-64981791D01*
X125614809Y-64927026D01*
X125607973Y-64926326D01*
X125607970Y-64926325D01*
X125556474Y-64921049D01*
X125512072Y-64916500D01*
X124912928Y-64916500D01*
X124909682Y-64916837D01*
X124909678Y-64916837D01*
X124815765Y-64926581D01*
X124815761Y-64926582D01*
X124808907Y-64927293D01*
X124802371Y-64929474D01*
X124802369Y-64929474D01*
X124669605Y-64973768D01*
X124643893Y-64982346D01*
X124495969Y-65073884D01*
X124490796Y-65079066D01*
X124389253Y-65180786D01*
X124326970Y-65214865D01*
X124256150Y-65209862D01*
X124211063Y-65180941D01*
X124108188Y-65078246D01*
X124108183Y-65078242D01*
X124103003Y-65073071D01*
X123954920Y-64981791D01*
X123789809Y-64927026D01*
X123782973Y-64926326D01*
X123782970Y-64926325D01*
X123731474Y-64921049D01*
X123687072Y-64916500D01*
X123087928Y-64916500D01*
X123084682Y-64916837D01*
X123084678Y-64916837D01*
X122990765Y-64926581D01*
X122990761Y-64926582D01*
X122983907Y-64927293D01*
X122977371Y-64929474D01*
X122977369Y-64929474D01*
X122844605Y-64973768D01*
X122818893Y-64982346D01*
X122670969Y-65073884D01*
X122665796Y-65079066D01*
X122640388Y-65104518D01*
X122578105Y-65138597D01*
X122551215Y-65141500D01*
X111866371Y-65141500D01*
X111798250Y-65121498D01*
X111777276Y-65104595D01*
X100920125Y-54247444D01*
X100889387Y-54197285D01*
X100836569Y-54034729D01*
X100834527Y-54028444D01*
X100775381Y-53926000D01*
X100758500Y-53863001D01*
X100758500Y-52891719D01*
X100778502Y-52823598D01*
X100832158Y-52777105D01*
X100844618Y-52772197D01*
X100973946Y-52729050D01*
X101124348Y-52635978D01*
X101249305Y-52510803D01*
X101256614Y-52498946D01*
X101338275Y-52366468D01*
X101338276Y-52366466D01*
X101342115Y-52360238D01*
X101397797Y-52192361D01*
X101408500Y-52087900D01*
X101408500Y-51162100D01*
X101408037Y-51157639D01*
X101398238Y-51063192D01*
X101398237Y-51063188D01*
X101397526Y-51056334D01*
X101390145Y-51034209D01*
X101343868Y-50895502D01*
X101341550Y-50888554D01*
X101248478Y-50738152D01*
X101228658Y-50718366D01*
X101128483Y-50618366D01*
X101123303Y-50613195D01*
X101108983Y-50604368D01*
X100978968Y-50524225D01*
X100978966Y-50524224D01*
X100972738Y-50520385D01*
X100812254Y-50467155D01*
X100811389Y-50466868D01*
X100811387Y-50466868D01*
X100804861Y-50464703D01*
X100798025Y-50464003D01*
X100798022Y-50464002D01*
X100754969Y-50459591D01*
X100700400Y-50454000D01*
X99299600Y-50454000D01*
X99296354Y-50454337D01*
X99296350Y-50454337D01*
X99200692Y-50464262D01*
X99200688Y-50464263D01*
X99193834Y-50464974D01*
X99187298Y-50467155D01*
X99187296Y-50467155D01*
X99055194Y-50511228D01*
X99026054Y-50520950D01*
X98875652Y-50614022D01*
X98750695Y-50739197D01*
X98746855Y-50745427D01*
X98746854Y-50745428D01*
X98662098Y-50882928D01*
X98657885Y-50889762D01*
X98655581Y-50896709D01*
X98612279Y-51027262D01*
X98602203Y-51057639D01*
X98591500Y-51162100D01*
X98591500Y-52087900D01*
X69740000Y-52087900D01*
X69740000Y-48959595D01*
X98592001Y-48959595D01*
X98592338Y-48966114D01*
X98602257Y-49061706D01*
X98605149Y-49075100D01*
X98656588Y-49229284D01*
X98662761Y-49242462D01*
X98748063Y-49380307D01*
X98757099Y-49391708D01*
X98871829Y-49506239D01*
X98883240Y-49515251D01*
X99021243Y-49600316D01*
X99034424Y-49606463D01*
X99188710Y-49657638D01*
X99202086Y-49660505D01*
X99296438Y-49670172D01*
X99302854Y-49670500D01*
X99727885Y-49670500D01*
X99743124Y-49666025D01*
X99744329Y-49664635D01*
X99746000Y-49656952D01*
X99746000Y-49652384D01*
X100254000Y-49652384D01*
X100258475Y-49667623D01*
X100259865Y-49668828D01*
X100267548Y-49670499D01*
X100697095Y-49670499D01*
X100703614Y-49670162D01*
X100799206Y-49660243D01*
X100812600Y-49657351D01*
X100966784Y-49605912D01*
X100979962Y-49599739D01*
X101117807Y-49514437D01*
X101129208Y-49505401D01*
X101243739Y-49390671D01*
X101252751Y-49379260D01*
X101337816Y-49241257D01*
X101343963Y-49228076D01*
X101395138Y-49073790D01*
X101398005Y-49060414D01*
X101398089Y-49059595D01*
X101992001Y-49059595D01*
X101992338Y-49066114D01*
X102002257Y-49161706D01*
X102005149Y-49175100D01*
X102056588Y-49329284D01*
X102062761Y-49342462D01*
X102148063Y-49480307D01*
X102157099Y-49491708D01*
X102271829Y-49606239D01*
X102283240Y-49615251D01*
X102421243Y-49700316D01*
X102434424Y-49706463D01*
X102588710Y-49757638D01*
X102602086Y-49760505D01*
X102696438Y-49770172D01*
X102702854Y-49770500D01*
X103127885Y-49770500D01*
X103143124Y-49766025D01*
X103144329Y-49764635D01*
X103146000Y-49756952D01*
X103146000Y-49752384D01*
X103654000Y-49752384D01*
X103658475Y-49767623D01*
X103659865Y-49768828D01*
X103667548Y-49770499D01*
X104097095Y-49770499D01*
X104103614Y-49770162D01*
X104199206Y-49760243D01*
X104212600Y-49757351D01*
X104366784Y-49705912D01*
X104379962Y-49699739D01*
X104517807Y-49614437D01*
X104529208Y-49605401D01*
X104643739Y-49490671D01*
X104652751Y-49479260D01*
X104737816Y-49341257D01*
X104743963Y-49328076D01*
X104795138Y-49173790D01*
X104798005Y-49160414D01*
X104804492Y-49097095D01*
X105492001Y-49097095D01*
X105492338Y-49103614D01*
X105502257Y-49199206D01*
X105505149Y-49212600D01*
X105556588Y-49366784D01*
X105562761Y-49379962D01*
X105648063Y-49517807D01*
X105657099Y-49529208D01*
X105771829Y-49643739D01*
X105783240Y-49652751D01*
X105921243Y-49737816D01*
X105934424Y-49743963D01*
X106088710Y-49795138D01*
X106102086Y-49798005D01*
X106196438Y-49807672D01*
X106202854Y-49808000D01*
X106627885Y-49808000D01*
X106643124Y-49803525D01*
X106644329Y-49802135D01*
X106646000Y-49794452D01*
X106646000Y-49789884D01*
X107154000Y-49789884D01*
X107158475Y-49805123D01*
X107159865Y-49806328D01*
X107167548Y-49807999D01*
X107597095Y-49807999D01*
X107603614Y-49807662D01*
X107699206Y-49797743D01*
X107712600Y-49794851D01*
X107866784Y-49743412D01*
X107879962Y-49737239D01*
X108017807Y-49651937D01*
X108029208Y-49642901D01*
X108143739Y-49528171D01*
X108152751Y-49516760D01*
X108237816Y-49378757D01*
X108243963Y-49365576D01*
X108295138Y-49211290D01*
X108298005Y-49197914D01*
X108307672Y-49103562D01*
X108308000Y-49097146D01*
X108308000Y-49097095D01*
X108992001Y-49097095D01*
X108992338Y-49103614D01*
X109002257Y-49199206D01*
X109005149Y-49212600D01*
X109056588Y-49366784D01*
X109062761Y-49379962D01*
X109148063Y-49517807D01*
X109157099Y-49529208D01*
X109271829Y-49643739D01*
X109283240Y-49652751D01*
X109421243Y-49737816D01*
X109434424Y-49743963D01*
X109588710Y-49795138D01*
X109602086Y-49798005D01*
X109696438Y-49807672D01*
X109702854Y-49808000D01*
X110127885Y-49808000D01*
X110143124Y-49803525D01*
X110144329Y-49802135D01*
X110146000Y-49794452D01*
X110146000Y-49789884D01*
X110654000Y-49789884D01*
X110658475Y-49805123D01*
X110659865Y-49806328D01*
X110667548Y-49807999D01*
X111097095Y-49807999D01*
X111103614Y-49807662D01*
X111199206Y-49797743D01*
X111212600Y-49794851D01*
X111366784Y-49743412D01*
X111379962Y-49737239D01*
X111517807Y-49651937D01*
X111529208Y-49642901D01*
X111643739Y-49528171D01*
X111652751Y-49516760D01*
X111737816Y-49378757D01*
X111743963Y-49365576D01*
X111795138Y-49211290D01*
X111798005Y-49197914D01*
X111798089Y-49197095D01*
X112392001Y-49197095D01*
X112392338Y-49203614D01*
X112402257Y-49299206D01*
X112405149Y-49312600D01*
X112456588Y-49466784D01*
X112462761Y-49479962D01*
X112548063Y-49617807D01*
X112557099Y-49629208D01*
X112671829Y-49743739D01*
X112683240Y-49752751D01*
X112821243Y-49837816D01*
X112834424Y-49843963D01*
X112988710Y-49895138D01*
X113002086Y-49898005D01*
X113096438Y-49907672D01*
X113102854Y-49908000D01*
X113527885Y-49908000D01*
X113543124Y-49903525D01*
X113544329Y-49902135D01*
X113546000Y-49894452D01*
X113546000Y-49889884D01*
X114054000Y-49889884D01*
X114058475Y-49905123D01*
X114059865Y-49906328D01*
X114067548Y-49907999D01*
X114497095Y-49907999D01*
X114503614Y-49907662D01*
X114599206Y-49897743D01*
X114612600Y-49894851D01*
X114766784Y-49843412D01*
X114779962Y-49837239D01*
X114917807Y-49751937D01*
X114929208Y-49742901D01*
X115043739Y-49628171D01*
X115052751Y-49616760D01*
X115137816Y-49478757D01*
X115143963Y-49465576D01*
X115195138Y-49311290D01*
X115198005Y-49297914D01*
X115204492Y-49234595D01*
X115892001Y-49234595D01*
X115892338Y-49241114D01*
X115902257Y-49336706D01*
X115905149Y-49350100D01*
X115956588Y-49504284D01*
X115962761Y-49517462D01*
X116048063Y-49655307D01*
X116057099Y-49666708D01*
X116171829Y-49781239D01*
X116183240Y-49790251D01*
X116321243Y-49875316D01*
X116334424Y-49881463D01*
X116488710Y-49932638D01*
X116502086Y-49935505D01*
X116596438Y-49945172D01*
X116602854Y-49945500D01*
X117027885Y-49945500D01*
X117043124Y-49941025D01*
X117044329Y-49939635D01*
X117046000Y-49931952D01*
X117046000Y-49927384D01*
X117554000Y-49927384D01*
X117558475Y-49942623D01*
X117559865Y-49943828D01*
X117567548Y-49945499D01*
X117997095Y-49945499D01*
X118003614Y-49945162D01*
X118099206Y-49935243D01*
X118112600Y-49932351D01*
X118266784Y-49880912D01*
X118279962Y-49874739D01*
X118417807Y-49789437D01*
X118429208Y-49780401D01*
X118543739Y-49665671D01*
X118552751Y-49654260D01*
X118637816Y-49516257D01*
X118643963Y-49503076D01*
X118695138Y-49348790D01*
X118698005Y-49335414D01*
X118707672Y-49241062D01*
X118708000Y-49234646D01*
X118708000Y-49047115D01*
X118703525Y-49031876D01*
X118702135Y-49030671D01*
X118694452Y-49029000D01*
X117572115Y-49029000D01*
X117556876Y-49033475D01*
X117555671Y-49034865D01*
X117554000Y-49042548D01*
X117554000Y-49927384D01*
X117046000Y-49927384D01*
X117046000Y-49047115D01*
X117041525Y-49031876D01*
X117040135Y-49030671D01*
X117032452Y-49029000D01*
X115910116Y-49029000D01*
X115894877Y-49033475D01*
X115893672Y-49034865D01*
X115892001Y-49042548D01*
X115892001Y-49234595D01*
X115204492Y-49234595D01*
X115207672Y-49203562D01*
X115208000Y-49197146D01*
X115208000Y-49009615D01*
X115203525Y-48994376D01*
X115202135Y-48993171D01*
X115194452Y-48991500D01*
X114072115Y-48991500D01*
X114056876Y-48995975D01*
X114055671Y-48997365D01*
X114054000Y-49005048D01*
X114054000Y-49889884D01*
X113546000Y-49889884D01*
X113546000Y-49009615D01*
X113541525Y-48994376D01*
X113540135Y-48993171D01*
X113532452Y-48991500D01*
X112410116Y-48991500D01*
X112394877Y-48995975D01*
X112393672Y-48997365D01*
X112392001Y-49005048D01*
X112392001Y-49197095D01*
X111798089Y-49197095D01*
X111807672Y-49103562D01*
X111808000Y-49097146D01*
X111808000Y-48909615D01*
X111803525Y-48894376D01*
X111802135Y-48893171D01*
X111794452Y-48891500D01*
X110672115Y-48891500D01*
X110656876Y-48895975D01*
X110655671Y-48897365D01*
X110654000Y-48905048D01*
X110654000Y-49789884D01*
X110146000Y-49789884D01*
X110146000Y-48909615D01*
X110141525Y-48894376D01*
X110140135Y-48893171D01*
X110132452Y-48891500D01*
X109010116Y-48891500D01*
X108994877Y-48895975D01*
X108993672Y-48897365D01*
X108992001Y-48905048D01*
X108992001Y-49097095D01*
X108308000Y-49097095D01*
X108308000Y-48909615D01*
X108303525Y-48894376D01*
X108302135Y-48893171D01*
X108294452Y-48891500D01*
X107172115Y-48891500D01*
X107156876Y-48895975D01*
X107155671Y-48897365D01*
X107154000Y-48905048D01*
X107154000Y-49789884D01*
X106646000Y-49789884D01*
X106646000Y-48909615D01*
X106641525Y-48894376D01*
X106640135Y-48893171D01*
X106632452Y-48891500D01*
X105510116Y-48891500D01*
X105494877Y-48895975D01*
X105493672Y-48897365D01*
X105492001Y-48905048D01*
X105492001Y-49097095D01*
X104804492Y-49097095D01*
X104807672Y-49066062D01*
X104808000Y-49059646D01*
X104808000Y-48872115D01*
X104803525Y-48856876D01*
X104802135Y-48855671D01*
X104794452Y-48854000D01*
X103672115Y-48854000D01*
X103656876Y-48858475D01*
X103655671Y-48859865D01*
X103654000Y-48867548D01*
X103654000Y-49752384D01*
X103146000Y-49752384D01*
X103146000Y-48872115D01*
X103141525Y-48856876D01*
X103140135Y-48855671D01*
X103132452Y-48854000D01*
X102010116Y-48854000D01*
X101994877Y-48858475D01*
X101993672Y-48859865D01*
X101992001Y-48867548D01*
X101992001Y-49059595D01*
X101398089Y-49059595D01*
X101407672Y-48966062D01*
X101408000Y-48959646D01*
X101408000Y-48772115D01*
X101403525Y-48756876D01*
X101402135Y-48755671D01*
X101394452Y-48754000D01*
X100272115Y-48754000D01*
X100256876Y-48758475D01*
X100255671Y-48759865D01*
X100254000Y-48767548D01*
X100254000Y-49652384D01*
X99746000Y-49652384D01*
X99746000Y-48772115D01*
X99741525Y-48756876D01*
X99740135Y-48755671D01*
X99732452Y-48754000D01*
X98610116Y-48754000D01*
X98594877Y-48758475D01*
X98593672Y-48759865D01*
X98592001Y-48767548D01*
X98592001Y-48959595D01*
X69740000Y-48959595D01*
X69740000Y-48502885D01*
X115892000Y-48502885D01*
X115896475Y-48518124D01*
X115897865Y-48519329D01*
X115905548Y-48521000D01*
X117027885Y-48521000D01*
X117043124Y-48516525D01*
X117044329Y-48515135D01*
X117046000Y-48507452D01*
X117046000Y-48502885D01*
X117554000Y-48502885D01*
X117558475Y-48518124D01*
X117559865Y-48519329D01*
X117567548Y-48521000D01*
X118689884Y-48521000D01*
X118705123Y-48516525D01*
X118706328Y-48515135D01*
X118707999Y-48507452D01*
X118707999Y-48315405D01*
X118707662Y-48308886D01*
X118697743Y-48213294D01*
X118694851Y-48199900D01*
X118643412Y-48045716D01*
X118637239Y-48032538D01*
X118551937Y-47894693D01*
X118542901Y-47883292D01*
X118428171Y-47768761D01*
X118416760Y-47759749D01*
X118278757Y-47674684D01*
X118265576Y-47668537D01*
X118111290Y-47617362D01*
X118097914Y-47614495D01*
X118003562Y-47604828D01*
X117997145Y-47604500D01*
X117572115Y-47604500D01*
X117556876Y-47608975D01*
X117555671Y-47610365D01*
X117554000Y-47618048D01*
X117554000Y-48502885D01*
X117046000Y-48502885D01*
X117046000Y-47622616D01*
X117041525Y-47607377D01*
X117040135Y-47606172D01*
X117032452Y-47604501D01*
X116602905Y-47604501D01*
X116596386Y-47604838D01*
X116500794Y-47614757D01*
X116487400Y-47617649D01*
X116333216Y-47669088D01*
X116320038Y-47675261D01*
X116182193Y-47760563D01*
X116170792Y-47769599D01*
X116056261Y-47884329D01*
X116047249Y-47895740D01*
X115962184Y-48033743D01*
X115956037Y-48046924D01*
X115904862Y-48201210D01*
X115901995Y-48214586D01*
X115892328Y-48308938D01*
X115892000Y-48315355D01*
X115892000Y-48502885D01*
X69740000Y-48502885D01*
X69740000Y-48465385D01*
X112392000Y-48465385D01*
X112396475Y-48480624D01*
X112397865Y-48481829D01*
X112405548Y-48483500D01*
X113527885Y-48483500D01*
X113543124Y-48479025D01*
X113544329Y-48477635D01*
X113546000Y-48469952D01*
X113546000Y-48465385D01*
X114054000Y-48465385D01*
X114058475Y-48480624D01*
X114059865Y-48481829D01*
X114067548Y-48483500D01*
X115189884Y-48483500D01*
X115205123Y-48479025D01*
X115206328Y-48477635D01*
X115207999Y-48469952D01*
X115207999Y-48277905D01*
X115207662Y-48271386D01*
X115197743Y-48175794D01*
X115194851Y-48162400D01*
X115143412Y-48008216D01*
X115137239Y-47995038D01*
X115051937Y-47857193D01*
X115042901Y-47845792D01*
X114928171Y-47731261D01*
X114916760Y-47722249D01*
X114778757Y-47637184D01*
X114765576Y-47631037D01*
X114611290Y-47579862D01*
X114597914Y-47576995D01*
X114503562Y-47567328D01*
X114497145Y-47567000D01*
X114072115Y-47567000D01*
X114056876Y-47571475D01*
X114055671Y-47572865D01*
X114054000Y-47580548D01*
X114054000Y-48465385D01*
X113546000Y-48465385D01*
X113546000Y-47585116D01*
X113541525Y-47569877D01*
X113540135Y-47568672D01*
X113532452Y-47567001D01*
X113102905Y-47567001D01*
X113096386Y-47567338D01*
X113000794Y-47577257D01*
X112987400Y-47580149D01*
X112833216Y-47631588D01*
X112820038Y-47637761D01*
X112682193Y-47723063D01*
X112670792Y-47732099D01*
X112556261Y-47846829D01*
X112547249Y-47858240D01*
X112462184Y-47996243D01*
X112456037Y-48009424D01*
X112404862Y-48163710D01*
X112401995Y-48177086D01*
X112392328Y-48271438D01*
X112392000Y-48277855D01*
X112392000Y-48465385D01*
X69740000Y-48465385D01*
X69740000Y-48365385D01*
X105492000Y-48365385D01*
X105496475Y-48380624D01*
X105497865Y-48381829D01*
X105505548Y-48383500D01*
X106627885Y-48383500D01*
X106643124Y-48379025D01*
X106644329Y-48377635D01*
X106646000Y-48369952D01*
X106646000Y-48365385D01*
X107154000Y-48365385D01*
X107158475Y-48380624D01*
X107159865Y-48381829D01*
X107167548Y-48383500D01*
X108289884Y-48383500D01*
X108305123Y-48379025D01*
X108306328Y-48377635D01*
X108307999Y-48369952D01*
X108307999Y-48365385D01*
X108992000Y-48365385D01*
X108996475Y-48380624D01*
X108997865Y-48381829D01*
X109005548Y-48383500D01*
X110127885Y-48383500D01*
X110143124Y-48379025D01*
X110144329Y-48377635D01*
X110146000Y-48369952D01*
X110146000Y-48365385D01*
X110654000Y-48365385D01*
X110658475Y-48380624D01*
X110659865Y-48381829D01*
X110667548Y-48383500D01*
X111789884Y-48383500D01*
X111805123Y-48379025D01*
X111806328Y-48377635D01*
X111807999Y-48369952D01*
X111807999Y-48177905D01*
X111807662Y-48171386D01*
X111797743Y-48075794D01*
X111794851Y-48062400D01*
X111743412Y-47908216D01*
X111737239Y-47895038D01*
X111651937Y-47757193D01*
X111642901Y-47745792D01*
X111528171Y-47631261D01*
X111516760Y-47622249D01*
X111378757Y-47537184D01*
X111365576Y-47531037D01*
X111211290Y-47479862D01*
X111197914Y-47476995D01*
X111103562Y-47467328D01*
X111097145Y-47467000D01*
X110672115Y-47467000D01*
X110656876Y-47471475D01*
X110655671Y-47472865D01*
X110654000Y-47480548D01*
X110654000Y-48365385D01*
X110146000Y-48365385D01*
X110146000Y-47485116D01*
X110141525Y-47469877D01*
X110140135Y-47468672D01*
X110132452Y-47467001D01*
X109702905Y-47467001D01*
X109696386Y-47467338D01*
X109600794Y-47477257D01*
X109587400Y-47480149D01*
X109433216Y-47531588D01*
X109420038Y-47537761D01*
X109282193Y-47623063D01*
X109270792Y-47632099D01*
X109156261Y-47746829D01*
X109147249Y-47758240D01*
X109062184Y-47896243D01*
X109056037Y-47909424D01*
X109004862Y-48063710D01*
X109001995Y-48077086D01*
X108992328Y-48171438D01*
X108992000Y-48177855D01*
X108992000Y-48365385D01*
X108307999Y-48365385D01*
X108307999Y-48177905D01*
X108307662Y-48171386D01*
X108297743Y-48075794D01*
X108294851Y-48062400D01*
X108243412Y-47908216D01*
X108237239Y-47895038D01*
X108151937Y-47757193D01*
X108142901Y-47745792D01*
X108028171Y-47631261D01*
X108016760Y-47622249D01*
X107878757Y-47537184D01*
X107865576Y-47531037D01*
X107711290Y-47479862D01*
X107697914Y-47476995D01*
X107603562Y-47467328D01*
X107597145Y-47467000D01*
X107172115Y-47467000D01*
X107156876Y-47471475D01*
X107155671Y-47472865D01*
X107154000Y-47480548D01*
X107154000Y-48365385D01*
X106646000Y-48365385D01*
X106646000Y-47485116D01*
X106641525Y-47469877D01*
X106640135Y-47468672D01*
X106632452Y-47467001D01*
X106202905Y-47467001D01*
X106196386Y-47467338D01*
X106100794Y-47477257D01*
X106087400Y-47480149D01*
X105933216Y-47531588D01*
X105920038Y-47537761D01*
X105782193Y-47623063D01*
X105770792Y-47632099D01*
X105656261Y-47746829D01*
X105647249Y-47758240D01*
X105562184Y-47896243D01*
X105556037Y-47909424D01*
X105504862Y-48063710D01*
X105501995Y-48077086D01*
X105492328Y-48171438D01*
X105492000Y-48177855D01*
X105492000Y-48365385D01*
X69740000Y-48365385D01*
X69740000Y-48327885D01*
X101992000Y-48327885D01*
X101996475Y-48343124D01*
X101997865Y-48344329D01*
X102005548Y-48346000D01*
X103127885Y-48346000D01*
X103143124Y-48341525D01*
X103144329Y-48340135D01*
X103146000Y-48332452D01*
X103146000Y-48327885D01*
X103654000Y-48327885D01*
X103658475Y-48343124D01*
X103659865Y-48344329D01*
X103667548Y-48346000D01*
X104789884Y-48346000D01*
X104805123Y-48341525D01*
X104806328Y-48340135D01*
X104807999Y-48332452D01*
X104807999Y-48140405D01*
X104807662Y-48133886D01*
X104797743Y-48038294D01*
X104794851Y-48024900D01*
X104743412Y-47870716D01*
X104737239Y-47857538D01*
X104651937Y-47719693D01*
X104642901Y-47708292D01*
X104528171Y-47593761D01*
X104516760Y-47584749D01*
X104378757Y-47499684D01*
X104365576Y-47493537D01*
X104211290Y-47442362D01*
X104197914Y-47439495D01*
X104103562Y-47429828D01*
X104097145Y-47429500D01*
X103672115Y-47429500D01*
X103656876Y-47433975D01*
X103655671Y-47435365D01*
X103654000Y-47443048D01*
X103654000Y-48327885D01*
X103146000Y-48327885D01*
X103146000Y-47447616D01*
X103141525Y-47432377D01*
X103140135Y-47431172D01*
X103132452Y-47429501D01*
X102702905Y-47429501D01*
X102696386Y-47429838D01*
X102600794Y-47439757D01*
X102587400Y-47442649D01*
X102433216Y-47494088D01*
X102420038Y-47500261D01*
X102282193Y-47585563D01*
X102270792Y-47594599D01*
X102156261Y-47709329D01*
X102147249Y-47720740D01*
X102062184Y-47858743D01*
X102056037Y-47871924D01*
X102004862Y-48026210D01*
X102001995Y-48039586D01*
X101992328Y-48133938D01*
X101992000Y-48140355D01*
X101992000Y-48327885D01*
X69740000Y-48327885D01*
X69740000Y-48227885D01*
X98592000Y-48227885D01*
X98596475Y-48243124D01*
X98597865Y-48244329D01*
X98605548Y-48246000D01*
X99727885Y-48246000D01*
X99743124Y-48241525D01*
X99744329Y-48240135D01*
X99746000Y-48232452D01*
X99746000Y-48227885D01*
X100254000Y-48227885D01*
X100258475Y-48243124D01*
X100259865Y-48244329D01*
X100267548Y-48246000D01*
X101389884Y-48246000D01*
X101405123Y-48241525D01*
X101406328Y-48240135D01*
X101407999Y-48232452D01*
X101407999Y-48040405D01*
X101407662Y-48033886D01*
X101397743Y-47938294D01*
X101394851Y-47924900D01*
X101343412Y-47770716D01*
X101337239Y-47757538D01*
X101251937Y-47619693D01*
X101242901Y-47608292D01*
X101128171Y-47493761D01*
X101116760Y-47484749D01*
X100978757Y-47399684D01*
X100965576Y-47393537D01*
X100811290Y-47342362D01*
X100797914Y-47339495D01*
X100703562Y-47329828D01*
X100697145Y-47329500D01*
X100272115Y-47329500D01*
X100256876Y-47333975D01*
X100255671Y-47335365D01*
X100254000Y-47343048D01*
X100254000Y-48227885D01*
X99746000Y-48227885D01*
X99746000Y-47347616D01*
X99741525Y-47332377D01*
X99740135Y-47331172D01*
X99732452Y-47329501D01*
X99302905Y-47329501D01*
X99296386Y-47329838D01*
X99200794Y-47339757D01*
X99187400Y-47342649D01*
X99033216Y-47394088D01*
X99020038Y-47400261D01*
X98882193Y-47485563D01*
X98870792Y-47494599D01*
X98756261Y-47609329D01*
X98747249Y-47620740D01*
X98662184Y-47758743D01*
X98656037Y-47771924D01*
X98604862Y-47926210D01*
X98601995Y-47939586D01*
X98592328Y-48033938D01*
X98592000Y-48040355D01*
X98592000Y-48227885D01*
X69740000Y-48227885D01*
X69740000Y-45826000D01*
X69760002Y-45757879D01*
X69813658Y-45711386D01*
X69866000Y-45700000D01*
X141365500Y-45700000D01*
X141433621Y-45720002D01*
G37*
%TD.AperFunction*%
%TD*%
M02*
