M48
; DRILL file {KiCad (6.0.4)} date Mon Jul 25 21:27:04 2022
; FORMAT={-:-/ absolute / metric / decimal}
; #@! TF.CreationDate,2022-07-25T21:27:04-05:00
; #@! TF.GenerationSoftware,Kicad,Pcbnew,(6.0.4)
; #@! TF.FileFunction,Plated,1,2,PTH
FMAT,2
METRIC
; #@! TA.AperFunction,Plated,PTH,ViaDrill
T1C0.400
; #@! TA.AperFunction,Plated,PTH,ComponentDrill
T2C0.750
; #@! TA.AperFunction,Plated,PTH,ComponentDrill
T3C0.900
; #@! TA.AperFunction,Plated,PTH,ComponentDrill
T4C1.000
; #@! TA.AperFunction,Plated,PTH,ComponentDrill
T5C1.092
%
G90
G05
T1
X100.0Y-54.4
X103.4Y-54.4
X106.9Y-54.5
X110.4Y-54.5
X113.8Y-54.6
X117.3Y-54.6
T4
X109.05Y-29.3
X111.6Y-31.7
X114.3Y-29.4
X116.95Y-31.7
X125.45Y-33.5
X132.95Y-33.55
T5
X77.3Y-71.3
X77.3Y-73.8
X79.84Y-71.3
X79.84Y-73.8
X82.38Y-71.3
X82.38Y-73.8
X84.92Y-71.3
X84.92Y-73.8
X87.46Y-71.3
X87.46Y-73.8
X90.0Y-71.3
X90.0Y-73.8
X92.54Y-71.3
X92.54Y-73.8
X95.08Y-71.3
X95.08Y-73.8
X97.62Y-71.3
X97.62Y-73.8
X98.5Y-82.0
X100.16Y-71.3
X100.16Y-73.8
X101.04Y-82.0
X102.7Y-71.3
X102.7Y-73.8
X103.58Y-82.0
X105.24Y-71.3
X105.24Y-73.8
X106.12Y-82.0
X107.78Y-71.3
X107.78Y-73.8
X108.66Y-82.0
X110.32Y-71.3
X110.32Y-73.8
X112.86Y-71.3
X112.86Y-73.8
X115.4Y-71.3
X115.4Y-73.8
X117.94Y-71.3
X117.94Y-73.8
X120.48Y-71.3
X120.48Y-73.8
X123.02Y-71.3
X123.02Y-73.8
X123.7Y-82.0
X125.56Y-71.3
X125.56Y-73.8
X126.24Y-82.0
X128.78Y-82.0
X131.32Y-82.0
X133.86Y-82.0
T2
X31.625Y-26.3G85X33.375Y-26.3
G05
X32.5Y-30.625G85X32.5Y-32.375
G05
T3
X43.2Y-31.15G85X43.2Y-31.55
G05
X47.8Y-23.05G85X47.8Y-23.45
G05
X47.8Y-26.05G85X47.8Y-26.45
G05
X47.8Y-30.05G85X47.8Y-30.45
G05
T0
M30
