%FSLAX45Y45*%
G04 Gerber Fmt 4.5, Leading zero omitted, Abs format (unit mm)*
G04 Created by KiCad (PCBNEW (6.0.4)) date 2022-07-25 21:27:22*
%MOMM*%
%LPD*%
G01*
G04 APERTURE LIST*
%TA.AperFunction,Profile*%
%ADD10C,0.050000*%
%TD*%
%ADD11C,0.200000*%
%ADD12C,0.040000*%
%ADD13C,0.075000*%
%ADD14C,0.090000*%
%ADD15C,0.100000*%
%ADD16C,0.109220*%
G04 APERTURE END LIST*
D10*
X4410000Y-8460000D02*
G75*
G03*
X4210000Y-8660000I0J-200000D01*
G01*
X12220000Y-8460060D02*
G75*
G03*
X12160000Y-8520062I0J-60000D01*
G01*
X11960000Y-9120000D02*
G75*
G03*
X12160000Y-8920000I0J200000D01*
G01*
X9885000Y-8590000D02*
G75*
G03*
X9885000Y-8460000I0J65000D01*
G01*
X14000000Y-2050000D02*
X2200000Y-2050000D01*
X2000000Y-2250000D02*
X2000000Y-9780000D01*
X4400000Y-8590000D02*
G75*
G03*
X4340000Y-8650000I0J-60000D01*
G01*
X10910000Y-8460000D02*
X10315000Y-8460000D01*
X4010000Y-9980000D02*
G75*
G03*
X4210000Y-9780000I0J200000D01*
G01*
X10980000Y-8650000D02*
G75*
G03*
X10920000Y-8590000I-60000J0D01*
G01*
X4340000Y-9570000D02*
X4340000Y-10530000D01*
X9885000Y-8460000D02*
X4410000Y-8460000D01*
X4400000Y-10590000D02*
X10920000Y-10590000D01*
X14000000Y-8460000D02*
G75*
G03*
X14200000Y-8260000I0J200000D01*
G01*
X4010000Y-9980000D02*
X2200000Y-9980000D01*
X10315000Y-8590000D02*
X10920000Y-8590000D01*
X11110000Y-8660000D02*
G75*
G03*
X10910000Y-8460000I-200000J0D01*
G01*
X5330000Y-8590000D02*
X4400000Y-8590000D01*
X10980000Y-10530000D02*
X10980000Y-8650000D01*
X14200000Y-8260000D02*
X14200000Y-2250000D01*
X11110000Y-8920000D02*
X11110000Y-8660000D01*
X9885000Y-8590000D02*
X5330000Y-8590000D01*
X14000000Y-8460000D02*
X12220000Y-8460062D01*
X4210000Y-9570000D02*
X4210000Y-9780000D01*
X12160000Y-8520062D02*
X12160000Y-8920000D01*
X14200000Y-2250000D02*
G75*
G03*
X14000000Y-2050000I-200000J0D01*
G01*
X11960000Y-9120000D02*
X11310000Y-9120000D01*
X2200000Y-2050000D02*
G75*
G03*
X2000000Y-2250000I0J-200000D01*
G01*
X10920000Y-10590000D02*
G75*
G03*
X10980000Y-10530000I0J60000D01*
G01*
X4340000Y-9570000D02*
G75*
G03*
X4210000Y-9570000I-65000J0D01*
G01*
X10315000Y-8460000D02*
G75*
G03*
X10315000Y-8590000I0J-65000D01*
G01*
X4210000Y-8660000D02*
X4210000Y-9140000D01*
X4340000Y-10530000D02*
G75*
G03*
X4400000Y-10590000I60000J0D01*
G01*
X2000000Y-9780000D02*
G75*
G03*
X2200000Y-9980000I200000J0D01*
G01*
X4210000Y-9140000D02*
G75*
G03*
X4340000Y-9140000I65000J0D01*
G01*
X11110000Y-8920000D02*
G75*
G03*
X11310000Y-9120000I200000J0D01*
G01*
X4340000Y-8650000D02*
X4340000Y-9140000D01*
D11*
D12*
X9980000Y-5420000D02*
X10020000Y-5460000D01*
X10020000Y-5420000D02*
X9980000Y-5460000D01*
X10320000Y-5420000D02*
X10360000Y-5460000D01*
X10360000Y-5420000D02*
X10320000Y-5460000D01*
X10670000Y-5430000D02*
X10710000Y-5470000D01*
X10710000Y-5430000D02*
X10670000Y-5470000D01*
X11020000Y-5430000D02*
X11060000Y-5470000D01*
X11060000Y-5430000D02*
X11020000Y-5470000D01*
X11360000Y-5440000D02*
X11400000Y-5480000D01*
X11400000Y-5440000D02*
X11360000Y-5480000D01*
X11710000Y-5440000D02*
X11750000Y-5480000D01*
X11750000Y-5440000D02*
X11710000Y-5480000D01*
D13*
X3287500Y-2630000D02*
G75*
G03*
X3287500Y-2630000I-37500J0D01*
G01*
D11*
X3162500Y-2657500D02*
X3337500Y-2657500D01*
X3162500Y-2602500D02*
X3337500Y-2602500D01*
X3337500Y-2657500D02*
G75*
G03*
X3337500Y-2602500I0J27500D01*
G01*
X3162500Y-2602500D02*
G75*
G03*
X3162500Y-2657500I0J-27500D01*
G01*
D13*
X3287500Y-3150000D02*
G75*
G03*
X3287500Y-3150000I-37500J0D01*
G01*
D11*
X3222500Y-3062500D02*
X3222500Y-3237500D01*
X3277500Y-3062500D02*
X3277500Y-3237500D01*
X3222500Y-3237500D02*
G75*
G03*
X3277500Y-3237500I27500J0D01*
G01*
X3277500Y-3062500D02*
G75*
G03*
X3222500Y-3062500I-27500J0D01*
G01*
D14*
X4320000Y-3090000D02*
X4320000Y-3180000D01*
X4275000Y-3135000D02*
X4365000Y-3135000D01*
D11*
X4285000Y-3115000D02*
X4285000Y-3155000D01*
X4355000Y-3115000D02*
X4355000Y-3155000D01*
X4285000Y-3155000D02*
G75*
G03*
X4355000Y-3155000I35000J0D01*
G01*
X4355000Y-3115000D02*
G75*
G03*
X4285000Y-3115000I-35000J0D01*
G01*
D14*
X4780000Y-2280000D02*
X4780000Y-2370000D01*
X4735000Y-2325000D02*
X4825000Y-2325000D01*
D11*
X4745000Y-2305000D02*
X4745000Y-2345000D01*
X4815000Y-2305000D02*
X4815000Y-2345000D01*
X4745000Y-2345000D02*
G75*
G03*
X4815000Y-2345000I35000J0D01*
G01*
X4815000Y-2305000D02*
G75*
G03*
X4745000Y-2305000I-35000J0D01*
G01*
D14*
X4780000Y-2580000D02*
X4780000Y-2670000D01*
X4735000Y-2625000D02*
X4825000Y-2625000D01*
D11*
X4745000Y-2605000D02*
X4745000Y-2645000D01*
X4815000Y-2605000D02*
X4815000Y-2645000D01*
X4745000Y-2645000D02*
G75*
G03*
X4815000Y-2645000I35000J0D01*
G01*
X4815000Y-2605000D02*
G75*
G03*
X4745000Y-2605000I-35000J0D01*
G01*
D14*
X4780000Y-2980000D02*
X4780000Y-3070000D01*
X4735000Y-3025000D02*
X4825000Y-3025000D01*
D11*
X4745000Y-3005000D02*
X4745000Y-3045000D01*
X4815000Y-3005000D02*
X4815000Y-3045000D01*
X4745000Y-3045000D02*
G75*
G03*
X4815000Y-3045000I35000J0D01*
G01*
X4815000Y-3005000D02*
G75*
G03*
X4745000Y-3005000I-35000J0D01*
G01*
D15*
X10940356Y-2965356D02*
X10940356Y-2894644D01*
X10869644Y-2894644D01*
X10869644Y-2965356D01*
X10940356Y-2965356D01*
X11195356Y-3205356D02*
X11195356Y-3134644D01*
X11124644Y-3134644D01*
X11124644Y-3205356D01*
X11195356Y-3205356D01*
X11465356Y-2975356D02*
X11465356Y-2904644D01*
X11394644Y-2904644D01*
X11394644Y-2975356D01*
X11465356Y-2975356D01*
X11730356Y-3205356D02*
X11730356Y-3134644D01*
X11659644Y-3134644D01*
X11659644Y-3205356D01*
X11730356Y-3205356D01*
X12580356Y-3385356D02*
X12580356Y-3314644D01*
X12509644Y-3314644D01*
X12509644Y-3385356D01*
X12580356Y-3385356D01*
X13330356Y-3390356D02*
X13330356Y-3319644D01*
X13259644Y-3319644D01*
X13259644Y-3390356D01*
X13330356Y-3390356D01*
D16*
X7730000Y-7184610D02*
X7784610Y-7130000D01*
X7730000Y-7075390D01*
X7675390Y-7130000D01*
X7730000Y-7184610D01*
X7730000Y-7434610D02*
X7784610Y-7380000D01*
X7730000Y-7325390D01*
X7675390Y-7380000D01*
X7730000Y-7434610D01*
X7984000Y-7184610D02*
X8038610Y-7130000D01*
X7984000Y-7075390D01*
X7929390Y-7130000D01*
X7984000Y-7184610D01*
X7984000Y-7434610D02*
X8038610Y-7380000D01*
X7984000Y-7325390D01*
X7929390Y-7380000D01*
X7984000Y-7434610D01*
X8238000Y-7184610D02*
X8292610Y-7130000D01*
X8238000Y-7075390D01*
X8183390Y-7130000D01*
X8238000Y-7184610D01*
X8238000Y-7434610D02*
X8292610Y-7380000D01*
X8238000Y-7325390D01*
X8183390Y-7380000D01*
X8238000Y-7434610D01*
X8492000Y-7184610D02*
X8546610Y-7130000D01*
X8492000Y-7075390D01*
X8437390Y-7130000D01*
X8492000Y-7184610D01*
X8492000Y-7434610D02*
X8546610Y-7380000D01*
X8492000Y-7325390D01*
X8437390Y-7380000D01*
X8492000Y-7434610D01*
X8746000Y-7184610D02*
X8800610Y-7130000D01*
X8746000Y-7075390D01*
X8691390Y-7130000D01*
X8746000Y-7184610D01*
X8746000Y-7434610D02*
X8800610Y-7380000D01*
X8746000Y-7325390D01*
X8691390Y-7380000D01*
X8746000Y-7434610D01*
X9000000Y-7184610D02*
X9054610Y-7130000D01*
X9000000Y-7075390D01*
X8945390Y-7130000D01*
X9000000Y-7184610D01*
X9000000Y-7434610D02*
X9054610Y-7380000D01*
X9000000Y-7325390D01*
X8945390Y-7380000D01*
X9000000Y-7434610D01*
X9254000Y-7184610D02*
X9308610Y-7130000D01*
X9254000Y-7075390D01*
X9199390Y-7130000D01*
X9254000Y-7184610D01*
X9254000Y-7434610D02*
X9308610Y-7380000D01*
X9254000Y-7325390D01*
X9199390Y-7380000D01*
X9254000Y-7434610D01*
X9508000Y-7184610D02*
X9562610Y-7130000D01*
X9508000Y-7075390D01*
X9453390Y-7130000D01*
X9508000Y-7184610D01*
X9508000Y-7434610D02*
X9562610Y-7380000D01*
X9508000Y-7325390D01*
X9453390Y-7380000D01*
X9508000Y-7434610D01*
X9762000Y-7184610D02*
X9816610Y-7130000D01*
X9762000Y-7075390D01*
X9707390Y-7130000D01*
X9762000Y-7184610D01*
X9762000Y-7434610D02*
X9816610Y-7380000D01*
X9762000Y-7325390D01*
X9707390Y-7380000D01*
X9762000Y-7434610D01*
X9850000Y-8254610D02*
X9904610Y-8200000D01*
X9850000Y-8145390D01*
X9795390Y-8200000D01*
X9850000Y-8254610D01*
X10016000Y-7184610D02*
X10070610Y-7130000D01*
X10016000Y-7075390D01*
X9961390Y-7130000D01*
X10016000Y-7184610D01*
X10016000Y-7434610D02*
X10070610Y-7380000D01*
X10016000Y-7325390D01*
X9961390Y-7380000D01*
X10016000Y-7434610D01*
X10104000Y-8254610D02*
X10158610Y-8200000D01*
X10104000Y-8145390D01*
X10049390Y-8200000D01*
X10104000Y-8254610D01*
X10270000Y-7184610D02*
X10324610Y-7130000D01*
X10270000Y-7075390D01*
X10215390Y-7130000D01*
X10270000Y-7184610D01*
X10270000Y-7434610D02*
X10324610Y-7380000D01*
X10270000Y-7325390D01*
X10215390Y-7380000D01*
X10270000Y-7434610D01*
X10358000Y-8254610D02*
X10412610Y-8200000D01*
X10358000Y-8145390D01*
X10303390Y-8200000D01*
X10358000Y-8254610D01*
X10524000Y-7184610D02*
X10578610Y-7130000D01*
X10524000Y-7075390D01*
X10469390Y-7130000D01*
X10524000Y-7184610D01*
X10524000Y-7434610D02*
X10578610Y-7380000D01*
X10524000Y-7325390D01*
X10469390Y-7380000D01*
X10524000Y-7434610D01*
X10612000Y-8254610D02*
X10666610Y-8200000D01*
X10612000Y-8145390D01*
X10557390Y-8200000D01*
X10612000Y-8254610D01*
X10778000Y-7184610D02*
X10832610Y-7130000D01*
X10778000Y-7075390D01*
X10723390Y-7130000D01*
X10778000Y-7184610D01*
X10778000Y-7434610D02*
X10832610Y-7380000D01*
X10778000Y-7325390D01*
X10723390Y-7380000D01*
X10778000Y-7434610D01*
X10866000Y-8254610D02*
X10920610Y-8200000D01*
X10866000Y-8145390D01*
X10811390Y-8200000D01*
X10866000Y-8254610D01*
X11032000Y-7184610D02*
X11086610Y-7130000D01*
X11032000Y-7075390D01*
X10977390Y-7130000D01*
X11032000Y-7184610D01*
X11032000Y-7434610D02*
X11086610Y-7380000D01*
X11032000Y-7325390D01*
X10977390Y-7380000D01*
X11032000Y-7434610D01*
X11286000Y-7184610D02*
X11340610Y-7130000D01*
X11286000Y-7075390D01*
X11231390Y-7130000D01*
X11286000Y-7184610D01*
X11286000Y-7434610D02*
X11340610Y-7380000D01*
X11286000Y-7325390D01*
X11231390Y-7380000D01*
X11286000Y-7434610D01*
X11540000Y-7184610D02*
X11594610Y-7130000D01*
X11540000Y-7075390D01*
X11485390Y-7130000D01*
X11540000Y-7184610D01*
X11540000Y-7434610D02*
X11594610Y-7380000D01*
X11540000Y-7325390D01*
X11485390Y-7380000D01*
X11540000Y-7434610D01*
X11794000Y-7184610D02*
X11848610Y-7130000D01*
X11794000Y-7075390D01*
X11739390Y-7130000D01*
X11794000Y-7184610D01*
X11794000Y-7434610D02*
X11848610Y-7380000D01*
X11794000Y-7325390D01*
X11739390Y-7380000D01*
X11794000Y-7434610D01*
X12048000Y-7184610D02*
X12102610Y-7130000D01*
X12048000Y-7075390D01*
X11993390Y-7130000D01*
X12048000Y-7184610D01*
X12048000Y-7434610D02*
X12102610Y-7380000D01*
X12048000Y-7325390D01*
X11993390Y-7380000D01*
X12048000Y-7434610D01*
X12302000Y-7184610D02*
X12356610Y-7130000D01*
X12302000Y-7075390D01*
X12247390Y-7130000D01*
X12302000Y-7184610D01*
X12302000Y-7434610D02*
X12356610Y-7380000D01*
X12302000Y-7325390D01*
X12247390Y-7380000D01*
X12302000Y-7434610D01*
X12370000Y-8254610D02*
X12424610Y-8200000D01*
X12370000Y-8145390D01*
X12315390Y-8200000D01*
X12370000Y-8254610D01*
X12556000Y-7184610D02*
X12610610Y-7130000D01*
X12556000Y-7075390D01*
X12501390Y-7130000D01*
X12556000Y-7184610D01*
X12556000Y-7434610D02*
X12610610Y-7380000D01*
X12556000Y-7325390D01*
X12501390Y-7380000D01*
X12556000Y-7434610D01*
X12624000Y-8254610D02*
X12678610Y-8200000D01*
X12624000Y-8145390D01*
X12569390Y-8200000D01*
X12624000Y-8254610D01*
X12878000Y-8254610D02*
X12932610Y-8200000D01*
X12878000Y-8145390D01*
X12823390Y-8200000D01*
X12878000Y-8254610D01*
X13132000Y-8254610D02*
X13186610Y-8200000D01*
X13132000Y-8145390D01*
X13077390Y-8200000D01*
X13132000Y-8254610D01*
X13386000Y-8254610D02*
X13440610Y-8200000D01*
X13386000Y-8145390D01*
X13331390Y-8200000D01*
X13386000Y-8254610D01*
D11*
X2255119Y-10902976D02*
X2255119Y-10702976D01*
X2302738Y-10702976D01*
X2331310Y-10712500D01*
X2350357Y-10731548D01*
X2359881Y-10750595D01*
X2369405Y-10788690D01*
X2369405Y-10817262D01*
X2359881Y-10855357D01*
X2350357Y-10874405D01*
X2331310Y-10893452D01*
X2302738Y-10902976D01*
X2255119Y-10902976D01*
X2455119Y-10902976D02*
X2455119Y-10769643D01*
X2455119Y-10807738D02*
X2464643Y-10788690D01*
X2474167Y-10779167D01*
X2493214Y-10769643D01*
X2512262Y-10769643D01*
X2578929Y-10902976D02*
X2578929Y-10769643D01*
X2578929Y-10702976D02*
X2569405Y-10712500D01*
X2578929Y-10722024D01*
X2588452Y-10712500D01*
X2578929Y-10702976D01*
X2578929Y-10722024D01*
X2702738Y-10902976D02*
X2683690Y-10893452D01*
X2674167Y-10874405D01*
X2674167Y-10702976D01*
X2807500Y-10902976D02*
X2788452Y-10893452D01*
X2778929Y-10874405D01*
X2778929Y-10702976D01*
X3036071Y-10902976D02*
X3036071Y-10702976D01*
X3102738Y-10845833D01*
X3169405Y-10702976D01*
X3169405Y-10902976D01*
X3350357Y-10902976D02*
X3350357Y-10798214D01*
X3340833Y-10779167D01*
X3321786Y-10769643D01*
X3283690Y-10769643D01*
X3264643Y-10779167D01*
X3350357Y-10893452D02*
X3331309Y-10902976D01*
X3283690Y-10902976D01*
X3264643Y-10893452D01*
X3255119Y-10874405D01*
X3255119Y-10855357D01*
X3264643Y-10836310D01*
X3283690Y-10826786D01*
X3331309Y-10826786D01*
X3350357Y-10817262D01*
X3445595Y-10769643D02*
X3445595Y-10969643D01*
X3445595Y-10779167D02*
X3464643Y-10769643D01*
X3502738Y-10769643D01*
X3521786Y-10779167D01*
X3531309Y-10788690D01*
X3540833Y-10807738D01*
X3540833Y-10864881D01*
X3531309Y-10883929D01*
X3521786Y-10893452D01*
X3502738Y-10902976D01*
X3464643Y-10902976D01*
X3445595Y-10893452D01*
X3626548Y-10883929D02*
X3636071Y-10893452D01*
X3626548Y-10902976D01*
X3617024Y-10893452D01*
X3626548Y-10883929D01*
X3626548Y-10902976D01*
X3626548Y-10779167D02*
X3636071Y-10788690D01*
X3626548Y-10798214D01*
X3617024Y-10788690D01*
X3626548Y-10779167D01*
X3626548Y-10798214D01*
D12*
X1957500Y-11212500D02*
X1997500Y-11252500D01*
X1997500Y-11212500D02*
X1957500Y-11252500D01*
D11*
X2293214Y-11122976D02*
X2312262Y-11122976D01*
X2331310Y-11132500D01*
X2340833Y-11142024D01*
X2350357Y-11161071D01*
X2359881Y-11199167D01*
X2359881Y-11246786D01*
X2350357Y-11284881D01*
X2340833Y-11303928D01*
X2331310Y-11313452D01*
X2312262Y-11322976D01*
X2293214Y-11322976D01*
X2274167Y-11313452D01*
X2264643Y-11303928D01*
X2255119Y-11284881D01*
X2245595Y-11246786D01*
X2245595Y-11199167D01*
X2255119Y-11161071D01*
X2264643Y-11142024D01*
X2274167Y-11132500D01*
X2293214Y-11122976D01*
X2445595Y-11303928D02*
X2455119Y-11313452D01*
X2445595Y-11322976D01*
X2436071Y-11313452D01*
X2445595Y-11303928D01*
X2445595Y-11322976D01*
X2626548Y-11189643D02*
X2626548Y-11322976D01*
X2578929Y-11113452D02*
X2531310Y-11256309D01*
X2655119Y-11256309D01*
X2769405Y-11122976D02*
X2788452Y-11122976D01*
X2807500Y-11132500D01*
X2817024Y-11142024D01*
X2826548Y-11161071D01*
X2836071Y-11199167D01*
X2836071Y-11246786D01*
X2826548Y-11284881D01*
X2817024Y-11303928D01*
X2807500Y-11313452D01*
X2788452Y-11322976D01*
X2769405Y-11322976D01*
X2750357Y-11313452D01*
X2740833Y-11303928D01*
X2731310Y-11284881D01*
X2721786Y-11246786D01*
X2721786Y-11199167D01*
X2731310Y-11161071D01*
X2740833Y-11142024D01*
X2750357Y-11132500D01*
X2769405Y-11122976D01*
X2959881Y-11122976D02*
X2978928Y-11122976D01*
X2997976Y-11132500D01*
X3007500Y-11142024D01*
X3017024Y-11161071D01*
X3026548Y-11199167D01*
X3026548Y-11246786D01*
X3017024Y-11284881D01*
X3007500Y-11303928D01*
X2997976Y-11313452D01*
X2978928Y-11322976D01*
X2959881Y-11322976D01*
X2940833Y-11313452D01*
X2931309Y-11303928D01*
X2921786Y-11284881D01*
X2912262Y-11246786D01*
X2912262Y-11199167D01*
X2921786Y-11161071D01*
X2931309Y-11142024D01*
X2940833Y-11132500D01*
X2959881Y-11122976D01*
X3112262Y-11322976D02*
X3112262Y-11189643D01*
X3112262Y-11208690D02*
X3121786Y-11199167D01*
X3140833Y-11189643D01*
X3169405Y-11189643D01*
X3188452Y-11199167D01*
X3197976Y-11218214D01*
X3197976Y-11322976D01*
X3197976Y-11218214D02*
X3207500Y-11199167D01*
X3226548Y-11189643D01*
X3255119Y-11189643D01*
X3274167Y-11199167D01*
X3283690Y-11218214D01*
X3283690Y-11322976D01*
X3378928Y-11322976D02*
X3378928Y-11189643D01*
X3378928Y-11208690D02*
X3388452Y-11199167D01*
X3407500Y-11189643D01*
X3436071Y-11189643D01*
X3455119Y-11199167D01*
X3464643Y-11218214D01*
X3464643Y-11322976D01*
X3464643Y-11218214D02*
X3474167Y-11199167D01*
X3493214Y-11189643D01*
X3521786Y-11189643D01*
X3540833Y-11199167D01*
X3550357Y-11218214D01*
X3550357Y-11322976D01*
X3940833Y-11113452D02*
X3769405Y-11370595D01*
X4197976Y-11122976D02*
X4217024Y-11122976D01*
X4236071Y-11132500D01*
X4245595Y-11142024D01*
X4255119Y-11161071D01*
X4264643Y-11199167D01*
X4264643Y-11246786D01*
X4255119Y-11284881D01*
X4245595Y-11303928D01*
X4236071Y-11313452D01*
X4217024Y-11322976D01*
X4197976Y-11322976D01*
X4178928Y-11313452D01*
X4169405Y-11303928D01*
X4159881Y-11284881D01*
X4150357Y-11246786D01*
X4150357Y-11199167D01*
X4159881Y-11161071D01*
X4169405Y-11142024D01*
X4178928Y-11132500D01*
X4197976Y-11122976D01*
X4350357Y-11303928D02*
X4359881Y-11313452D01*
X4350357Y-11322976D01*
X4340833Y-11313452D01*
X4350357Y-11303928D01*
X4350357Y-11322976D01*
X4483690Y-11122976D02*
X4502738Y-11122976D01*
X4521786Y-11132500D01*
X4531310Y-11142024D01*
X4540833Y-11161071D01*
X4550357Y-11199167D01*
X4550357Y-11246786D01*
X4540833Y-11284881D01*
X4531310Y-11303928D01*
X4521786Y-11313452D01*
X4502738Y-11322976D01*
X4483690Y-11322976D01*
X4464643Y-11313452D01*
X4455119Y-11303928D01*
X4445595Y-11284881D01*
X4436071Y-11246786D01*
X4436071Y-11199167D01*
X4445595Y-11161071D01*
X4455119Y-11142024D01*
X4464643Y-11132500D01*
X4483690Y-11122976D01*
X4740833Y-11322976D02*
X4626548Y-11322976D01*
X4683690Y-11322976D02*
X4683690Y-11122976D01*
X4664643Y-11151548D01*
X4645595Y-11170595D01*
X4626548Y-11180119D01*
X4921786Y-11122976D02*
X4826548Y-11122976D01*
X4817024Y-11218214D01*
X4826548Y-11208690D01*
X4845595Y-11199167D01*
X4893214Y-11199167D01*
X4912262Y-11208690D01*
X4921786Y-11218214D01*
X4931310Y-11237262D01*
X4931310Y-11284881D01*
X4921786Y-11303928D01*
X4912262Y-11313452D01*
X4893214Y-11322976D01*
X4845595Y-11322976D01*
X4826548Y-11313452D01*
X4817024Y-11303928D01*
X4997976Y-11122976D02*
X5131310Y-11122976D01*
X5045595Y-11322976D01*
X5197976Y-11122976D02*
X5197976Y-11161071D01*
X5274167Y-11122976D02*
X5274167Y-11161071D01*
X5569405Y-11399167D02*
X5559881Y-11389643D01*
X5540833Y-11361071D01*
X5531310Y-11342024D01*
X5521786Y-11313452D01*
X5512262Y-11265833D01*
X5512262Y-11227738D01*
X5521786Y-11180119D01*
X5531310Y-11151548D01*
X5540833Y-11132500D01*
X5559881Y-11103929D01*
X5569405Y-11094405D01*
X5731309Y-11122976D02*
X5693214Y-11122976D01*
X5674167Y-11132500D01*
X5664643Y-11142024D01*
X5645595Y-11170595D01*
X5636071Y-11208690D01*
X5636071Y-11284881D01*
X5645595Y-11303928D01*
X5655119Y-11313452D01*
X5674167Y-11322976D01*
X5712262Y-11322976D01*
X5731309Y-11313452D01*
X5740833Y-11303928D01*
X5750357Y-11284881D01*
X5750357Y-11237262D01*
X5740833Y-11218214D01*
X5731309Y-11208690D01*
X5712262Y-11199167D01*
X5674167Y-11199167D01*
X5655119Y-11208690D01*
X5645595Y-11218214D01*
X5636071Y-11237262D01*
X5988452Y-11322976D02*
X5988452Y-11122976D01*
X6074167Y-11322976D02*
X6074167Y-11218214D01*
X6064643Y-11199167D01*
X6045595Y-11189643D01*
X6017024Y-11189643D01*
X5997976Y-11199167D01*
X5988452Y-11208690D01*
X6197976Y-11322976D02*
X6178928Y-11313452D01*
X6169405Y-11303928D01*
X6159881Y-11284881D01*
X6159881Y-11227738D01*
X6169405Y-11208690D01*
X6178928Y-11199167D01*
X6197976Y-11189643D01*
X6226548Y-11189643D01*
X6245595Y-11199167D01*
X6255119Y-11208690D01*
X6264643Y-11227738D01*
X6264643Y-11284881D01*
X6255119Y-11303928D01*
X6245595Y-11313452D01*
X6226548Y-11322976D01*
X6197976Y-11322976D01*
X6378928Y-11322976D02*
X6359881Y-11313452D01*
X6350357Y-11294405D01*
X6350357Y-11122976D01*
X6531309Y-11313452D02*
X6512262Y-11322976D01*
X6474167Y-11322976D01*
X6455119Y-11313452D01*
X6445595Y-11294405D01*
X6445595Y-11218214D01*
X6455119Y-11199167D01*
X6474167Y-11189643D01*
X6512262Y-11189643D01*
X6531309Y-11199167D01*
X6540833Y-11218214D01*
X6540833Y-11237262D01*
X6445595Y-11256309D01*
X6617024Y-11313452D02*
X6636071Y-11322976D01*
X6674167Y-11322976D01*
X6693214Y-11313452D01*
X6702738Y-11294405D01*
X6702738Y-11284881D01*
X6693214Y-11265833D01*
X6674167Y-11256309D01*
X6645595Y-11256309D01*
X6626548Y-11246786D01*
X6617024Y-11227738D01*
X6617024Y-11218214D01*
X6626548Y-11199167D01*
X6645595Y-11189643D01*
X6674167Y-11189643D01*
X6693214Y-11199167D01*
X6769405Y-11399167D02*
X6778928Y-11389643D01*
X6797976Y-11361071D01*
X6807500Y-11342024D01*
X6817024Y-11313452D01*
X6826548Y-11265833D01*
X6826548Y-11227738D01*
X6817024Y-11180119D01*
X6807500Y-11151548D01*
X6797976Y-11132500D01*
X6778928Y-11103929D01*
X6769405Y-11094405D01*
D13*
X1997500Y-11496500D02*
G75*
G03*
X1997500Y-11496500I-37500J0D01*
G01*
D11*
X2293214Y-11386976D02*
X2312262Y-11386976D01*
X2331310Y-11396500D01*
X2340833Y-11406024D01*
X2350357Y-11425071D01*
X2359881Y-11463167D01*
X2359881Y-11510786D01*
X2350357Y-11548881D01*
X2340833Y-11567928D01*
X2331310Y-11577452D01*
X2312262Y-11586976D01*
X2293214Y-11586976D01*
X2274167Y-11577452D01*
X2264643Y-11567928D01*
X2255119Y-11548881D01*
X2245595Y-11510786D01*
X2245595Y-11463167D01*
X2255119Y-11425071D01*
X2264643Y-11406024D01*
X2274167Y-11396500D01*
X2293214Y-11386976D01*
X2445595Y-11567928D02*
X2455119Y-11577452D01*
X2445595Y-11586976D01*
X2436071Y-11577452D01*
X2445595Y-11567928D01*
X2445595Y-11586976D01*
X2521786Y-11386976D02*
X2655119Y-11386976D01*
X2569405Y-11586976D01*
X2826548Y-11386976D02*
X2731310Y-11386976D01*
X2721786Y-11482214D01*
X2731310Y-11472690D01*
X2750357Y-11463167D01*
X2797976Y-11463167D01*
X2817024Y-11472690D01*
X2826548Y-11482214D01*
X2836071Y-11501262D01*
X2836071Y-11548881D01*
X2826548Y-11567928D01*
X2817024Y-11577452D01*
X2797976Y-11586976D01*
X2750357Y-11586976D01*
X2731310Y-11577452D01*
X2721786Y-11567928D01*
X2959881Y-11386976D02*
X2978928Y-11386976D01*
X2997976Y-11396500D01*
X3007500Y-11406024D01*
X3017024Y-11425071D01*
X3026548Y-11463167D01*
X3026548Y-11510786D01*
X3017024Y-11548881D01*
X3007500Y-11567928D01*
X2997976Y-11577452D01*
X2978928Y-11586976D01*
X2959881Y-11586976D01*
X2940833Y-11577452D01*
X2931309Y-11567928D01*
X2921786Y-11548881D01*
X2912262Y-11510786D01*
X2912262Y-11463167D01*
X2921786Y-11425071D01*
X2931309Y-11406024D01*
X2940833Y-11396500D01*
X2959881Y-11386976D01*
X3112262Y-11586976D02*
X3112262Y-11453643D01*
X3112262Y-11472690D02*
X3121786Y-11463167D01*
X3140833Y-11453643D01*
X3169405Y-11453643D01*
X3188452Y-11463167D01*
X3197976Y-11482214D01*
X3197976Y-11586976D01*
X3197976Y-11482214D02*
X3207500Y-11463167D01*
X3226548Y-11453643D01*
X3255119Y-11453643D01*
X3274167Y-11463167D01*
X3283690Y-11482214D01*
X3283690Y-11586976D01*
X3378928Y-11586976D02*
X3378928Y-11453643D01*
X3378928Y-11472690D02*
X3388452Y-11463167D01*
X3407500Y-11453643D01*
X3436071Y-11453643D01*
X3455119Y-11463167D01*
X3464643Y-11482214D01*
X3464643Y-11586976D01*
X3464643Y-11482214D02*
X3474167Y-11463167D01*
X3493214Y-11453643D01*
X3521786Y-11453643D01*
X3540833Y-11463167D01*
X3550357Y-11482214D01*
X3550357Y-11586976D01*
X3940833Y-11377452D02*
X3769405Y-11634595D01*
X4197976Y-11386976D02*
X4217024Y-11386976D01*
X4236071Y-11396500D01*
X4245595Y-11406024D01*
X4255119Y-11425071D01*
X4264643Y-11463167D01*
X4264643Y-11510786D01*
X4255119Y-11548881D01*
X4245595Y-11567928D01*
X4236071Y-11577452D01*
X4217024Y-11586976D01*
X4197976Y-11586976D01*
X4178928Y-11577452D01*
X4169405Y-11567928D01*
X4159881Y-11548881D01*
X4150357Y-11510786D01*
X4150357Y-11463167D01*
X4159881Y-11425071D01*
X4169405Y-11406024D01*
X4178928Y-11396500D01*
X4197976Y-11386976D01*
X4350357Y-11567928D02*
X4359881Y-11577452D01*
X4350357Y-11586976D01*
X4340833Y-11577452D01*
X4350357Y-11567928D01*
X4350357Y-11586976D01*
X4483690Y-11386976D02*
X4502738Y-11386976D01*
X4521786Y-11396500D01*
X4531310Y-11406024D01*
X4540833Y-11425071D01*
X4550357Y-11463167D01*
X4550357Y-11510786D01*
X4540833Y-11548881D01*
X4531310Y-11567928D01*
X4521786Y-11577452D01*
X4502738Y-11586976D01*
X4483690Y-11586976D01*
X4464643Y-11577452D01*
X4455119Y-11567928D01*
X4445595Y-11548881D01*
X4436071Y-11510786D01*
X4436071Y-11463167D01*
X4445595Y-11425071D01*
X4455119Y-11406024D01*
X4464643Y-11396500D01*
X4483690Y-11386976D01*
X4626548Y-11406024D02*
X4636071Y-11396500D01*
X4655119Y-11386976D01*
X4702738Y-11386976D01*
X4721786Y-11396500D01*
X4731310Y-11406024D01*
X4740833Y-11425071D01*
X4740833Y-11444119D01*
X4731310Y-11472690D01*
X4617024Y-11586976D01*
X4740833Y-11586976D01*
X4836071Y-11586976D02*
X4874167Y-11586976D01*
X4893214Y-11577452D01*
X4902738Y-11567928D01*
X4921786Y-11539357D01*
X4931310Y-11501262D01*
X4931310Y-11425071D01*
X4921786Y-11406024D01*
X4912262Y-11396500D01*
X4893214Y-11386976D01*
X4855119Y-11386976D01*
X4836071Y-11396500D01*
X4826548Y-11406024D01*
X4817024Y-11425071D01*
X4817024Y-11472690D01*
X4826548Y-11491738D01*
X4836071Y-11501262D01*
X4855119Y-11510786D01*
X4893214Y-11510786D01*
X4912262Y-11501262D01*
X4921786Y-11491738D01*
X4931310Y-11472690D01*
X5112262Y-11386976D02*
X5017024Y-11386976D01*
X5007500Y-11482214D01*
X5017024Y-11472690D01*
X5036071Y-11463167D01*
X5083690Y-11463167D01*
X5102738Y-11472690D01*
X5112262Y-11482214D01*
X5121786Y-11501262D01*
X5121786Y-11548881D01*
X5112262Y-11567928D01*
X5102738Y-11577452D01*
X5083690Y-11586976D01*
X5036071Y-11586976D01*
X5017024Y-11577452D01*
X5007500Y-11567928D01*
X5197976Y-11386976D02*
X5197976Y-11425071D01*
X5274167Y-11386976D02*
X5274167Y-11425071D01*
X5569405Y-11663167D02*
X5559881Y-11653643D01*
X5540833Y-11625071D01*
X5531310Y-11606024D01*
X5521786Y-11577452D01*
X5512262Y-11529833D01*
X5512262Y-11491738D01*
X5521786Y-11444119D01*
X5531310Y-11415548D01*
X5540833Y-11396500D01*
X5559881Y-11367928D01*
X5569405Y-11358405D01*
X5683690Y-11386976D02*
X5702738Y-11386976D01*
X5721786Y-11396500D01*
X5731309Y-11406024D01*
X5740833Y-11425071D01*
X5750357Y-11463167D01*
X5750357Y-11510786D01*
X5740833Y-11548881D01*
X5731309Y-11567928D01*
X5721786Y-11577452D01*
X5702738Y-11586976D01*
X5683690Y-11586976D01*
X5664643Y-11577452D01*
X5655119Y-11567928D01*
X5645595Y-11548881D01*
X5636071Y-11510786D01*
X5636071Y-11463167D01*
X5645595Y-11425071D01*
X5655119Y-11406024D01*
X5664643Y-11396500D01*
X5683690Y-11386976D01*
X5988452Y-11586976D02*
X5988452Y-11386976D01*
X6074167Y-11586976D02*
X6074167Y-11482214D01*
X6064643Y-11463167D01*
X6045595Y-11453643D01*
X6017024Y-11453643D01*
X5997976Y-11463167D01*
X5988452Y-11472690D01*
X6197976Y-11586976D02*
X6178928Y-11577452D01*
X6169405Y-11567928D01*
X6159881Y-11548881D01*
X6159881Y-11491738D01*
X6169405Y-11472690D01*
X6178928Y-11463167D01*
X6197976Y-11453643D01*
X6226548Y-11453643D01*
X6245595Y-11463167D01*
X6255119Y-11472690D01*
X6264643Y-11491738D01*
X6264643Y-11548881D01*
X6255119Y-11567928D01*
X6245595Y-11577452D01*
X6226548Y-11586976D01*
X6197976Y-11586976D01*
X6378928Y-11586976D02*
X6359881Y-11577452D01*
X6350357Y-11558405D01*
X6350357Y-11386976D01*
X6531309Y-11577452D02*
X6512262Y-11586976D01*
X6474167Y-11586976D01*
X6455119Y-11577452D01*
X6445595Y-11558405D01*
X6445595Y-11482214D01*
X6455119Y-11463167D01*
X6474167Y-11453643D01*
X6512262Y-11453643D01*
X6531309Y-11463167D01*
X6540833Y-11482214D01*
X6540833Y-11501262D01*
X6445595Y-11520309D01*
X6617024Y-11577452D02*
X6636071Y-11586976D01*
X6674167Y-11586976D01*
X6693214Y-11577452D01*
X6702738Y-11558405D01*
X6702738Y-11548881D01*
X6693214Y-11529833D01*
X6674167Y-11520309D01*
X6645595Y-11520309D01*
X6626548Y-11510786D01*
X6617024Y-11491738D01*
X6617024Y-11482214D01*
X6626548Y-11463167D01*
X6645595Y-11453643D01*
X6674167Y-11453643D01*
X6693214Y-11463167D01*
X6940833Y-11510786D02*
X7093214Y-11510786D01*
X7017024Y-11586976D02*
X7017024Y-11434595D01*
X7331309Y-11406024D02*
X7340833Y-11396500D01*
X7359881Y-11386976D01*
X7407500Y-11386976D01*
X7426548Y-11396500D01*
X7436071Y-11406024D01*
X7445595Y-11425071D01*
X7445595Y-11444119D01*
X7436071Y-11472690D01*
X7321786Y-11586976D01*
X7445595Y-11586976D01*
X7674167Y-11577452D02*
X7693214Y-11586976D01*
X7731309Y-11586976D01*
X7750357Y-11577452D01*
X7759881Y-11558405D01*
X7759881Y-11548881D01*
X7750357Y-11529833D01*
X7731309Y-11520309D01*
X7702738Y-11520309D01*
X7683690Y-11510786D01*
X7674167Y-11491738D01*
X7674167Y-11482214D01*
X7683690Y-11463167D01*
X7702738Y-11453643D01*
X7731309Y-11453643D01*
X7750357Y-11463167D01*
X7874167Y-11586976D02*
X7855119Y-11577452D01*
X7845595Y-11558405D01*
X7845595Y-11386976D01*
X7978928Y-11586976D02*
X7959881Y-11577452D01*
X7950357Y-11567928D01*
X7940833Y-11548881D01*
X7940833Y-11491738D01*
X7950357Y-11472690D01*
X7959881Y-11463167D01*
X7978928Y-11453643D01*
X8007500Y-11453643D01*
X8026548Y-11463167D01*
X8036071Y-11472690D01*
X8045595Y-11491738D01*
X8045595Y-11548881D01*
X8036071Y-11567928D01*
X8026548Y-11577452D01*
X8007500Y-11586976D01*
X7978928Y-11586976D01*
X8102738Y-11453643D02*
X8178928Y-11453643D01*
X8131309Y-11386976D02*
X8131309Y-11558405D01*
X8140833Y-11577452D01*
X8159881Y-11586976D01*
X8178928Y-11586976D01*
X8236071Y-11577452D02*
X8255119Y-11586976D01*
X8293214Y-11586976D01*
X8312262Y-11577452D01*
X8321786Y-11558405D01*
X8321786Y-11548881D01*
X8312262Y-11529833D01*
X8293214Y-11520309D01*
X8264643Y-11520309D01*
X8245595Y-11510786D01*
X8236071Y-11491738D01*
X8236071Y-11482214D01*
X8245595Y-11463167D01*
X8264643Y-11453643D01*
X8293214Y-11453643D01*
X8312262Y-11463167D01*
X8388452Y-11663167D02*
X8397976Y-11653643D01*
X8417024Y-11625071D01*
X8426548Y-11606024D01*
X8436071Y-11577452D01*
X8445595Y-11529833D01*
X8445595Y-11491738D01*
X8436071Y-11444119D01*
X8426548Y-11415548D01*
X8417024Y-11396500D01*
X8397976Y-11367928D01*
X8388452Y-11358405D01*
D14*
X1952500Y-11715500D02*
X1952500Y-11805500D01*
X1907500Y-11760500D02*
X1997500Y-11760500D01*
D11*
X2293214Y-11650976D02*
X2312262Y-11650976D01*
X2331310Y-11660500D01*
X2340833Y-11670024D01*
X2350357Y-11689071D01*
X2359881Y-11727167D01*
X2359881Y-11774786D01*
X2350357Y-11812881D01*
X2340833Y-11831928D01*
X2331310Y-11841452D01*
X2312262Y-11850976D01*
X2293214Y-11850976D01*
X2274167Y-11841452D01*
X2264643Y-11831928D01*
X2255119Y-11812881D01*
X2245595Y-11774786D01*
X2245595Y-11727167D01*
X2255119Y-11689071D01*
X2264643Y-11670024D01*
X2274167Y-11660500D01*
X2293214Y-11650976D01*
X2445595Y-11831928D02*
X2455119Y-11841452D01*
X2445595Y-11850976D01*
X2436071Y-11841452D01*
X2445595Y-11831928D01*
X2445595Y-11850976D01*
X2550357Y-11850976D02*
X2588452Y-11850976D01*
X2607500Y-11841452D01*
X2617024Y-11831928D01*
X2636071Y-11803357D01*
X2645595Y-11765262D01*
X2645595Y-11689071D01*
X2636071Y-11670024D01*
X2626548Y-11660500D01*
X2607500Y-11650976D01*
X2569405Y-11650976D01*
X2550357Y-11660500D01*
X2540833Y-11670024D01*
X2531310Y-11689071D01*
X2531310Y-11736690D01*
X2540833Y-11755738D01*
X2550357Y-11765262D01*
X2569405Y-11774786D01*
X2607500Y-11774786D01*
X2626548Y-11765262D01*
X2636071Y-11755738D01*
X2645595Y-11736690D01*
X2769405Y-11650976D02*
X2788452Y-11650976D01*
X2807500Y-11660500D01*
X2817024Y-11670024D01*
X2826548Y-11689071D01*
X2836071Y-11727167D01*
X2836071Y-11774786D01*
X2826548Y-11812881D01*
X2817024Y-11831928D01*
X2807500Y-11841452D01*
X2788452Y-11850976D01*
X2769405Y-11850976D01*
X2750357Y-11841452D01*
X2740833Y-11831928D01*
X2731310Y-11812881D01*
X2721786Y-11774786D01*
X2721786Y-11727167D01*
X2731310Y-11689071D01*
X2740833Y-11670024D01*
X2750357Y-11660500D01*
X2769405Y-11650976D01*
X2959881Y-11650976D02*
X2978928Y-11650976D01*
X2997976Y-11660500D01*
X3007500Y-11670024D01*
X3017024Y-11689071D01*
X3026548Y-11727167D01*
X3026548Y-11774786D01*
X3017024Y-11812881D01*
X3007500Y-11831928D01*
X2997976Y-11841452D01*
X2978928Y-11850976D01*
X2959881Y-11850976D01*
X2940833Y-11841452D01*
X2931309Y-11831928D01*
X2921786Y-11812881D01*
X2912262Y-11774786D01*
X2912262Y-11727167D01*
X2921786Y-11689071D01*
X2931309Y-11670024D01*
X2940833Y-11660500D01*
X2959881Y-11650976D01*
X3112262Y-11850976D02*
X3112262Y-11717643D01*
X3112262Y-11736690D02*
X3121786Y-11727167D01*
X3140833Y-11717643D01*
X3169405Y-11717643D01*
X3188452Y-11727167D01*
X3197976Y-11746214D01*
X3197976Y-11850976D01*
X3197976Y-11746214D02*
X3207500Y-11727167D01*
X3226548Y-11717643D01*
X3255119Y-11717643D01*
X3274167Y-11727167D01*
X3283690Y-11746214D01*
X3283690Y-11850976D01*
X3378928Y-11850976D02*
X3378928Y-11717643D01*
X3378928Y-11736690D02*
X3388452Y-11727167D01*
X3407500Y-11717643D01*
X3436071Y-11717643D01*
X3455119Y-11727167D01*
X3464643Y-11746214D01*
X3464643Y-11850976D01*
X3464643Y-11746214D02*
X3474167Y-11727167D01*
X3493214Y-11717643D01*
X3521786Y-11717643D01*
X3540833Y-11727167D01*
X3550357Y-11746214D01*
X3550357Y-11850976D01*
X3940833Y-11641452D02*
X3769405Y-11898595D01*
X4197976Y-11650976D02*
X4217024Y-11650976D01*
X4236071Y-11660500D01*
X4245595Y-11670024D01*
X4255119Y-11689071D01*
X4264643Y-11727167D01*
X4264643Y-11774786D01*
X4255119Y-11812881D01*
X4245595Y-11831928D01*
X4236071Y-11841452D01*
X4217024Y-11850976D01*
X4197976Y-11850976D01*
X4178928Y-11841452D01*
X4169405Y-11831928D01*
X4159881Y-11812881D01*
X4150357Y-11774786D01*
X4150357Y-11727167D01*
X4159881Y-11689071D01*
X4169405Y-11670024D01*
X4178928Y-11660500D01*
X4197976Y-11650976D01*
X4350357Y-11831928D02*
X4359881Y-11841452D01*
X4350357Y-11850976D01*
X4340833Y-11841452D01*
X4350357Y-11831928D01*
X4350357Y-11850976D01*
X4483690Y-11650976D02*
X4502738Y-11650976D01*
X4521786Y-11660500D01*
X4531310Y-11670024D01*
X4540833Y-11689071D01*
X4550357Y-11727167D01*
X4550357Y-11774786D01*
X4540833Y-11812881D01*
X4531310Y-11831928D01*
X4521786Y-11841452D01*
X4502738Y-11850976D01*
X4483690Y-11850976D01*
X4464643Y-11841452D01*
X4455119Y-11831928D01*
X4445595Y-11812881D01*
X4436071Y-11774786D01*
X4436071Y-11727167D01*
X4445595Y-11689071D01*
X4455119Y-11670024D01*
X4464643Y-11660500D01*
X4483690Y-11650976D01*
X4617024Y-11650976D02*
X4740833Y-11650976D01*
X4674167Y-11727167D01*
X4702738Y-11727167D01*
X4721786Y-11736690D01*
X4731310Y-11746214D01*
X4740833Y-11765262D01*
X4740833Y-11812881D01*
X4731310Y-11831928D01*
X4721786Y-11841452D01*
X4702738Y-11850976D01*
X4645595Y-11850976D01*
X4626548Y-11841452D01*
X4617024Y-11831928D01*
X4921786Y-11650976D02*
X4826548Y-11650976D01*
X4817024Y-11746214D01*
X4826548Y-11736690D01*
X4845595Y-11727167D01*
X4893214Y-11727167D01*
X4912262Y-11736690D01*
X4921786Y-11746214D01*
X4931310Y-11765262D01*
X4931310Y-11812881D01*
X4921786Y-11831928D01*
X4912262Y-11841452D01*
X4893214Y-11850976D01*
X4845595Y-11850976D01*
X4826548Y-11841452D01*
X4817024Y-11831928D01*
X5102738Y-11717643D02*
X5102738Y-11850976D01*
X5055119Y-11641452D02*
X5007500Y-11784309D01*
X5131310Y-11784309D01*
X5197976Y-11650976D02*
X5197976Y-11689071D01*
X5274167Y-11650976D02*
X5274167Y-11689071D01*
X5569405Y-11927167D02*
X5559881Y-11917643D01*
X5540833Y-11889071D01*
X5531310Y-11870024D01*
X5521786Y-11841452D01*
X5512262Y-11793833D01*
X5512262Y-11755738D01*
X5521786Y-11708119D01*
X5531310Y-11679548D01*
X5540833Y-11660500D01*
X5559881Y-11631928D01*
X5569405Y-11622405D01*
X5683690Y-11650976D02*
X5702738Y-11650976D01*
X5721786Y-11660500D01*
X5731309Y-11670024D01*
X5740833Y-11689071D01*
X5750357Y-11727167D01*
X5750357Y-11774786D01*
X5740833Y-11812881D01*
X5731309Y-11831928D01*
X5721786Y-11841452D01*
X5702738Y-11850976D01*
X5683690Y-11850976D01*
X5664643Y-11841452D01*
X5655119Y-11831928D01*
X5645595Y-11812881D01*
X5636071Y-11774786D01*
X5636071Y-11727167D01*
X5645595Y-11689071D01*
X5655119Y-11670024D01*
X5664643Y-11660500D01*
X5683690Y-11650976D01*
X5988452Y-11850976D02*
X5988452Y-11650976D01*
X6074167Y-11850976D02*
X6074167Y-11746214D01*
X6064643Y-11727167D01*
X6045595Y-11717643D01*
X6017024Y-11717643D01*
X5997976Y-11727167D01*
X5988452Y-11736690D01*
X6197976Y-11850976D02*
X6178928Y-11841452D01*
X6169405Y-11831928D01*
X6159881Y-11812881D01*
X6159881Y-11755738D01*
X6169405Y-11736690D01*
X6178928Y-11727167D01*
X6197976Y-11717643D01*
X6226548Y-11717643D01*
X6245595Y-11727167D01*
X6255119Y-11736690D01*
X6264643Y-11755738D01*
X6264643Y-11812881D01*
X6255119Y-11831928D01*
X6245595Y-11841452D01*
X6226548Y-11850976D01*
X6197976Y-11850976D01*
X6378928Y-11850976D02*
X6359881Y-11841452D01*
X6350357Y-11822405D01*
X6350357Y-11650976D01*
X6531309Y-11841452D02*
X6512262Y-11850976D01*
X6474167Y-11850976D01*
X6455119Y-11841452D01*
X6445595Y-11822405D01*
X6445595Y-11746214D01*
X6455119Y-11727167D01*
X6474167Y-11717643D01*
X6512262Y-11717643D01*
X6531309Y-11727167D01*
X6540833Y-11746214D01*
X6540833Y-11765262D01*
X6445595Y-11784309D01*
X6617024Y-11841452D02*
X6636071Y-11850976D01*
X6674167Y-11850976D01*
X6693214Y-11841452D01*
X6702738Y-11822405D01*
X6702738Y-11812881D01*
X6693214Y-11793833D01*
X6674167Y-11784309D01*
X6645595Y-11784309D01*
X6626548Y-11774786D01*
X6617024Y-11755738D01*
X6617024Y-11746214D01*
X6626548Y-11727167D01*
X6645595Y-11717643D01*
X6674167Y-11717643D01*
X6693214Y-11727167D01*
X6940833Y-11774786D02*
X7093214Y-11774786D01*
X7017024Y-11850976D02*
X7017024Y-11698595D01*
X7426548Y-11717643D02*
X7426548Y-11850976D01*
X7378928Y-11641452D02*
X7331309Y-11784309D01*
X7455119Y-11784309D01*
X7674167Y-11841452D02*
X7693214Y-11850976D01*
X7731309Y-11850976D01*
X7750357Y-11841452D01*
X7759881Y-11822405D01*
X7759881Y-11812881D01*
X7750357Y-11793833D01*
X7731309Y-11784309D01*
X7702738Y-11784309D01*
X7683690Y-11774786D01*
X7674167Y-11755738D01*
X7674167Y-11746214D01*
X7683690Y-11727167D01*
X7702738Y-11717643D01*
X7731309Y-11717643D01*
X7750357Y-11727167D01*
X7874167Y-11850976D02*
X7855119Y-11841452D01*
X7845595Y-11822405D01*
X7845595Y-11650976D01*
X7978928Y-11850976D02*
X7959881Y-11841452D01*
X7950357Y-11831928D01*
X7940833Y-11812881D01*
X7940833Y-11755738D01*
X7950357Y-11736690D01*
X7959881Y-11727167D01*
X7978928Y-11717643D01*
X8007500Y-11717643D01*
X8026548Y-11727167D01*
X8036071Y-11736690D01*
X8045595Y-11755738D01*
X8045595Y-11812881D01*
X8036071Y-11831928D01*
X8026548Y-11841452D01*
X8007500Y-11850976D01*
X7978928Y-11850976D01*
X8102738Y-11717643D02*
X8178928Y-11717643D01*
X8131309Y-11650976D02*
X8131309Y-11822405D01*
X8140833Y-11841452D01*
X8159881Y-11850976D01*
X8178928Y-11850976D01*
X8236071Y-11841452D02*
X8255119Y-11850976D01*
X8293214Y-11850976D01*
X8312262Y-11841452D01*
X8321786Y-11822405D01*
X8321786Y-11812881D01*
X8312262Y-11793833D01*
X8293214Y-11784309D01*
X8264643Y-11784309D01*
X8245595Y-11774786D01*
X8236071Y-11755738D01*
X8236071Y-11746214D01*
X8245595Y-11727167D01*
X8264643Y-11717643D01*
X8293214Y-11717643D01*
X8312262Y-11727167D01*
X8388452Y-11927167D02*
X8397976Y-11917643D01*
X8417024Y-11889071D01*
X8426548Y-11870024D01*
X8436071Y-11841452D01*
X8445595Y-11793833D01*
X8445595Y-11755738D01*
X8436071Y-11708119D01*
X8426548Y-11679548D01*
X8417024Y-11660500D01*
X8397976Y-11631928D01*
X8388452Y-11622405D01*
D15*
X1982856Y-12059856D02*
X1982856Y-11989144D01*
X1912144Y-11989144D01*
X1912144Y-12059856D01*
X1982856Y-12059856D01*
D11*
X2359881Y-12114976D02*
X2245595Y-12114976D01*
X2302738Y-12114976D02*
X2302738Y-11914976D01*
X2283690Y-11943548D01*
X2264643Y-11962595D01*
X2245595Y-11972119D01*
X2445595Y-12095928D02*
X2455119Y-12105452D01*
X2445595Y-12114976D01*
X2436071Y-12105452D01*
X2445595Y-12095928D01*
X2445595Y-12114976D01*
X2578929Y-11914976D02*
X2597976Y-11914976D01*
X2617024Y-11924500D01*
X2626548Y-11934024D01*
X2636071Y-11953071D01*
X2645595Y-11991167D01*
X2645595Y-12038786D01*
X2636071Y-12076881D01*
X2626548Y-12095928D01*
X2617024Y-12105452D01*
X2597976Y-12114976D01*
X2578929Y-12114976D01*
X2559881Y-12105452D01*
X2550357Y-12095928D01*
X2540833Y-12076881D01*
X2531310Y-12038786D01*
X2531310Y-11991167D01*
X2540833Y-11953071D01*
X2550357Y-11934024D01*
X2559881Y-11924500D01*
X2578929Y-11914976D01*
X2769405Y-11914976D02*
X2788452Y-11914976D01*
X2807500Y-11924500D01*
X2817024Y-11934024D01*
X2826548Y-11953071D01*
X2836071Y-11991167D01*
X2836071Y-12038786D01*
X2826548Y-12076881D01*
X2817024Y-12095928D01*
X2807500Y-12105452D01*
X2788452Y-12114976D01*
X2769405Y-12114976D01*
X2750357Y-12105452D01*
X2740833Y-12095928D01*
X2731310Y-12076881D01*
X2721786Y-12038786D01*
X2721786Y-11991167D01*
X2731310Y-11953071D01*
X2740833Y-11934024D01*
X2750357Y-11924500D01*
X2769405Y-11914976D01*
X2959881Y-11914976D02*
X2978928Y-11914976D01*
X2997976Y-11924500D01*
X3007500Y-11934024D01*
X3017024Y-11953071D01*
X3026548Y-11991167D01*
X3026548Y-12038786D01*
X3017024Y-12076881D01*
X3007500Y-12095928D01*
X2997976Y-12105452D01*
X2978928Y-12114976D01*
X2959881Y-12114976D01*
X2940833Y-12105452D01*
X2931309Y-12095928D01*
X2921786Y-12076881D01*
X2912262Y-12038786D01*
X2912262Y-11991167D01*
X2921786Y-11953071D01*
X2931309Y-11934024D01*
X2940833Y-11924500D01*
X2959881Y-11914976D01*
X3112262Y-12114976D02*
X3112262Y-11981643D01*
X3112262Y-12000690D02*
X3121786Y-11991167D01*
X3140833Y-11981643D01*
X3169405Y-11981643D01*
X3188452Y-11991167D01*
X3197976Y-12010214D01*
X3197976Y-12114976D01*
X3197976Y-12010214D02*
X3207500Y-11991167D01*
X3226548Y-11981643D01*
X3255119Y-11981643D01*
X3274167Y-11991167D01*
X3283690Y-12010214D01*
X3283690Y-12114976D01*
X3378928Y-12114976D02*
X3378928Y-11981643D01*
X3378928Y-12000690D02*
X3388452Y-11991167D01*
X3407500Y-11981643D01*
X3436071Y-11981643D01*
X3455119Y-11991167D01*
X3464643Y-12010214D01*
X3464643Y-12114976D01*
X3464643Y-12010214D02*
X3474167Y-11991167D01*
X3493214Y-11981643D01*
X3521786Y-11981643D01*
X3540833Y-11991167D01*
X3550357Y-12010214D01*
X3550357Y-12114976D01*
X3940833Y-11905452D02*
X3769405Y-12162595D01*
X4197976Y-11914976D02*
X4217024Y-11914976D01*
X4236071Y-11924500D01*
X4245595Y-11934024D01*
X4255119Y-11953071D01*
X4264643Y-11991167D01*
X4264643Y-12038786D01*
X4255119Y-12076881D01*
X4245595Y-12095928D01*
X4236071Y-12105452D01*
X4217024Y-12114976D01*
X4197976Y-12114976D01*
X4178928Y-12105452D01*
X4169405Y-12095928D01*
X4159881Y-12076881D01*
X4150357Y-12038786D01*
X4150357Y-11991167D01*
X4159881Y-11953071D01*
X4169405Y-11934024D01*
X4178928Y-11924500D01*
X4197976Y-11914976D01*
X4350357Y-12095928D02*
X4359881Y-12105452D01*
X4350357Y-12114976D01*
X4340833Y-12105452D01*
X4350357Y-12095928D01*
X4350357Y-12114976D01*
X4483690Y-11914976D02*
X4502738Y-11914976D01*
X4521786Y-11924500D01*
X4531310Y-11934024D01*
X4540833Y-11953071D01*
X4550357Y-11991167D01*
X4550357Y-12038786D01*
X4540833Y-12076881D01*
X4531310Y-12095928D01*
X4521786Y-12105452D01*
X4502738Y-12114976D01*
X4483690Y-12114976D01*
X4464643Y-12105452D01*
X4455119Y-12095928D01*
X4445595Y-12076881D01*
X4436071Y-12038786D01*
X4436071Y-11991167D01*
X4445595Y-11953071D01*
X4455119Y-11934024D01*
X4464643Y-11924500D01*
X4483690Y-11914976D01*
X4617024Y-11914976D02*
X4740833Y-11914976D01*
X4674167Y-11991167D01*
X4702738Y-11991167D01*
X4721786Y-12000690D01*
X4731310Y-12010214D01*
X4740833Y-12029262D01*
X4740833Y-12076881D01*
X4731310Y-12095928D01*
X4721786Y-12105452D01*
X4702738Y-12114976D01*
X4645595Y-12114976D01*
X4626548Y-12105452D01*
X4617024Y-12095928D01*
X4836071Y-12114976D02*
X4874167Y-12114976D01*
X4893214Y-12105452D01*
X4902738Y-12095928D01*
X4921786Y-12067357D01*
X4931310Y-12029262D01*
X4931310Y-11953071D01*
X4921786Y-11934024D01*
X4912262Y-11924500D01*
X4893214Y-11914976D01*
X4855119Y-11914976D01*
X4836071Y-11924500D01*
X4826548Y-11934024D01*
X4817024Y-11953071D01*
X4817024Y-12000690D01*
X4826548Y-12019738D01*
X4836071Y-12029262D01*
X4855119Y-12038786D01*
X4893214Y-12038786D01*
X4912262Y-12029262D01*
X4921786Y-12019738D01*
X4931310Y-12000690D01*
X5102738Y-11981643D02*
X5102738Y-12114976D01*
X5055119Y-11905452D02*
X5007500Y-12048309D01*
X5131310Y-12048309D01*
X5197976Y-11914976D02*
X5197976Y-11953071D01*
X5274167Y-11914976D02*
X5274167Y-11953071D01*
X5569405Y-12191167D02*
X5559881Y-12181643D01*
X5540833Y-12153071D01*
X5531310Y-12134024D01*
X5521786Y-12105452D01*
X5512262Y-12057833D01*
X5512262Y-12019738D01*
X5521786Y-11972119D01*
X5531310Y-11943548D01*
X5540833Y-11924500D01*
X5559881Y-11895928D01*
X5569405Y-11886405D01*
X5731309Y-11914976D02*
X5693214Y-11914976D01*
X5674167Y-11924500D01*
X5664643Y-11934024D01*
X5645595Y-11962595D01*
X5636071Y-12000690D01*
X5636071Y-12076881D01*
X5645595Y-12095928D01*
X5655119Y-12105452D01*
X5674167Y-12114976D01*
X5712262Y-12114976D01*
X5731309Y-12105452D01*
X5740833Y-12095928D01*
X5750357Y-12076881D01*
X5750357Y-12029262D01*
X5740833Y-12010214D01*
X5731309Y-12000690D01*
X5712262Y-11991167D01*
X5674167Y-11991167D01*
X5655119Y-12000690D01*
X5645595Y-12010214D01*
X5636071Y-12029262D01*
X5988452Y-12114976D02*
X5988452Y-11914976D01*
X6074167Y-12114976D02*
X6074167Y-12010214D01*
X6064643Y-11991167D01*
X6045595Y-11981643D01*
X6017024Y-11981643D01*
X5997976Y-11991167D01*
X5988452Y-12000690D01*
X6197976Y-12114976D02*
X6178928Y-12105452D01*
X6169405Y-12095928D01*
X6159881Y-12076881D01*
X6159881Y-12019738D01*
X6169405Y-12000690D01*
X6178928Y-11991167D01*
X6197976Y-11981643D01*
X6226548Y-11981643D01*
X6245595Y-11991167D01*
X6255119Y-12000690D01*
X6264643Y-12019738D01*
X6264643Y-12076881D01*
X6255119Y-12095928D01*
X6245595Y-12105452D01*
X6226548Y-12114976D01*
X6197976Y-12114976D01*
X6378928Y-12114976D02*
X6359881Y-12105452D01*
X6350357Y-12086405D01*
X6350357Y-11914976D01*
X6531309Y-12105452D02*
X6512262Y-12114976D01*
X6474167Y-12114976D01*
X6455119Y-12105452D01*
X6445595Y-12086405D01*
X6445595Y-12010214D01*
X6455119Y-11991167D01*
X6474167Y-11981643D01*
X6512262Y-11981643D01*
X6531309Y-11991167D01*
X6540833Y-12010214D01*
X6540833Y-12029262D01*
X6445595Y-12048309D01*
X6617024Y-12105452D02*
X6636071Y-12114976D01*
X6674167Y-12114976D01*
X6693214Y-12105452D01*
X6702738Y-12086405D01*
X6702738Y-12076881D01*
X6693214Y-12057833D01*
X6674167Y-12048309D01*
X6645595Y-12048309D01*
X6626548Y-12038786D01*
X6617024Y-12019738D01*
X6617024Y-12010214D01*
X6626548Y-11991167D01*
X6645595Y-11981643D01*
X6674167Y-11981643D01*
X6693214Y-11991167D01*
X6769405Y-12191167D02*
X6778928Y-12181643D01*
X6797976Y-12153071D01*
X6807500Y-12134024D01*
X6817024Y-12105452D01*
X6826548Y-12057833D01*
X6826548Y-12019738D01*
X6817024Y-11972119D01*
X6807500Y-11943548D01*
X6797976Y-11924500D01*
X6778928Y-11895928D01*
X6769405Y-11886405D01*
D16*
X1942890Y-12343110D02*
X1997500Y-12288500D01*
X1942890Y-12233890D01*
X1888280Y-12288500D01*
X1942890Y-12343110D01*
D11*
X2359881Y-12378976D02*
X2245595Y-12378976D01*
X2302738Y-12378976D02*
X2302738Y-12178976D01*
X2283690Y-12207548D01*
X2264643Y-12226595D01*
X2245595Y-12236119D01*
X2445595Y-12359928D02*
X2455119Y-12369452D01*
X2445595Y-12378976D01*
X2436071Y-12369452D01*
X2445595Y-12359928D01*
X2445595Y-12378976D01*
X2578929Y-12178976D02*
X2597976Y-12178976D01*
X2617024Y-12188500D01*
X2626548Y-12198024D01*
X2636071Y-12217071D01*
X2645595Y-12255167D01*
X2645595Y-12302786D01*
X2636071Y-12340881D01*
X2626548Y-12359928D01*
X2617024Y-12369452D01*
X2597976Y-12378976D01*
X2578929Y-12378976D01*
X2559881Y-12369452D01*
X2550357Y-12359928D01*
X2540833Y-12340881D01*
X2531310Y-12302786D01*
X2531310Y-12255167D01*
X2540833Y-12217071D01*
X2550357Y-12198024D01*
X2559881Y-12188500D01*
X2578929Y-12178976D01*
X2740833Y-12378976D02*
X2778929Y-12378976D01*
X2797976Y-12369452D01*
X2807500Y-12359928D01*
X2826548Y-12331357D01*
X2836071Y-12293262D01*
X2836071Y-12217071D01*
X2826548Y-12198024D01*
X2817024Y-12188500D01*
X2797976Y-12178976D01*
X2759881Y-12178976D01*
X2740833Y-12188500D01*
X2731310Y-12198024D01*
X2721786Y-12217071D01*
X2721786Y-12264690D01*
X2731310Y-12283738D01*
X2740833Y-12293262D01*
X2759881Y-12302786D01*
X2797976Y-12302786D01*
X2817024Y-12293262D01*
X2826548Y-12283738D01*
X2836071Y-12264690D01*
X2912262Y-12198024D02*
X2921786Y-12188500D01*
X2940833Y-12178976D01*
X2988452Y-12178976D01*
X3007500Y-12188500D01*
X3017024Y-12198024D01*
X3026548Y-12217071D01*
X3026548Y-12236119D01*
X3017024Y-12264690D01*
X2902738Y-12378976D01*
X3026548Y-12378976D01*
X3112262Y-12378976D02*
X3112262Y-12245643D01*
X3112262Y-12264690D02*
X3121786Y-12255167D01*
X3140833Y-12245643D01*
X3169405Y-12245643D01*
X3188452Y-12255167D01*
X3197976Y-12274214D01*
X3197976Y-12378976D01*
X3197976Y-12274214D02*
X3207500Y-12255167D01*
X3226548Y-12245643D01*
X3255119Y-12245643D01*
X3274167Y-12255167D01*
X3283690Y-12274214D01*
X3283690Y-12378976D01*
X3378928Y-12378976D02*
X3378928Y-12245643D01*
X3378928Y-12264690D02*
X3388452Y-12255167D01*
X3407500Y-12245643D01*
X3436071Y-12245643D01*
X3455119Y-12255167D01*
X3464643Y-12274214D01*
X3464643Y-12378976D01*
X3464643Y-12274214D02*
X3474167Y-12255167D01*
X3493214Y-12245643D01*
X3521786Y-12245643D01*
X3540833Y-12255167D01*
X3550357Y-12274214D01*
X3550357Y-12378976D01*
X3940833Y-12169452D02*
X3769405Y-12426595D01*
X4197976Y-12178976D02*
X4217024Y-12178976D01*
X4236071Y-12188500D01*
X4245595Y-12198024D01*
X4255119Y-12217071D01*
X4264643Y-12255167D01*
X4264643Y-12302786D01*
X4255119Y-12340881D01*
X4245595Y-12359928D01*
X4236071Y-12369452D01*
X4217024Y-12378976D01*
X4197976Y-12378976D01*
X4178928Y-12369452D01*
X4169405Y-12359928D01*
X4159881Y-12340881D01*
X4150357Y-12302786D01*
X4150357Y-12255167D01*
X4159881Y-12217071D01*
X4169405Y-12198024D01*
X4178928Y-12188500D01*
X4197976Y-12178976D01*
X4350357Y-12359928D02*
X4359881Y-12369452D01*
X4350357Y-12378976D01*
X4340833Y-12369452D01*
X4350357Y-12359928D01*
X4350357Y-12378976D01*
X4483690Y-12178976D02*
X4502738Y-12178976D01*
X4521786Y-12188500D01*
X4531310Y-12198024D01*
X4540833Y-12217071D01*
X4550357Y-12255167D01*
X4550357Y-12302786D01*
X4540833Y-12340881D01*
X4531310Y-12359928D01*
X4521786Y-12369452D01*
X4502738Y-12378976D01*
X4483690Y-12378976D01*
X4464643Y-12369452D01*
X4455119Y-12359928D01*
X4445595Y-12340881D01*
X4436071Y-12302786D01*
X4436071Y-12255167D01*
X4445595Y-12217071D01*
X4455119Y-12198024D01*
X4464643Y-12188500D01*
X4483690Y-12178976D01*
X4721786Y-12245643D02*
X4721786Y-12378976D01*
X4674167Y-12169452D02*
X4626548Y-12312309D01*
X4750357Y-12312309D01*
X4807500Y-12178976D02*
X4931310Y-12178976D01*
X4864643Y-12255167D01*
X4893214Y-12255167D01*
X4912262Y-12264690D01*
X4921786Y-12274214D01*
X4931310Y-12293262D01*
X4931310Y-12340881D01*
X4921786Y-12359928D01*
X4912262Y-12369452D01*
X4893214Y-12378976D01*
X4836071Y-12378976D01*
X4817024Y-12369452D01*
X4807500Y-12359928D01*
X5055119Y-12178976D02*
X5074167Y-12178976D01*
X5093214Y-12188500D01*
X5102738Y-12198024D01*
X5112262Y-12217071D01*
X5121786Y-12255167D01*
X5121786Y-12302786D01*
X5112262Y-12340881D01*
X5102738Y-12359928D01*
X5093214Y-12369452D01*
X5074167Y-12378976D01*
X5055119Y-12378976D01*
X5036071Y-12369452D01*
X5026548Y-12359928D01*
X5017024Y-12340881D01*
X5007500Y-12302786D01*
X5007500Y-12255167D01*
X5017024Y-12217071D01*
X5026548Y-12198024D01*
X5036071Y-12188500D01*
X5055119Y-12178976D01*
X5197976Y-12178976D02*
X5197976Y-12217071D01*
X5274167Y-12178976D02*
X5274167Y-12217071D01*
X5569405Y-12455167D02*
X5559881Y-12445643D01*
X5540833Y-12417071D01*
X5531310Y-12398024D01*
X5521786Y-12369452D01*
X5512262Y-12321833D01*
X5512262Y-12283738D01*
X5521786Y-12236119D01*
X5531310Y-12207548D01*
X5540833Y-12188500D01*
X5559881Y-12159928D01*
X5569405Y-12150405D01*
X5740833Y-12178976D02*
X5645595Y-12178976D01*
X5636071Y-12274214D01*
X5645595Y-12264690D01*
X5664643Y-12255167D01*
X5712262Y-12255167D01*
X5731309Y-12264690D01*
X5740833Y-12274214D01*
X5750357Y-12293262D01*
X5750357Y-12340881D01*
X5740833Y-12359928D01*
X5731309Y-12369452D01*
X5712262Y-12378976D01*
X5664643Y-12378976D01*
X5645595Y-12369452D01*
X5636071Y-12359928D01*
X5874167Y-12178976D02*
X5893214Y-12178976D01*
X5912262Y-12188500D01*
X5921786Y-12198024D01*
X5931309Y-12217071D01*
X5940833Y-12255167D01*
X5940833Y-12302786D01*
X5931309Y-12340881D01*
X5921786Y-12359928D01*
X5912262Y-12369452D01*
X5893214Y-12378976D01*
X5874167Y-12378976D01*
X5855119Y-12369452D01*
X5845595Y-12359928D01*
X5836071Y-12340881D01*
X5826548Y-12302786D01*
X5826548Y-12255167D01*
X5836071Y-12217071D01*
X5845595Y-12198024D01*
X5855119Y-12188500D01*
X5874167Y-12178976D01*
X6178928Y-12378976D02*
X6178928Y-12178976D01*
X6264643Y-12378976D02*
X6264643Y-12274214D01*
X6255119Y-12255167D01*
X6236071Y-12245643D01*
X6207500Y-12245643D01*
X6188452Y-12255167D01*
X6178928Y-12264690D01*
X6388452Y-12378976D02*
X6369405Y-12369452D01*
X6359881Y-12359928D01*
X6350357Y-12340881D01*
X6350357Y-12283738D01*
X6359881Y-12264690D01*
X6369405Y-12255167D01*
X6388452Y-12245643D01*
X6417024Y-12245643D01*
X6436071Y-12255167D01*
X6445595Y-12264690D01*
X6455119Y-12283738D01*
X6455119Y-12340881D01*
X6445595Y-12359928D01*
X6436071Y-12369452D01*
X6417024Y-12378976D01*
X6388452Y-12378976D01*
X6569405Y-12378976D02*
X6550357Y-12369452D01*
X6540833Y-12350405D01*
X6540833Y-12178976D01*
X6721786Y-12369452D02*
X6702738Y-12378976D01*
X6664643Y-12378976D01*
X6645595Y-12369452D01*
X6636071Y-12350405D01*
X6636071Y-12274214D01*
X6645595Y-12255167D01*
X6664643Y-12245643D01*
X6702738Y-12245643D01*
X6721786Y-12255167D01*
X6731309Y-12274214D01*
X6731309Y-12293262D01*
X6636071Y-12312309D01*
X6807500Y-12369452D02*
X6826548Y-12378976D01*
X6864643Y-12378976D01*
X6883690Y-12369452D01*
X6893214Y-12350405D01*
X6893214Y-12340881D01*
X6883690Y-12321833D01*
X6864643Y-12312309D01*
X6836071Y-12312309D01*
X6817024Y-12302786D01*
X6807500Y-12283738D01*
X6807500Y-12274214D01*
X6817024Y-12255167D01*
X6836071Y-12245643D01*
X6864643Y-12245643D01*
X6883690Y-12255167D01*
X6959881Y-12455167D02*
X6969405Y-12445643D01*
X6988452Y-12417071D01*
X6997976Y-12398024D01*
X7007500Y-12369452D01*
X7017024Y-12321833D01*
X7017024Y-12283738D01*
X7007500Y-12236119D01*
X6997976Y-12207548D01*
X6988452Y-12188500D01*
X6969405Y-12159928D01*
X6959881Y-12150405D01*
M02*
