%TF.GenerationSoftware,KiCad,Pcbnew,(6.0.4)*%
%TF.CreationDate,2022-07-25T21:25:33-05:00*%
%TF.ProjectId,SchiitBox,53636869-6974-4426-9f78-2e6b69636164,rev?*%
%TF.SameCoordinates,Original*%
%TF.FileFunction,Copper,L2,Bot*%
%TF.FilePolarity,Positive*%
%FSLAX46Y46*%
G04 Gerber Fmt 4.6, Leading zero omitted, Abs format (unit mm)*
G04 Created by KiCad (PCBNEW (6.0.4)) date 2022-07-25 21:25:33*
%MOMM*%
%LPD*%
G01*
G04 APERTURE LIST*
G04 Aperture macros list*
%AMOutline5P*
0 Free polygon, 5 corners , with rotation*
0 The origin of the aperture is its center*
0 number of corners: always 5*
0 $1 to $10 corner X, Y*
0 $11 Rotation angle, in degrees counterclockwise*
0 create outline with 5 corners*
4,1,5,$1,$2,$3,$4,$5,$6,$7,$8,$9,$10,$1,$2,$11*%
%AMOutline6P*
0 Free polygon, 6 corners , with rotation*
0 The origin of the aperture is its center*
0 number of corners: always 6*
0 $1 to $12 corner X, Y*
0 $13 Rotation angle, in degrees counterclockwise*
0 create outline with 6 corners*
4,1,6,$1,$2,$3,$4,$5,$6,$7,$8,$9,$10,$11,$12,$1,$2,$13*%
%AMOutline7P*
0 Free polygon, 7 corners , with rotation*
0 The origin of the aperture is its center*
0 number of corners: always 7*
0 $1 to $14 corner X, Y*
0 $15 Rotation angle, in degrees counterclockwise*
0 create outline with 7 corners*
4,1,7,$1,$2,$3,$4,$5,$6,$7,$8,$9,$10,$11,$12,$13,$14,$1,$2,$15*%
%AMOutline8P*
0 Free polygon, 8 corners , with rotation*
0 The origin of the aperture is its center*
0 number of corners: always 8*
0 $1 to $16 corner X, Y*
0 $17 Rotation angle, in degrees counterclockwise*
0 create outline with 8 corners*
4,1,8,$1,$2,$3,$4,$5,$6,$7,$8,$9,$10,$11,$12,$13,$14,$15,$16,$1,$2,$17*%
G04 Aperture macros list end*
%TA.AperFunction,ComponentPad*%
%ADD10C,1.752600*%
%TD*%
%TA.AperFunction,WasherPad*%
%ADD11C,4.000000*%
%TD*%
%TA.AperFunction,ComponentPad*%
%ADD12C,1.500000*%
%TD*%
%TA.AperFunction,WasherPad*%
%ADD13C,4.500000*%
%TD*%
%TA.AperFunction,ComponentPad*%
%ADD14O,1.600000X2.000000*%
%TD*%
%TA.AperFunction,WasherPad*%
%ADD15C,2.000000*%
%TD*%
%TA.AperFunction,ComponentPad*%
%ADD16O,1.000000X2.750000*%
%TD*%
%TA.AperFunction,ComponentPad*%
%ADD17O,2.750000X1.000000*%
%TD*%
%TA.AperFunction,ComponentPad*%
%ADD18Outline5P,-0.900000X0.540000X-0.540000X0.900000X0.900000X0.900000X0.900000X-0.900000X-0.900000X-0.900000X0.000000*%
%TD*%
%TA.AperFunction,ComponentPad*%
%ADD19Outline5P,-0.900000X0.900000X0.900000X0.900000X0.900000X-0.900000X-0.540000X-0.900000X-0.900000X-0.540000X0.000000*%
%TD*%
%TA.AperFunction,ViaPad*%
%ADD20C,0.800000*%
%TD*%
%TA.AperFunction,Conductor*%
%ADD21C,1.000000*%
%TD*%
%TA.AperFunction,Conductor*%
%ADD22C,3.000000*%
%TD*%
%TA.AperFunction,Conductor*%
%ADD23C,4.500000*%
%TD*%
%TA.AperFunction,Conductor*%
%ADD24C,0.500000*%
%TD*%
G04 APERTURE END LIST*
D10*
%TO.P,,clk*%
%TO.N,GPIO_14*%
X133860000Y-82000000D03*
%TD*%
D11*
%TO.P,,*%
%TO.N,*%
X118000000Y-86500000D03*
%TD*%
D12*
%TO.P,,5*%
%TO.N,-*%
X132950000Y-33550000D03*
%TD*%
D11*
%TO.P,,*%
%TO.N,*%
X89200000Y-102400000D03*
%TD*%
D12*
%TO.P,,3*%
%TO.N,g*%
X114300000Y-29400000D03*
%TD*%
D10*
%TO.P,,dt*%
%TO.N,GPIO_13*%
X131320000Y-82000000D03*
%TD*%
D13*
%TO.P,,*%
%TO.N,*%
X33000000Y-91000000D03*
%TD*%
D14*
%TO.P,J1,R1*%
%TO.N,g*%
X47800000Y-26250000D03*
%TO.P,J1,R2*%
%TO.N,w*%
X47800000Y-23250000D03*
%TO.P,J1,S*%
%TO.N,r*%
X43200000Y-31350000D03*
%TO.P,J1,T*%
%TO.N,b*%
X47800000Y-30250000D03*
%TD*%
D10*
%TO.P,,*%
%TO.N,3V3*%
X101040000Y-82000000D03*
%TD*%
%TO.P,,clk*%
%TO.N,GPIO_3*%
X108660000Y-82000000D03*
%TD*%
D12*
%TO.P,,1*%
%TO.N,r*%
X109050000Y-29300000D03*
%TD*%
D15*
%TO.P,REF\u002A\u002A,*%
%TO.N,*%
X35750000Y-23825000D03*
X28750000Y-23825000D03*
D16*
%TO.P,REF\u002A\u002A,1*%
%TO.N,+*%
X32500000Y-31500000D03*
D17*
%TO.P,REF\u002A\u002A,2*%
%TO.N,-*%
X32500000Y-26300000D03*
%TD*%
D10*
%TO.P,,*%
%TO.N,3V3*%
X126240000Y-82000000D03*
%TD*%
D12*
%TO.P,,1*%
%TO.N,+*%
X125450000Y-33500000D03*
%TD*%
%TO.P,,2*%
%TO.N,w*%
X111600000Y-31700000D03*
%TD*%
D11*
%TO.P,,*%
%TO.N,*%
X57900000Y-102400000D03*
%TD*%
D10*
%TO.P,,sw*%
%TO.N,GPIO_0*%
X103580000Y-82000000D03*
%TD*%
D18*
%TO.P,,*%
%TO.N,gnd*%
X98500000Y-82000000D03*
%TD*%
D12*
%TO.P,,5*%
%TO.N,b*%
X116950000Y-31700000D03*
%TD*%
D10*
%TO.P,,sw*%
%TO.N,GPIO_12*%
X128780000Y-82000000D03*
%TD*%
D18*
%TO.P,,*%
%TO.N,gnd*%
X123700000Y-82000000D03*
%TD*%
D10*
%TO.P,,dt*%
%TO.N,GPIO_2*%
X106120000Y-82000000D03*
%TD*%
%TO.P,REF\u002A\u002A,*%
%TO.N,GPIO_14*%
X105240000Y-71300000D03*
%TO.N,GPIO_2*%
X92540000Y-71300000D03*
%TO.N,GPIO_13*%
X102700000Y-71300000D03*
%TO.N,GPIO_0*%
X90000000Y-71300000D03*
%TO.N,GPIO_3*%
X95080000Y-71300000D03*
%TO.N,GPIO_12*%
X100160000Y-71300000D03*
%TO.N,3V3*%
X77300000Y-71300000D03*
%TO.P,REF\u002A\u002A,2*%
%TO.N,N/C*%
X79840000Y-71300000D03*
%TO.P,REF\u002A\u002A,3*%
X82380000Y-71300000D03*
X102700000Y-73800000D03*
%TO.P,REF\u002A\u002A,3v3*%
X97620000Y-71300000D03*
%TO.P,REF\u002A\u002A,4*%
X105240000Y-73800000D03*
X84920000Y-71300000D03*
X84920000Y-73800000D03*
%TO.P,REF\u002A\u002A,5*%
X107780000Y-73800000D03*
X87460000Y-73800000D03*
%TO.P,REF\u002A\u002A,6*%
X110320000Y-73800000D03*
X90000000Y-73800000D03*
X110320000Y-71300000D03*
%TO.P,REF\u002A\u002A,7*%
X112860000Y-71300000D03*
%TO.P,REF\u002A\u002A,8*%
X115400000Y-73800000D03*
X115400000Y-71300000D03*
X95080000Y-73800000D03*
%TO.P,REF\u002A\u002A,9*%
X117940000Y-71300000D03*
X97620000Y-73800000D03*
%TO.P,REF\u002A\u002A,10*%
X120480000Y-71300000D03*
X120480000Y-73800000D03*
%TO.P,REF\u002A\u002A,11*%
X123020000Y-73800000D03*
X123020000Y-71300000D03*
%TO.P,REF\u002A\u002A,12*%
X125560000Y-73800000D03*
D19*
%TO.P,REF\u002A\u002A,gnd*%
%TO.N,gnd*%
X87460000Y-71300000D03*
X125560000Y-71300000D03*
X117940000Y-73800000D03*
X100160000Y-73800000D03*
X107780000Y-71300000D03*
X92540000Y-73800000D03*
X112860000Y-73800000D03*
X82380000Y-73800000D03*
D10*
%TO.P,REF\u002A\u002A,vcc*%
%TO.N,N/C*%
X77300000Y-73800000D03*
X79840000Y-73800000D03*
%TD*%
D20*
%TO.N,GPIO_0*%
X100000000Y-54400000D03*
%TO.N,GPIO_2*%
X103400000Y-54400000D03*
%TO.N,GPIO_3*%
X106900000Y-54500000D03*
%TO.N,GPIO_12*%
X110400000Y-54500000D03*
%TO.N,GPIO_13*%
X113800000Y-54600000D03*
%TO.N,GPIO_14*%
X117300000Y-54600000D03*
%TD*%
D21*
%TO.N,g*%
X110500000Y-25600000D02*
X114300000Y-29400000D01*
X47800000Y-26250000D02*
X48450000Y-25600000D01*
X48450000Y-25600000D02*
X110500000Y-25600000D01*
D22*
%TO.N,b*%
X47900000Y-30350000D02*
X101900000Y-30350000D01*
X116950000Y-32511631D02*
X116950000Y-31700000D01*
X101900000Y-30350000D02*
X106499511Y-34949511D01*
X47800000Y-30250000D02*
X47900000Y-30350000D01*
X106499511Y-34949511D02*
X114512120Y-34949511D01*
X114512120Y-34949511D02*
X116950000Y-32511631D01*
D23*
%TO.N,-*%
X125700000Y-40800000D02*
X132950000Y-33550000D01*
X30300000Y-26800000D02*
X25800000Y-31300000D01*
X32500000Y-26300000D02*
X32000000Y-26800000D01*
X25800000Y-34600000D02*
X29150000Y-37950000D01*
X102000000Y-40800000D02*
X125700000Y-40800000D01*
X29150000Y-37950000D02*
X99150000Y-37950000D01*
X32000000Y-26800000D02*
X30300000Y-26800000D01*
X99150000Y-37950000D02*
X102000000Y-40800000D01*
X25800000Y-31300000D02*
X25800000Y-34600000D01*
D21*
%TO.N,3V3*%
X72800000Y-72700000D02*
X74200000Y-71300000D01*
X101040000Y-82000000D02*
X101040000Y-80760725D01*
X72800000Y-76300000D02*
X72800000Y-72700000D01*
X74800000Y-78300000D02*
X72800000Y-76300000D01*
X101040000Y-80760725D02*
X98579275Y-78300000D01*
X98579275Y-78300000D02*
X74800000Y-78300000D01*
X123779275Y-78300000D02*
X126240000Y-80760725D01*
X74200000Y-71300000D02*
X77300000Y-71300000D01*
X98579275Y-78300000D02*
X123779275Y-78300000D01*
X126240000Y-80760725D02*
X126240000Y-82000000D01*
D24*
%TO.N,GPIO_0*%
X90000000Y-64400000D02*
X90000000Y-71300000D01*
X100000000Y-54400000D02*
X90000000Y-64400000D01*
%TO.N,GPIO_2*%
X103400000Y-54400000D02*
X92540000Y-65260000D01*
X92540000Y-65260000D02*
X92540000Y-71300000D01*
%TO.N,GPIO_3*%
X95080000Y-66320000D02*
X95080000Y-71300000D01*
X106900000Y-54500000D02*
X95080000Y-66320000D01*
%TO.N,GPIO_12*%
X110400000Y-54500000D02*
X100160000Y-64740000D01*
X100160000Y-64740000D02*
X100160000Y-71300000D01*
%TO.N,GPIO_13*%
X113800000Y-54600000D02*
X102700000Y-65700000D01*
X102700000Y-65700000D02*
X102700000Y-71300000D01*
%TO.N,GPIO_14*%
X105240000Y-66660000D02*
X105240000Y-71300000D01*
X117300000Y-54600000D02*
X105240000Y-66660000D01*
%TD*%
%TA.AperFunction,Conductor*%
%TO.N,gnd*%
G36*
X141433621Y-45720002D02*
G01*
X141480114Y-45773658D01*
X141491500Y-45826000D01*
X141491500Y-82550633D01*
X141490000Y-82570018D01*
X141487690Y-82584851D01*
X141487690Y-82584855D01*
X141486309Y-82593724D01*
X141488304Y-82608976D01*
X141489047Y-82634302D01*
X141480434Y-82754735D01*
X141476962Y-82803279D01*
X141474404Y-82821064D01*
X141433001Y-83011392D01*
X141427937Y-83028641D01*
X141359864Y-83211150D01*
X141352396Y-83227502D01*
X141259048Y-83398458D01*
X141249328Y-83413582D01*
X141132598Y-83569514D01*
X141120825Y-83583100D01*
X140983100Y-83720825D01*
X140969514Y-83732598D01*
X140813582Y-83849328D01*
X140798457Y-83859048D01*
X140627491Y-83952402D01*
X140611155Y-83959862D01*
X140578461Y-83972057D01*
X140534433Y-83980000D01*
X69866000Y-83980000D01*
X69797879Y-83959998D01*
X69751386Y-83906342D01*
X69740000Y-83854000D01*
X69740000Y-82944669D01*
X97092001Y-82944669D01*
X97092371Y-82951490D01*
X97097895Y-83002352D01*
X97101521Y-83017604D01*
X97146676Y-83138054D01*
X97155214Y-83153649D01*
X97231715Y-83255724D01*
X97244276Y-83268285D01*
X97346351Y-83344786D01*
X97361946Y-83353324D01*
X97482394Y-83398478D01*
X97497649Y-83402105D01*
X97548514Y-83407631D01*
X97555328Y-83408000D01*
X98227885Y-83408000D01*
X98243124Y-83403525D01*
X98244329Y-83402135D01*
X98246000Y-83394452D01*
X98246000Y-82272115D01*
X98241525Y-82256876D01*
X98240135Y-82255671D01*
X98232452Y-82254000D01*
X97110116Y-82254000D01*
X97094877Y-82258475D01*
X97093672Y-82259865D01*
X97092001Y-82267548D01*
X97092001Y-82944669D01*
X69740000Y-82944669D01*
X69740000Y-81727885D01*
X97092000Y-81727885D01*
X97096475Y-81743124D01*
X97097865Y-81744329D01*
X97105548Y-81746000D01*
X98227885Y-81746000D01*
X98243124Y-81741525D01*
X98244329Y-81740135D01*
X98246000Y-81732452D01*
X98246000Y-80610116D01*
X98241525Y-80594877D01*
X98240135Y-80593672D01*
X98232452Y-80592001D01*
X97922327Y-80592001D01*
X97914408Y-80592501D01*
X97840736Y-80601839D01*
X97824575Y-80606135D01*
X97705757Y-80655473D01*
X97691324Y-80663873D01*
X97633343Y-80708929D01*
X97627456Y-80714124D01*
X97214164Y-81127416D01*
X97208899Y-81133390D01*
X97163418Y-81192076D01*
X97155024Y-81206548D01*
X97105894Y-81325450D01*
X97101629Y-81341593D01*
X97092490Y-81414448D01*
X97092000Y-81422293D01*
X97092000Y-81727885D01*
X69740000Y-81727885D01*
X69740000Y-72696462D01*
X71786626Y-72696462D01*
X71787206Y-72702593D01*
X71790941Y-72742109D01*
X71791500Y-72753967D01*
X71791500Y-76238157D01*
X71790763Y-76251764D01*
X71786676Y-76289388D01*
X71787213Y-76295523D01*
X71791050Y-76339388D01*
X71791379Y-76344214D01*
X71791500Y-76346686D01*
X71791500Y-76349769D01*
X71791801Y-76352837D01*
X71795690Y-76392506D01*
X71795812Y-76393819D01*
X71803913Y-76486413D01*
X71805400Y-76491532D01*
X71805920Y-76496833D01*
X71832791Y-76585834D01*
X71833126Y-76586967D01*
X71859091Y-76676336D01*
X71861544Y-76681068D01*
X71863084Y-76686169D01*
X71865978Y-76691612D01*
X71906731Y-76768260D01*
X71907343Y-76769426D01*
X71950108Y-76851926D01*
X71953431Y-76856089D01*
X71955934Y-76860796D01*
X72014755Y-76932918D01*
X72015446Y-76933774D01*
X72046738Y-76972973D01*
X72049242Y-76975477D01*
X72049884Y-76976195D01*
X72053585Y-76980528D01*
X72080935Y-77014062D01*
X72085682Y-77017989D01*
X72085684Y-77017991D01*
X72116262Y-77043287D01*
X72125042Y-77051277D01*
X74043145Y-78969379D01*
X74052247Y-78979522D01*
X74075968Y-79009025D01*
X74080696Y-79012992D01*
X74114421Y-79041291D01*
X74118069Y-79044472D01*
X74119881Y-79046115D01*
X74122075Y-79048309D01*
X74155349Y-79075642D01*
X74156147Y-79076304D01*
X74227474Y-79136154D01*
X74232144Y-79138722D01*
X74236261Y-79142103D01*
X74294145Y-79173140D01*
X74318086Y-79185977D01*
X74319245Y-79186606D01*
X74395381Y-79228462D01*
X74395389Y-79228465D01*
X74400787Y-79231433D01*
X74405869Y-79233045D01*
X74410563Y-79235562D01*
X74499531Y-79262762D01*
X74500559Y-79263082D01*
X74589306Y-79291235D01*
X74594602Y-79291829D01*
X74599698Y-79293387D01*
X74692257Y-79302790D01*
X74693393Y-79302911D01*
X74727008Y-79306681D01*
X74739730Y-79308108D01*
X74739734Y-79308108D01*
X74743227Y-79308500D01*
X74746754Y-79308500D01*
X74747739Y-79308555D01*
X74753419Y-79309002D01*
X74782825Y-79311989D01*
X74790337Y-79312752D01*
X74790339Y-79312752D01*
X74796462Y-79313374D01*
X74842108Y-79309059D01*
X74853967Y-79308500D01*
X98109350Y-79308500D01*
X98177471Y-79328502D01*
X98198445Y-79345405D01*
X99063112Y-80210071D01*
X99229946Y-80376905D01*
X99263971Y-80439217D01*
X99258907Y-80510032D01*
X99216360Y-80566868D01*
X99149840Y-80591679D01*
X99140851Y-80592000D01*
X98772115Y-80592000D01*
X98756876Y-80596475D01*
X98755671Y-80597865D01*
X98754000Y-80605548D01*
X98754000Y-83389884D01*
X98758475Y-83405123D01*
X98759865Y-83406328D01*
X98767548Y-83407999D01*
X99444669Y-83407999D01*
X99451490Y-83407629D01*
X99502352Y-83402105D01*
X99517604Y-83398479D01*
X99638054Y-83353324D01*
X99653649Y-83344786D01*
X99755724Y-83268285D01*
X99768285Y-83255724D01*
X99844786Y-83153649D01*
X99853324Y-83138054D01*
X99883580Y-83057347D01*
X99926222Y-83000583D01*
X99992783Y-82975883D01*
X100062132Y-82991091D01*
X100082042Y-83004629D01*
X100242989Y-83138249D01*
X100247441Y-83140851D01*
X100247446Y-83140854D01*
X100382188Y-83219591D01*
X100439597Y-83253138D01*
X100652329Y-83334372D01*
X100657395Y-83335403D01*
X100657396Y-83335403D01*
X100703515Y-83344786D01*
X100875472Y-83379771D01*
X101003288Y-83384458D01*
X101097870Y-83387927D01*
X101097875Y-83387927D01*
X101103034Y-83388116D01*
X101108154Y-83387460D01*
X101108156Y-83387460D01*
X101180344Y-83378212D01*
X101328903Y-83359181D01*
X101333852Y-83357696D01*
X101333858Y-83357695D01*
X101460204Y-83319789D01*
X101547013Y-83293745D01*
X101751507Y-83193564D01*
X101755711Y-83190566D01*
X101755715Y-83190563D01*
X101833683Y-83134949D01*
X101936893Y-83061330D01*
X102098193Y-82900592D01*
X102208528Y-82747044D01*
X102264523Y-82703396D01*
X102335226Y-82696950D01*
X102398191Y-82729753D01*
X102418283Y-82754735D01*
X102455989Y-82816264D01*
X102455992Y-82816269D01*
X102458692Y-82820674D01*
X102607786Y-82992793D01*
X102782989Y-83138249D01*
X102787441Y-83140851D01*
X102787446Y-83140854D01*
X102922188Y-83219591D01*
X102979597Y-83253138D01*
X103192329Y-83334372D01*
X103197395Y-83335403D01*
X103197396Y-83335403D01*
X103243515Y-83344786D01*
X103415472Y-83379771D01*
X103543288Y-83384458D01*
X103637870Y-83387927D01*
X103637875Y-83387927D01*
X103643034Y-83388116D01*
X103648154Y-83387460D01*
X103648156Y-83387460D01*
X103720344Y-83378212D01*
X103868903Y-83359181D01*
X103873852Y-83357696D01*
X103873858Y-83357695D01*
X104000204Y-83319789D01*
X104087013Y-83293745D01*
X104291507Y-83193564D01*
X104295711Y-83190566D01*
X104295715Y-83190563D01*
X104373683Y-83134949D01*
X104476893Y-83061330D01*
X104638193Y-82900592D01*
X104748528Y-82747044D01*
X104804523Y-82703396D01*
X104875226Y-82696950D01*
X104938191Y-82729753D01*
X104958283Y-82754735D01*
X104995989Y-82816264D01*
X104995992Y-82816269D01*
X104998692Y-82820674D01*
X105147786Y-82992793D01*
X105322989Y-83138249D01*
X105327441Y-83140851D01*
X105327446Y-83140854D01*
X105462188Y-83219591D01*
X105519597Y-83253138D01*
X105732329Y-83334372D01*
X105737395Y-83335403D01*
X105737396Y-83335403D01*
X105783515Y-83344786D01*
X105955472Y-83379771D01*
X106083288Y-83384458D01*
X106177870Y-83387927D01*
X106177875Y-83387927D01*
X106183034Y-83388116D01*
X106188154Y-83387460D01*
X106188156Y-83387460D01*
X106260344Y-83378212D01*
X106408903Y-83359181D01*
X106413852Y-83357696D01*
X106413858Y-83357695D01*
X106540204Y-83319789D01*
X106627013Y-83293745D01*
X106831507Y-83193564D01*
X106835711Y-83190566D01*
X106835715Y-83190563D01*
X106913683Y-83134949D01*
X107016893Y-83061330D01*
X107178193Y-82900592D01*
X107288528Y-82747044D01*
X107344523Y-82703396D01*
X107415226Y-82696950D01*
X107478191Y-82729753D01*
X107498283Y-82754735D01*
X107535989Y-82816264D01*
X107535992Y-82816269D01*
X107538692Y-82820674D01*
X107687786Y-82992793D01*
X107862989Y-83138249D01*
X107867441Y-83140851D01*
X107867446Y-83140854D01*
X108002188Y-83219591D01*
X108059597Y-83253138D01*
X108272329Y-83334372D01*
X108277395Y-83335403D01*
X108277396Y-83335403D01*
X108323515Y-83344786D01*
X108495472Y-83379771D01*
X108623288Y-83384458D01*
X108717870Y-83387927D01*
X108717875Y-83387927D01*
X108723034Y-83388116D01*
X108728154Y-83387460D01*
X108728156Y-83387460D01*
X108800344Y-83378212D01*
X108948903Y-83359181D01*
X108953852Y-83357696D01*
X108953858Y-83357695D01*
X109080204Y-83319789D01*
X109167013Y-83293745D01*
X109371507Y-83193564D01*
X109375711Y-83190566D01*
X109375715Y-83190563D01*
X109453683Y-83134949D01*
X109556893Y-83061330D01*
X109673962Y-82944669D01*
X122292001Y-82944669D01*
X122292371Y-82951490D01*
X122297895Y-83002352D01*
X122301521Y-83017604D01*
X122346676Y-83138054D01*
X122355214Y-83153649D01*
X122431715Y-83255724D01*
X122444276Y-83268285D01*
X122546351Y-83344786D01*
X122561946Y-83353324D01*
X122682394Y-83398478D01*
X122697649Y-83402105D01*
X122748514Y-83407631D01*
X122755328Y-83408000D01*
X123427885Y-83408000D01*
X123443124Y-83403525D01*
X123444329Y-83402135D01*
X123446000Y-83394452D01*
X123446000Y-82272115D01*
X123441525Y-82256876D01*
X123440135Y-82255671D01*
X123432452Y-82254000D01*
X122310116Y-82254000D01*
X122294877Y-82258475D01*
X122293672Y-82259865D01*
X122292001Y-82267548D01*
X122292001Y-82944669D01*
X109673962Y-82944669D01*
X109718193Y-82900592D01*
X109851073Y-82715669D01*
X109897563Y-82621605D01*
X109949673Y-82516168D01*
X109949674Y-82516166D01*
X109951967Y-82511526D01*
X110018164Y-82293646D01*
X110021600Y-82267548D01*
X110047450Y-82071201D01*
X110047451Y-82071194D01*
X110047887Y-82067879D01*
X110049546Y-82000000D01*
X110042179Y-81910393D01*
X110031311Y-81778202D01*
X110031310Y-81778196D01*
X110030887Y-81773051D01*
X110019542Y-81727885D01*
X122292000Y-81727885D01*
X122296475Y-81743124D01*
X122297865Y-81744329D01*
X122305548Y-81746000D01*
X123427885Y-81746000D01*
X123443124Y-81741525D01*
X123444329Y-81740135D01*
X123446000Y-81732452D01*
X123446000Y-80610116D01*
X123441525Y-80594877D01*
X123440135Y-80593672D01*
X123432452Y-80592001D01*
X123122327Y-80592001D01*
X123114408Y-80592501D01*
X123040736Y-80601839D01*
X123024575Y-80606135D01*
X122905757Y-80655473D01*
X122891324Y-80663873D01*
X122833343Y-80708929D01*
X122827456Y-80714124D01*
X122414164Y-81127416D01*
X122408899Y-81133390D01*
X122363418Y-81192076D01*
X122355024Y-81206548D01*
X122305894Y-81325450D01*
X122301629Y-81341593D01*
X122292490Y-81414448D01*
X122292000Y-81422293D01*
X122292000Y-81727885D01*
X110019542Y-81727885D01*
X109975413Y-81552197D01*
X109961497Y-81520192D01*
X109886672Y-81348106D01*
X109886670Y-81348103D01*
X109884612Y-81343369D01*
X109804459Y-81219472D01*
X109763731Y-81156515D01*
X109763729Y-81156512D01*
X109760923Y-81152175D01*
X109607668Y-80983750D01*
X109428963Y-80842618D01*
X109229607Y-80732567D01*
X109046164Y-80667606D01*
X109019829Y-80658280D01*
X109019825Y-80658279D01*
X109014954Y-80656554D01*
X109009861Y-80655647D01*
X109009858Y-80655646D01*
X108795857Y-80617527D01*
X108795851Y-80617526D01*
X108790768Y-80616621D01*
X108703698Y-80615557D01*
X108568239Y-80613902D01*
X108568237Y-80613902D01*
X108563070Y-80613839D01*
X108337976Y-80648283D01*
X108121529Y-80719029D01*
X108116937Y-80721419D01*
X108116938Y-80721419D01*
X108021047Y-80771337D01*
X107919544Y-80824176D01*
X107915411Y-80827279D01*
X107915408Y-80827281D01*
X107741579Y-80957795D01*
X107737444Y-80960900D01*
X107580120Y-81125530D01*
X107564555Y-81148348D01*
X107493784Y-81252094D01*
X107438873Y-81297096D01*
X107368348Y-81305267D01*
X107304601Y-81274013D01*
X107283904Y-81249529D01*
X107223731Y-81156515D01*
X107223729Y-81156512D01*
X107220923Y-81152175D01*
X107067668Y-80983750D01*
X106888963Y-80842618D01*
X106689607Y-80732567D01*
X106506164Y-80667606D01*
X106479829Y-80658280D01*
X106479825Y-80658279D01*
X106474954Y-80656554D01*
X106469861Y-80655647D01*
X106469858Y-80655646D01*
X106255857Y-80617527D01*
X106255851Y-80617526D01*
X106250768Y-80616621D01*
X106163698Y-80615557D01*
X106028239Y-80613902D01*
X106028237Y-80613902D01*
X106023070Y-80613839D01*
X105797976Y-80648283D01*
X105581529Y-80719029D01*
X105576937Y-80721419D01*
X105576938Y-80721419D01*
X105481047Y-80771337D01*
X105379544Y-80824176D01*
X105375411Y-80827279D01*
X105375408Y-80827281D01*
X105201579Y-80957795D01*
X105197444Y-80960900D01*
X105040120Y-81125530D01*
X105024555Y-81148348D01*
X104953784Y-81252094D01*
X104898873Y-81297096D01*
X104828348Y-81305267D01*
X104764601Y-81274013D01*
X104743904Y-81249529D01*
X104683731Y-81156515D01*
X104683729Y-81156512D01*
X104680923Y-81152175D01*
X104527668Y-80983750D01*
X104348963Y-80842618D01*
X104149607Y-80732567D01*
X103966164Y-80667606D01*
X103939829Y-80658280D01*
X103939825Y-80658279D01*
X103934954Y-80656554D01*
X103929861Y-80655647D01*
X103929858Y-80655646D01*
X103715857Y-80617527D01*
X103715851Y-80617526D01*
X103710768Y-80616621D01*
X103623698Y-80615557D01*
X103488239Y-80613902D01*
X103488237Y-80613902D01*
X103483070Y-80613839D01*
X103257976Y-80648283D01*
X103041529Y-80719029D01*
X103036937Y-80721419D01*
X103036938Y-80721419D01*
X102941047Y-80771337D01*
X102839544Y-80824176D01*
X102835411Y-80827279D01*
X102835408Y-80827281D01*
X102661579Y-80957795D01*
X102657444Y-80960900D01*
X102500120Y-81125530D01*
X102484555Y-81148348D01*
X102413784Y-81252094D01*
X102358873Y-81297096D01*
X102288348Y-81305267D01*
X102224601Y-81274013D01*
X102203904Y-81249529D01*
X102143733Y-81156519D01*
X102140923Y-81152175D01*
X102081306Y-81086656D01*
X102050254Y-81022810D01*
X102048500Y-81001857D01*
X102048500Y-80822575D01*
X102049237Y-80808967D01*
X102052659Y-80777464D01*
X102053325Y-80771337D01*
X102048947Y-80721295D01*
X102048621Y-80716513D01*
X102048500Y-80714035D01*
X102048500Y-80710956D01*
X102048201Y-80707902D01*
X102048200Y-80707891D01*
X102044313Y-80668254D01*
X102044191Y-80666940D01*
X102039783Y-80616558D01*
X102036087Y-80574312D01*
X102034600Y-80569193D01*
X102034080Y-80563892D01*
X102007209Y-80474891D01*
X102006874Y-80473758D01*
X101982630Y-80390311D01*
X101982628Y-80390307D01*
X101980909Y-80384389D01*
X101978456Y-80379657D01*
X101976916Y-80374556D01*
X101933269Y-80292465D01*
X101932657Y-80291299D01*
X101892729Y-80214272D01*
X101889892Y-80208799D01*
X101886569Y-80204636D01*
X101884066Y-80199929D01*
X101825261Y-80127827D01*
X101824433Y-80126800D01*
X101795469Y-80090517D01*
X101795464Y-80090512D01*
X101793262Y-80087753D01*
X101790761Y-80085252D01*
X101790119Y-80084534D01*
X101786406Y-80080186D01*
X101778642Y-80070666D01*
X101759065Y-80046663D01*
X101754323Y-80042740D01*
X101754321Y-80042738D01*
X101723727Y-80017428D01*
X101714947Y-80009438D01*
X101229104Y-79523595D01*
X101195078Y-79461283D01*
X101200143Y-79390468D01*
X101242690Y-79333632D01*
X101309210Y-79308821D01*
X101318199Y-79308500D01*
X123309350Y-79308500D01*
X123377471Y-79328502D01*
X123398445Y-79345405D01*
X124263112Y-80210071D01*
X124429946Y-80376905D01*
X124463971Y-80439217D01*
X124458907Y-80510032D01*
X124416360Y-80566868D01*
X124349840Y-80591679D01*
X124340851Y-80592000D01*
X123972115Y-80592000D01*
X123956876Y-80596475D01*
X123955671Y-80597865D01*
X123954000Y-80605548D01*
X123954000Y-83389884D01*
X123958475Y-83405123D01*
X123959865Y-83406328D01*
X123967548Y-83407999D01*
X124644669Y-83407999D01*
X124651490Y-83407629D01*
X124702352Y-83402105D01*
X124717604Y-83398479D01*
X124838054Y-83353324D01*
X124853649Y-83344786D01*
X124955724Y-83268285D01*
X124968285Y-83255724D01*
X125044786Y-83153649D01*
X125053324Y-83138054D01*
X125083580Y-83057347D01*
X125126222Y-83000583D01*
X125192783Y-82975883D01*
X125262132Y-82991091D01*
X125282042Y-83004629D01*
X125442989Y-83138249D01*
X125447441Y-83140851D01*
X125447446Y-83140854D01*
X125582188Y-83219591D01*
X125639597Y-83253138D01*
X125852329Y-83334372D01*
X125857395Y-83335403D01*
X125857396Y-83335403D01*
X125903515Y-83344786D01*
X126075472Y-83379771D01*
X126203288Y-83384458D01*
X126297870Y-83387927D01*
X126297875Y-83387927D01*
X126303034Y-83388116D01*
X126308154Y-83387460D01*
X126308156Y-83387460D01*
X126380344Y-83378212D01*
X126528903Y-83359181D01*
X126533852Y-83357696D01*
X126533858Y-83357695D01*
X126660204Y-83319789D01*
X126747013Y-83293745D01*
X126951507Y-83193564D01*
X126955711Y-83190566D01*
X126955715Y-83190563D01*
X127033683Y-83134949D01*
X127136893Y-83061330D01*
X127298193Y-82900592D01*
X127408528Y-82747044D01*
X127464523Y-82703396D01*
X127535226Y-82696950D01*
X127598191Y-82729753D01*
X127618283Y-82754735D01*
X127655989Y-82816264D01*
X127655992Y-82816269D01*
X127658692Y-82820674D01*
X127807786Y-82992793D01*
X127982989Y-83138249D01*
X127987441Y-83140851D01*
X127987446Y-83140854D01*
X128122188Y-83219591D01*
X128179597Y-83253138D01*
X128392329Y-83334372D01*
X128397395Y-83335403D01*
X128397396Y-83335403D01*
X128443515Y-83344786D01*
X128615472Y-83379771D01*
X128743288Y-83384458D01*
X128837870Y-83387927D01*
X128837875Y-83387927D01*
X128843034Y-83388116D01*
X128848154Y-83387460D01*
X128848156Y-83387460D01*
X128920344Y-83378212D01*
X129068903Y-83359181D01*
X129073852Y-83357696D01*
X129073858Y-83357695D01*
X129200204Y-83319789D01*
X129287013Y-83293745D01*
X129491507Y-83193564D01*
X129495711Y-83190566D01*
X129495715Y-83190563D01*
X129573683Y-83134949D01*
X129676893Y-83061330D01*
X129838193Y-82900592D01*
X129948528Y-82747044D01*
X130004523Y-82703396D01*
X130075226Y-82696950D01*
X130138191Y-82729753D01*
X130158283Y-82754735D01*
X130195989Y-82816264D01*
X130195992Y-82816269D01*
X130198692Y-82820674D01*
X130347786Y-82992793D01*
X130522989Y-83138249D01*
X130527441Y-83140851D01*
X130527446Y-83140854D01*
X130662188Y-83219591D01*
X130719597Y-83253138D01*
X130932329Y-83334372D01*
X130937395Y-83335403D01*
X130937396Y-83335403D01*
X130983515Y-83344786D01*
X131155472Y-83379771D01*
X131283288Y-83384458D01*
X131377870Y-83387927D01*
X131377875Y-83387927D01*
X131383034Y-83388116D01*
X131388154Y-83387460D01*
X131388156Y-83387460D01*
X131460344Y-83378212D01*
X131608903Y-83359181D01*
X131613852Y-83357696D01*
X131613858Y-83357695D01*
X131740204Y-83319789D01*
X131827013Y-83293745D01*
X132031507Y-83193564D01*
X132035711Y-83190566D01*
X132035715Y-83190563D01*
X132113683Y-83134949D01*
X132216893Y-83061330D01*
X132378193Y-82900592D01*
X132488528Y-82747044D01*
X132544523Y-82703396D01*
X132615226Y-82696950D01*
X132678191Y-82729753D01*
X132698283Y-82754735D01*
X132735989Y-82816264D01*
X132735992Y-82816269D01*
X132738692Y-82820674D01*
X132887786Y-82992793D01*
X133062989Y-83138249D01*
X133067441Y-83140851D01*
X133067446Y-83140854D01*
X133202188Y-83219591D01*
X133259597Y-83253138D01*
X133472329Y-83334372D01*
X133477395Y-83335403D01*
X133477396Y-83335403D01*
X133523515Y-83344786D01*
X133695472Y-83379771D01*
X133823288Y-83384458D01*
X133917870Y-83387927D01*
X133917875Y-83387927D01*
X133923034Y-83388116D01*
X133928154Y-83387460D01*
X133928156Y-83387460D01*
X134000344Y-83378212D01*
X134148903Y-83359181D01*
X134153852Y-83357696D01*
X134153858Y-83357695D01*
X134280204Y-83319789D01*
X134367013Y-83293745D01*
X134571507Y-83193564D01*
X134575711Y-83190566D01*
X134575715Y-83190563D01*
X134653683Y-83134949D01*
X134756893Y-83061330D01*
X134918193Y-82900592D01*
X135051073Y-82715669D01*
X135097563Y-82621605D01*
X135149673Y-82516168D01*
X135149674Y-82516166D01*
X135151967Y-82511526D01*
X135218164Y-82293646D01*
X135221600Y-82267548D01*
X135247450Y-82071201D01*
X135247451Y-82071194D01*
X135247887Y-82067879D01*
X135249546Y-82000000D01*
X135242179Y-81910393D01*
X135231311Y-81778202D01*
X135231310Y-81778196D01*
X135230887Y-81773051D01*
X135175413Y-81552197D01*
X135161497Y-81520192D01*
X135086672Y-81348106D01*
X135086670Y-81348103D01*
X135084612Y-81343369D01*
X135004459Y-81219472D01*
X134963731Y-81156515D01*
X134963729Y-81156512D01*
X134960923Y-81152175D01*
X134807668Y-80983750D01*
X134628963Y-80842618D01*
X134429607Y-80732567D01*
X134246164Y-80667606D01*
X134219829Y-80658280D01*
X134219825Y-80658279D01*
X134214954Y-80656554D01*
X134209861Y-80655647D01*
X134209858Y-80655646D01*
X133995857Y-80617527D01*
X133995851Y-80617526D01*
X133990768Y-80616621D01*
X133903698Y-80615557D01*
X133768239Y-80613902D01*
X133768237Y-80613902D01*
X133763070Y-80613839D01*
X133537976Y-80648283D01*
X133321529Y-80719029D01*
X133316937Y-80721419D01*
X133316938Y-80721419D01*
X133221047Y-80771337D01*
X133119544Y-80824176D01*
X133115411Y-80827279D01*
X133115408Y-80827281D01*
X132941579Y-80957795D01*
X132937444Y-80960900D01*
X132780120Y-81125530D01*
X132764555Y-81148348D01*
X132693784Y-81252094D01*
X132638873Y-81297096D01*
X132568348Y-81305267D01*
X132504601Y-81274013D01*
X132483904Y-81249529D01*
X132423731Y-81156515D01*
X132423729Y-81156512D01*
X132420923Y-81152175D01*
X132267668Y-80983750D01*
X132088963Y-80842618D01*
X131889607Y-80732567D01*
X131706164Y-80667606D01*
X131679829Y-80658280D01*
X131679825Y-80658279D01*
X131674954Y-80656554D01*
X131669861Y-80655647D01*
X131669858Y-80655646D01*
X131455857Y-80617527D01*
X131455851Y-80617526D01*
X131450768Y-80616621D01*
X131363698Y-80615557D01*
X131228239Y-80613902D01*
X131228237Y-80613902D01*
X131223070Y-80613839D01*
X130997976Y-80648283D01*
X130781529Y-80719029D01*
X130776937Y-80721419D01*
X130776938Y-80721419D01*
X130681047Y-80771337D01*
X130579544Y-80824176D01*
X130575411Y-80827279D01*
X130575408Y-80827281D01*
X130401579Y-80957795D01*
X130397444Y-80960900D01*
X130240120Y-81125530D01*
X130224555Y-81148348D01*
X130153784Y-81252094D01*
X130098873Y-81297096D01*
X130028348Y-81305267D01*
X129964601Y-81274013D01*
X129943904Y-81249529D01*
X129883731Y-81156515D01*
X129883729Y-81156512D01*
X129880923Y-81152175D01*
X129727668Y-80983750D01*
X129548963Y-80842618D01*
X129349607Y-80732567D01*
X129166164Y-80667606D01*
X129139829Y-80658280D01*
X129139825Y-80658279D01*
X129134954Y-80656554D01*
X129129861Y-80655647D01*
X129129858Y-80655646D01*
X128915857Y-80617527D01*
X128915851Y-80617526D01*
X128910768Y-80616621D01*
X128823698Y-80615557D01*
X128688239Y-80613902D01*
X128688237Y-80613902D01*
X128683070Y-80613839D01*
X128457976Y-80648283D01*
X128241529Y-80719029D01*
X128236937Y-80721419D01*
X128236938Y-80721419D01*
X128141047Y-80771337D01*
X128039544Y-80824176D01*
X128035411Y-80827279D01*
X128035408Y-80827281D01*
X127861579Y-80957795D01*
X127857444Y-80960900D01*
X127700120Y-81125530D01*
X127684555Y-81148348D01*
X127613784Y-81252094D01*
X127558873Y-81297096D01*
X127488348Y-81305267D01*
X127424601Y-81274013D01*
X127403904Y-81249529D01*
X127343733Y-81156519D01*
X127340923Y-81152175D01*
X127281306Y-81086656D01*
X127250254Y-81022810D01*
X127248500Y-81001857D01*
X127248500Y-80822575D01*
X127249237Y-80808967D01*
X127252659Y-80777464D01*
X127253325Y-80771337D01*
X127248947Y-80721295D01*
X127248621Y-80716513D01*
X127248500Y-80714035D01*
X127248500Y-80710956D01*
X127248201Y-80707902D01*
X127248200Y-80707891D01*
X127244313Y-80668254D01*
X127244191Y-80666940D01*
X127239783Y-80616558D01*
X127236087Y-80574312D01*
X127234600Y-80569193D01*
X127234080Y-80563892D01*
X127207209Y-80474891D01*
X127206874Y-80473758D01*
X127182630Y-80390311D01*
X127182628Y-80390307D01*
X127180909Y-80384389D01*
X127178456Y-80379657D01*
X127176916Y-80374556D01*
X127133269Y-80292465D01*
X127132657Y-80291299D01*
X127092729Y-80214272D01*
X127089892Y-80208799D01*
X127086569Y-80204636D01*
X127084066Y-80199929D01*
X127025261Y-80127827D01*
X127024433Y-80126800D01*
X126995469Y-80090517D01*
X126995464Y-80090512D01*
X126993262Y-80087753D01*
X126990761Y-80085252D01*
X126990119Y-80084534D01*
X126986406Y-80080186D01*
X126978642Y-80070666D01*
X126959065Y-80046663D01*
X126954323Y-80042740D01*
X126954321Y-80042738D01*
X126923727Y-80017428D01*
X126914947Y-80009438D01*
X124536130Y-77630621D01*
X124527028Y-77620478D01*
X124507172Y-77595782D01*
X124503307Y-77590975D01*
X124464853Y-77558708D01*
X124461206Y-77555528D01*
X124459394Y-77553885D01*
X124457200Y-77551691D01*
X124423926Y-77524358D01*
X124423128Y-77523696D01*
X124351801Y-77463846D01*
X124347131Y-77461278D01*
X124343014Y-77457897D01*
X124261189Y-77414023D01*
X124260030Y-77413394D01*
X124183894Y-77371538D01*
X124183886Y-77371535D01*
X124178488Y-77368567D01*
X124173406Y-77366955D01*
X124168712Y-77364438D01*
X124079744Y-77337238D01*
X124078716Y-77336918D01*
X123989969Y-77308765D01*
X123984673Y-77308171D01*
X123979577Y-77306613D01*
X123887018Y-77297210D01*
X123885882Y-77297089D01*
X123852267Y-77293319D01*
X123839545Y-77291892D01*
X123839541Y-77291892D01*
X123836048Y-77291500D01*
X123832521Y-77291500D01*
X123831536Y-77291445D01*
X123825856Y-77290998D01*
X123796450Y-77288011D01*
X123788938Y-77287248D01*
X123788936Y-77287248D01*
X123782813Y-77286626D01*
X123740534Y-77290623D01*
X123737166Y-77290941D01*
X123725308Y-77291500D01*
X98637179Y-77291500D01*
X98624446Y-77290855D01*
X98588941Y-77287248D01*
X98588936Y-77287248D01*
X98582813Y-77286626D01*
X98540534Y-77290623D01*
X98537166Y-77290941D01*
X98525308Y-77291500D01*
X75269925Y-77291500D01*
X75201804Y-77271498D01*
X75180830Y-77254595D01*
X73845405Y-75919171D01*
X73811380Y-75856859D01*
X73808500Y-75830076D01*
X73808500Y-73169926D01*
X73828502Y-73101805D01*
X73845404Y-73080831D01*
X74580829Y-72345405D01*
X74643142Y-72311380D01*
X74669925Y-72308500D01*
X76301218Y-72308500D01*
X76369339Y-72328502D01*
X76381702Y-72337555D01*
X76502989Y-72438249D01*
X76507447Y-72440854D01*
X76510303Y-72442523D01*
X76511224Y-72443499D01*
X76511691Y-72443826D01*
X76511623Y-72443922D01*
X76559028Y-72494160D01*
X76572101Y-72563943D01*
X76545372Y-72629716D01*
X76522395Y-72652068D01*
X76377444Y-72760900D01*
X76220120Y-72925530D01*
X76217209Y-72929798D01*
X76217205Y-72929803D01*
X76145928Y-73034292D01*
X76091797Y-73113645D01*
X75995921Y-73320192D01*
X75935067Y-73539625D01*
X75910869Y-73766050D01*
X75911166Y-73771202D01*
X75911166Y-73771206D01*
X75915983Y-73854740D01*
X75923977Y-73993387D01*
X75974039Y-74215531D01*
X75975983Y-74220317D01*
X75975984Y-74220322D01*
X76057767Y-74421728D01*
X76059711Y-74426515D01*
X76133571Y-74547044D01*
X76175990Y-74616264D01*
X76178692Y-74620674D01*
X76327786Y-74792793D01*
X76502989Y-74938249D01*
X76507441Y-74940851D01*
X76507446Y-74940854D01*
X76601540Y-74995838D01*
X76699597Y-75053138D01*
X76912329Y-75134372D01*
X76917395Y-75135403D01*
X76917396Y-75135403D01*
X76923191Y-75136582D01*
X77135472Y-75179771D01*
X77263288Y-75184458D01*
X77357870Y-75187927D01*
X77357875Y-75187927D01*
X77363034Y-75188116D01*
X77368154Y-75187460D01*
X77368156Y-75187460D01*
X77440344Y-75178212D01*
X77588903Y-75159181D01*
X77593852Y-75157696D01*
X77593858Y-75157695D01*
X77720204Y-75119789D01*
X77807013Y-75093745D01*
X78011507Y-74993564D01*
X78015711Y-74990566D01*
X78015715Y-74990563D01*
X78093683Y-74934949D01*
X78196893Y-74861330D01*
X78358193Y-74700592D01*
X78468528Y-74547044D01*
X78524523Y-74503396D01*
X78595226Y-74496950D01*
X78658191Y-74529753D01*
X78678283Y-74554735D01*
X78715989Y-74616264D01*
X78715992Y-74616269D01*
X78718692Y-74620674D01*
X78867786Y-74792793D01*
X79042989Y-74938249D01*
X79047441Y-74940851D01*
X79047446Y-74940854D01*
X79141540Y-74995838D01*
X79239597Y-75053138D01*
X79452329Y-75134372D01*
X79457395Y-75135403D01*
X79457396Y-75135403D01*
X79463191Y-75136582D01*
X79675472Y-75179771D01*
X79803288Y-75184458D01*
X79897870Y-75187927D01*
X79897875Y-75187927D01*
X79903034Y-75188116D01*
X79908154Y-75187460D01*
X79908156Y-75187460D01*
X79980344Y-75178212D01*
X80128903Y-75159181D01*
X80133852Y-75157696D01*
X80133858Y-75157695D01*
X80260204Y-75119789D01*
X80347013Y-75093745D01*
X80551507Y-74993564D01*
X80555711Y-74990566D01*
X80555715Y-74990563D01*
X80633683Y-74934949D01*
X80736893Y-74861330D01*
X80898193Y-74700592D01*
X80901209Y-74696395D01*
X80901216Y-74696387D01*
X80905301Y-74690702D01*
X80961297Y-74647056D01*
X81032000Y-74640612D01*
X81096716Y-74675136D01*
X81507416Y-75085836D01*
X81513390Y-75091101D01*
X81572076Y-75136582D01*
X81586548Y-75144976D01*
X81705450Y-75194106D01*
X81721593Y-75198371D01*
X81794448Y-75207510D01*
X81802293Y-75208000D01*
X82107885Y-75208000D01*
X82123124Y-75203525D01*
X82124329Y-75202135D01*
X82126000Y-75194452D01*
X82126000Y-73672000D01*
X82146002Y-73603879D01*
X82199658Y-73557386D01*
X82252000Y-73546000D01*
X82508000Y-73546000D01*
X82576121Y-73566002D01*
X82622614Y-73619658D01*
X82634000Y-73672000D01*
X82634000Y-75189884D01*
X82638475Y-75205123D01*
X82639865Y-75206328D01*
X82647548Y-75207999D01*
X83324669Y-75207999D01*
X83331490Y-75207629D01*
X83382352Y-75202105D01*
X83397604Y-75198479D01*
X83518054Y-75153324D01*
X83533649Y-75144786D01*
X83635724Y-75068285D01*
X83648285Y-75055724D01*
X83724786Y-74953649D01*
X83733324Y-74938054D01*
X83763580Y-74857347D01*
X83806222Y-74800583D01*
X83872783Y-74775883D01*
X83942132Y-74791091D01*
X83962042Y-74804629D01*
X84122989Y-74938249D01*
X84127441Y-74940851D01*
X84127446Y-74940854D01*
X84221540Y-74995838D01*
X84319597Y-75053138D01*
X84532329Y-75134372D01*
X84537395Y-75135403D01*
X84537396Y-75135403D01*
X84543191Y-75136582D01*
X84755472Y-75179771D01*
X84883288Y-75184458D01*
X84977870Y-75187927D01*
X84977875Y-75187927D01*
X84983034Y-75188116D01*
X84988154Y-75187460D01*
X84988156Y-75187460D01*
X85060344Y-75178212D01*
X85208903Y-75159181D01*
X85213852Y-75157696D01*
X85213858Y-75157695D01*
X85340204Y-75119789D01*
X85427013Y-75093745D01*
X85631507Y-74993564D01*
X85635711Y-74990566D01*
X85635715Y-74990563D01*
X85713683Y-74934949D01*
X85816893Y-74861330D01*
X85978193Y-74700592D01*
X86088528Y-74547044D01*
X86144523Y-74503396D01*
X86215226Y-74496950D01*
X86278191Y-74529753D01*
X86298283Y-74554735D01*
X86335989Y-74616264D01*
X86335992Y-74616269D01*
X86338692Y-74620674D01*
X86487786Y-74792793D01*
X86662989Y-74938249D01*
X86667441Y-74940851D01*
X86667446Y-74940854D01*
X86761540Y-74995838D01*
X86859597Y-75053138D01*
X87072329Y-75134372D01*
X87077395Y-75135403D01*
X87077396Y-75135403D01*
X87083191Y-75136582D01*
X87295472Y-75179771D01*
X87423288Y-75184458D01*
X87517870Y-75187927D01*
X87517875Y-75187927D01*
X87523034Y-75188116D01*
X87528154Y-75187460D01*
X87528156Y-75187460D01*
X87600344Y-75178212D01*
X87748903Y-75159181D01*
X87753852Y-75157696D01*
X87753858Y-75157695D01*
X87880204Y-75119789D01*
X87967013Y-75093745D01*
X88171507Y-74993564D01*
X88175711Y-74990566D01*
X88175715Y-74990563D01*
X88253683Y-74934949D01*
X88356893Y-74861330D01*
X88518193Y-74700592D01*
X88628528Y-74547044D01*
X88684523Y-74503396D01*
X88755226Y-74496950D01*
X88818191Y-74529753D01*
X88838283Y-74554735D01*
X88875989Y-74616264D01*
X88875992Y-74616269D01*
X88878692Y-74620674D01*
X89027786Y-74792793D01*
X89202989Y-74938249D01*
X89207441Y-74940851D01*
X89207446Y-74940854D01*
X89301540Y-74995838D01*
X89399597Y-75053138D01*
X89612329Y-75134372D01*
X89617395Y-75135403D01*
X89617396Y-75135403D01*
X89623191Y-75136582D01*
X89835472Y-75179771D01*
X89963288Y-75184458D01*
X90057870Y-75187927D01*
X90057875Y-75187927D01*
X90063034Y-75188116D01*
X90068154Y-75187460D01*
X90068156Y-75187460D01*
X90140344Y-75178212D01*
X90288903Y-75159181D01*
X90293852Y-75157696D01*
X90293858Y-75157695D01*
X90420204Y-75119789D01*
X90507013Y-75093745D01*
X90711507Y-74993564D01*
X90715711Y-74990566D01*
X90715715Y-74990563D01*
X90793683Y-74934949D01*
X90896893Y-74861330D01*
X91058193Y-74700592D01*
X91061209Y-74696395D01*
X91061216Y-74696387D01*
X91065301Y-74690702D01*
X91121297Y-74647056D01*
X91192000Y-74640612D01*
X91256716Y-74675136D01*
X91667416Y-75085836D01*
X91673390Y-75091101D01*
X91732076Y-75136582D01*
X91746548Y-75144976D01*
X91865450Y-75194106D01*
X91881593Y-75198371D01*
X91954448Y-75207510D01*
X91962293Y-75208000D01*
X92267885Y-75208000D01*
X92283124Y-75203525D01*
X92284329Y-75202135D01*
X92286000Y-75194452D01*
X92286000Y-73672000D01*
X92306002Y-73603879D01*
X92359658Y-73557386D01*
X92412000Y-73546000D01*
X92668000Y-73546000D01*
X92736121Y-73566002D01*
X92782614Y-73619658D01*
X92794000Y-73672000D01*
X92794000Y-75189884D01*
X92798475Y-75205123D01*
X92799865Y-75206328D01*
X92807548Y-75207999D01*
X93484669Y-75207999D01*
X93491490Y-75207629D01*
X93542352Y-75202105D01*
X93557604Y-75198479D01*
X93678054Y-75153324D01*
X93693649Y-75144786D01*
X93795724Y-75068285D01*
X93808285Y-75055724D01*
X93884786Y-74953649D01*
X93893324Y-74938054D01*
X93923580Y-74857347D01*
X93966222Y-74800583D01*
X94032783Y-74775883D01*
X94102132Y-74791091D01*
X94122042Y-74804629D01*
X94282989Y-74938249D01*
X94287441Y-74940851D01*
X94287446Y-74940854D01*
X94381540Y-74995838D01*
X94479597Y-75053138D01*
X94692329Y-75134372D01*
X94697395Y-75135403D01*
X94697396Y-75135403D01*
X94703191Y-75136582D01*
X94915472Y-75179771D01*
X95043288Y-75184458D01*
X95137870Y-75187927D01*
X95137875Y-75187927D01*
X95143034Y-75188116D01*
X95148154Y-75187460D01*
X95148156Y-75187460D01*
X95220344Y-75178212D01*
X95368903Y-75159181D01*
X95373852Y-75157696D01*
X95373858Y-75157695D01*
X95500204Y-75119789D01*
X95587013Y-75093745D01*
X95791507Y-74993564D01*
X95795711Y-74990566D01*
X95795715Y-74990563D01*
X95873683Y-74934949D01*
X95976893Y-74861330D01*
X96138193Y-74700592D01*
X96248528Y-74547044D01*
X96304523Y-74503396D01*
X96375226Y-74496950D01*
X96438191Y-74529753D01*
X96458283Y-74554735D01*
X96495989Y-74616264D01*
X96495992Y-74616269D01*
X96498692Y-74620674D01*
X96647786Y-74792793D01*
X96822989Y-74938249D01*
X96827441Y-74940851D01*
X96827446Y-74940854D01*
X96921540Y-74995838D01*
X97019597Y-75053138D01*
X97232329Y-75134372D01*
X97237395Y-75135403D01*
X97237396Y-75135403D01*
X97243191Y-75136582D01*
X97455472Y-75179771D01*
X97583288Y-75184458D01*
X97677870Y-75187927D01*
X97677875Y-75187927D01*
X97683034Y-75188116D01*
X97688154Y-75187460D01*
X97688156Y-75187460D01*
X97760344Y-75178212D01*
X97908903Y-75159181D01*
X97913852Y-75157696D01*
X97913858Y-75157695D01*
X98040204Y-75119789D01*
X98127013Y-75093745D01*
X98331507Y-74993564D01*
X98335711Y-74990566D01*
X98335715Y-74990563D01*
X98413683Y-74934949D01*
X98516893Y-74861330D01*
X98678193Y-74700592D01*
X98681209Y-74696395D01*
X98681216Y-74696387D01*
X98685301Y-74690702D01*
X98741297Y-74647056D01*
X98812000Y-74640612D01*
X98876716Y-74675136D01*
X99287416Y-75085836D01*
X99293390Y-75091101D01*
X99352076Y-75136582D01*
X99366548Y-75144976D01*
X99485450Y-75194106D01*
X99501593Y-75198371D01*
X99574448Y-75207510D01*
X99582293Y-75208000D01*
X99887885Y-75208000D01*
X99903124Y-75203525D01*
X99904329Y-75202135D01*
X99906000Y-75194452D01*
X99906000Y-73672000D01*
X99926002Y-73603879D01*
X99979658Y-73557386D01*
X100032000Y-73546000D01*
X100288000Y-73546000D01*
X100356121Y-73566002D01*
X100402614Y-73619658D01*
X100414000Y-73672000D01*
X100414000Y-75189884D01*
X100418475Y-75205123D01*
X100419865Y-75206328D01*
X100427548Y-75207999D01*
X101104669Y-75207999D01*
X101111490Y-75207629D01*
X101162352Y-75202105D01*
X101177604Y-75198479D01*
X101298054Y-75153324D01*
X101313649Y-75144786D01*
X101415724Y-75068285D01*
X101428285Y-75055724D01*
X101504786Y-74953649D01*
X101513324Y-74938054D01*
X101543580Y-74857347D01*
X101586222Y-74800583D01*
X101652783Y-74775883D01*
X101722132Y-74791091D01*
X101742042Y-74804629D01*
X101902989Y-74938249D01*
X101907441Y-74940851D01*
X101907446Y-74940854D01*
X102001540Y-74995838D01*
X102099597Y-75053138D01*
X102312329Y-75134372D01*
X102317395Y-75135403D01*
X102317396Y-75135403D01*
X102323191Y-75136582D01*
X102535472Y-75179771D01*
X102663288Y-75184458D01*
X102757870Y-75187927D01*
X102757875Y-75187927D01*
X102763034Y-75188116D01*
X102768154Y-75187460D01*
X102768156Y-75187460D01*
X102840344Y-75178212D01*
X102988903Y-75159181D01*
X102993852Y-75157696D01*
X102993858Y-75157695D01*
X103120204Y-75119789D01*
X103207013Y-75093745D01*
X103411507Y-74993564D01*
X103415711Y-74990566D01*
X103415715Y-74990563D01*
X103493683Y-74934949D01*
X103596893Y-74861330D01*
X103758193Y-74700592D01*
X103868528Y-74547044D01*
X103924523Y-74503396D01*
X103995226Y-74496950D01*
X104058191Y-74529753D01*
X104078283Y-74554735D01*
X104115989Y-74616264D01*
X104115992Y-74616269D01*
X104118692Y-74620674D01*
X104267786Y-74792793D01*
X104442989Y-74938249D01*
X104447441Y-74940851D01*
X104447446Y-74940854D01*
X104541540Y-74995838D01*
X104639597Y-75053138D01*
X104852329Y-75134372D01*
X104857395Y-75135403D01*
X104857396Y-75135403D01*
X104863191Y-75136582D01*
X105075472Y-75179771D01*
X105203288Y-75184458D01*
X105297870Y-75187927D01*
X105297875Y-75187927D01*
X105303034Y-75188116D01*
X105308154Y-75187460D01*
X105308156Y-75187460D01*
X105380344Y-75178212D01*
X105528903Y-75159181D01*
X105533852Y-75157696D01*
X105533858Y-75157695D01*
X105660204Y-75119789D01*
X105747013Y-75093745D01*
X105951507Y-74993564D01*
X105955711Y-74990566D01*
X105955715Y-74990563D01*
X106033683Y-74934949D01*
X106136893Y-74861330D01*
X106298193Y-74700592D01*
X106408528Y-74547044D01*
X106464523Y-74503396D01*
X106535226Y-74496950D01*
X106598191Y-74529753D01*
X106618283Y-74554735D01*
X106655989Y-74616264D01*
X106655992Y-74616269D01*
X106658692Y-74620674D01*
X106807786Y-74792793D01*
X106982989Y-74938249D01*
X106987441Y-74940851D01*
X106987446Y-74940854D01*
X107081540Y-74995838D01*
X107179597Y-75053138D01*
X107392329Y-75134372D01*
X107397395Y-75135403D01*
X107397396Y-75135403D01*
X107403191Y-75136582D01*
X107615472Y-75179771D01*
X107743288Y-75184458D01*
X107837870Y-75187927D01*
X107837875Y-75187927D01*
X107843034Y-75188116D01*
X107848154Y-75187460D01*
X107848156Y-75187460D01*
X107920344Y-75178212D01*
X108068903Y-75159181D01*
X108073852Y-75157696D01*
X108073858Y-75157695D01*
X108200204Y-75119789D01*
X108287013Y-75093745D01*
X108491507Y-74993564D01*
X108495711Y-74990566D01*
X108495715Y-74990563D01*
X108573683Y-74934949D01*
X108676893Y-74861330D01*
X108838193Y-74700592D01*
X108948528Y-74547044D01*
X109004523Y-74503396D01*
X109075226Y-74496950D01*
X109138191Y-74529753D01*
X109158283Y-74554735D01*
X109195989Y-74616264D01*
X109195992Y-74616269D01*
X109198692Y-74620674D01*
X109347786Y-74792793D01*
X109522989Y-74938249D01*
X109527441Y-74940851D01*
X109527446Y-74940854D01*
X109621540Y-74995838D01*
X109719597Y-75053138D01*
X109932329Y-75134372D01*
X109937395Y-75135403D01*
X109937396Y-75135403D01*
X109943191Y-75136582D01*
X110155472Y-75179771D01*
X110283288Y-75184458D01*
X110377870Y-75187927D01*
X110377875Y-75187927D01*
X110383034Y-75188116D01*
X110388154Y-75187460D01*
X110388156Y-75187460D01*
X110460344Y-75178212D01*
X110608903Y-75159181D01*
X110613852Y-75157696D01*
X110613858Y-75157695D01*
X110740204Y-75119789D01*
X110827013Y-75093745D01*
X111031507Y-74993564D01*
X111035711Y-74990566D01*
X111035715Y-74990563D01*
X111113683Y-74934949D01*
X111216893Y-74861330D01*
X111378193Y-74700592D01*
X111381209Y-74696395D01*
X111381216Y-74696387D01*
X111385301Y-74690702D01*
X111441297Y-74647056D01*
X111512000Y-74640612D01*
X111576716Y-74675136D01*
X111987416Y-75085836D01*
X111993390Y-75091101D01*
X112052076Y-75136582D01*
X112066548Y-75144976D01*
X112185450Y-75194106D01*
X112201593Y-75198371D01*
X112274448Y-75207510D01*
X112282293Y-75208000D01*
X112587885Y-75208000D01*
X112603124Y-75203525D01*
X112604329Y-75202135D01*
X112606000Y-75194452D01*
X112606000Y-73672000D01*
X112626002Y-73603879D01*
X112679658Y-73557386D01*
X112732000Y-73546000D01*
X112988000Y-73546000D01*
X113056121Y-73566002D01*
X113102614Y-73619658D01*
X113114000Y-73672000D01*
X113114000Y-75189884D01*
X113118475Y-75205123D01*
X113119865Y-75206328D01*
X113127548Y-75207999D01*
X113804669Y-75207999D01*
X113811490Y-75207629D01*
X113862352Y-75202105D01*
X113877604Y-75198479D01*
X113998054Y-75153324D01*
X114013649Y-75144786D01*
X114115724Y-75068285D01*
X114128285Y-75055724D01*
X114204786Y-74953649D01*
X114213324Y-74938054D01*
X114243580Y-74857347D01*
X114286222Y-74800583D01*
X114352783Y-74775883D01*
X114422132Y-74791091D01*
X114442042Y-74804629D01*
X114602989Y-74938249D01*
X114607441Y-74940851D01*
X114607446Y-74940854D01*
X114701540Y-74995838D01*
X114799597Y-75053138D01*
X115012329Y-75134372D01*
X115017395Y-75135403D01*
X115017396Y-75135403D01*
X115023191Y-75136582D01*
X115235472Y-75179771D01*
X115363288Y-75184458D01*
X115457870Y-75187927D01*
X115457875Y-75187927D01*
X115463034Y-75188116D01*
X115468154Y-75187460D01*
X115468156Y-75187460D01*
X115540344Y-75178212D01*
X115688903Y-75159181D01*
X115693852Y-75157696D01*
X115693858Y-75157695D01*
X115820204Y-75119789D01*
X115907013Y-75093745D01*
X116111507Y-74993564D01*
X116115711Y-74990566D01*
X116115715Y-74990563D01*
X116193683Y-74934949D01*
X116296893Y-74861330D01*
X116458193Y-74700592D01*
X116461209Y-74696395D01*
X116461216Y-74696387D01*
X116465301Y-74690702D01*
X116521297Y-74647056D01*
X116592000Y-74640612D01*
X116656716Y-74675136D01*
X117067416Y-75085836D01*
X117073390Y-75091101D01*
X117132076Y-75136582D01*
X117146548Y-75144976D01*
X117265450Y-75194106D01*
X117281593Y-75198371D01*
X117354448Y-75207510D01*
X117362293Y-75208000D01*
X117667885Y-75208000D01*
X117683124Y-75203525D01*
X117684329Y-75202135D01*
X117686000Y-75194452D01*
X117686000Y-73672000D01*
X117706002Y-73603879D01*
X117759658Y-73557386D01*
X117812000Y-73546000D01*
X118068000Y-73546000D01*
X118136121Y-73566002D01*
X118182614Y-73619658D01*
X118194000Y-73672000D01*
X118194000Y-75189884D01*
X118198475Y-75205123D01*
X118199865Y-75206328D01*
X118207548Y-75207999D01*
X118884669Y-75207999D01*
X118891490Y-75207629D01*
X118942352Y-75202105D01*
X118957604Y-75198479D01*
X119078054Y-75153324D01*
X119093649Y-75144786D01*
X119195724Y-75068285D01*
X119208285Y-75055724D01*
X119284786Y-74953649D01*
X119293324Y-74938054D01*
X119323580Y-74857347D01*
X119366222Y-74800583D01*
X119432783Y-74775883D01*
X119502132Y-74791091D01*
X119522042Y-74804629D01*
X119682989Y-74938249D01*
X119687441Y-74940851D01*
X119687446Y-74940854D01*
X119781540Y-74995838D01*
X119879597Y-75053138D01*
X120092329Y-75134372D01*
X120097395Y-75135403D01*
X120097396Y-75135403D01*
X120103191Y-75136582D01*
X120315472Y-75179771D01*
X120443288Y-75184458D01*
X120537870Y-75187927D01*
X120537875Y-75187927D01*
X120543034Y-75188116D01*
X120548154Y-75187460D01*
X120548156Y-75187460D01*
X120620344Y-75178212D01*
X120768903Y-75159181D01*
X120773852Y-75157696D01*
X120773858Y-75157695D01*
X120900204Y-75119789D01*
X120987013Y-75093745D01*
X121191507Y-74993564D01*
X121195711Y-74990566D01*
X121195715Y-74990563D01*
X121273683Y-74934949D01*
X121376893Y-74861330D01*
X121538193Y-74700592D01*
X121648528Y-74547044D01*
X121704523Y-74503396D01*
X121775226Y-74496950D01*
X121838191Y-74529753D01*
X121858283Y-74554735D01*
X121895989Y-74616264D01*
X121895992Y-74616269D01*
X121898692Y-74620674D01*
X122047786Y-74792793D01*
X122222989Y-74938249D01*
X122227441Y-74940851D01*
X122227446Y-74940854D01*
X122321540Y-74995838D01*
X122419597Y-75053138D01*
X122632329Y-75134372D01*
X122637395Y-75135403D01*
X122637396Y-75135403D01*
X122643191Y-75136582D01*
X122855472Y-75179771D01*
X122983288Y-75184458D01*
X123077870Y-75187927D01*
X123077875Y-75187927D01*
X123083034Y-75188116D01*
X123088154Y-75187460D01*
X123088156Y-75187460D01*
X123160344Y-75178212D01*
X123308903Y-75159181D01*
X123313852Y-75157696D01*
X123313858Y-75157695D01*
X123440204Y-75119789D01*
X123527013Y-75093745D01*
X123731507Y-74993564D01*
X123735711Y-74990566D01*
X123735715Y-74990563D01*
X123813683Y-74934949D01*
X123916893Y-74861330D01*
X124078193Y-74700592D01*
X124188528Y-74547044D01*
X124244523Y-74503396D01*
X124315226Y-74496950D01*
X124378191Y-74529753D01*
X124398283Y-74554735D01*
X124435989Y-74616264D01*
X124435992Y-74616269D01*
X124438692Y-74620674D01*
X124587786Y-74792793D01*
X124762989Y-74938249D01*
X124767441Y-74940851D01*
X124767446Y-74940854D01*
X124861540Y-74995838D01*
X124959597Y-75053138D01*
X125172329Y-75134372D01*
X125177395Y-75135403D01*
X125177396Y-75135403D01*
X125183191Y-75136582D01*
X125395472Y-75179771D01*
X125523288Y-75184458D01*
X125617870Y-75187927D01*
X125617875Y-75187927D01*
X125623034Y-75188116D01*
X125628154Y-75187460D01*
X125628156Y-75187460D01*
X125700344Y-75178212D01*
X125848903Y-75159181D01*
X125853852Y-75157696D01*
X125853858Y-75157695D01*
X125980204Y-75119789D01*
X126067013Y-75093745D01*
X126271507Y-74993564D01*
X126275711Y-74990566D01*
X126275715Y-74990563D01*
X126353683Y-74934949D01*
X126456893Y-74861330D01*
X126618193Y-74700592D01*
X126751073Y-74515669D01*
X126851967Y-74311526D01*
X126918164Y-74093646D01*
X126930700Y-73998430D01*
X126947450Y-73871201D01*
X126947451Y-73871194D01*
X126947887Y-73867879D01*
X126949546Y-73800000D01*
X126933422Y-73603879D01*
X126931311Y-73578202D01*
X126931310Y-73578196D01*
X126930887Y-73573051D01*
X126875413Y-73352197D01*
X126873354Y-73347461D01*
X126786672Y-73148106D01*
X126786670Y-73148103D01*
X126784612Y-73143369D01*
X126660923Y-72952175D01*
X126592732Y-72877234D01*
X126561681Y-72813388D01*
X126570076Y-72742889D01*
X126615252Y-72688121D01*
X126641696Y-72674452D01*
X126698054Y-72653324D01*
X126713649Y-72644786D01*
X126815724Y-72568285D01*
X126828285Y-72555724D01*
X126904786Y-72453649D01*
X126913324Y-72438054D01*
X126958478Y-72317606D01*
X126962105Y-72302351D01*
X126967631Y-72251486D01*
X126968000Y-72244672D01*
X126968000Y-71572115D01*
X126963525Y-71556876D01*
X126962135Y-71555671D01*
X126954452Y-71554000D01*
X125432000Y-71554000D01*
X125363879Y-71533998D01*
X125317386Y-71480342D01*
X125306000Y-71428000D01*
X125306000Y-71027885D01*
X125814000Y-71027885D01*
X125818475Y-71043124D01*
X125819865Y-71044329D01*
X125827548Y-71046000D01*
X126949884Y-71046000D01*
X126965123Y-71041525D01*
X126966328Y-71040135D01*
X126967999Y-71032452D01*
X126967999Y-70355331D01*
X126967629Y-70348510D01*
X126962105Y-70297648D01*
X126958479Y-70282396D01*
X126913324Y-70161946D01*
X126904786Y-70146351D01*
X126828285Y-70044276D01*
X126815724Y-70031715D01*
X126713649Y-69955214D01*
X126698054Y-69946676D01*
X126577606Y-69901522D01*
X126562351Y-69897895D01*
X126511486Y-69892369D01*
X126504672Y-69892000D01*
X125832115Y-69892000D01*
X125816876Y-69896475D01*
X125815671Y-69897865D01*
X125814000Y-69905548D01*
X125814000Y-71027885D01*
X125306000Y-71027885D01*
X125306000Y-69910116D01*
X125301525Y-69894877D01*
X125300135Y-69893672D01*
X125292452Y-69892001D01*
X124615331Y-69892001D01*
X124608510Y-69892371D01*
X124557648Y-69897895D01*
X124542396Y-69901521D01*
X124421946Y-69946676D01*
X124406351Y-69955214D01*
X124304276Y-70031715D01*
X124291715Y-70044276D01*
X124215214Y-70146351D01*
X124206675Y-70161948D01*
X124176902Y-70241368D01*
X124134261Y-70298133D01*
X124067699Y-70322833D01*
X123998351Y-70307626D01*
X123972992Y-70289293D01*
X123971143Y-70287569D01*
X123967668Y-70283750D01*
X123788963Y-70142618D01*
X123589607Y-70032567D01*
X123473598Y-69991486D01*
X123379829Y-69958280D01*
X123379825Y-69958279D01*
X123374954Y-69956554D01*
X123369861Y-69955647D01*
X123369858Y-69955646D01*
X123155857Y-69917527D01*
X123155851Y-69917526D01*
X123150768Y-69916621D01*
X123063698Y-69915557D01*
X122928239Y-69913902D01*
X122928237Y-69913902D01*
X122923070Y-69913839D01*
X122697976Y-69948283D01*
X122481529Y-70019029D01*
X122279544Y-70124176D01*
X122275411Y-70127279D01*
X122275408Y-70127281D01*
X122101579Y-70257795D01*
X122097444Y-70260900D01*
X121940120Y-70425530D01*
X121916722Y-70459830D01*
X121853784Y-70552094D01*
X121798873Y-70597096D01*
X121728348Y-70605267D01*
X121664601Y-70574013D01*
X121643904Y-70549529D01*
X121642099Y-70546738D01*
X121621375Y-70514704D01*
X121583731Y-70456515D01*
X121583729Y-70456512D01*
X121580923Y-70452175D01*
X121427668Y-70283750D01*
X121248963Y-70142618D01*
X121049607Y-70032567D01*
X120933598Y-69991486D01*
X120839829Y-69958280D01*
X120839825Y-69958279D01*
X120834954Y-69956554D01*
X120829861Y-69955647D01*
X120829858Y-69955646D01*
X120615857Y-69917527D01*
X120615851Y-69917526D01*
X120610768Y-69916621D01*
X120523698Y-69915557D01*
X120388239Y-69913902D01*
X120388237Y-69913902D01*
X120383070Y-69913839D01*
X120157976Y-69948283D01*
X119941529Y-70019029D01*
X119739544Y-70124176D01*
X119735411Y-70127279D01*
X119735408Y-70127281D01*
X119561579Y-70257795D01*
X119557444Y-70260900D01*
X119400120Y-70425530D01*
X119376722Y-70459830D01*
X119313784Y-70552094D01*
X119258873Y-70597096D01*
X119188348Y-70605267D01*
X119124601Y-70574013D01*
X119103904Y-70549529D01*
X119102099Y-70546738D01*
X119081375Y-70514704D01*
X119043731Y-70456515D01*
X119043729Y-70456512D01*
X119040923Y-70452175D01*
X118887668Y-70283750D01*
X118708963Y-70142618D01*
X118509607Y-70032567D01*
X118393598Y-69991486D01*
X118299829Y-69958280D01*
X118299825Y-69958279D01*
X118294954Y-69956554D01*
X118289861Y-69955647D01*
X118289858Y-69955646D01*
X118075857Y-69917527D01*
X118075851Y-69917526D01*
X118070768Y-69916621D01*
X117983698Y-69915557D01*
X117848239Y-69913902D01*
X117848237Y-69913902D01*
X117843070Y-69913839D01*
X117617976Y-69948283D01*
X117401529Y-70019029D01*
X117199544Y-70124176D01*
X117195411Y-70127279D01*
X117195408Y-70127281D01*
X117021579Y-70257795D01*
X117017444Y-70260900D01*
X116860120Y-70425530D01*
X116836722Y-70459830D01*
X116773784Y-70552094D01*
X116718873Y-70597096D01*
X116648348Y-70605267D01*
X116584601Y-70574013D01*
X116563904Y-70549529D01*
X116562099Y-70546738D01*
X116541375Y-70514704D01*
X116503731Y-70456515D01*
X116503729Y-70456512D01*
X116500923Y-70452175D01*
X116347668Y-70283750D01*
X116168963Y-70142618D01*
X115969607Y-70032567D01*
X115853598Y-69991486D01*
X115759829Y-69958280D01*
X115759825Y-69958279D01*
X115754954Y-69956554D01*
X115749861Y-69955647D01*
X115749858Y-69955646D01*
X115535857Y-69917527D01*
X115535851Y-69917526D01*
X115530768Y-69916621D01*
X115443698Y-69915557D01*
X115308239Y-69913902D01*
X115308237Y-69913902D01*
X115303070Y-69913839D01*
X115077976Y-69948283D01*
X114861529Y-70019029D01*
X114659544Y-70124176D01*
X114655411Y-70127279D01*
X114655408Y-70127281D01*
X114481579Y-70257795D01*
X114477444Y-70260900D01*
X114320120Y-70425530D01*
X114296722Y-70459830D01*
X114233784Y-70552094D01*
X114178873Y-70597096D01*
X114108348Y-70605267D01*
X114044601Y-70574013D01*
X114023904Y-70549529D01*
X114022099Y-70546738D01*
X114001375Y-70514704D01*
X113963731Y-70456515D01*
X113963729Y-70456512D01*
X113960923Y-70452175D01*
X113807668Y-70283750D01*
X113628963Y-70142618D01*
X113429607Y-70032567D01*
X113313598Y-69991486D01*
X113219829Y-69958280D01*
X113219825Y-69958279D01*
X113214954Y-69956554D01*
X113209861Y-69955647D01*
X113209858Y-69955646D01*
X112995857Y-69917527D01*
X112995851Y-69917526D01*
X112990768Y-69916621D01*
X112903698Y-69915557D01*
X112768239Y-69913902D01*
X112768237Y-69913902D01*
X112763070Y-69913839D01*
X112537976Y-69948283D01*
X112321529Y-70019029D01*
X112119544Y-70124176D01*
X112115411Y-70127279D01*
X112115408Y-70127281D01*
X111941579Y-70257795D01*
X111937444Y-70260900D01*
X111780120Y-70425530D01*
X111756722Y-70459830D01*
X111693784Y-70552094D01*
X111638873Y-70597096D01*
X111568348Y-70605267D01*
X111504601Y-70574013D01*
X111483904Y-70549529D01*
X111482099Y-70546738D01*
X111461375Y-70514704D01*
X111423731Y-70456515D01*
X111423729Y-70456512D01*
X111420923Y-70452175D01*
X111267668Y-70283750D01*
X111088963Y-70142618D01*
X110889607Y-70032567D01*
X110773598Y-69991486D01*
X110679829Y-69958280D01*
X110679825Y-69958279D01*
X110674954Y-69956554D01*
X110669861Y-69955647D01*
X110669858Y-69955646D01*
X110455857Y-69917527D01*
X110455851Y-69917526D01*
X110450768Y-69916621D01*
X110363698Y-69915557D01*
X110228239Y-69913902D01*
X110228237Y-69913902D01*
X110223070Y-69913839D01*
X109997976Y-69948283D01*
X109781529Y-70019029D01*
X109579544Y-70124176D01*
X109575411Y-70127279D01*
X109575408Y-70127281D01*
X109401579Y-70257795D01*
X109397444Y-70260900D01*
X109373023Y-70286455D01*
X109311502Y-70321885D01*
X109240589Y-70318429D01*
X109182802Y-70277184D01*
X109163948Y-70243634D01*
X109133324Y-70161946D01*
X109124786Y-70146351D01*
X109048285Y-70044276D01*
X109035724Y-70031715D01*
X108933649Y-69955214D01*
X108918054Y-69946676D01*
X108797606Y-69901522D01*
X108782351Y-69897895D01*
X108731486Y-69892369D01*
X108724672Y-69892000D01*
X108052115Y-69892000D01*
X108036876Y-69896475D01*
X108035671Y-69897865D01*
X108034000Y-69905548D01*
X108034000Y-71428000D01*
X108013998Y-71496121D01*
X107960342Y-71542614D01*
X107908000Y-71554000D01*
X107652000Y-71554000D01*
X107583879Y-71533998D01*
X107537386Y-71480342D01*
X107526000Y-71428000D01*
X107526000Y-69910116D01*
X107521525Y-69894877D01*
X107520135Y-69893672D01*
X107512452Y-69892001D01*
X106835331Y-69892001D01*
X106828510Y-69892371D01*
X106777648Y-69897895D01*
X106762396Y-69901521D01*
X106641946Y-69946676D01*
X106626351Y-69955214D01*
X106524276Y-70031715D01*
X106511715Y-70044276D01*
X106435214Y-70146351D01*
X106426675Y-70161948D01*
X106396902Y-70241368D01*
X106354261Y-70298133D01*
X106287699Y-70322833D01*
X106218351Y-70307626D01*
X106192992Y-70289293D01*
X106191142Y-70287568D01*
X106187668Y-70283750D01*
X106183614Y-70280548D01*
X106183613Y-70280547D01*
X106046408Y-70172190D01*
X106005345Y-70114273D01*
X105998500Y-70073308D01*
X105998500Y-67026371D01*
X106018502Y-66958250D01*
X106035405Y-66937276D01*
X117456331Y-55516350D01*
X117519228Y-55482199D01*
X117575824Y-55470169D01*
X117575833Y-55470166D01*
X117582288Y-55468794D01*
X117700080Y-55416350D01*
X117750722Y-55393803D01*
X117750724Y-55393802D01*
X117756752Y-55391118D01*
X117911253Y-55278866D01*
X117920322Y-55268794D01*
X118034621Y-55141852D01*
X118034622Y-55141851D01*
X118039040Y-55136944D01*
X118134527Y-54971556D01*
X118193542Y-54789928D01*
X118194872Y-54777279D01*
X118212814Y-54606565D01*
X118213504Y-54600000D01*
X118193542Y-54410072D01*
X118134527Y-54228444D01*
X118130881Y-54222128D01*
X118097314Y-54163990D01*
X118039040Y-54063056D01*
X117911253Y-53921134D01*
X117780375Y-53826045D01*
X117762094Y-53812763D01*
X117762093Y-53812762D01*
X117756752Y-53808882D01*
X117750724Y-53806198D01*
X117750722Y-53806197D01*
X117588319Y-53733891D01*
X117588318Y-53733891D01*
X117582288Y-53731206D01*
X117488888Y-53711353D01*
X117401944Y-53692872D01*
X117401939Y-53692872D01*
X117395487Y-53691500D01*
X117204513Y-53691500D01*
X117198061Y-53692872D01*
X117198056Y-53692872D01*
X117111112Y-53711353D01*
X117017712Y-53731206D01*
X117011682Y-53733891D01*
X117011681Y-53733891D01*
X116849278Y-53806197D01*
X116849276Y-53806198D01*
X116843248Y-53808882D01*
X116837907Y-53812762D01*
X116837906Y-53812763D01*
X116819625Y-53826045D01*
X116688747Y-53921134D01*
X116560960Y-54063056D01*
X116502686Y-54163990D01*
X116469120Y-54222128D01*
X116465473Y-54228444D01*
X116459300Y-54247444D01*
X116410613Y-54397285D01*
X116379875Y-54447444D01*
X104751089Y-66076230D01*
X104736677Y-66088616D01*
X104725082Y-66097149D01*
X104725077Y-66097154D01*
X104719182Y-66101492D01*
X104714443Y-66107070D01*
X104714440Y-66107073D01*
X104684965Y-66141768D01*
X104678035Y-66149284D01*
X104672340Y-66154979D01*
X104670060Y-66157861D01*
X104654719Y-66177251D01*
X104651928Y-66180655D01*
X104613736Y-66225610D01*
X104604667Y-66236285D01*
X104601339Y-66242801D01*
X104597972Y-66247850D01*
X104594805Y-66252979D01*
X104590266Y-66258716D01*
X104559345Y-66324875D01*
X104557442Y-66328769D01*
X104524231Y-66393808D01*
X104522492Y-66400916D01*
X104520393Y-66406559D01*
X104518476Y-66412322D01*
X104515378Y-66418950D01*
X104513888Y-66426112D01*
X104513888Y-66426113D01*
X104500514Y-66490412D01*
X104499544Y-66494696D01*
X104482192Y-66565610D01*
X104481500Y-66576764D01*
X104481464Y-66576762D01*
X104481225Y-66580755D01*
X104480851Y-66584947D01*
X104479360Y-66592115D01*
X104479558Y-66599432D01*
X104481454Y-66669521D01*
X104481500Y-66672928D01*
X104481500Y-70074765D01*
X104461498Y-70142886D01*
X104431153Y-70175525D01*
X104321579Y-70257795D01*
X104317444Y-70260900D01*
X104160120Y-70425530D01*
X104136722Y-70459830D01*
X104073784Y-70552094D01*
X104018873Y-70597096D01*
X103948348Y-70605267D01*
X103884601Y-70574013D01*
X103863904Y-70549529D01*
X103862099Y-70546738D01*
X103841375Y-70514704D01*
X103803731Y-70456515D01*
X103803729Y-70456512D01*
X103800923Y-70452175D01*
X103647668Y-70283750D01*
X103506408Y-70172190D01*
X103465345Y-70114273D01*
X103458500Y-70073308D01*
X103458500Y-66066371D01*
X103478502Y-65998250D01*
X103495405Y-65977276D01*
X113956331Y-55516350D01*
X114019228Y-55482199D01*
X114075824Y-55470169D01*
X114075833Y-55470166D01*
X114082288Y-55468794D01*
X114200080Y-55416350D01*
X114250722Y-55393803D01*
X114250724Y-55393802D01*
X114256752Y-55391118D01*
X114411253Y-55278866D01*
X114420322Y-55268794D01*
X114534621Y-55141852D01*
X114534622Y-55141851D01*
X114539040Y-55136944D01*
X114634527Y-54971556D01*
X114693542Y-54789928D01*
X114694872Y-54777279D01*
X114712814Y-54606565D01*
X114713504Y-54600000D01*
X114693542Y-54410072D01*
X114634527Y-54228444D01*
X114630881Y-54222128D01*
X114597314Y-54163990D01*
X114539040Y-54063056D01*
X114411253Y-53921134D01*
X114280375Y-53826045D01*
X114262094Y-53812763D01*
X114262093Y-53812762D01*
X114256752Y-53808882D01*
X114250724Y-53806198D01*
X114250722Y-53806197D01*
X114088319Y-53733891D01*
X114088318Y-53733891D01*
X114082288Y-53731206D01*
X113988888Y-53711353D01*
X113901944Y-53692872D01*
X113901939Y-53692872D01*
X113895487Y-53691500D01*
X113704513Y-53691500D01*
X113698061Y-53692872D01*
X113698056Y-53692872D01*
X113611112Y-53711353D01*
X113517712Y-53731206D01*
X113511682Y-53733891D01*
X113511681Y-53733891D01*
X113349278Y-53806197D01*
X113349276Y-53806198D01*
X113343248Y-53808882D01*
X113337907Y-53812762D01*
X113337906Y-53812763D01*
X113319625Y-53826045D01*
X113188747Y-53921134D01*
X113060960Y-54063056D01*
X113002686Y-54163990D01*
X112969120Y-54222128D01*
X112965473Y-54228444D01*
X112959300Y-54247444D01*
X112910613Y-54397285D01*
X112879875Y-54447444D01*
X102211089Y-65116230D01*
X102196677Y-65128616D01*
X102185082Y-65137149D01*
X102185077Y-65137154D01*
X102179182Y-65141492D01*
X102174443Y-65147070D01*
X102174440Y-65147073D01*
X102144965Y-65181768D01*
X102138035Y-65189284D01*
X102132340Y-65194979D01*
X102130060Y-65197861D01*
X102114719Y-65217251D01*
X102111928Y-65220655D01*
X102069409Y-65270703D01*
X102064667Y-65276285D01*
X102061339Y-65282801D01*
X102057972Y-65287850D01*
X102054805Y-65292979D01*
X102050266Y-65298716D01*
X102019345Y-65364875D01*
X102017442Y-65368769D01*
X101984231Y-65433808D01*
X101982492Y-65440916D01*
X101980393Y-65446559D01*
X101978476Y-65452322D01*
X101975378Y-65458950D01*
X101973888Y-65466112D01*
X101973888Y-65466113D01*
X101960514Y-65530412D01*
X101959544Y-65534696D01*
X101942192Y-65605610D01*
X101941500Y-65616764D01*
X101941464Y-65616762D01*
X101941225Y-65620755D01*
X101940851Y-65624947D01*
X101939360Y-65632115D01*
X101939558Y-65639432D01*
X101941454Y-65709521D01*
X101941500Y-65712928D01*
X101941500Y-70074765D01*
X101921498Y-70142886D01*
X101891153Y-70175525D01*
X101781579Y-70257795D01*
X101777444Y-70260900D01*
X101620120Y-70425530D01*
X101596722Y-70459830D01*
X101533784Y-70552094D01*
X101478873Y-70597096D01*
X101408348Y-70605267D01*
X101344601Y-70574013D01*
X101323904Y-70549529D01*
X101322099Y-70546738D01*
X101301375Y-70514704D01*
X101263731Y-70456515D01*
X101263729Y-70456512D01*
X101260923Y-70452175D01*
X101107668Y-70283750D01*
X100966408Y-70172190D01*
X100925345Y-70114273D01*
X100918500Y-70073308D01*
X100918500Y-65106371D01*
X100938502Y-65038250D01*
X100955405Y-65017276D01*
X110556331Y-55416350D01*
X110619228Y-55382199D01*
X110675824Y-55370169D01*
X110675833Y-55370166D01*
X110682288Y-55368794D01*
X110800080Y-55316350D01*
X110850722Y-55293803D01*
X110850724Y-55293802D01*
X110856752Y-55291118D01*
X110873616Y-55278866D01*
X110990694Y-55193803D01*
X111011253Y-55178866D01*
X111139040Y-55036944D01*
X111234527Y-54871556D01*
X111293542Y-54689928D01*
X111303393Y-54596206D01*
X111312814Y-54506565D01*
X111313504Y-54500000D01*
X111307980Y-54447444D01*
X111294232Y-54316635D01*
X111294232Y-54316633D01*
X111293542Y-54310072D01*
X111234527Y-54128444D01*
X111139040Y-53963056D01*
X111011253Y-53821134D01*
X110880375Y-53726045D01*
X110862094Y-53712763D01*
X110862093Y-53712762D01*
X110856752Y-53708882D01*
X110850724Y-53706198D01*
X110850722Y-53706197D01*
X110688319Y-53633891D01*
X110688318Y-53633891D01*
X110682288Y-53631206D01*
X110588888Y-53611353D01*
X110501944Y-53592872D01*
X110501939Y-53592872D01*
X110495487Y-53591500D01*
X110304513Y-53591500D01*
X110298061Y-53592872D01*
X110298056Y-53592872D01*
X110211112Y-53611353D01*
X110117712Y-53631206D01*
X110111682Y-53633891D01*
X110111681Y-53633891D01*
X109949278Y-53706197D01*
X109949276Y-53706198D01*
X109943248Y-53708882D01*
X109937907Y-53712762D01*
X109937906Y-53712763D01*
X109919625Y-53726045D01*
X109788747Y-53821134D01*
X109660960Y-53963056D01*
X109565473Y-54128444D01*
X109563431Y-54134729D01*
X109510613Y-54297285D01*
X109479875Y-54347444D01*
X99671089Y-64156230D01*
X99656677Y-64168616D01*
X99645082Y-64177149D01*
X99645077Y-64177154D01*
X99639182Y-64181492D01*
X99634443Y-64187070D01*
X99634440Y-64187073D01*
X99604965Y-64221768D01*
X99598035Y-64229284D01*
X99592340Y-64234979D01*
X99590060Y-64237861D01*
X99574719Y-64257251D01*
X99571928Y-64260655D01*
X99533736Y-64305610D01*
X99524667Y-64316285D01*
X99521339Y-64322801D01*
X99517972Y-64327850D01*
X99514805Y-64332979D01*
X99510266Y-64338716D01*
X99479345Y-64404875D01*
X99477442Y-64408769D01*
X99444231Y-64473808D01*
X99442492Y-64480916D01*
X99440393Y-64486559D01*
X99438476Y-64492322D01*
X99435378Y-64498950D01*
X99433888Y-64506112D01*
X99433888Y-64506113D01*
X99420514Y-64570412D01*
X99419544Y-64574696D01*
X99402192Y-64645610D01*
X99401500Y-64656764D01*
X99401464Y-64656762D01*
X99401225Y-64660755D01*
X99400851Y-64664947D01*
X99399360Y-64672115D01*
X99399558Y-64679432D01*
X99401454Y-64749521D01*
X99401500Y-64752928D01*
X99401500Y-70074765D01*
X99381498Y-70142886D01*
X99351153Y-70175525D01*
X99241579Y-70257795D01*
X99237444Y-70260900D01*
X99080120Y-70425530D01*
X99056722Y-70459830D01*
X98993784Y-70552094D01*
X98938873Y-70597096D01*
X98868348Y-70605267D01*
X98804601Y-70574013D01*
X98783904Y-70549529D01*
X98782099Y-70546738D01*
X98761375Y-70514704D01*
X98723731Y-70456515D01*
X98723729Y-70456512D01*
X98720923Y-70452175D01*
X98567668Y-70283750D01*
X98388963Y-70142618D01*
X98189607Y-70032567D01*
X98073598Y-69991486D01*
X97979829Y-69958280D01*
X97979825Y-69958279D01*
X97974954Y-69956554D01*
X97969861Y-69955647D01*
X97969858Y-69955646D01*
X97755857Y-69917527D01*
X97755851Y-69917526D01*
X97750768Y-69916621D01*
X97663698Y-69915557D01*
X97528239Y-69913902D01*
X97528237Y-69913902D01*
X97523070Y-69913839D01*
X97297976Y-69948283D01*
X97081529Y-70019029D01*
X96879544Y-70124176D01*
X96875411Y-70127279D01*
X96875408Y-70127281D01*
X96701579Y-70257795D01*
X96697444Y-70260900D01*
X96540120Y-70425530D01*
X96516722Y-70459830D01*
X96453784Y-70552094D01*
X96398873Y-70597096D01*
X96328348Y-70605267D01*
X96264601Y-70574013D01*
X96243904Y-70549529D01*
X96242099Y-70546738D01*
X96221375Y-70514704D01*
X96183731Y-70456515D01*
X96183729Y-70456512D01*
X96180923Y-70452175D01*
X96027668Y-70283750D01*
X95886408Y-70172190D01*
X95845345Y-70114273D01*
X95838500Y-70073308D01*
X95838500Y-66686371D01*
X95858502Y-66618250D01*
X95875405Y-66597276D01*
X107056331Y-55416350D01*
X107119228Y-55382199D01*
X107175824Y-55370169D01*
X107175833Y-55370166D01*
X107182288Y-55368794D01*
X107300080Y-55316350D01*
X107350722Y-55293803D01*
X107350724Y-55293802D01*
X107356752Y-55291118D01*
X107373616Y-55278866D01*
X107490694Y-55193803D01*
X107511253Y-55178866D01*
X107639040Y-55036944D01*
X107734527Y-54871556D01*
X107793542Y-54689928D01*
X107803393Y-54596206D01*
X107812814Y-54506565D01*
X107813504Y-54500000D01*
X107807980Y-54447444D01*
X107794232Y-54316635D01*
X107794232Y-54316633D01*
X107793542Y-54310072D01*
X107734527Y-54128444D01*
X107639040Y-53963056D01*
X107511253Y-53821134D01*
X107380375Y-53726045D01*
X107362094Y-53712763D01*
X107362093Y-53712762D01*
X107356752Y-53708882D01*
X107350724Y-53706198D01*
X107350722Y-53706197D01*
X107188319Y-53633891D01*
X107188318Y-53633891D01*
X107182288Y-53631206D01*
X107088888Y-53611353D01*
X107001944Y-53592872D01*
X107001939Y-53592872D01*
X106995487Y-53591500D01*
X106804513Y-53591500D01*
X106798061Y-53592872D01*
X106798056Y-53592872D01*
X106711112Y-53611353D01*
X106617712Y-53631206D01*
X106611682Y-53633891D01*
X106611681Y-53633891D01*
X106449278Y-53706197D01*
X106449276Y-53706198D01*
X106443248Y-53708882D01*
X106437907Y-53712762D01*
X106437906Y-53712763D01*
X106419625Y-53726045D01*
X106288747Y-53821134D01*
X106160960Y-53963056D01*
X106065473Y-54128444D01*
X106063431Y-54134729D01*
X106010613Y-54297285D01*
X105979875Y-54347444D01*
X94591089Y-65736230D01*
X94576677Y-65748616D01*
X94565082Y-65757149D01*
X94565077Y-65757154D01*
X94559182Y-65761492D01*
X94554443Y-65767070D01*
X94554440Y-65767073D01*
X94524965Y-65801768D01*
X94518035Y-65809284D01*
X94512340Y-65814979D01*
X94510060Y-65817861D01*
X94494719Y-65837251D01*
X94491928Y-65840655D01*
X94449409Y-65890703D01*
X94444667Y-65896285D01*
X94441339Y-65902801D01*
X94437972Y-65907850D01*
X94434805Y-65912979D01*
X94430266Y-65918716D01*
X94399345Y-65984875D01*
X94397442Y-65988769D01*
X94364231Y-66053808D01*
X94362492Y-66060916D01*
X94360393Y-66066559D01*
X94358476Y-66072322D01*
X94355378Y-66078950D01*
X94353888Y-66086112D01*
X94353888Y-66086113D01*
X94340514Y-66150412D01*
X94339544Y-66154696D01*
X94322192Y-66225610D01*
X94321500Y-66236764D01*
X94321464Y-66236762D01*
X94321225Y-66240755D01*
X94320851Y-66244947D01*
X94319360Y-66252115D01*
X94319558Y-66259432D01*
X94321454Y-66329521D01*
X94321500Y-66332928D01*
X94321500Y-70074765D01*
X94301498Y-70142886D01*
X94271153Y-70175525D01*
X94161579Y-70257795D01*
X94157444Y-70260900D01*
X94000120Y-70425530D01*
X93976722Y-70459830D01*
X93913784Y-70552094D01*
X93858873Y-70597096D01*
X93788348Y-70605267D01*
X93724601Y-70574013D01*
X93703904Y-70549529D01*
X93702099Y-70546738D01*
X93681375Y-70514704D01*
X93643731Y-70456515D01*
X93643729Y-70456512D01*
X93640923Y-70452175D01*
X93487668Y-70283750D01*
X93346408Y-70172190D01*
X93305345Y-70114273D01*
X93298500Y-70073308D01*
X93298500Y-65626371D01*
X93318502Y-65558250D01*
X93335405Y-65537276D01*
X103556331Y-55316350D01*
X103619228Y-55282199D01*
X103675824Y-55270169D01*
X103675833Y-55270166D01*
X103682288Y-55268794D01*
X103688319Y-55266109D01*
X103850722Y-55193803D01*
X103850724Y-55193802D01*
X103856752Y-55191118D01*
X103873616Y-55178866D01*
X103912157Y-55150864D01*
X104011253Y-55078866D01*
X104139040Y-54936944D01*
X104234527Y-54771556D01*
X104293542Y-54589928D01*
X104308518Y-54447444D01*
X104312814Y-54406565D01*
X104313504Y-54400000D01*
X104307980Y-54347444D01*
X104294232Y-54216635D01*
X104294232Y-54216633D01*
X104293542Y-54210072D01*
X104234527Y-54028444D01*
X104139040Y-53863056D01*
X104022740Y-53733891D01*
X104015675Y-53726045D01*
X104015674Y-53726044D01*
X104011253Y-53721134D01*
X103856752Y-53608882D01*
X103850724Y-53606198D01*
X103850722Y-53606197D01*
X103688319Y-53533891D01*
X103688318Y-53533891D01*
X103682288Y-53531206D01*
X103588888Y-53511353D01*
X103501944Y-53492872D01*
X103501939Y-53492872D01*
X103495487Y-53491500D01*
X103304513Y-53491500D01*
X103298061Y-53492872D01*
X103298056Y-53492872D01*
X103211112Y-53511353D01*
X103117712Y-53531206D01*
X103111682Y-53533891D01*
X103111681Y-53533891D01*
X102949278Y-53606197D01*
X102949276Y-53606198D01*
X102943248Y-53608882D01*
X102788747Y-53721134D01*
X102784326Y-53726044D01*
X102784325Y-53726045D01*
X102777261Y-53733891D01*
X102660960Y-53863056D01*
X102565473Y-54028444D01*
X102563432Y-54034726D01*
X102563431Y-54034729D01*
X102510613Y-54197285D01*
X102479875Y-54247444D01*
X92051089Y-64676230D01*
X92036677Y-64688616D01*
X92025082Y-64697149D01*
X92025077Y-64697154D01*
X92019182Y-64701492D01*
X92014443Y-64707070D01*
X92014440Y-64707073D01*
X91984965Y-64741768D01*
X91978035Y-64749284D01*
X91972340Y-64754979D01*
X91970060Y-64757861D01*
X91954719Y-64777251D01*
X91951928Y-64780655D01*
X91909409Y-64830703D01*
X91904667Y-64836285D01*
X91901339Y-64842801D01*
X91897972Y-64847850D01*
X91894805Y-64852979D01*
X91890266Y-64858716D01*
X91859345Y-64924875D01*
X91857442Y-64928769D01*
X91824231Y-64993808D01*
X91822492Y-65000916D01*
X91820393Y-65006559D01*
X91818476Y-65012322D01*
X91815378Y-65018950D01*
X91813888Y-65026112D01*
X91813888Y-65026113D01*
X91800514Y-65090412D01*
X91799544Y-65094696D01*
X91782192Y-65165610D01*
X91781500Y-65176764D01*
X91781464Y-65176762D01*
X91781225Y-65180755D01*
X91780851Y-65184947D01*
X91779360Y-65192115D01*
X91779558Y-65199432D01*
X91781454Y-65269521D01*
X91781500Y-65272928D01*
X91781500Y-70074765D01*
X91761498Y-70142886D01*
X91731153Y-70175525D01*
X91621579Y-70257795D01*
X91617444Y-70260900D01*
X91460120Y-70425530D01*
X91436722Y-70459830D01*
X91373784Y-70552094D01*
X91318873Y-70597096D01*
X91248348Y-70605267D01*
X91184601Y-70574013D01*
X91163904Y-70549529D01*
X91162099Y-70546738D01*
X91141375Y-70514704D01*
X91103731Y-70456515D01*
X91103729Y-70456512D01*
X91100923Y-70452175D01*
X90947668Y-70283750D01*
X90806408Y-70172190D01*
X90765345Y-70114273D01*
X90758500Y-70073308D01*
X90758500Y-64766371D01*
X90778502Y-64698250D01*
X90795405Y-64677276D01*
X100156331Y-55316350D01*
X100219228Y-55282199D01*
X100275824Y-55270169D01*
X100275833Y-55270166D01*
X100282288Y-55268794D01*
X100288319Y-55266109D01*
X100450722Y-55193803D01*
X100450724Y-55193802D01*
X100456752Y-55191118D01*
X100473616Y-55178866D01*
X100512157Y-55150864D01*
X100611253Y-55078866D01*
X100739040Y-54936944D01*
X100834527Y-54771556D01*
X100893542Y-54589928D01*
X100908518Y-54447444D01*
X100912814Y-54406565D01*
X100913504Y-54400000D01*
X100907980Y-54347444D01*
X100894232Y-54216635D01*
X100894232Y-54216633D01*
X100893542Y-54210072D01*
X100834527Y-54028444D01*
X100739040Y-53863056D01*
X100622740Y-53733891D01*
X100615675Y-53726045D01*
X100615674Y-53726044D01*
X100611253Y-53721134D01*
X100456752Y-53608882D01*
X100450724Y-53606198D01*
X100450722Y-53606197D01*
X100288319Y-53533891D01*
X100288318Y-53533891D01*
X100282288Y-53531206D01*
X100188888Y-53511353D01*
X100101944Y-53492872D01*
X100101939Y-53492872D01*
X100095487Y-53491500D01*
X99904513Y-53491500D01*
X99898061Y-53492872D01*
X99898056Y-53492872D01*
X99811112Y-53511353D01*
X99717712Y-53531206D01*
X99711682Y-53533891D01*
X99711681Y-53533891D01*
X99549278Y-53606197D01*
X99549276Y-53606198D01*
X99543248Y-53608882D01*
X99388747Y-53721134D01*
X99384326Y-53726044D01*
X99384325Y-53726045D01*
X99377261Y-53733891D01*
X99260960Y-53863056D01*
X99165473Y-54028444D01*
X99163432Y-54034726D01*
X99110612Y-54197288D01*
X99079874Y-54247446D01*
X89511089Y-63816230D01*
X89496677Y-63828616D01*
X89485082Y-63837149D01*
X89485077Y-63837154D01*
X89479182Y-63841492D01*
X89474443Y-63847070D01*
X89474440Y-63847073D01*
X89444965Y-63881768D01*
X89438035Y-63889284D01*
X89432340Y-63894979D01*
X89430060Y-63897861D01*
X89414719Y-63917251D01*
X89411928Y-63920655D01*
X89369409Y-63970703D01*
X89364667Y-63976285D01*
X89361339Y-63982801D01*
X89357972Y-63987850D01*
X89354805Y-63992979D01*
X89350266Y-63998716D01*
X89319345Y-64064875D01*
X89317442Y-64068769D01*
X89284231Y-64133808D01*
X89282492Y-64140916D01*
X89280393Y-64146559D01*
X89278476Y-64152322D01*
X89275378Y-64158950D01*
X89273888Y-64166112D01*
X89273888Y-64166113D01*
X89260514Y-64230412D01*
X89259544Y-64234696D01*
X89242192Y-64305610D01*
X89241500Y-64316764D01*
X89241464Y-64316762D01*
X89241225Y-64320755D01*
X89240851Y-64324947D01*
X89239360Y-64332115D01*
X89239558Y-64339432D01*
X89241454Y-64409521D01*
X89241500Y-64412928D01*
X89241500Y-70074765D01*
X89221498Y-70142886D01*
X89191153Y-70175525D01*
X89081579Y-70257795D01*
X89077444Y-70260900D01*
X89053023Y-70286455D01*
X88991502Y-70321885D01*
X88920589Y-70318429D01*
X88862802Y-70277184D01*
X88843948Y-70243634D01*
X88813324Y-70161946D01*
X88804786Y-70146351D01*
X88728285Y-70044276D01*
X88715724Y-70031715D01*
X88613649Y-69955214D01*
X88598054Y-69946676D01*
X88477606Y-69901522D01*
X88462351Y-69897895D01*
X88411486Y-69892369D01*
X88404672Y-69892000D01*
X87732115Y-69892000D01*
X87716876Y-69896475D01*
X87715671Y-69897865D01*
X87714000Y-69905548D01*
X87714000Y-71428000D01*
X87693998Y-71496121D01*
X87640342Y-71542614D01*
X87588000Y-71554000D01*
X87332000Y-71554000D01*
X87263879Y-71533998D01*
X87217386Y-71480342D01*
X87206000Y-71428000D01*
X87206000Y-69910116D01*
X87201525Y-69894877D01*
X87200135Y-69893672D01*
X87192452Y-69892001D01*
X86515331Y-69892001D01*
X86508510Y-69892371D01*
X86457648Y-69897895D01*
X86442396Y-69901521D01*
X86321946Y-69946676D01*
X86306351Y-69955214D01*
X86204276Y-70031715D01*
X86191715Y-70044276D01*
X86115214Y-70146351D01*
X86106675Y-70161948D01*
X86076902Y-70241368D01*
X86034261Y-70298133D01*
X85967699Y-70322833D01*
X85898351Y-70307626D01*
X85872992Y-70289293D01*
X85871143Y-70287569D01*
X85867668Y-70283750D01*
X85688963Y-70142618D01*
X85489607Y-70032567D01*
X85373598Y-69991486D01*
X85279829Y-69958280D01*
X85279825Y-69958279D01*
X85274954Y-69956554D01*
X85269861Y-69955647D01*
X85269858Y-69955646D01*
X85055857Y-69917527D01*
X85055851Y-69917526D01*
X85050768Y-69916621D01*
X84963698Y-69915557D01*
X84828239Y-69913902D01*
X84828237Y-69913902D01*
X84823070Y-69913839D01*
X84597976Y-69948283D01*
X84381529Y-70019029D01*
X84179544Y-70124176D01*
X84175411Y-70127279D01*
X84175408Y-70127281D01*
X84001579Y-70257795D01*
X83997444Y-70260900D01*
X83840120Y-70425530D01*
X83816722Y-70459830D01*
X83753784Y-70552094D01*
X83698873Y-70597096D01*
X83628348Y-70605267D01*
X83564601Y-70574013D01*
X83543904Y-70549529D01*
X83542099Y-70546738D01*
X83521375Y-70514704D01*
X83483731Y-70456515D01*
X83483729Y-70456512D01*
X83480923Y-70452175D01*
X83327668Y-70283750D01*
X83148963Y-70142618D01*
X82949607Y-70032567D01*
X82833598Y-69991486D01*
X82739829Y-69958280D01*
X82739825Y-69958279D01*
X82734954Y-69956554D01*
X82729861Y-69955647D01*
X82729858Y-69955646D01*
X82515857Y-69917527D01*
X82515851Y-69917526D01*
X82510768Y-69916621D01*
X82423698Y-69915557D01*
X82288239Y-69913902D01*
X82288237Y-69913902D01*
X82283070Y-69913839D01*
X82057976Y-69948283D01*
X81841529Y-70019029D01*
X81639544Y-70124176D01*
X81635411Y-70127279D01*
X81635408Y-70127281D01*
X81461579Y-70257795D01*
X81457444Y-70260900D01*
X81300120Y-70425530D01*
X81276722Y-70459830D01*
X81213784Y-70552094D01*
X81158873Y-70597096D01*
X81088348Y-70605267D01*
X81024601Y-70574013D01*
X81003904Y-70549529D01*
X81002099Y-70546738D01*
X80981375Y-70514704D01*
X80943731Y-70456515D01*
X80943729Y-70456512D01*
X80940923Y-70452175D01*
X80787668Y-70283750D01*
X80608963Y-70142618D01*
X80409607Y-70032567D01*
X80293598Y-69991486D01*
X80199829Y-69958280D01*
X80199825Y-69958279D01*
X80194954Y-69956554D01*
X80189861Y-69955647D01*
X80189858Y-69955646D01*
X79975857Y-69917527D01*
X79975851Y-69917526D01*
X79970768Y-69916621D01*
X79883698Y-69915557D01*
X79748239Y-69913902D01*
X79748237Y-69913902D01*
X79743070Y-69913839D01*
X79517976Y-69948283D01*
X79301529Y-70019029D01*
X79099544Y-70124176D01*
X79095411Y-70127279D01*
X79095408Y-70127281D01*
X78921579Y-70257795D01*
X78917444Y-70260900D01*
X78760120Y-70425530D01*
X78736722Y-70459830D01*
X78673784Y-70552094D01*
X78618873Y-70597096D01*
X78548348Y-70605267D01*
X78484601Y-70574013D01*
X78463904Y-70549529D01*
X78462099Y-70546738D01*
X78441375Y-70514704D01*
X78403731Y-70456515D01*
X78403729Y-70456512D01*
X78400923Y-70452175D01*
X78247668Y-70283750D01*
X78068963Y-70142618D01*
X77869607Y-70032567D01*
X77753598Y-69991486D01*
X77659829Y-69958280D01*
X77659825Y-69958279D01*
X77654954Y-69956554D01*
X77649861Y-69955647D01*
X77649858Y-69955646D01*
X77435857Y-69917527D01*
X77435851Y-69917526D01*
X77430768Y-69916621D01*
X77343698Y-69915557D01*
X77208239Y-69913902D01*
X77208237Y-69913902D01*
X77203070Y-69913839D01*
X76977976Y-69948283D01*
X76761529Y-70019029D01*
X76559544Y-70124176D01*
X76555411Y-70127279D01*
X76555408Y-70127281D01*
X76509239Y-70161946D01*
X76377444Y-70260900D01*
X76377305Y-70260714D01*
X76315189Y-70289992D01*
X76295754Y-70291500D01*
X74261843Y-70291500D01*
X74248236Y-70290763D01*
X74216738Y-70287341D01*
X74216733Y-70287341D01*
X74210612Y-70286676D01*
X74184362Y-70288973D01*
X74160612Y-70291050D01*
X74155786Y-70291379D01*
X74153314Y-70291500D01*
X74150231Y-70291500D01*
X74138262Y-70292674D01*
X74107494Y-70295690D01*
X74106181Y-70295812D01*
X74061916Y-70299685D01*
X74013587Y-70303913D01*
X74008468Y-70305400D01*
X74003167Y-70305920D01*
X73914166Y-70332791D01*
X73913033Y-70333126D01*
X73829586Y-70357370D01*
X73829582Y-70357372D01*
X73823664Y-70359091D01*
X73818932Y-70361544D01*
X73813831Y-70363084D01*
X73808388Y-70365978D01*
X73731740Y-70406731D01*
X73730574Y-70407343D01*
X73702698Y-70421793D01*
X73648074Y-70450108D01*
X73643911Y-70453431D01*
X73639204Y-70455934D01*
X73567082Y-70514755D01*
X73566226Y-70515446D01*
X73527027Y-70546738D01*
X73524523Y-70549242D01*
X73523805Y-70549884D01*
X73519472Y-70553585D01*
X73485938Y-70580935D01*
X73482011Y-70585682D01*
X73482009Y-70585684D01*
X73456713Y-70616262D01*
X73448723Y-70625042D01*
X72130621Y-71943145D01*
X72120478Y-71952247D01*
X72090975Y-71975968D01*
X72087008Y-71980696D01*
X72058709Y-72014421D01*
X72055528Y-72018069D01*
X72053885Y-72019881D01*
X72051691Y-72022075D01*
X72024358Y-72055349D01*
X72023696Y-72056147D01*
X71963846Y-72127474D01*
X71961278Y-72132144D01*
X71957897Y-72136261D01*
X71952109Y-72147056D01*
X71914023Y-72218086D01*
X71913394Y-72219245D01*
X71871538Y-72295381D01*
X71871535Y-72295389D01*
X71868567Y-72300787D01*
X71866955Y-72305869D01*
X71864438Y-72310563D01*
X71837238Y-72399531D01*
X71836918Y-72400559D01*
X71808765Y-72489306D01*
X71808171Y-72494602D01*
X71806613Y-72499698D01*
X71800313Y-72561722D01*
X71797218Y-72592187D01*
X71797089Y-72593393D01*
X71791500Y-72643227D01*
X71791500Y-72646754D01*
X71791445Y-72647739D01*
X71790998Y-72653419D01*
X71786626Y-72696462D01*
X69740000Y-72696462D01*
X69740000Y-45826000D01*
X69760002Y-45757879D01*
X69813658Y-45711386D01*
X69866000Y-45700000D01*
X141365500Y-45700000D01*
X141433621Y-45720002D01*
G37*
%TD.AperFunction*%
%TD*%
M02*
