%FSLAX45Y45*%
G04 Gerber Fmt 4.5, Leading zero omitted, Abs format (unit mm)*
G04 Created by KiCad (PCBNEW (6.0.4)) date 2022-07-25 21:27:22*
%MOMM*%
%LPD*%
G01*
G04 APERTURE LIST*
%TA.AperFunction,Profile*%
%ADD10C,0.050000*%
%TD*%
%ADD11C,0.200000*%
%ADD12C,0.080000*%
%ADD13C,0.170000*%
%ADD14C,0.325000*%
%ADD15C,0.350000*%
%ADD16C,0.400000*%
G04 APERTURE END LIST*
D10*
X4410000Y-8460000D02*
G75*
G03*
X4210000Y-8660000I0J-200000D01*
G01*
X12220000Y-8460060D02*
G75*
G03*
X12160000Y-8520062I0J-60000D01*
G01*
X11960000Y-9120000D02*
G75*
G03*
X12160000Y-8920000I0J200000D01*
G01*
X9885000Y-8590000D02*
G75*
G03*
X9885000Y-8460000I0J65000D01*
G01*
X14000000Y-2050000D02*
X2200000Y-2050000D01*
X2000000Y-2250000D02*
X2000000Y-9780000D01*
X4400000Y-8590000D02*
G75*
G03*
X4340000Y-8650000I0J-60000D01*
G01*
X10910000Y-8460000D02*
X10315000Y-8460000D01*
X4010000Y-9980000D02*
G75*
G03*
X4210000Y-9780000I0J200000D01*
G01*
X10980000Y-8650000D02*
G75*
G03*
X10920000Y-8590000I-60000J0D01*
G01*
X4340000Y-9570000D02*
X4340000Y-10530000D01*
X9885000Y-8460000D02*
X4410000Y-8460000D01*
X4400000Y-10590000D02*
X10920000Y-10590000D01*
X14000000Y-8460000D02*
G75*
G03*
X14200000Y-8260000I0J200000D01*
G01*
X4010000Y-9980000D02*
X2200000Y-9980000D01*
X10315000Y-8590000D02*
X10920000Y-8590000D01*
X11110000Y-8660000D02*
G75*
G03*
X10910000Y-8460000I-200000J0D01*
G01*
X5330000Y-8590000D02*
X4400000Y-8590000D01*
X10980000Y-10530000D02*
X10980000Y-8650000D01*
X14200000Y-8260000D02*
X14200000Y-2250000D01*
X11110000Y-8920000D02*
X11110000Y-8660000D01*
X9885000Y-8590000D02*
X5330000Y-8590000D01*
X14000000Y-8460000D02*
X12220000Y-8460062D01*
X4210000Y-9570000D02*
X4210000Y-9780000D01*
X12160000Y-8520062D02*
X12160000Y-8920000D01*
X14200000Y-2250000D02*
G75*
G03*
X14000000Y-2050000I-200000J0D01*
G01*
X11960000Y-9120000D02*
X11310000Y-9120000D01*
X2200000Y-2050000D02*
G75*
G03*
X2000000Y-2250000I0J-200000D01*
G01*
X10920000Y-10590000D02*
G75*
G03*
X10980000Y-10530000I0J60000D01*
G01*
X4340000Y-9570000D02*
G75*
G03*
X4210000Y-9570000I-65000J0D01*
G01*
X10315000Y-8460000D02*
G75*
G03*
X10315000Y-8590000I0J-65000D01*
G01*
X4210000Y-8660000D02*
X4210000Y-9140000D01*
X4340000Y-10530000D02*
G75*
G03*
X4400000Y-10590000I60000J0D01*
G01*
X2000000Y-9780000D02*
G75*
G03*
X2200000Y-9980000I200000J0D01*
G01*
X4210000Y-9140000D02*
G75*
G03*
X4340000Y-9140000I65000J0D01*
G01*
X11110000Y-8920000D02*
G75*
G03*
X11310000Y-9120000I200000J0D01*
G01*
X4340000Y-8650000D02*
X4340000Y-9140000D01*
D11*
D12*
X4510000Y-2125000D02*
X4590000Y-2205000D01*
X4590000Y-2125000D02*
X4510000Y-2205000D01*
X4510000Y-2825000D02*
X4590000Y-2905000D01*
X4590000Y-2825000D02*
X4510000Y-2905000D01*
D13*
X2960000Y-2382500D02*
G75*
G03*
X2960000Y-2382500I-85000J0D01*
G01*
X3660000Y-2382500D02*
G75*
G03*
X3660000Y-2382500I-85000J0D01*
G01*
D14*
X5790000Y-10077500D02*
X5790000Y-10402500D01*
X5627500Y-10240000D02*
X5952500Y-10240000D01*
X8920000Y-10077500D02*
X8920000Y-10402500D01*
X8757500Y-10240000D02*
X9082500Y-10240000D01*
D15*
X11923745Y-8773745D02*
X11923745Y-8526255D01*
X11676255Y-8526255D01*
X11676255Y-8773745D01*
X11923745Y-8773745D01*
D16*
X3300000Y-9300000D02*
X3500000Y-9100000D01*
X3300000Y-8900000D01*
X3100000Y-9100000D01*
X3300000Y-9300000D01*
D11*
X2255119Y-10902976D02*
X2255119Y-10702976D01*
X2302738Y-10702976D01*
X2331310Y-10712500D01*
X2350357Y-10731548D01*
X2359881Y-10750595D01*
X2369405Y-10788690D01*
X2369405Y-10817262D01*
X2359881Y-10855357D01*
X2350357Y-10874405D01*
X2331310Y-10893452D01*
X2302738Y-10902976D01*
X2255119Y-10902976D01*
X2455119Y-10902976D02*
X2455119Y-10769643D01*
X2455119Y-10807738D02*
X2464643Y-10788690D01*
X2474167Y-10779167D01*
X2493214Y-10769643D01*
X2512262Y-10769643D01*
X2578929Y-10902976D02*
X2578929Y-10769643D01*
X2578929Y-10702976D02*
X2569405Y-10712500D01*
X2578929Y-10722024D01*
X2588452Y-10712500D01*
X2578929Y-10702976D01*
X2578929Y-10722024D01*
X2702738Y-10902976D02*
X2683690Y-10893452D01*
X2674167Y-10874405D01*
X2674167Y-10702976D01*
X2807500Y-10902976D02*
X2788452Y-10893452D01*
X2778929Y-10874405D01*
X2778929Y-10702976D01*
X3036071Y-10902976D02*
X3036071Y-10702976D01*
X3102738Y-10845833D01*
X3169405Y-10702976D01*
X3169405Y-10902976D01*
X3350357Y-10902976D02*
X3350357Y-10798214D01*
X3340833Y-10779167D01*
X3321786Y-10769643D01*
X3283690Y-10769643D01*
X3264643Y-10779167D01*
X3350357Y-10893452D02*
X3331309Y-10902976D01*
X3283690Y-10902976D01*
X3264643Y-10893452D01*
X3255119Y-10874405D01*
X3255119Y-10855357D01*
X3264643Y-10836310D01*
X3283690Y-10826786D01*
X3331309Y-10826786D01*
X3350357Y-10817262D01*
X3445595Y-10769643D02*
X3445595Y-10969643D01*
X3445595Y-10779167D02*
X3464643Y-10769643D01*
X3502738Y-10769643D01*
X3521786Y-10779167D01*
X3531309Y-10788690D01*
X3540833Y-10807738D01*
X3540833Y-10864881D01*
X3531309Y-10883929D01*
X3521786Y-10893452D01*
X3502738Y-10902976D01*
X3464643Y-10902976D01*
X3445595Y-10893452D01*
X3626548Y-10883929D02*
X3636071Y-10893452D01*
X3626548Y-10902976D01*
X3617024Y-10893452D01*
X3626548Y-10883929D01*
X3626548Y-10902976D01*
X3626548Y-10779167D02*
X3636071Y-10788690D01*
X3626548Y-10798214D01*
X3617024Y-10788690D01*
X3626548Y-10779167D01*
X3626548Y-10798214D01*
D12*
X1917500Y-11192500D02*
X1997500Y-11272500D01*
X1997500Y-11192500D02*
X1917500Y-11272500D01*
D11*
X2293214Y-11122976D02*
X2312262Y-11122976D01*
X2331310Y-11132500D01*
X2340833Y-11142024D01*
X2350357Y-11161071D01*
X2359881Y-11199167D01*
X2359881Y-11246786D01*
X2350357Y-11284881D01*
X2340833Y-11303928D01*
X2331310Y-11313452D01*
X2312262Y-11322976D01*
X2293214Y-11322976D01*
X2274167Y-11313452D01*
X2264643Y-11303928D01*
X2255119Y-11284881D01*
X2245595Y-11246786D01*
X2245595Y-11199167D01*
X2255119Y-11161071D01*
X2264643Y-11142024D01*
X2274167Y-11132500D01*
X2293214Y-11122976D01*
X2445595Y-11303928D02*
X2455119Y-11313452D01*
X2445595Y-11322976D01*
X2436071Y-11313452D01*
X2445595Y-11303928D01*
X2445595Y-11322976D01*
X2569405Y-11208690D02*
X2550357Y-11199167D01*
X2540833Y-11189643D01*
X2531310Y-11170595D01*
X2531310Y-11161071D01*
X2540833Y-11142024D01*
X2550357Y-11132500D01*
X2569405Y-11122976D01*
X2607500Y-11122976D01*
X2626548Y-11132500D01*
X2636071Y-11142024D01*
X2645595Y-11161071D01*
X2645595Y-11170595D01*
X2636071Y-11189643D01*
X2626548Y-11199167D01*
X2607500Y-11208690D01*
X2569405Y-11208690D01*
X2550357Y-11218214D01*
X2540833Y-11227738D01*
X2531310Y-11246786D01*
X2531310Y-11284881D01*
X2540833Y-11303928D01*
X2550357Y-11313452D01*
X2569405Y-11322976D01*
X2607500Y-11322976D01*
X2626548Y-11313452D01*
X2636071Y-11303928D01*
X2645595Y-11284881D01*
X2645595Y-11246786D01*
X2636071Y-11227738D01*
X2626548Y-11218214D01*
X2607500Y-11208690D01*
X2769405Y-11122976D02*
X2788452Y-11122976D01*
X2807500Y-11132500D01*
X2817024Y-11142024D01*
X2826548Y-11161071D01*
X2836071Y-11199167D01*
X2836071Y-11246786D01*
X2826548Y-11284881D01*
X2817024Y-11303928D01*
X2807500Y-11313452D01*
X2788452Y-11322976D01*
X2769405Y-11322976D01*
X2750357Y-11313452D01*
X2740833Y-11303928D01*
X2731310Y-11284881D01*
X2721786Y-11246786D01*
X2721786Y-11199167D01*
X2731310Y-11161071D01*
X2740833Y-11142024D01*
X2750357Y-11132500D01*
X2769405Y-11122976D01*
X2959881Y-11122976D02*
X2978928Y-11122976D01*
X2997976Y-11132500D01*
X3007500Y-11142024D01*
X3017024Y-11161071D01*
X3026548Y-11199167D01*
X3026548Y-11246786D01*
X3017024Y-11284881D01*
X3007500Y-11303928D01*
X2997976Y-11313452D01*
X2978928Y-11322976D01*
X2959881Y-11322976D01*
X2940833Y-11313452D01*
X2931309Y-11303928D01*
X2921786Y-11284881D01*
X2912262Y-11246786D01*
X2912262Y-11199167D01*
X2921786Y-11161071D01*
X2931309Y-11142024D01*
X2940833Y-11132500D01*
X2959881Y-11122976D01*
X3112262Y-11322976D02*
X3112262Y-11189643D01*
X3112262Y-11208690D02*
X3121786Y-11199167D01*
X3140833Y-11189643D01*
X3169405Y-11189643D01*
X3188452Y-11199167D01*
X3197976Y-11218214D01*
X3197976Y-11322976D01*
X3197976Y-11218214D02*
X3207500Y-11199167D01*
X3226548Y-11189643D01*
X3255119Y-11189643D01*
X3274167Y-11199167D01*
X3283690Y-11218214D01*
X3283690Y-11322976D01*
X3378928Y-11322976D02*
X3378928Y-11189643D01*
X3378928Y-11208690D02*
X3388452Y-11199167D01*
X3407500Y-11189643D01*
X3436071Y-11189643D01*
X3455119Y-11199167D01*
X3464643Y-11218214D01*
X3464643Y-11322976D01*
X3464643Y-11218214D02*
X3474167Y-11199167D01*
X3493214Y-11189643D01*
X3521786Y-11189643D01*
X3540833Y-11199167D01*
X3550357Y-11218214D01*
X3550357Y-11322976D01*
X3940833Y-11113452D02*
X3769405Y-11370595D01*
X4197976Y-11122976D02*
X4217024Y-11122976D01*
X4236071Y-11132500D01*
X4245595Y-11142024D01*
X4255119Y-11161071D01*
X4264643Y-11199167D01*
X4264643Y-11246786D01*
X4255119Y-11284881D01*
X4245595Y-11303928D01*
X4236071Y-11313452D01*
X4217024Y-11322976D01*
X4197976Y-11322976D01*
X4178928Y-11313452D01*
X4169405Y-11303928D01*
X4159881Y-11284881D01*
X4150357Y-11246786D01*
X4150357Y-11199167D01*
X4159881Y-11161071D01*
X4169405Y-11142024D01*
X4178928Y-11132500D01*
X4197976Y-11122976D01*
X4350357Y-11303928D02*
X4359881Y-11313452D01*
X4350357Y-11322976D01*
X4340833Y-11313452D01*
X4350357Y-11303928D01*
X4350357Y-11322976D01*
X4483690Y-11122976D02*
X4502738Y-11122976D01*
X4521786Y-11132500D01*
X4531310Y-11142024D01*
X4540833Y-11161071D01*
X4550357Y-11199167D01*
X4550357Y-11246786D01*
X4540833Y-11284881D01*
X4531310Y-11303928D01*
X4521786Y-11313452D01*
X4502738Y-11322976D01*
X4483690Y-11322976D01*
X4464643Y-11313452D01*
X4455119Y-11303928D01*
X4445595Y-11284881D01*
X4436071Y-11246786D01*
X4436071Y-11199167D01*
X4445595Y-11161071D01*
X4455119Y-11142024D01*
X4464643Y-11132500D01*
X4483690Y-11122976D01*
X4617024Y-11122976D02*
X4740833Y-11122976D01*
X4674167Y-11199167D01*
X4702738Y-11199167D01*
X4721786Y-11208690D01*
X4731310Y-11218214D01*
X4740833Y-11237262D01*
X4740833Y-11284881D01*
X4731310Y-11303928D01*
X4721786Y-11313452D01*
X4702738Y-11322976D01*
X4645595Y-11322976D01*
X4626548Y-11313452D01*
X4617024Y-11303928D01*
X4931310Y-11322976D02*
X4817024Y-11322976D01*
X4874167Y-11322976D02*
X4874167Y-11122976D01*
X4855119Y-11151548D01*
X4836071Y-11170595D01*
X4817024Y-11180119D01*
X5112262Y-11122976D02*
X5017024Y-11122976D01*
X5007500Y-11218214D01*
X5017024Y-11208690D01*
X5036071Y-11199167D01*
X5083690Y-11199167D01*
X5102738Y-11208690D01*
X5112262Y-11218214D01*
X5121786Y-11237262D01*
X5121786Y-11284881D01*
X5112262Y-11303928D01*
X5102738Y-11313452D01*
X5083690Y-11322976D01*
X5036071Y-11322976D01*
X5017024Y-11313452D01*
X5007500Y-11303928D01*
X5197976Y-11122976D02*
X5197976Y-11161071D01*
X5274167Y-11122976D02*
X5274167Y-11161071D01*
X5569405Y-11399167D02*
X5559881Y-11389643D01*
X5540833Y-11361071D01*
X5531310Y-11342024D01*
X5521786Y-11313452D01*
X5512262Y-11265833D01*
X5512262Y-11227738D01*
X5521786Y-11180119D01*
X5531310Y-11151548D01*
X5540833Y-11132500D01*
X5559881Y-11103929D01*
X5569405Y-11094405D01*
X5636071Y-11142024D02*
X5645595Y-11132500D01*
X5664643Y-11122976D01*
X5712262Y-11122976D01*
X5731309Y-11132500D01*
X5740833Y-11142024D01*
X5750357Y-11161071D01*
X5750357Y-11180119D01*
X5740833Y-11208690D01*
X5626548Y-11322976D01*
X5750357Y-11322976D01*
X5988452Y-11322976D02*
X5988452Y-11122976D01*
X6074167Y-11322976D02*
X6074167Y-11218214D01*
X6064643Y-11199167D01*
X6045595Y-11189643D01*
X6017024Y-11189643D01*
X5997976Y-11199167D01*
X5988452Y-11208690D01*
X6197976Y-11322976D02*
X6178928Y-11313452D01*
X6169405Y-11303928D01*
X6159881Y-11284881D01*
X6159881Y-11227738D01*
X6169405Y-11208690D01*
X6178928Y-11199167D01*
X6197976Y-11189643D01*
X6226548Y-11189643D01*
X6245595Y-11199167D01*
X6255119Y-11208690D01*
X6264643Y-11227738D01*
X6264643Y-11284881D01*
X6255119Y-11303928D01*
X6245595Y-11313452D01*
X6226548Y-11322976D01*
X6197976Y-11322976D01*
X6378928Y-11322976D02*
X6359881Y-11313452D01*
X6350357Y-11294405D01*
X6350357Y-11122976D01*
X6531309Y-11313452D02*
X6512262Y-11322976D01*
X6474167Y-11322976D01*
X6455119Y-11313452D01*
X6445595Y-11294405D01*
X6445595Y-11218214D01*
X6455119Y-11199167D01*
X6474167Y-11189643D01*
X6512262Y-11189643D01*
X6531309Y-11199167D01*
X6540833Y-11218214D01*
X6540833Y-11237262D01*
X6445595Y-11256309D01*
X6617024Y-11313452D02*
X6636071Y-11322976D01*
X6674167Y-11322976D01*
X6693214Y-11313452D01*
X6702738Y-11294405D01*
X6702738Y-11284881D01*
X6693214Y-11265833D01*
X6674167Y-11256309D01*
X6645595Y-11256309D01*
X6626548Y-11246786D01*
X6617024Y-11227738D01*
X6617024Y-11218214D01*
X6626548Y-11199167D01*
X6645595Y-11189643D01*
X6674167Y-11189643D01*
X6693214Y-11199167D01*
X6769405Y-11399167D02*
X6778928Y-11389643D01*
X6797976Y-11361071D01*
X6807500Y-11342024D01*
X6817024Y-11313452D01*
X6826548Y-11265833D01*
X6826548Y-11227738D01*
X6817024Y-11180119D01*
X6807500Y-11151548D01*
X6797976Y-11132500D01*
X6778928Y-11103929D01*
X6769405Y-11094405D01*
X7131309Y-11399167D02*
X7121786Y-11389643D01*
X7102738Y-11361071D01*
X7093214Y-11342024D01*
X7083690Y-11313452D01*
X7074167Y-11265833D01*
X7074167Y-11227738D01*
X7083690Y-11180119D01*
X7093214Y-11151548D01*
X7102738Y-11132500D01*
X7121786Y-11103929D01*
X7131309Y-11094405D01*
X7207500Y-11189643D02*
X7207500Y-11322976D01*
X7207500Y-11208690D02*
X7217024Y-11199167D01*
X7236071Y-11189643D01*
X7264643Y-11189643D01*
X7283690Y-11199167D01*
X7293214Y-11218214D01*
X7293214Y-11322976D01*
X7417024Y-11322976D02*
X7397976Y-11313452D01*
X7388452Y-11303928D01*
X7378928Y-11284881D01*
X7378928Y-11227738D01*
X7388452Y-11208690D01*
X7397976Y-11199167D01*
X7417024Y-11189643D01*
X7445595Y-11189643D01*
X7464643Y-11199167D01*
X7474167Y-11208690D01*
X7483690Y-11227738D01*
X7483690Y-11284881D01*
X7474167Y-11303928D01*
X7464643Y-11313452D01*
X7445595Y-11322976D01*
X7417024Y-11322976D01*
X7540833Y-11189643D02*
X7617024Y-11189643D01*
X7569405Y-11122976D02*
X7569405Y-11294405D01*
X7578928Y-11313452D01*
X7597976Y-11322976D01*
X7617024Y-11322976D01*
X7836071Y-11189643D02*
X7836071Y-11389643D01*
X7836071Y-11199167D02*
X7855119Y-11189643D01*
X7893214Y-11189643D01*
X7912262Y-11199167D01*
X7921786Y-11208690D01*
X7931309Y-11227738D01*
X7931309Y-11284881D01*
X7921786Y-11303928D01*
X7912262Y-11313452D01*
X7893214Y-11322976D01*
X7855119Y-11322976D01*
X7836071Y-11313452D01*
X8045595Y-11322976D02*
X8026548Y-11313452D01*
X8017024Y-11294405D01*
X8017024Y-11122976D01*
X8207500Y-11322976D02*
X8207500Y-11218214D01*
X8197976Y-11199167D01*
X8178928Y-11189643D01*
X8140833Y-11189643D01*
X8121786Y-11199167D01*
X8207500Y-11313452D02*
X8188452Y-11322976D01*
X8140833Y-11322976D01*
X8121786Y-11313452D01*
X8112262Y-11294405D01*
X8112262Y-11275357D01*
X8121786Y-11256309D01*
X8140833Y-11246786D01*
X8188452Y-11246786D01*
X8207500Y-11237262D01*
X8274167Y-11189643D02*
X8350357Y-11189643D01*
X8302738Y-11122976D02*
X8302738Y-11294405D01*
X8312262Y-11313452D01*
X8331309Y-11322976D01*
X8350357Y-11322976D01*
X8493214Y-11313452D02*
X8474167Y-11322976D01*
X8436071Y-11322976D01*
X8417024Y-11313452D01*
X8407500Y-11294405D01*
X8407500Y-11218214D01*
X8417024Y-11199167D01*
X8436071Y-11189643D01*
X8474167Y-11189643D01*
X8493214Y-11199167D01*
X8502738Y-11218214D01*
X8502738Y-11237262D01*
X8407500Y-11256309D01*
X8674167Y-11322976D02*
X8674167Y-11122976D01*
X8674167Y-11313452D02*
X8655119Y-11322976D01*
X8617024Y-11322976D01*
X8597976Y-11313452D01*
X8588452Y-11303928D01*
X8578929Y-11284881D01*
X8578929Y-11227738D01*
X8588452Y-11208690D01*
X8597976Y-11199167D01*
X8617024Y-11189643D01*
X8655119Y-11189643D01*
X8674167Y-11199167D01*
X8750357Y-11399167D02*
X8759881Y-11389643D01*
X8778929Y-11361071D01*
X8788452Y-11342024D01*
X8797976Y-11313452D01*
X8807500Y-11265833D01*
X8807500Y-11227738D01*
X8797976Y-11180119D01*
X8788452Y-11151548D01*
X8778929Y-11132500D01*
X8759881Y-11103929D01*
X8750357Y-11094405D01*
D13*
X1997500Y-11496500D02*
G75*
G03*
X1997500Y-11496500I-85000J0D01*
G01*
D11*
X2359881Y-11586976D02*
X2245595Y-11586976D01*
X2302738Y-11586976D02*
X2302738Y-11386976D01*
X2283690Y-11415548D01*
X2264643Y-11434595D01*
X2245595Y-11444119D01*
X2445595Y-11567928D02*
X2455119Y-11577452D01*
X2445595Y-11586976D01*
X2436071Y-11577452D01*
X2445595Y-11567928D01*
X2445595Y-11586976D01*
X2521786Y-11386976D02*
X2655119Y-11386976D01*
X2569405Y-11586976D01*
X2769405Y-11386976D02*
X2788452Y-11386976D01*
X2807500Y-11396500D01*
X2817024Y-11406024D01*
X2826548Y-11425071D01*
X2836071Y-11463167D01*
X2836071Y-11510786D01*
X2826548Y-11548881D01*
X2817024Y-11567928D01*
X2807500Y-11577452D01*
X2788452Y-11586976D01*
X2769405Y-11586976D01*
X2750357Y-11577452D01*
X2740833Y-11567928D01*
X2731310Y-11548881D01*
X2721786Y-11510786D01*
X2721786Y-11463167D01*
X2731310Y-11425071D01*
X2740833Y-11406024D01*
X2750357Y-11396500D01*
X2769405Y-11386976D01*
X2959881Y-11386976D02*
X2978928Y-11386976D01*
X2997976Y-11396500D01*
X3007500Y-11406024D01*
X3017024Y-11425071D01*
X3026548Y-11463167D01*
X3026548Y-11510786D01*
X3017024Y-11548881D01*
X3007500Y-11567928D01*
X2997976Y-11577452D01*
X2978928Y-11586976D01*
X2959881Y-11586976D01*
X2940833Y-11577452D01*
X2931309Y-11567928D01*
X2921786Y-11548881D01*
X2912262Y-11510786D01*
X2912262Y-11463167D01*
X2921786Y-11425071D01*
X2931309Y-11406024D01*
X2940833Y-11396500D01*
X2959881Y-11386976D01*
X3112262Y-11586976D02*
X3112262Y-11453643D01*
X3112262Y-11472690D02*
X3121786Y-11463167D01*
X3140833Y-11453643D01*
X3169405Y-11453643D01*
X3188452Y-11463167D01*
X3197976Y-11482214D01*
X3197976Y-11586976D01*
X3197976Y-11482214D02*
X3207500Y-11463167D01*
X3226548Y-11453643D01*
X3255119Y-11453643D01*
X3274167Y-11463167D01*
X3283690Y-11482214D01*
X3283690Y-11586976D01*
X3378928Y-11586976D02*
X3378928Y-11453643D01*
X3378928Y-11472690D02*
X3388452Y-11463167D01*
X3407500Y-11453643D01*
X3436071Y-11453643D01*
X3455119Y-11463167D01*
X3464643Y-11482214D01*
X3464643Y-11586976D01*
X3464643Y-11482214D02*
X3474167Y-11463167D01*
X3493214Y-11453643D01*
X3521786Y-11453643D01*
X3540833Y-11463167D01*
X3550357Y-11482214D01*
X3550357Y-11586976D01*
X3940833Y-11377452D02*
X3769405Y-11634595D01*
X4197976Y-11386976D02*
X4217024Y-11386976D01*
X4236071Y-11396500D01*
X4245595Y-11406024D01*
X4255119Y-11425071D01*
X4264643Y-11463167D01*
X4264643Y-11510786D01*
X4255119Y-11548881D01*
X4245595Y-11567928D01*
X4236071Y-11577452D01*
X4217024Y-11586976D01*
X4197976Y-11586976D01*
X4178928Y-11577452D01*
X4169405Y-11567928D01*
X4159881Y-11548881D01*
X4150357Y-11510786D01*
X4150357Y-11463167D01*
X4159881Y-11425071D01*
X4169405Y-11406024D01*
X4178928Y-11396500D01*
X4197976Y-11386976D01*
X4350357Y-11567928D02*
X4359881Y-11577452D01*
X4350357Y-11586976D01*
X4340833Y-11577452D01*
X4350357Y-11567928D01*
X4350357Y-11586976D01*
X4483690Y-11386976D02*
X4502738Y-11386976D01*
X4521786Y-11396500D01*
X4531310Y-11406024D01*
X4540833Y-11425071D01*
X4550357Y-11463167D01*
X4550357Y-11510786D01*
X4540833Y-11548881D01*
X4531310Y-11567928D01*
X4521786Y-11577452D01*
X4502738Y-11586976D01*
X4483690Y-11586976D01*
X4464643Y-11577452D01*
X4455119Y-11567928D01*
X4445595Y-11548881D01*
X4436071Y-11510786D01*
X4436071Y-11463167D01*
X4445595Y-11425071D01*
X4455119Y-11406024D01*
X4464643Y-11396500D01*
X4483690Y-11386976D01*
X4721786Y-11386976D02*
X4683690Y-11386976D01*
X4664643Y-11396500D01*
X4655119Y-11406024D01*
X4636071Y-11434595D01*
X4626548Y-11472690D01*
X4626548Y-11548881D01*
X4636071Y-11567928D01*
X4645595Y-11577452D01*
X4664643Y-11586976D01*
X4702738Y-11586976D01*
X4721786Y-11577452D01*
X4731310Y-11567928D01*
X4740833Y-11548881D01*
X4740833Y-11501262D01*
X4731310Y-11482214D01*
X4721786Y-11472690D01*
X4702738Y-11463167D01*
X4664643Y-11463167D01*
X4645595Y-11472690D01*
X4636071Y-11482214D01*
X4626548Y-11501262D01*
X4912262Y-11386976D02*
X4874167Y-11386976D01*
X4855119Y-11396500D01*
X4845595Y-11406024D01*
X4826548Y-11434595D01*
X4817024Y-11472690D01*
X4817024Y-11548881D01*
X4826548Y-11567928D01*
X4836071Y-11577452D01*
X4855119Y-11586976D01*
X4893214Y-11586976D01*
X4912262Y-11577452D01*
X4921786Y-11567928D01*
X4931310Y-11548881D01*
X4931310Y-11501262D01*
X4921786Y-11482214D01*
X4912262Y-11472690D01*
X4893214Y-11463167D01*
X4855119Y-11463167D01*
X4836071Y-11472690D01*
X4826548Y-11482214D01*
X4817024Y-11501262D01*
X5026548Y-11586976D02*
X5064643Y-11586976D01*
X5083690Y-11577452D01*
X5093214Y-11567928D01*
X5112262Y-11539357D01*
X5121786Y-11501262D01*
X5121786Y-11425071D01*
X5112262Y-11406024D01*
X5102738Y-11396500D01*
X5083690Y-11386976D01*
X5045595Y-11386976D01*
X5026548Y-11396500D01*
X5017024Y-11406024D01*
X5007500Y-11425071D01*
X5007500Y-11472690D01*
X5017024Y-11491738D01*
X5026548Y-11501262D01*
X5045595Y-11510786D01*
X5083690Y-11510786D01*
X5102738Y-11501262D01*
X5112262Y-11491738D01*
X5121786Y-11472690D01*
X5197976Y-11386976D02*
X5197976Y-11425071D01*
X5274167Y-11386976D02*
X5274167Y-11425071D01*
X5569405Y-11663167D02*
X5559881Y-11653643D01*
X5540833Y-11625071D01*
X5531310Y-11606024D01*
X5521786Y-11577452D01*
X5512262Y-11529833D01*
X5512262Y-11491738D01*
X5521786Y-11444119D01*
X5531310Y-11415548D01*
X5540833Y-11396500D01*
X5559881Y-11367928D01*
X5569405Y-11358405D01*
X5636071Y-11406024D02*
X5645595Y-11396500D01*
X5664643Y-11386976D01*
X5712262Y-11386976D01*
X5731309Y-11396500D01*
X5740833Y-11406024D01*
X5750357Y-11425071D01*
X5750357Y-11444119D01*
X5740833Y-11472690D01*
X5626548Y-11586976D01*
X5750357Y-11586976D01*
X5988452Y-11586976D02*
X5988452Y-11386976D01*
X6074167Y-11586976D02*
X6074167Y-11482214D01*
X6064643Y-11463167D01*
X6045595Y-11453643D01*
X6017024Y-11453643D01*
X5997976Y-11463167D01*
X5988452Y-11472690D01*
X6197976Y-11586976D02*
X6178928Y-11577452D01*
X6169405Y-11567928D01*
X6159881Y-11548881D01*
X6159881Y-11491738D01*
X6169405Y-11472690D01*
X6178928Y-11463167D01*
X6197976Y-11453643D01*
X6226548Y-11453643D01*
X6245595Y-11463167D01*
X6255119Y-11472690D01*
X6264643Y-11491738D01*
X6264643Y-11548881D01*
X6255119Y-11567928D01*
X6245595Y-11577452D01*
X6226548Y-11586976D01*
X6197976Y-11586976D01*
X6378928Y-11586976D02*
X6359881Y-11577452D01*
X6350357Y-11558405D01*
X6350357Y-11386976D01*
X6531309Y-11577452D02*
X6512262Y-11586976D01*
X6474167Y-11586976D01*
X6455119Y-11577452D01*
X6445595Y-11558405D01*
X6445595Y-11482214D01*
X6455119Y-11463167D01*
X6474167Y-11453643D01*
X6512262Y-11453643D01*
X6531309Y-11463167D01*
X6540833Y-11482214D01*
X6540833Y-11501262D01*
X6445595Y-11520309D01*
X6617024Y-11577452D02*
X6636071Y-11586976D01*
X6674167Y-11586976D01*
X6693214Y-11577452D01*
X6702738Y-11558405D01*
X6702738Y-11548881D01*
X6693214Y-11529833D01*
X6674167Y-11520309D01*
X6645595Y-11520309D01*
X6626548Y-11510786D01*
X6617024Y-11491738D01*
X6617024Y-11482214D01*
X6626548Y-11463167D01*
X6645595Y-11453643D01*
X6674167Y-11453643D01*
X6693214Y-11463167D01*
X6769405Y-11663167D02*
X6778928Y-11653643D01*
X6797976Y-11625071D01*
X6807500Y-11606024D01*
X6817024Y-11577452D01*
X6826548Y-11529833D01*
X6826548Y-11491738D01*
X6817024Y-11444119D01*
X6807500Y-11415548D01*
X6797976Y-11396500D01*
X6778928Y-11367928D01*
X6769405Y-11358405D01*
X7131309Y-11663167D02*
X7121786Y-11653643D01*
X7102738Y-11625071D01*
X7093214Y-11606024D01*
X7083690Y-11577452D01*
X7074167Y-11529833D01*
X7074167Y-11491738D01*
X7083690Y-11444119D01*
X7093214Y-11415548D01*
X7102738Y-11396500D01*
X7121786Y-11367928D01*
X7131309Y-11358405D01*
X7207500Y-11453643D02*
X7207500Y-11586976D01*
X7207500Y-11472690D02*
X7217024Y-11463167D01*
X7236071Y-11453643D01*
X7264643Y-11453643D01*
X7283690Y-11463167D01*
X7293214Y-11482214D01*
X7293214Y-11586976D01*
X7417024Y-11586976D02*
X7397976Y-11577452D01*
X7388452Y-11567928D01*
X7378928Y-11548881D01*
X7378928Y-11491738D01*
X7388452Y-11472690D01*
X7397976Y-11463167D01*
X7417024Y-11453643D01*
X7445595Y-11453643D01*
X7464643Y-11463167D01*
X7474167Y-11472690D01*
X7483690Y-11491738D01*
X7483690Y-11548881D01*
X7474167Y-11567928D01*
X7464643Y-11577452D01*
X7445595Y-11586976D01*
X7417024Y-11586976D01*
X7540833Y-11453643D02*
X7617024Y-11453643D01*
X7569405Y-11386976D02*
X7569405Y-11558405D01*
X7578928Y-11577452D01*
X7597976Y-11586976D01*
X7617024Y-11586976D01*
X7836071Y-11453643D02*
X7836071Y-11653643D01*
X7836071Y-11463167D02*
X7855119Y-11453643D01*
X7893214Y-11453643D01*
X7912262Y-11463167D01*
X7921786Y-11472690D01*
X7931309Y-11491738D01*
X7931309Y-11548881D01*
X7921786Y-11567928D01*
X7912262Y-11577452D01*
X7893214Y-11586976D01*
X7855119Y-11586976D01*
X7836071Y-11577452D01*
X8045595Y-11586976D02*
X8026548Y-11577452D01*
X8017024Y-11558405D01*
X8017024Y-11386976D01*
X8207500Y-11586976D02*
X8207500Y-11482214D01*
X8197976Y-11463167D01*
X8178928Y-11453643D01*
X8140833Y-11453643D01*
X8121786Y-11463167D01*
X8207500Y-11577452D02*
X8188452Y-11586976D01*
X8140833Y-11586976D01*
X8121786Y-11577452D01*
X8112262Y-11558405D01*
X8112262Y-11539357D01*
X8121786Y-11520309D01*
X8140833Y-11510786D01*
X8188452Y-11510786D01*
X8207500Y-11501262D01*
X8274167Y-11453643D02*
X8350357Y-11453643D01*
X8302738Y-11386976D02*
X8302738Y-11558405D01*
X8312262Y-11577452D01*
X8331309Y-11586976D01*
X8350357Y-11586976D01*
X8493214Y-11577452D02*
X8474167Y-11586976D01*
X8436071Y-11586976D01*
X8417024Y-11577452D01*
X8407500Y-11558405D01*
X8407500Y-11482214D01*
X8417024Y-11463167D01*
X8436071Y-11453643D01*
X8474167Y-11453643D01*
X8493214Y-11463167D01*
X8502738Y-11482214D01*
X8502738Y-11501262D01*
X8407500Y-11520309D01*
X8674167Y-11586976D02*
X8674167Y-11386976D01*
X8674167Y-11577452D02*
X8655119Y-11586976D01*
X8617024Y-11586976D01*
X8597976Y-11577452D01*
X8588452Y-11567928D01*
X8578929Y-11548881D01*
X8578929Y-11491738D01*
X8588452Y-11472690D01*
X8597976Y-11463167D01*
X8617024Y-11453643D01*
X8655119Y-11453643D01*
X8674167Y-11463167D01*
X8750357Y-11663167D02*
X8759881Y-11653643D01*
X8778929Y-11625071D01*
X8788452Y-11606024D01*
X8797976Y-11577452D01*
X8807500Y-11529833D01*
X8807500Y-11491738D01*
X8797976Y-11444119D01*
X8788452Y-11415548D01*
X8778929Y-11396500D01*
X8759881Y-11367928D01*
X8750357Y-11358405D01*
X1897500Y-11686500D02*
X1897500Y-11886500D01*
X1797500Y-11786500D02*
X1997500Y-11786500D01*
X2236071Y-11676976D02*
X2359881Y-11676976D01*
X2293214Y-11753167D01*
X2321786Y-11753167D01*
X2340833Y-11762690D01*
X2350357Y-11772214D01*
X2359881Y-11791262D01*
X2359881Y-11838881D01*
X2350357Y-11857928D01*
X2340833Y-11867452D01*
X2321786Y-11876976D01*
X2264643Y-11876976D01*
X2245595Y-11867452D01*
X2236071Y-11857928D01*
X2445595Y-11857928D02*
X2455119Y-11867452D01*
X2445595Y-11876976D01*
X2436071Y-11867452D01*
X2445595Y-11857928D01*
X2445595Y-11876976D01*
X2531310Y-11696024D02*
X2540833Y-11686500D01*
X2559881Y-11676976D01*
X2607500Y-11676976D01*
X2626548Y-11686500D01*
X2636071Y-11696024D01*
X2645595Y-11715071D01*
X2645595Y-11734119D01*
X2636071Y-11762690D01*
X2521786Y-11876976D01*
X2645595Y-11876976D01*
X2826548Y-11676976D02*
X2731310Y-11676976D01*
X2721786Y-11772214D01*
X2731310Y-11762690D01*
X2750357Y-11753167D01*
X2797976Y-11753167D01*
X2817024Y-11762690D01*
X2826548Y-11772214D01*
X2836071Y-11791262D01*
X2836071Y-11838881D01*
X2826548Y-11857928D01*
X2817024Y-11867452D01*
X2797976Y-11876976D01*
X2750357Y-11876976D01*
X2731310Y-11867452D01*
X2721786Y-11857928D01*
X2959881Y-11676976D02*
X2978928Y-11676976D01*
X2997976Y-11686500D01*
X3007500Y-11696024D01*
X3017024Y-11715071D01*
X3026548Y-11753167D01*
X3026548Y-11800786D01*
X3017024Y-11838881D01*
X3007500Y-11857928D01*
X2997976Y-11867452D01*
X2978928Y-11876976D01*
X2959881Y-11876976D01*
X2940833Y-11867452D01*
X2931309Y-11857928D01*
X2921786Y-11838881D01*
X2912262Y-11800786D01*
X2912262Y-11753167D01*
X2921786Y-11715071D01*
X2931309Y-11696024D01*
X2940833Y-11686500D01*
X2959881Y-11676976D01*
X3112262Y-11876976D02*
X3112262Y-11743643D01*
X3112262Y-11762690D02*
X3121786Y-11753167D01*
X3140833Y-11743643D01*
X3169405Y-11743643D01*
X3188452Y-11753167D01*
X3197976Y-11772214D01*
X3197976Y-11876976D01*
X3197976Y-11772214D02*
X3207500Y-11753167D01*
X3226548Y-11743643D01*
X3255119Y-11743643D01*
X3274167Y-11753167D01*
X3283690Y-11772214D01*
X3283690Y-11876976D01*
X3378928Y-11876976D02*
X3378928Y-11743643D01*
X3378928Y-11762690D02*
X3388452Y-11753167D01*
X3407500Y-11743643D01*
X3436071Y-11743643D01*
X3455119Y-11753167D01*
X3464643Y-11772214D01*
X3464643Y-11876976D01*
X3464643Y-11772214D02*
X3474167Y-11753167D01*
X3493214Y-11743643D01*
X3521786Y-11743643D01*
X3540833Y-11753167D01*
X3550357Y-11772214D01*
X3550357Y-11876976D01*
X3940833Y-11667452D02*
X3769405Y-11924595D01*
X4197976Y-11676976D02*
X4217024Y-11676976D01*
X4236071Y-11686500D01*
X4245595Y-11696024D01*
X4255119Y-11715071D01*
X4264643Y-11753167D01*
X4264643Y-11800786D01*
X4255119Y-11838881D01*
X4245595Y-11857928D01*
X4236071Y-11867452D01*
X4217024Y-11876976D01*
X4197976Y-11876976D01*
X4178928Y-11867452D01*
X4169405Y-11857928D01*
X4159881Y-11838881D01*
X4150357Y-11800786D01*
X4150357Y-11753167D01*
X4159881Y-11715071D01*
X4169405Y-11696024D01*
X4178928Y-11686500D01*
X4197976Y-11676976D01*
X4350357Y-11857928D02*
X4359881Y-11867452D01*
X4350357Y-11876976D01*
X4340833Y-11867452D01*
X4350357Y-11857928D01*
X4350357Y-11876976D01*
X4550357Y-11876976D02*
X4436071Y-11876976D01*
X4493214Y-11876976D02*
X4493214Y-11676976D01*
X4474167Y-11705548D01*
X4455119Y-11724595D01*
X4436071Y-11734119D01*
X4626548Y-11696024D02*
X4636071Y-11686500D01*
X4655119Y-11676976D01*
X4702738Y-11676976D01*
X4721786Y-11686500D01*
X4731310Y-11696024D01*
X4740833Y-11715071D01*
X4740833Y-11734119D01*
X4731310Y-11762690D01*
X4617024Y-11876976D01*
X4740833Y-11876976D01*
X4855119Y-11762690D02*
X4836071Y-11753167D01*
X4826548Y-11743643D01*
X4817024Y-11724595D01*
X4817024Y-11715071D01*
X4826548Y-11696024D01*
X4836071Y-11686500D01*
X4855119Y-11676976D01*
X4893214Y-11676976D01*
X4912262Y-11686500D01*
X4921786Y-11696024D01*
X4931310Y-11715071D01*
X4931310Y-11724595D01*
X4921786Y-11743643D01*
X4912262Y-11753167D01*
X4893214Y-11762690D01*
X4855119Y-11762690D01*
X4836071Y-11772214D01*
X4826548Y-11781738D01*
X4817024Y-11800786D01*
X4817024Y-11838881D01*
X4826548Y-11857928D01*
X4836071Y-11867452D01*
X4855119Y-11876976D01*
X4893214Y-11876976D01*
X4912262Y-11867452D01*
X4921786Y-11857928D01*
X4931310Y-11838881D01*
X4931310Y-11800786D01*
X4921786Y-11781738D01*
X4912262Y-11772214D01*
X4893214Y-11762690D01*
X5055119Y-11676976D02*
X5074167Y-11676976D01*
X5093214Y-11686500D01*
X5102738Y-11696024D01*
X5112262Y-11715071D01*
X5121786Y-11753167D01*
X5121786Y-11800786D01*
X5112262Y-11838881D01*
X5102738Y-11857928D01*
X5093214Y-11867452D01*
X5074167Y-11876976D01*
X5055119Y-11876976D01*
X5036071Y-11867452D01*
X5026548Y-11857928D01*
X5017024Y-11838881D01*
X5007500Y-11800786D01*
X5007500Y-11753167D01*
X5017024Y-11715071D01*
X5026548Y-11696024D01*
X5036071Y-11686500D01*
X5055119Y-11676976D01*
X5197976Y-11676976D02*
X5197976Y-11715071D01*
X5274167Y-11676976D02*
X5274167Y-11715071D01*
X5569405Y-11953167D02*
X5559881Y-11943643D01*
X5540833Y-11915071D01*
X5531310Y-11896024D01*
X5521786Y-11867452D01*
X5512262Y-11819833D01*
X5512262Y-11781738D01*
X5521786Y-11734119D01*
X5531310Y-11705548D01*
X5540833Y-11686500D01*
X5559881Y-11657928D01*
X5569405Y-11648405D01*
X5636071Y-11696024D02*
X5645595Y-11686500D01*
X5664643Y-11676976D01*
X5712262Y-11676976D01*
X5731309Y-11686500D01*
X5740833Y-11696024D01*
X5750357Y-11715071D01*
X5750357Y-11734119D01*
X5740833Y-11762690D01*
X5626548Y-11876976D01*
X5750357Y-11876976D01*
X5988452Y-11876976D02*
X5988452Y-11676976D01*
X6074167Y-11876976D02*
X6074167Y-11772214D01*
X6064643Y-11753167D01*
X6045595Y-11743643D01*
X6017024Y-11743643D01*
X5997976Y-11753167D01*
X5988452Y-11762690D01*
X6197976Y-11876976D02*
X6178928Y-11867452D01*
X6169405Y-11857928D01*
X6159881Y-11838881D01*
X6159881Y-11781738D01*
X6169405Y-11762690D01*
X6178928Y-11753167D01*
X6197976Y-11743643D01*
X6226548Y-11743643D01*
X6245595Y-11753167D01*
X6255119Y-11762690D01*
X6264643Y-11781738D01*
X6264643Y-11838881D01*
X6255119Y-11857928D01*
X6245595Y-11867452D01*
X6226548Y-11876976D01*
X6197976Y-11876976D01*
X6378928Y-11876976D02*
X6359881Y-11867452D01*
X6350357Y-11848405D01*
X6350357Y-11676976D01*
X6531309Y-11867452D02*
X6512262Y-11876976D01*
X6474167Y-11876976D01*
X6455119Y-11867452D01*
X6445595Y-11848405D01*
X6445595Y-11772214D01*
X6455119Y-11753167D01*
X6474167Y-11743643D01*
X6512262Y-11743643D01*
X6531309Y-11753167D01*
X6540833Y-11772214D01*
X6540833Y-11791262D01*
X6445595Y-11810309D01*
X6617024Y-11867452D02*
X6636071Y-11876976D01*
X6674167Y-11876976D01*
X6693214Y-11867452D01*
X6702738Y-11848405D01*
X6702738Y-11838881D01*
X6693214Y-11819833D01*
X6674167Y-11810309D01*
X6645595Y-11810309D01*
X6626548Y-11800786D01*
X6617024Y-11781738D01*
X6617024Y-11772214D01*
X6626548Y-11753167D01*
X6645595Y-11743643D01*
X6674167Y-11743643D01*
X6693214Y-11753167D01*
X6769405Y-11953167D02*
X6778928Y-11943643D01*
X6797976Y-11915071D01*
X6807500Y-11896024D01*
X6817024Y-11867452D01*
X6826548Y-11819833D01*
X6826548Y-11781738D01*
X6817024Y-11734119D01*
X6807500Y-11705548D01*
X6797976Y-11686500D01*
X6778928Y-11657928D01*
X6769405Y-11648405D01*
X7131309Y-11953167D02*
X7121786Y-11943643D01*
X7102738Y-11915071D01*
X7093214Y-11896024D01*
X7083690Y-11867452D01*
X7074167Y-11819833D01*
X7074167Y-11781738D01*
X7083690Y-11734119D01*
X7093214Y-11705548D01*
X7102738Y-11686500D01*
X7121786Y-11657928D01*
X7131309Y-11648405D01*
X7207500Y-11743643D02*
X7207500Y-11876976D01*
X7207500Y-11762690D02*
X7217024Y-11753167D01*
X7236071Y-11743643D01*
X7264643Y-11743643D01*
X7283690Y-11753167D01*
X7293214Y-11772214D01*
X7293214Y-11876976D01*
X7417024Y-11876976D02*
X7397976Y-11867452D01*
X7388452Y-11857928D01*
X7378928Y-11838881D01*
X7378928Y-11781738D01*
X7388452Y-11762690D01*
X7397976Y-11753167D01*
X7417024Y-11743643D01*
X7445595Y-11743643D01*
X7464643Y-11753167D01*
X7474167Y-11762690D01*
X7483690Y-11781738D01*
X7483690Y-11838881D01*
X7474167Y-11857928D01*
X7464643Y-11867452D01*
X7445595Y-11876976D01*
X7417024Y-11876976D01*
X7540833Y-11743643D02*
X7617024Y-11743643D01*
X7569405Y-11676976D02*
X7569405Y-11848405D01*
X7578928Y-11867452D01*
X7597976Y-11876976D01*
X7617024Y-11876976D01*
X7836071Y-11743643D02*
X7836071Y-11943643D01*
X7836071Y-11753167D02*
X7855119Y-11743643D01*
X7893214Y-11743643D01*
X7912262Y-11753167D01*
X7921786Y-11762690D01*
X7931309Y-11781738D01*
X7931309Y-11838881D01*
X7921786Y-11857928D01*
X7912262Y-11867452D01*
X7893214Y-11876976D01*
X7855119Y-11876976D01*
X7836071Y-11867452D01*
X8045595Y-11876976D02*
X8026548Y-11867452D01*
X8017024Y-11848405D01*
X8017024Y-11676976D01*
X8207500Y-11876976D02*
X8207500Y-11772214D01*
X8197976Y-11753167D01*
X8178928Y-11743643D01*
X8140833Y-11743643D01*
X8121786Y-11753167D01*
X8207500Y-11867452D02*
X8188452Y-11876976D01*
X8140833Y-11876976D01*
X8121786Y-11867452D01*
X8112262Y-11848405D01*
X8112262Y-11829357D01*
X8121786Y-11810309D01*
X8140833Y-11800786D01*
X8188452Y-11800786D01*
X8207500Y-11791262D01*
X8274167Y-11743643D02*
X8350357Y-11743643D01*
X8302738Y-11676976D02*
X8302738Y-11848405D01*
X8312262Y-11867452D01*
X8331309Y-11876976D01*
X8350357Y-11876976D01*
X8493214Y-11867452D02*
X8474167Y-11876976D01*
X8436071Y-11876976D01*
X8417024Y-11867452D01*
X8407500Y-11848405D01*
X8407500Y-11772214D01*
X8417024Y-11753167D01*
X8436071Y-11743643D01*
X8474167Y-11743643D01*
X8493214Y-11753167D01*
X8502738Y-11772214D01*
X8502738Y-11791262D01*
X8407500Y-11810309D01*
X8674167Y-11876976D02*
X8674167Y-11676976D01*
X8674167Y-11867452D02*
X8655119Y-11876976D01*
X8617024Y-11876976D01*
X8597976Y-11867452D01*
X8588452Y-11857928D01*
X8578929Y-11838881D01*
X8578929Y-11781738D01*
X8588452Y-11762690D01*
X8597976Y-11753167D01*
X8617024Y-11743643D01*
X8655119Y-11743643D01*
X8674167Y-11753167D01*
X8750357Y-11953167D02*
X8759881Y-11943643D01*
X8778929Y-11915071D01*
X8788452Y-11896024D01*
X8797976Y-11867452D01*
X8807500Y-11819833D01*
X8807500Y-11781738D01*
X8797976Y-11734119D01*
X8788452Y-11705548D01*
X8778929Y-11686500D01*
X8759881Y-11657928D01*
X8750357Y-11648405D01*
X1968211Y-12177211D02*
X1968211Y-12035789D01*
X1826789Y-12035789D01*
X1826789Y-12177211D01*
X1968211Y-12177211D01*
X2236071Y-11996976D02*
X2359881Y-11996976D01*
X2293214Y-12073167D01*
X2321786Y-12073167D01*
X2340833Y-12082690D01*
X2350357Y-12092214D01*
X2359881Y-12111262D01*
X2359881Y-12158881D01*
X2350357Y-12177928D01*
X2340833Y-12187452D01*
X2321786Y-12196976D01*
X2264643Y-12196976D01*
X2245595Y-12187452D01*
X2236071Y-12177928D01*
X2445595Y-12177928D02*
X2455119Y-12187452D01*
X2445595Y-12196976D01*
X2436071Y-12187452D01*
X2445595Y-12177928D01*
X2445595Y-12196976D01*
X2636071Y-11996976D02*
X2540833Y-11996976D01*
X2531310Y-12092214D01*
X2540833Y-12082690D01*
X2559881Y-12073167D01*
X2607500Y-12073167D01*
X2626548Y-12082690D01*
X2636071Y-12092214D01*
X2645595Y-12111262D01*
X2645595Y-12158881D01*
X2636071Y-12177928D01*
X2626548Y-12187452D01*
X2607500Y-12196976D01*
X2559881Y-12196976D01*
X2540833Y-12187452D01*
X2531310Y-12177928D01*
X2769405Y-11996976D02*
X2788452Y-11996976D01*
X2807500Y-12006500D01*
X2817024Y-12016024D01*
X2826548Y-12035071D01*
X2836071Y-12073167D01*
X2836071Y-12120786D01*
X2826548Y-12158881D01*
X2817024Y-12177928D01*
X2807500Y-12187452D01*
X2788452Y-12196976D01*
X2769405Y-12196976D01*
X2750357Y-12187452D01*
X2740833Y-12177928D01*
X2731310Y-12158881D01*
X2721786Y-12120786D01*
X2721786Y-12073167D01*
X2731310Y-12035071D01*
X2740833Y-12016024D01*
X2750357Y-12006500D01*
X2769405Y-11996976D01*
X2959881Y-11996976D02*
X2978928Y-11996976D01*
X2997976Y-12006500D01*
X3007500Y-12016024D01*
X3017024Y-12035071D01*
X3026548Y-12073167D01*
X3026548Y-12120786D01*
X3017024Y-12158881D01*
X3007500Y-12177928D01*
X2997976Y-12187452D01*
X2978928Y-12196976D01*
X2959881Y-12196976D01*
X2940833Y-12187452D01*
X2931309Y-12177928D01*
X2921786Y-12158881D01*
X2912262Y-12120786D01*
X2912262Y-12073167D01*
X2921786Y-12035071D01*
X2931309Y-12016024D01*
X2940833Y-12006500D01*
X2959881Y-11996976D01*
X3112262Y-12196976D02*
X3112262Y-12063643D01*
X3112262Y-12082690D02*
X3121786Y-12073167D01*
X3140833Y-12063643D01*
X3169405Y-12063643D01*
X3188452Y-12073167D01*
X3197976Y-12092214D01*
X3197976Y-12196976D01*
X3197976Y-12092214D02*
X3207500Y-12073167D01*
X3226548Y-12063643D01*
X3255119Y-12063643D01*
X3274167Y-12073167D01*
X3283690Y-12092214D01*
X3283690Y-12196976D01*
X3378928Y-12196976D02*
X3378928Y-12063643D01*
X3378928Y-12082690D02*
X3388452Y-12073167D01*
X3407500Y-12063643D01*
X3436071Y-12063643D01*
X3455119Y-12073167D01*
X3464643Y-12092214D01*
X3464643Y-12196976D01*
X3464643Y-12092214D02*
X3474167Y-12073167D01*
X3493214Y-12063643D01*
X3521786Y-12063643D01*
X3540833Y-12073167D01*
X3550357Y-12092214D01*
X3550357Y-12196976D01*
X3940833Y-11987452D02*
X3769405Y-12244595D01*
X4197976Y-11996976D02*
X4217024Y-11996976D01*
X4236071Y-12006500D01*
X4245595Y-12016024D01*
X4255119Y-12035071D01*
X4264643Y-12073167D01*
X4264643Y-12120786D01*
X4255119Y-12158881D01*
X4245595Y-12177928D01*
X4236071Y-12187452D01*
X4217024Y-12196976D01*
X4197976Y-12196976D01*
X4178928Y-12187452D01*
X4169405Y-12177928D01*
X4159881Y-12158881D01*
X4150357Y-12120786D01*
X4150357Y-12073167D01*
X4159881Y-12035071D01*
X4169405Y-12016024D01*
X4178928Y-12006500D01*
X4197976Y-11996976D01*
X4350357Y-12177928D02*
X4359881Y-12187452D01*
X4350357Y-12196976D01*
X4340833Y-12187452D01*
X4350357Y-12177928D01*
X4350357Y-12196976D01*
X4550357Y-12196976D02*
X4436071Y-12196976D01*
X4493214Y-12196976D02*
X4493214Y-11996976D01*
X4474167Y-12025548D01*
X4455119Y-12044595D01*
X4436071Y-12054119D01*
X4617024Y-11996976D02*
X4740833Y-11996976D01*
X4674167Y-12073167D01*
X4702738Y-12073167D01*
X4721786Y-12082690D01*
X4731310Y-12092214D01*
X4740833Y-12111262D01*
X4740833Y-12158881D01*
X4731310Y-12177928D01*
X4721786Y-12187452D01*
X4702738Y-12196976D01*
X4645595Y-12196976D01*
X4626548Y-12187452D01*
X4617024Y-12177928D01*
X4807500Y-11996976D02*
X4940833Y-11996976D01*
X4855119Y-12196976D01*
X5045595Y-12082690D02*
X5026548Y-12073167D01*
X5017024Y-12063643D01*
X5007500Y-12044595D01*
X5007500Y-12035071D01*
X5017024Y-12016024D01*
X5026548Y-12006500D01*
X5045595Y-11996976D01*
X5083690Y-11996976D01*
X5102738Y-12006500D01*
X5112262Y-12016024D01*
X5121786Y-12035071D01*
X5121786Y-12044595D01*
X5112262Y-12063643D01*
X5102738Y-12073167D01*
X5083690Y-12082690D01*
X5045595Y-12082690D01*
X5026548Y-12092214D01*
X5017024Y-12101738D01*
X5007500Y-12120786D01*
X5007500Y-12158881D01*
X5017024Y-12177928D01*
X5026548Y-12187452D01*
X5045595Y-12196976D01*
X5083690Y-12196976D01*
X5102738Y-12187452D01*
X5112262Y-12177928D01*
X5121786Y-12158881D01*
X5121786Y-12120786D01*
X5112262Y-12101738D01*
X5102738Y-12092214D01*
X5083690Y-12082690D01*
X5197976Y-11996976D02*
X5197976Y-12035071D01*
X5274167Y-11996976D02*
X5274167Y-12035071D01*
X5569405Y-12273167D02*
X5559881Y-12263643D01*
X5540833Y-12235071D01*
X5531310Y-12216024D01*
X5521786Y-12187452D01*
X5512262Y-12139833D01*
X5512262Y-12101738D01*
X5521786Y-12054119D01*
X5531310Y-12025548D01*
X5540833Y-12006500D01*
X5559881Y-11977928D01*
X5569405Y-11968405D01*
X5750357Y-12196976D02*
X5636071Y-12196976D01*
X5693214Y-12196976D02*
X5693214Y-11996976D01*
X5674167Y-12025548D01*
X5655119Y-12044595D01*
X5636071Y-12054119D01*
X5988452Y-12196976D02*
X5988452Y-11996976D01*
X6074167Y-12196976D02*
X6074167Y-12092214D01*
X6064643Y-12073167D01*
X6045595Y-12063643D01*
X6017024Y-12063643D01*
X5997976Y-12073167D01*
X5988452Y-12082690D01*
X6197976Y-12196976D02*
X6178928Y-12187452D01*
X6169405Y-12177928D01*
X6159881Y-12158881D01*
X6159881Y-12101738D01*
X6169405Y-12082690D01*
X6178928Y-12073167D01*
X6197976Y-12063643D01*
X6226548Y-12063643D01*
X6245595Y-12073167D01*
X6255119Y-12082690D01*
X6264643Y-12101738D01*
X6264643Y-12158881D01*
X6255119Y-12177928D01*
X6245595Y-12187452D01*
X6226548Y-12196976D01*
X6197976Y-12196976D01*
X6378928Y-12196976D02*
X6359881Y-12187452D01*
X6350357Y-12168405D01*
X6350357Y-11996976D01*
X6531309Y-12187452D02*
X6512262Y-12196976D01*
X6474167Y-12196976D01*
X6455119Y-12187452D01*
X6445595Y-12168405D01*
X6445595Y-12092214D01*
X6455119Y-12073167D01*
X6474167Y-12063643D01*
X6512262Y-12063643D01*
X6531309Y-12073167D01*
X6540833Y-12092214D01*
X6540833Y-12111262D01*
X6445595Y-12130309D01*
X6607500Y-12273167D02*
X6617024Y-12263643D01*
X6636071Y-12235071D01*
X6645595Y-12216024D01*
X6655119Y-12187452D01*
X6664643Y-12139833D01*
X6664643Y-12101738D01*
X6655119Y-12054119D01*
X6645595Y-12025548D01*
X6636071Y-12006500D01*
X6617024Y-11977928D01*
X6607500Y-11968405D01*
X6969405Y-12273167D02*
X6959881Y-12263643D01*
X6940833Y-12235071D01*
X6931309Y-12216024D01*
X6921786Y-12187452D01*
X6912262Y-12139833D01*
X6912262Y-12101738D01*
X6921786Y-12054119D01*
X6931309Y-12025548D01*
X6940833Y-12006500D01*
X6959881Y-11977928D01*
X6969405Y-11968405D01*
X7045595Y-12063643D02*
X7045595Y-12196976D01*
X7045595Y-12082690D02*
X7055119Y-12073167D01*
X7074167Y-12063643D01*
X7102738Y-12063643D01*
X7121786Y-12073167D01*
X7131309Y-12092214D01*
X7131309Y-12196976D01*
X7255119Y-12196976D02*
X7236071Y-12187452D01*
X7226548Y-12177928D01*
X7217024Y-12158881D01*
X7217024Y-12101738D01*
X7226548Y-12082690D01*
X7236071Y-12073167D01*
X7255119Y-12063643D01*
X7283690Y-12063643D01*
X7302738Y-12073167D01*
X7312262Y-12082690D01*
X7321786Y-12101738D01*
X7321786Y-12158881D01*
X7312262Y-12177928D01*
X7302738Y-12187452D01*
X7283690Y-12196976D01*
X7255119Y-12196976D01*
X7378928Y-12063643D02*
X7455119Y-12063643D01*
X7407500Y-11996976D02*
X7407500Y-12168405D01*
X7417024Y-12187452D01*
X7436071Y-12196976D01*
X7455119Y-12196976D01*
X7674167Y-12063643D02*
X7674167Y-12263643D01*
X7674167Y-12073167D02*
X7693214Y-12063643D01*
X7731309Y-12063643D01*
X7750357Y-12073167D01*
X7759881Y-12082690D01*
X7769405Y-12101738D01*
X7769405Y-12158881D01*
X7759881Y-12177928D01*
X7750357Y-12187452D01*
X7731309Y-12196976D01*
X7693214Y-12196976D01*
X7674167Y-12187452D01*
X7883690Y-12196976D02*
X7864643Y-12187452D01*
X7855119Y-12168405D01*
X7855119Y-11996976D01*
X8045595Y-12196976D02*
X8045595Y-12092214D01*
X8036071Y-12073167D01*
X8017024Y-12063643D01*
X7978928Y-12063643D01*
X7959881Y-12073167D01*
X8045595Y-12187452D02*
X8026548Y-12196976D01*
X7978928Y-12196976D01*
X7959881Y-12187452D01*
X7950357Y-12168405D01*
X7950357Y-12149357D01*
X7959881Y-12130309D01*
X7978928Y-12120786D01*
X8026548Y-12120786D01*
X8045595Y-12111262D01*
X8112262Y-12063643D02*
X8188452Y-12063643D01*
X8140833Y-11996976D02*
X8140833Y-12168405D01*
X8150357Y-12187452D01*
X8169405Y-12196976D01*
X8188452Y-12196976D01*
X8331309Y-12187452D02*
X8312262Y-12196976D01*
X8274167Y-12196976D01*
X8255119Y-12187452D01*
X8245595Y-12168405D01*
X8245595Y-12092214D01*
X8255119Y-12073167D01*
X8274167Y-12063643D01*
X8312262Y-12063643D01*
X8331309Y-12073167D01*
X8340833Y-12092214D01*
X8340833Y-12111262D01*
X8245595Y-12130309D01*
X8512262Y-12196976D02*
X8512262Y-11996976D01*
X8512262Y-12187452D02*
X8493214Y-12196976D01*
X8455119Y-12196976D01*
X8436071Y-12187452D01*
X8426548Y-12177928D01*
X8417024Y-12158881D01*
X8417024Y-12101738D01*
X8426548Y-12082690D01*
X8436071Y-12073167D01*
X8455119Y-12063643D01*
X8493214Y-12063643D01*
X8512262Y-12073167D01*
X8588452Y-12273167D02*
X8597976Y-12263643D01*
X8617024Y-12235071D01*
X8626548Y-12216024D01*
X8636071Y-12187452D01*
X8645595Y-12139833D01*
X8645595Y-12101738D01*
X8636071Y-12054119D01*
X8626548Y-12025548D01*
X8617024Y-12006500D01*
X8597976Y-11977928D01*
X8588452Y-11968405D01*
X1897500Y-12526500D02*
X1997500Y-12426500D01*
X1897500Y-12326500D01*
X1797500Y-12426500D01*
X1897500Y-12526500D01*
X2340833Y-12383643D02*
X2340833Y-12516976D01*
X2293214Y-12307452D02*
X2245595Y-12450309D01*
X2369405Y-12450309D01*
X2445595Y-12497928D02*
X2455119Y-12507452D01*
X2445595Y-12516976D01*
X2436071Y-12507452D01*
X2445595Y-12497928D01*
X2445595Y-12516976D01*
X2578929Y-12316976D02*
X2597976Y-12316976D01*
X2617024Y-12326500D01*
X2626548Y-12336024D01*
X2636071Y-12355071D01*
X2645595Y-12393167D01*
X2645595Y-12440786D01*
X2636071Y-12478881D01*
X2626548Y-12497928D01*
X2617024Y-12507452D01*
X2597976Y-12516976D01*
X2578929Y-12516976D01*
X2559881Y-12507452D01*
X2550357Y-12497928D01*
X2540833Y-12478881D01*
X2531310Y-12440786D01*
X2531310Y-12393167D01*
X2540833Y-12355071D01*
X2550357Y-12336024D01*
X2559881Y-12326500D01*
X2578929Y-12316976D01*
X2769405Y-12316976D02*
X2788452Y-12316976D01*
X2807500Y-12326500D01*
X2817024Y-12336024D01*
X2826548Y-12355071D01*
X2836071Y-12393167D01*
X2836071Y-12440786D01*
X2826548Y-12478881D01*
X2817024Y-12497928D01*
X2807500Y-12507452D01*
X2788452Y-12516976D01*
X2769405Y-12516976D01*
X2750357Y-12507452D01*
X2740833Y-12497928D01*
X2731310Y-12478881D01*
X2721786Y-12440786D01*
X2721786Y-12393167D01*
X2731310Y-12355071D01*
X2740833Y-12336024D01*
X2750357Y-12326500D01*
X2769405Y-12316976D01*
X2959881Y-12316976D02*
X2978928Y-12316976D01*
X2997976Y-12326500D01*
X3007500Y-12336024D01*
X3017024Y-12355071D01*
X3026548Y-12393167D01*
X3026548Y-12440786D01*
X3017024Y-12478881D01*
X3007500Y-12497928D01*
X2997976Y-12507452D01*
X2978928Y-12516976D01*
X2959881Y-12516976D01*
X2940833Y-12507452D01*
X2931309Y-12497928D01*
X2921786Y-12478881D01*
X2912262Y-12440786D01*
X2912262Y-12393167D01*
X2921786Y-12355071D01*
X2931309Y-12336024D01*
X2940833Y-12326500D01*
X2959881Y-12316976D01*
X3112262Y-12516976D02*
X3112262Y-12383643D01*
X3112262Y-12402690D02*
X3121786Y-12393167D01*
X3140833Y-12383643D01*
X3169405Y-12383643D01*
X3188452Y-12393167D01*
X3197976Y-12412214D01*
X3197976Y-12516976D01*
X3197976Y-12412214D02*
X3207500Y-12393167D01*
X3226548Y-12383643D01*
X3255119Y-12383643D01*
X3274167Y-12393167D01*
X3283690Y-12412214D01*
X3283690Y-12516976D01*
X3378928Y-12516976D02*
X3378928Y-12383643D01*
X3378928Y-12402690D02*
X3388452Y-12393167D01*
X3407500Y-12383643D01*
X3436071Y-12383643D01*
X3455119Y-12393167D01*
X3464643Y-12412214D01*
X3464643Y-12516976D01*
X3464643Y-12412214D02*
X3474167Y-12393167D01*
X3493214Y-12383643D01*
X3521786Y-12383643D01*
X3540833Y-12393167D01*
X3550357Y-12412214D01*
X3550357Y-12516976D01*
X3940833Y-12307452D02*
X3769405Y-12564595D01*
X4197976Y-12316976D02*
X4217024Y-12316976D01*
X4236071Y-12326500D01*
X4245595Y-12336024D01*
X4255119Y-12355071D01*
X4264643Y-12393167D01*
X4264643Y-12440786D01*
X4255119Y-12478881D01*
X4245595Y-12497928D01*
X4236071Y-12507452D01*
X4217024Y-12516976D01*
X4197976Y-12516976D01*
X4178928Y-12507452D01*
X4169405Y-12497928D01*
X4159881Y-12478881D01*
X4150357Y-12440786D01*
X4150357Y-12393167D01*
X4159881Y-12355071D01*
X4169405Y-12336024D01*
X4178928Y-12326500D01*
X4197976Y-12316976D01*
X4350357Y-12497928D02*
X4359881Y-12507452D01*
X4350357Y-12516976D01*
X4340833Y-12507452D01*
X4350357Y-12497928D01*
X4350357Y-12516976D01*
X4550357Y-12516976D02*
X4436071Y-12516976D01*
X4493214Y-12516976D02*
X4493214Y-12316976D01*
X4474167Y-12345548D01*
X4455119Y-12364595D01*
X4436071Y-12374119D01*
X4731310Y-12316976D02*
X4636071Y-12316976D01*
X4626548Y-12412214D01*
X4636071Y-12402690D01*
X4655119Y-12393167D01*
X4702738Y-12393167D01*
X4721786Y-12402690D01*
X4731310Y-12412214D01*
X4740833Y-12431262D01*
X4740833Y-12478881D01*
X4731310Y-12497928D01*
X4721786Y-12507452D01*
X4702738Y-12516976D01*
X4655119Y-12516976D01*
X4636071Y-12507452D01*
X4626548Y-12497928D01*
X4807500Y-12316976D02*
X4940833Y-12316976D01*
X4855119Y-12516976D01*
X5112262Y-12316976D02*
X5017024Y-12316976D01*
X5007500Y-12412214D01*
X5017024Y-12402690D01*
X5036071Y-12393167D01*
X5083690Y-12393167D01*
X5102738Y-12402690D01*
X5112262Y-12412214D01*
X5121786Y-12431262D01*
X5121786Y-12478881D01*
X5112262Y-12497928D01*
X5102738Y-12507452D01*
X5083690Y-12516976D01*
X5036071Y-12516976D01*
X5017024Y-12507452D01*
X5007500Y-12497928D01*
X5197976Y-12316976D02*
X5197976Y-12355071D01*
X5274167Y-12316976D02*
X5274167Y-12355071D01*
X5569405Y-12593167D02*
X5559881Y-12583643D01*
X5540833Y-12555071D01*
X5531310Y-12536024D01*
X5521786Y-12507452D01*
X5512262Y-12459833D01*
X5512262Y-12421738D01*
X5521786Y-12374119D01*
X5531310Y-12345548D01*
X5540833Y-12326500D01*
X5559881Y-12297928D01*
X5569405Y-12288405D01*
X5750357Y-12516976D02*
X5636071Y-12516976D01*
X5693214Y-12516976D02*
X5693214Y-12316976D01*
X5674167Y-12345548D01*
X5655119Y-12364595D01*
X5636071Y-12374119D01*
X5988452Y-12516976D02*
X5988452Y-12316976D01*
X6074167Y-12516976D02*
X6074167Y-12412214D01*
X6064643Y-12393167D01*
X6045595Y-12383643D01*
X6017024Y-12383643D01*
X5997976Y-12393167D01*
X5988452Y-12402690D01*
X6197976Y-12516976D02*
X6178928Y-12507452D01*
X6169405Y-12497928D01*
X6159881Y-12478881D01*
X6159881Y-12421738D01*
X6169405Y-12402690D01*
X6178928Y-12393167D01*
X6197976Y-12383643D01*
X6226548Y-12383643D01*
X6245595Y-12393167D01*
X6255119Y-12402690D01*
X6264643Y-12421738D01*
X6264643Y-12478881D01*
X6255119Y-12497928D01*
X6245595Y-12507452D01*
X6226548Y-12516976D01*
X6197976Y-12516976D01*
X6378928Y-12516976D02*
X6359881Y-12507452D01*
X6350357Y-12488405D01*
X6350357Y-12316976D01*
X6531309Y-12507452D02*
X6512262Y-12516976D01*
X6474167Y-12516976D01*
X6455119Y-12507452D01*
X6445595Y-12488405D01*
X6445595Y-12412214D01*
X6455119Y-12393167D01*
X6474167Y-12383643D01*
X6512262Y-12383643D01*
X6531309Y-12393167D01*
X6540833Y-12412214D01*
X6540833Y-12431262D01*
X6445595Y-12450309D01*
X6607500Y-12593167D02*
X6617024Y-12583643D01*
X6636071Y-12555071D01*
X6645595Y-12536024D01*
X6655119Y-12507452D01*
X6664643Y-12459833D01*
X6664643Y-12421738D01*
X6655119Y-12374119D01*
X6645595Y-12345548D01*
X6636071Y-12326500D01*
X6617024Y-12297928D01*
X6607500Y-12288405D01*
X6969405Y-12593167D02*
X6959881Y-12583643D01*
X6940833Y-12555071D01*
X6931309Y-12536024D01*
X6921786Y-12507452D01*
X6912262Y-12459833D01*
X6912262Y-12421738D01*
X6921786Y-12374119D01*
X6931309Y-12345548D01*
X6940833Y-12326500D01*
X6959881Y-12297928D01*
X6969405Y-12288405D01*
X7045595Y-12383643D02*
X7045595Y-12516976D01*
X7045595Y-12402690D02*
X7055119Y-12393167D01*
X7074167Y-12383643D01*
X7102738Y-12383643D01*
X7121786Y-12393167D01*
X7131309Y-12412214D01*
X7131309Y-12516976D01*
X7255119Y-12516976D02*
X7236071Y-12507452D01*
X7226548Y-12497928D01*
X7217024Y-12478881D01*
X7217024Y-12421738D01*
X7226548Y-12402690D01*
X7236071Y-12393167D01*
X7255119Y-12383643D01*
X7283690Y-12383643D01*
X7302738Y-12393167D01*
X7312262Y-12402690D01*
X7321786Y-12421738D01*
X7321786Y-12478881D01*
X7312262Y-12497928D01*
X7302738Y-12507452D01*
X7283690Y-12516976D01*
X7255119Y-12516976D01*
X7378928Y-12383643D02*
X7455119Y-12383643D01*
X7407500Y-12316976D02*
X7407500Y-12488405D01*
X7417024Y-12507452D01*
X7436071Y-12516976D01*
X7455119Y-12516976D01*
X7674167Y-12383643D02*
X7674167Y-12583643D01*
X7674167Y-12393167D02*
X7693214Y-12383643D01*
X7731309Y-12383643D01*
X7750357Y-12393167D01*
X7759881Y-12402690D01*
X7769405Y-12421738D01*
X7769405Y-12478881D01*
X7759881Y-12497928D01*
X7750357Y-12507452D01*
X7731309Y-12516976D01*
X7693214Y-12516976D01*
X7674167Y-12507452D01*
X7883690Y-12516976D02*
X7864643Y-12507452D01*
X7855119Y-12488405D01*
X7855119Y-12316976D01*
X8045595Y-12516976D02*
X8045595Y-12412214D01*
X8036071Y-12393167D01*
X8017024Y-12383643D01*
X7978928Y-12383643D01*
X7959881Y-12393167D01*
X8045595Y-12507452D02*
X8026548Y-12516976D01*
X7978928Y-12516976D01*
X7959881Y-12507452D01*
X7950357Y-12488405D01*
X7950357Y-12469357D01*
X7959881Y-12450309D01*
X7978928Y-12440786D01*
X8026548Y-12440786D01*
X8045595Y-12431262D01*
X8112262Y-12383643D02*
X8188452Y-12383643D01*
X8140833Y-12316976D02*
X8140833Y-12488405D01*
X8150357Y-12507452D01*
X8169405Y-12516976D01*
X8188452Y-12516976D01*
X8331309Y-12507452D02*
X8312262Y-12516976D01*
X8274167Y-12516976D01*
X8255119Y-12507452D01*
X8245595Y-12488405D01*
X8245595Y-12412214D01*
X8255119Y-12393167D01*
X8274167Y-12383643D01*
X8312262Y-12383643D01*
X8331309Y-12393167D01*
X8340833Y-12412214D01*
X8340833Y-12431262D01*
X8245595Y-12450309D01*
X8512262Y-12516976D02*
X8512262Y-12316976D01*
X8512262Y-12507452D02*
X8493214Y-12516976D01*
X8455119Y-12516976D01*
X8436071Y-12507452D01*
X8426548Y-12497928D01*
X8417024Y-12478881D01*
X8417024Y-12421738D01*
X8426548Y-12402690D01*
X8436071Y-12393167D01*
X8455119Y-12383643D01*
X8493214Y-12383643D01*
X8512262Y-12393167D01*
X8588452Y-12593167D02*
X8597976Y-12583643D01*
X8617024Y-12555071D01*
X8626548Y-12536024D01*
X8636071Y-12507452D01*
X8645595Y-12459833D01*
X8645595Y-12421738D01*
X8636071Y-12374119D01*
X8626548Y-12345548D01*
X8617024Y-12326500D01*
X8597976Y-12297928D01*
X8588452Y-12288405D01*
M02*
